<svg xmlns="http://www.w3.org/2000/svg" xmlns:xlink="http://www.w3.org/1999/xlink" width="200" height="38" viewBox="0 0 200 38">
    <defs>
        <path id="z45y3av3ua" d="M0 0L200 0 200 37.768 0 37.768z"/>
    </defs>
    <g fill="none" fill-rule="evenodd">
        <g>
            <g transform="translate(-30 -29) translate(30 29)">
                <mask id="wg153kbr7b" fill="#fff">
                    <use xlink:href="#z45y3av3ua"/>
                </mask>
                <path fill="#000" d="M107.536 12.776c-3.198 0-5.745 1.236-7.367 3.574l-.227.327-.222-.33c-1.571-2.336-4.016-3.571-7.069-3.571-2.922 0-5.3 1.134-6.878 3.28l-.213.264-1.31-2.946-7.344-.01 1.971 4.432V37.17h7.144V23.426c0-2.953 1.539-4.717 4.117-4.717 2.547 0 4.067 1.764 4.067 4.717V37.17h7.144V23.426c0-2.953 1.539-4.717 4.116-4.717 2.547 0 4.068 1.764 4.068 4.717V37.17h7.143V22.428c0-5.864-3.587-9.652-9.14-9.652zm30.146 10.028l-.068-.332c-.554-2.7-2.551-4.311-5.344-4.311-2.823 0-4.839 1.611-5.392 4.31l-.068.333h10.872zm6.194-.843v5.979h-16.903l.108.357c.544 1.788 1.833 3.03 3.728 3.645 1.569.46 3.673.439 5.248-.048 1.43-.443 2.272-.92 2.272-.92l3.723 4.23c-2.364 1.608-5.548 2.564-8.55 2.564-7.943 0-13.28-5.022-13.28-12.496 0-7.24 5.067-12.496 12.048-12.496 6.035 0 10.263 3.346 11.606 9.185zm-76.161 3.31c0-3.426-2.416-5.913-5.743-5.913-3.328 0-5.744 2.487-5.744 5.914 0 3.427 2.416 5.914 5.744 5.914 3.327 0 5.743-2.487 5.743-5.914zm7.143 0c0 3.535-1.38 6.754-3.884 9.064-2.401 2.214-5.598 3.433-9.002 3.433-3.405 0-6.602-1.219-9.003-3.433-2.505-2.31-3.884-5.529-3.884-9.063 0-3.535 1.38-6.754 3.884-9.064 2.401-2.213 5.598-3.432 9.003-3.432 3.404 0 6.6 1.219 9.002 3.432 2.505 2.31 3.884 5.53 3.884 9.064zM40.606 7.488h-7.144v5.887h-3.4v5.934h3.4v10.005c0 5.507 2.572 7.857 8.6 7.857h3.423V31.23l-2.044-.032c-1.934 0-2.835-1.027-2.835-3.233v-8.658h4.975l2.615-5.934h-7.59V7.487zM18.63 25.022c-.152-3.287-2.567-5.664-5.743-5.664-3.328 0-5.744 2.487-5.744 5.914 0 3.427 2.416 5.914 5.744 5.914 3.178 0 5.593-2.377 5.743-5.652v-.512zm7.143 6.972l1.394 5.176h-6.434l-.913-3.315-.331.358c-2.12 2.293-4.99 3.555-8.08 3.555-3.006 0-5.832-1.215-7.956-3.421C1.226 32.035 0 28.812 0 25.272c0-3.54 1.226-6.763 3.453-9.075 2.124-2.206 4.95-3.421 7.955-3.421 2.947 0 5.696 1.14 7.742 3.211l.466.472v-3.085h6.157v18.62zM200 37.441h-8.014l-4.577-7.677c-3.059 2.11-6.24 3.172-9.526 3.172-.13 0-.26-.001-.39-.005-3.562-.09-6.75-1.445-9.466-3.291l-4.65 7.801h-8.015L177.682 0l8.602 14.412s-1.055.916-2.358 1.802c-.949.644-3.099 2.025-4.957-.638l-1.288-2.131-6.103 10.238c1.871 1.323 3.95 2.254 6.104 2.305 3.68.086 7.42-2.337 11.154-7.211h8.347c-1.485 2.386-3.012 4.473-4.578 6.259L200 37.44z" mask="url(#wg153kbr7b)"/>
            </g>
        </g>
    </g>
</svg>
