<?xml version="1.0" encoding="utf-8"?>
<!-- Generator: Adobe Illustrator 26.0.1, SVG Export Plug-In . SVG Version: 6.00 Build 0)  -->
<svg version="1.1" id="Layer_1" xmlns="http://www.w3.org/2000/svg" xmlns:xlink="http://www.w3.org/1999/xlink" x="0px" y="0px"
	 viewBox="0 0 216 216" style="enable-background:new 0 0 216 216;" xml:space="preserve">
<style type="text/css">
	.st0{fill:#41ae49;}
</style>
<g>
	<path class="st0" d="M-1435.81,20.1c3.27,0,6.54,0,9.81,0c2.33,0.45,4.68,0.84,7,1.36c22.51,5.04,39.59,25.39,40.39,48.42
		c0.32,9.24,0.12,18.49,0.1,27.74c0,1.18,0.32,1.55,1.51,1.51c2.59-0.09,5.19-0.04,7.78-0.02c3.39,0.02,4.86,1.47,4.86,4.82
		c0,28.19,0,56.38,0,84.58c0,3.35-1.49,4.85-4.82,4.85c-41.95,0-83.9,0-125.85,0c-3.25,0-4.79-1.51-4.79-4.72
		c-0.01-28.25-0.01-56.5,0-84.75c0-3.27,1.48-4.76,4.73-4.79c3.5-0.02,6.99-0.06,10.49,0.02c1.2,0.03,1.48-0.32,1.47-1.49
		c-0.05-7.56-0.02-15.11-0.03-22.67c-0.01-3.33,0.09-6.64,0.58-9.95c3.15-21.57,19.11-38.79,40.43-43.69
		C-1440.05,20.86-1437.85,20.85-1435.81,20.1z M-1430.84,99.11c10.09,0,20.18-0.03,30.27,0.03c1.35,0.01,1.8-0.25,1.79-1.71
		c-0.08-8.23-0.04-16.46-0.04-24.69c0-1.97-0.12-3.93-0.41-5.89c-2.49-16.88-19.85-29.38-36.59-26.32
		c-16.12,2.95-26.97,15.94-27,32.32c-0.01,8.17,0.03,16.34-0.04,24.52c-0.01,1.4,0.35,1.78,1.75,1.77
		C-1451.02,99.08-1440.93,99.11-1430.84,99.11z M-1432.99,176.1c0-0.01,0-0.03,0-0.04c2.48,0,4.96-0.08,7.44,0.03
		c1.37,0.06,1.42-0.47,1.18-1.56c-1.96-8.9-3.84-17.81-5.85-26.7c-0.29-1.29-0.02-1.67,1.21-2.09c6.16-2.08,9.45-8.67,7.53-14.8
		c-1.66-5.3-6.61-8.78-12.05-8.46c-5.71,0.34-10.12,4.24-11.23,9.93c-1.01,5.2,1.79,10.63,6.79,12.89c1.09,0.49,1.37,1.01,1.14,2.13
		c-0.46,2.2-0.79,4.43-1.17,6.65c-1.18,6.82-2.34,13.64-3.56,20.46c-0.21,1.16-0.14,1.69,1.3,1.6
		C-1437.84,176-1435.41,176.1-1432.99,176.1z"/>
</g>
<g>
	<path class="st0" d="M-1136.69,142.7v6.89c2.88-0.31,4.19-1.38,4.19-3.19v-0.13C-1132.49,144.57-1133.43,143.63-1136.69,142.7z"/>
	<path class="st0" d="M-1146.77,127.11v0.12c0,1.63,0.88,2.57,4.26,3.51v-6.76C-1145.58,124.23-1146.77,125.48-1146.77,127.11z"/>
	<path class="st0" d="M-1079.42,100.65c0-2.98-1.31-4.28-4.33-4.3c-2.31-0.01-4.62-0.06-6.93,0.02c-1.06,0.03-1.35-0.3-1.34-1.35
		c0.02-8.24,0.2-16.49-0.09-24.72c-0.71-20.52-15.93-38.65-35.99-43.14c-2.07-0.46-4.16-0.81-6.23-1.22c-2.91,0-5.83,0-8.74,0
		c-1.82,0.67-3.78,0.68-5.65,1.11c-19,4.36-33.22,19.71-36.03,38.93c-0.43,2.94-0.52,5.9-0.51,8.86c0.02,6.73-0.02,13.46,0.03,20.2
		c0.01,1.04-0.25,1.35-1.31,1.32c-3.11-0.08-6.23-0.04-9.34-0.02c-2.9,0.02-4.21,1.35-4.21,4.26c0,25.17,0,50.34,0,75.51
		c0,2.86,1.37,4.2,4.26,4.2c37.38,0,74.76,0,112.13,0c2.97,0,4.3-1.34,4.3-4.32C-1079.42,150.89-1079.42,125.77-1079.42,100.65z
		 M-1121.66,145.57c0,7.64-5.88,12.33-14.77,13.15c0,0,0,1.37,0,3.07c0,1.7-1.46,3.07-3.26,3.07c-1.8,0-3.26-1.4-3.26-3.13v-3.13
		c-4.33-0.44-8.62-1.66-12.43-3.53c-2.59-1.27-3.22-4.53-1.66-6.83c1.56-2.3,4.7-2.76,7.27-1.45c2.41,1.23,4.78,2.03,7.19,2.42
		v-7.51c-10.08-2.31-15.21-5.76-15.21-13.52v-0.13c0-7.39,5.38-12.52,14.96-13.21c0,0,0-0.8,0-1.78c0-0.98,1.46-1.78,3.26-1.78
		c1.8,0,3.25,0.84,3.25,1.88v1.88c3.18,0.35,6.05,1.16,8.67,2.33c2.63,1.18,3.39,4.43,1.98,6.75c-1.42,2.32-4.25,2.96-6.59,1.93
		c-1.45-0.64-2.93-1.14-4.37-1.49v7.26c9.95,2.32,14.96,5.88,14.96,13.65V145.57z M-1111.69,96.38c-8.99-0.05-17.98-0.03-26.97-0.03
		c-8.99,0-17.98-0.03-26.97,0.03c-1.25,0.01-1.57-0.33-1.56-1.58c0.06-7.28,0.02-14.56,0.03-21.84c0.02-14.6,9.69-26.17,24.06-28.8
		c14.91-2.73,30.38,8.41,32.6,23.45c0.26,1.75,0.36,3.49,0.36,5.25c0,7.33-0.04,14.66,0.04,22
		C-1110.09,96.16-1110.49,96.39-1111.69,96.38z"/>
</g>
<g>
	<g>
		<g id="Layer_2_00000090291016351862223710000000888413302244260500_">
			<g id="laptop_shopping_bag_00000049182461703439189520000003569086919057749654_">
				<path class="st0" d="M-754.41,164.13l-10.95-26.76V50.39c0-4.09-3.32-7.4-7.4-7.4h-138.07c-4.09,0-7.4,3.32-7.4,7.4v86.98
					l-10.95,26.76c-1.54,3.79,0.27,8.11,4.06,9.65c0.89,0.36,1.84,0.56,2.81,0.56h161.1c4.09,0,7.4-3.32,7.4-7.4
					C-753.85,165.97-754.03,165.02-754.41,164.13L-754.41,164.13z M-903.43,57.79h123.29v73.63h-123.29V57.79z"/>
			</g>
		</g>
	</g>
	<g>
		<path class="st0" d="M-816.81,98.47c-0.19,6.46-0.02,12.92-0.05,19.38c-0.03,5.29-3.74,9.12-9.05,9.15
			c-10.58,0.07-21.17,0.07-31.75,0c-5.25-0.04-9.02-3.94-9.05-9.19c-0.04-7.01-0.04-14.03,0-21.04c0.03-5.3,3.93-9.17,9.24-9.21
			c4.49-0.03,8.98-0.01,13.48-0.01c4.67,0,9.34,0,14.1,0c0.79-2.54,1.68-4.96,2.29-7.45c0.84-3.46-0.03-6.59-2.4-9.25
			c-5.66-6.35-15.26-4.61-18.68,3.38c-1.01,2.36-2.5,3.19-4.39,2.43c-1.93-0.77-2.49-2.59-1.54-4.94
			c3.23-7.95,11.56-12.43,19.9-10.69c8.26,1.72,14.15,9.04,13.76,17.62c-0.14,3.07-1.17,6.11-1.84,9.42
			C-818.37,89.98-816.67,93.57-816.81,98.47z M-840.19,110.42c-0.11-1.52,0.12-2.64,1.62-3.65c2.54-1.71,2.63-5.4,0.52-7.61
			c-2.19-2.29-5.79-2.24-7.84,0.1c-1.99,2.28-1.75,5.96,0.74,7.65c1.21,0.82,1.51,1.68,1.47,3c-0.08,2.21-0.03,4.42-0.01,6.63
			c0.01,1.14,0.31,2.2,1.67,2.2c1.37,0,1.87-0.95,1.85-2.24c-0.01-1.29,0-2.58,0-3.87C-840.18,111.9-840.13,111.16-840.19,110.42z"
			/>
	</g>
</g>
<g>
	<g>
		<path class="st0" d="M-531.81,71.13c1.33,0,2.65,0,3.97,0c0.95,0.18,1.9,0.34,2.83,0.55c9.12,2.04,16.04,10.29,16.36,19.61
			c0.13,3.74,0.05,7.49,0.04,11.23c0,0.48,0.13,0.63,0.61,0.61c1.05-0.03,2.1-0.02,3.15-0.01c1.37,0.01,1.97,0.6,1.97,1.95
			c0,11.42,0,22.84,0,34.26c0,1.36-0.6,1.97-1.95,1.97c-16.99,0-33.98,0-50.97,0c-1.32,0-1.94-0.61-1.94-1.91
			c0-11.44,0-22.88,0-34.33c0-1.32,0.6-1.93,1.91-1.94c1.42-0.01,2.83-0.02,4.25,0.01c0.48,0.01,0.6-0.13,0.6-0.6
			c-0.02-3.06-0.01-6.12-0.01-9.18c0-1.35,0.04-2.69,0.23-4.03c1.28-8.74,7.74-15.71,16.38-17.7
			C-533.52,71.44-532.63,71.43-531.81,71.13z M-529.79,103.13c4.09,0,8.17-0.01,12.26,0.01c0.55,0,0.73-0.1,0.72-0.69
			c-0.03-3.33-0.01-6.67-0.02-10c0-0.8-0.05-1.59-0.17-2.39c-1.01-6.84-8.04-11.9-14.82-10.66c-6.53,1.2-10.92,6.46-10.94,13.09
			c-0.01,3.31,0.01,6.62-0.01,9.93c0,0.57,0.14,0.72,0.71,0.72C-537.97,103.12-533.88,103.13-529.79,103.13z M-530.66,134.32
			c0-0.01,0-0.01,0-0.02c1,0,2.01-0.03,3.01,0.01c0.55,0.02,0.57-0.19,0.48-0.63c-0.79-3.6-1.56-7.21-2.37-10.81
			c-0.12-0.52-0.01-0.68,0.49-0.85c2.49-0.84,3.83-3.51,3.05-6c-0.67-2.15-2.68-3.56-4.88-3.43c-2.31,0.14-4.1,1.72-4.55,4.02
			c-0.41,2.11,0.72,4.31,2.75,5.22c0.44,0.2,0.56,0.41,0.46,0.86c-0.19,0.89-0.32,1.79-0.47,2.69c-0.48,2.76-0.95,5.53-1.44,8.29
			c-0.08,0.47-0.06,0.68,0.53,0.65C-532.63,134.27-531.64,134.32-530.66,134.32z"/>
	</g>
	<g>
		<path class="st0" d="M-476.58,110.26h-0.03v-73.5c0-2.96-0.47-5.81-1.97-8.4c-3.09-5.31-7.83-7.97-13.87-8.03
			c-11.88-0.12-23.77-0.04-35.65-0.03c-13.07,0.01-26.13,0.05-39.2,0.01c-6.56-0.01-11.78,2.26-15.03,8.25
			c-1.77,3.26-1.69,6.77-1.69,10.32c0.04,45.69,0.04,91.39,0.06,137.08c0,3.08-0.08,6.17,0.05,9.25
			c0.31,7.84,6.17,14.31,13.95,15.27c2.71,0.34,5.48,0.23,8.22,0.23c22.48,0.02,44.97,0.02,67.45,0c3.79,0,7.51-0.39,10.7-2.77
			c4.75-3.54,7.02-8.26,7.02-14.17C-476.59,159.27-476.58,134.76-476.58,110.26z M-531.4,196.33c-4.23,0-7.66-3.43-7.66-7.66
			c0-4.23,3.43-7.66,7.66-7.66s7.66,3.43,7.66,7.66C-523.74,192.9-527.17,196.33-531.4,196.33z M-487.48,175.12
			c-28.54-0.07-57.08-0.07-85.62-0.08c-0.49,0-0.98-0.06-1.56-0.1V37.15h88.93v6.66c0.01,43.12,0.02,86.24,0.06,129.36
			C-485.67,174.55-485.89,175.12-487.48,175.12z"/>
	</g>
</g>
<g>
	<path class="st0" d="M-257.53,81c-0.22-0.24-0.44-0.49-0.65-0.73c-1.32,0.32-3.08,0.24-3.82,1.07c-0.04,0.04-0.07,0.09-0.11,0.14
		c-0.16,0.26-0.25,0.65-0.27,1.08c-0.04,0.75,0.13,1.62,0.44,2.19c0.04,0.08,0.08,0.15,0.13,0.21c0.03,0.04,0.06,0.08,0.11,0.11
		c0.39,0.31,1.35,0.46,2.12,0.43c0.51-0.02,0.93-0.12,1.05-0.3C-257.79,84.07-257.82,82.43-257.53,81
		C-257.53,81-257.53,81-257.53,81C-257.53,81-257.53,81-257.53,81z"/>
	<path class="st0" d="M-263.91,93.61c2.07,0.36,3.64-0.07,4.65-1.23c0.51-0.58,0.87-1.34,1.09-2.29c0.04-0.19,0.08-0.38,0.11-0.59
		C-262.83,88.78-263.36,89.16-263.91,93.61z"/>
	<path class="st0" d="M-282.39,84.78C-282.39,84.78-282.39,84.78-282.39,84.78c0.14-0.15,0.24-0.37,0.32-0.63
		c0.29-0.98,0.18-2.51-0.33-3c0,0,0,0,0,0c0,0,0,0,0,0c-0.29-0.27-0.7-0.41-1.17-0.5c-0.87-0.16-1.98-0.13-3.02-0.28c0,0,0,0,0,0
		c0,0,0,0,0,0c0,1.35-0.02,2.16,0.01,2.97c0.01,0.56,0.08,1.12,0.17,2.26c0,0,0,0,0,0c0,0,0,0,0,0
		C-284.86,85.34-283.08,85.55-282.39,84.78C-282.39,84.78-282.39,84.78-282.39,84.78z"/>
	<path class="st0" d="M-277.09,76.46h9.89c0,0,0,0,0,0c0,0,0,0,0,0c-0.35-2.01-0.61-3.13-1.3-3.76c-0.16-0.14-0.33-0.26-0.54-0.35
		c-0.87-0.39-2.23-0.41-4.55-0.36c-0.82,0.01-1.44,0.14-1.92,0.44c-0.51,0.32-0.86,0.86-1.12,1.7
		C-276.82,74.74-276.97,75.5-277.09,76.46C-277.09,76.46-277.09,76.46-277.09,76.46C-277.09,76.46-277.09,76.46-277.09,76.46z"/>
	<path class="st0" d="M-267.28,89.48h-9.86c0,0,0,0,0,0c0,0,0,0,0,0c0.41,2.5,0.76,3.65,2.04,4.15c0.91,0.35,2.28,0.37,4.49,0.3
		c0.84-0.03,1.48-0.2,1.97-0.58C-267.83,92.73-267.44,91.53-267.28,89.48C-267.28,89.48-267.28,89.48-267.28,89.48
		C-267.28,89.48-267.28,89.48-267.28,89.48z"/>
	<path class="st0" d="M-286.33,89.64c0.13,0.56,0.29,1.06,0.49,1.5c0.47,1.06,1.15,1.77,2.09,2.18c0.29,0.12,0.6,0.22,0.94,0.28
		c0.72,0.14,1.54,0.16,2.51,0.05c-0.35-1.67-0.66-2.79-1.09-3.5C-282.19,88.85-283.44,88.93-286.33,89.64z"/>
	<path class="st0" d="M-266.09,82.84c0-0.5,0.02-1-0.09-1.42c-0.09-0.35-0.29-0.63-0.67-0.79c-0.24-0.1-0.55-0.16-0.97-0.15
		c-0.6,0.01-1.2,0.02-1.79,0.02c-2.27,0-4.55-0.06-6.82,0.08c-0.1,0.01-0.21,0.04-0.33,0.09c-0.6,0.25-1.31,0.99-1.4,1.53
		c-0.12,0.79-0.18,1.38-0.15,1.83c0.04,0.59,0.24,0.94,0.69,1.14c0.47,0.21,1.22,0.26,2.33,0.26c0.49,0,0.99,0,1.48,0
		c0.49,0,0.99,0,1.48,0c0.31,0,0.62,0,0.94-0.01c1.01-0.01,2.03-0.03,3.03,0.01c0.15,0.01,0.31,0.01,0.46,0.02
		c1.29,0.07,1.67-0.47,1.78-1.22c0.02-0.16,0.04-0.33,0.04-0.51c0-0.23,0-0.46-0.01-0.7C-266.09,82.95-266.09,82.89-266.09,82.84z"
		/>
	<path class="st0" d="M-258.27,76.42c0.1-0.02,0.19-0.03,0.3-0.05c-0.89-3.45-3.09-4.84-6.02-3.92c0.03,0.12,0.05,0.22,0.08,0.34
		C-262.95,76.97-262.71,77.12-258.27,76.42z"/>
	<path class="st0" d="M-280.3,72.26c-3.55-0.45-5.61,1.04-5.91,4.13c1.45,0.23,2.47,0.38,3.22,0.33
		C-281.36,76.61-281.04,75.53-280.3,72.26C-280.3,72.26-280.3,72.26-280.3,72.26C-280.3,72.26-280.3,72.26-280.3,72.26z"/>
	<path class="st0" d="M-177.95,118.56c0-0.58,0-1.15,0-1.72c0-1.42,0-2.85,0-4.27c0-1.57,0.03-3.64,0.35-5.8
		c1.92-13.16,11.57-23.59,24.58-26.58c0.66-0.15,1.25-0.23,1.73-0.3c0.25-0.04,0.59-0.08,0.72-0.12l0.96-0.35h1.06h4.86h0.57
		l0.56,0.11c0.35,0.07,0.7,0.13,1.05,0.2c0.56,0.1,1.14,0.22,1.73,0.33c0-8.47,0-16.95,0-25.42c0-6.31-3.53-9.83-9.82-9.83
		c-47.39-0.01-94.78,0-142.17,0c-6.81,0-10.2,3.39-10.2,10.19c0,27.57,0,55.15,0,82.72c0,7.15,3.3,10.46,10.44,10.46h70.59
		c11.59,0,23.17,0,34.75,0c0-7.1,0-14.2,0-21.3C-186.2,122.01-182.81,118.6-177.95,118.56L-177.95,118.56z M-253.93,89.02
		c-0.21,5.12-4.03,8.66-9.2,8.75c-3.05,0.05-6.1,0.01-9.15,0.01c-3.05,0-6.1,0.06-9.15-0.02c-5.01-0.12-8.78-3.71-8.98-8.72
		c-0.16-4.03-0.15-8.08,0-12.11c0.18-4.9,3.8-8.59,8.7-8.72c6.34-0.16,12.69-0.14,19.04,0c4.88,0.11,8.52,3.77,8.73,8.7
		C-253.76,80.94-253.76,84.98-253.93,89.02z M-164.43,61.65h1.98v4.14c0.61-0.71,2.52-2.81,3.69-4.14h2.4l-3.73,3.86l3.86,5.42
		h-2.41l-2.85-4.12l-0.98,0.94v3.18h-1.98V61.65z M-174.6,61.65h2.49c1.16,2.08,3.3,5.84,3.73,6.85h0.03c-0.1-0.97-0.1-2.58-0.1-4.1
		v-2.75h1.82v9.28H-169c-1-1.81-3.37-6.13-3.83-7.2h-0.03c0.07,0.81,0.09,2.72,0.09,4.38v2.82h-1.83V61.65z M-188.73,70.93h-4.19
		v-9.28h4.05c2.24,0,3.09,1.17,3.09,2.37c0,1.05-0.55,1.72-1.18,2.01c0.63,0.24,1.45,0.89,1.45,2.11
		C-185.51,69.74-186.75,70.93-188.73,70.93z M-182.04,68.79l-0.72,2.14h-1.97l3.15-9.28h2.52l3.29,9.28h-2.11l-0.76-2.14H-182.04z"
		/>
	<path class="st0" d="M-189.15,66.86h-1.8v2.52h1.81c1.08,0,1.57-0.45,1.57-1.29C-187.56,67.34-188.04,66.86-189.15,66.86z"/>
	<path class="st0" d="M-187.75,64.23c0-0.68-0.52-1.03-1.29-1.03h-1.91v2.11h1.85C-188.14,65.31-187.75,64.88-187.75,64.23z"/>
	<path class="st0" d="M-180.4,63.1c-0.23,0.91-0.69,2.37-1.22,4.04h2.54c-0.66-1.96-1.08-3.21-1.3-4.04H-180.4z"/>
	<path class="st0" d="M-113.16,126.89c0-1.66-0.73-2.38-2.41-2.39c-0.71,0-1.43-0.01-2.15-0.01c-0.57,0-1.14,0.01-1.71,0.02
		c-0.03,0-0.05,0-0.08,0c-0.52,0-0.67-0.19-0.67-0.75c0.01-4.58,0.11-9.16-0.05-13.74c-0.39-11.25-8.64-21.21-19.56-23.87
		c-0.15-0.04-0.29-0.08-0.44-0.11c-1.15-0.26-2.31-0.45-3.47-0.68c-1.62,0-3.24,0-4.86,0c-1.01,0.37-2.1,0.38-3.14,0.62
		c-10.56,2.43-18.47,10.96-20.03,21.64c-0.24,1.64-0.29,3.28-0.29,4.93c0.01,3.74-0.01,7.49,0.02,11.23c0,0.56-0.13,0.74-0.66,0.74
		c-0.02,0-0.04,0-0.07,0c-0.81-0.02-1.63-0.03-2.44-0.03c-0.92,0-1.83,0.01-2.75,0.01c-1.61,0.01-2.34,0.75-2.34,2.37
		c0,7.1,0,14.2,0,21.29c0,6.89,0,13.79,0,20.68c0,1.59,0.76,2.34,2.37,2.34c10.48,0,20.96,0,31.44,0c10.3,0,20.6,0,30.9,0
		c1.65,0,2.39-0.74,2.39-2.4C-113.16,154.82-113.16,140.86-113.16,126.89z M-145.78,148.65c0.99,4.4,1.93,8.82,2.9,13.22
		c0.11,0.51,0.1,0.77-0.48,0.77c-0.03,0-0.07,0-0.1,0c-0.5-0.02-1.01-0.03-1.51-0.03c-0.72,0-1.45,0.01-2.17,0.01
		c0,0.01,0,0.01,0,0.02c-0.71,0-1.42-0.02-2.13-0.02c-0.49,0-0.98,0.01-1.47,0.04c-0.05,0-0.1,0-0.14,0c-0.58,0-0.6-0.26-0.5-0.8
		c0.6-3.37,1.18-6.75,1.76-10.13c0.19-1.1,0.35-2.2,0.58-3.29c0.02-0.11,0.03-0.21,0.03-0.3c0-0.35-0.17-0.56-0.6-0.75
		c-2.48-1.12-3.86-3.81-3.36-6.38c0.55-2.82,2.73-4.75,5.56-4.92c0.11-0.01,0.23-0.01,0.34-0.01c2.56,0,4.84,1.69,5.63,4.2
		c0.62,1.97,0.14,4.04-1.1,5.53c-0.67,0.8-1.56,1.44-2.63,1.81C-145.79,147.82-145.93,148-145.78,148.65z M-131.08,124.52
		c-0.01,0-0.02,0-0.03,0c-2.61-0.02-5.22-0.02-7.83-0.02c-0.28,0-0.56,0-0.85,0c-2.1,0-4.21,0-6.31,0c-2.41,0-4.82,0-7.23,0
		c-2.59,0-5.18,0-7.77,0.02c-0.01,0-0.02,0-0.02,0c-0.68,0-0.85-0.19-0.85-0.88c0.03-4.05,0.01-8.1,0.02-12.14
		c0.01-8.12,5.39-14.55,13.37-16.01c0.85-0.16,1.7-0.23,2.54-0.23c2.16,0,4.28,0.49,6.24,1.36c4.78,2.13,8.56,6.58,9.34,11.9
		c0.14,0.97,0.2,1.94,0.2,2.92c0,4.08-0.02,8.15,0.02,12.23C-130.21,124.39-130.43,124.52-131.08,124.52z"/>
</g>
<g>
	<path class="st0" d="M138.03,117c0-0.37,0-0.74,0-1.12c-12.33,0-24.66,0-37,0c-0.32,0-0.65,0.04-0.96-0.03
		c-1.36-0.29-2.23-1.11-2.22-2.54c0.01-1.42,0.85-2.27,2.23-2.53c0.52-0.1,1.07-0.04,1.6-0.04c9.06,0,18.12,0,27.17,0
		c3.07,0,6.14,0,9.2,0c0.04-1.22,0.14-2.57,0.34-3.97c0.32-2.18,0.84-4.3,1.53-6.32c-3.79,0-7.59,0-11.38,0c0,0,0-0.01,0-0.01
		c-9.15,0-18.31,0.01-27.46,0c-2.1,0-3.24-0.89-3.27-2.47c-0.03-1.66,1.18-2.67,3.27-2.67c13.7,0,27.4,0,41.09,0
		c2.14-3.97,5.04-7.47,8.52-10.3c-7.37,0-14.75,0-22.12,0c-9.06,0-18.12,0-27.17,0c-0.48,0-0.97,0.04-1.44-0.05
		c-1.29-0.23-2.24-1.38-2.13-2.62c0.11-1.33,0.88-2.16,2.19-2.42c0.47-0.09,0.96-0.05,1.44-0.05c18.17,0,36.34,0,54.51,0
		c0.38,0,0.75-0.02,1.12,0.02c0.47,0.05,0.89,0.2,1.25,0.42c2.08-0.94,4.28-1.68,6.58-2.21c0.76-0.17,1.41-0.27,1.94-0.34
		c0.14-0.02,0.32-0.05,0.44-0.06l1.16-0.43h1.47h4.91h0.16c0-7.41,0-14.83,0-22.24c0-6.95-4.25-11.18-11.23-11.18
		c-23.69,0-47.39,0-71.08,0c-23.75,0-47.5,0-71.24,0c-6.89,0-11.14,4.23-11.14,11.1c-0.01,28.63-0.01,57.25,0,85.88
		c0,6.86,4.27,11.1,11.15,11.1c36.08,0,72.16,0,108.24,0c0-8.17,0-16.34,0-24.52C129.7,122.06,133.09,117.97,138.03,117z
		 M47.62,72.16c6.35-0.01,11.59,5.2,11.58,11.53c0,6.38-5.17,11.6-11.49,11.62c-6.46,0.02-11.64-5.14-11.66-11.61
		C36.04,77.37,41.25,72.17,47.62,72.16z M61.27,128.68c-9.1,0.2-18.21,0.18-27.31,0c-5.11-0.1-9.89-4.03-9.51-9.96
		c0.22-3.52-0.06-7.09,0.34-10.58c0.65-5.68,4.65-11.01,9.8-13.71c7.5,8.41,19.41,7.64,26.08-0.09c5.99,3.64,9.67,8.75,10.08,15.89
		c0.17,2.83-0.09,5.68,0.07,8.51C71.15,124.57,66.59,128.56,61.27,128.68z"/>
	<path class="st0" d="M205.69,127.42c0-1.68-0.74-2.4-2.43-2.41c-0.72,0-1.44-0.01-2.17-0.01c-0.58,0-1.15,0.01-1.73,0.02
		c-0.03,0-0.05,0-0.08,0c-0.53,0-0.68-0.2-0.67-0.76c0.01-4.63,0.11-9.26-0.05-13.88c-0.4-11.52-8.95-21.7-20.21-24.22
		c-1.11-0.25-2.22-0.44-3.34-0.65c-0.05-0.01-0.11-0.02-0.16-0.03c-1.64,0-3.27,0-4.91,0c-1.02,0.38-2.12,0.38-3.17,0.62
		c-5.97,1.37-11.09,4.67-14.73,9.2c-1.26,1.58-2.35,3.3-3.22,5.14c-1.11,2.33-1.89,4.86-2.28,7.51c-0.14,0.93-0.21,1.85-0.25,2.78
		c-0.03,0.73-0.04,1.46-0.04,2.19c0,0.98,0,1.96,0,2.95c0,2.8,0,5.6,0.02,8.39c0,0.56-0.13,0.74-0.67,0.74c-0.02,0-0.04,0-0.07,0
		c-0.82-0.02-1.65-0.03-2.47-0.03c-0.93,0-1.85,0.01-2.78,0.01c-1.63,0.01-2.36,0.76-2.36,2.39c0,8.17,0,16.34,0,24.51
		c0,5.96,0,11.92,0,17.88c0,1.61,0.77,2.36,2.39,2.36c10.55,0,21.1,0,31.65,0c10.44,0,20.88,0,31.31,0c1.67,0,2.41-0.75,2.41-2.43
		C205.69,155.63,205.69,141.53,205.69,127.42z M173.35,148.34c-0.62,0.21-0.75,0.4-0.61,1.05c1,4.45,1.95,8.9,2.92,13.36
		c0.11,0.52,0.1,0.78-0.49,0.78c-0.03,0-0.07,0-0.1,0c-0.51-0.02-1.02-0.03-1.53-0.03c-0.73,0-1.46,0.01-2.19,0.01
		c0,0.01,0,0.01,0,0.02c-0.72,0-1.44-0.02-2.16-0.02c-0.49,0-0.99,0.01-1.48,0.04c-0.05,0-0.1,0-0.14,0c-0.58,0-0.6-0.26-0.51-0.81
		c0.61-3.41,1.19-6.82,1.78-10.23c0.09-0.54,0.18-1.08,0.27-1.62c0.1-0.57,0.2-1.14,0.31-1.71c0.12-0.56-0.02-0.82-0.57-1.07
		c-2.5-1.13-3.9-3.85-3.4-6.45c0.55-2.85,2.76-4.8,5.62-4.97c0.12-0.01,0.23-0.01,0.35-0.01c1.32,0,2.57,0.45,3.58,1.23
		c0.96,0.74,1.71,1.77,2.1,3.01C178.07,144.01,176.43,147.3,173.35,148.34z M187.59,125.02c-0.01,0-0.02,0-0.03,0
		c-2.64-0.02-5.28-0.02-7.92-0.02c-1.55,0-3.09,0-4.64,0c-0.86,0-1.73,0-2.59,0c-2.43,0-4.87,0-7.3,0c-2.61,0-5.23,0-7.84,0.02
		c-0.01,0-0.02,0-0.02,0c-0.68,0-0.86-0.19-0.85-0.89c0.02-2.75,0.02-5.5,0.02-8.25c0-1.34,0-2.68,0-4.01
		c0-0.38,0.02-0.76,0.05-1.14c0.49-7.65,5.77-13.62,13.46-15.03c0.86-0.16,1.71-0.23,2.57-0.23c0.85,0,1.69,0.08,2.52,0.23
		c6.51,1.12,12.23,6.45,13.22,13.17c0.14,0.98,0.2,1.96,0.2,2.95c0,4.12-0.02,8.23,0.02,12.35
		C188.47,124.89,188.25,125.02,187.59,125.02z"/>
</g>
</svg>
