<?xml version="1.0" encoding="utf-8"?>
<!-- Generator: Adobe Illustrator 26.0.1, SVG Export Plug-In . SVG Version: 6.00 Build 0)  -->
<svg version="1.1" id="Layer_1" xmlns="http://www.w3.org/2000/svg" xmlns:xlink="http://www.w3.org/1999/xlink" x="0px" y="0px"
	 viewBox="0 0 216 216" style="enable-background:new 0 0 216 216;" xml:space="preserve">
<style type="text/css">
	.st0{fill:#41ae49;}
</style>
<g>
	<g>
		<g id="Layer_2_00000090291016351862223710000000888413302244260500_">
			<g id="laptop_shopping_bag_00000049182461703439189520000003569086919057749654_">
				<path class="st0" d="M195.38,164.13l-10.95-26.76V50.39c0-4.09-3.32-7.4-7.4-7.4H38.96c-4.09,0-7.4,3.32-7.4,7.4v86.98
					L20.6,164.13c-1.54,3.79,0.27,8.11,4.06,9.65c0.89,0.36,1.84,0.56,2.81,0.56h161.1c4.09,0,7.4-3.32,7.4-7.4
					C195.94,165.97,195.76,165.02,195.38,164.13L195.38,164.13z M46.36,57.79h123.29v73.63H46.36V57.79z"/>
			</g>
		</g>
	</g>
	<g>
		<path class="st0" d="M132.97,98.47c-0.19,6.46-0.02,12.92-0.05,19.38c-0.03,5.29-3.74,9.12-9.05,9.15
			c-10.58,0.07-21.17,0.07-31.75,0c-5.25-0.04-9.02-3.94-9.05-9.19c-0.04-7.01-0.04-14.03,0-21.04c0.03-5.3,3.93-9.17,9.24-9.21
			c4.49-0.03,8.98-0.01,13.48-0.01c4.67,0,9.34,0,14.1,0c0.79-2.54,1.68-4.96,2.29-7.45c0.84-3.46-0.03-6.59-2.4-9.25
			c-5.66-6.35-15.26-4.61-18.68,3.38c-1.01,2.36-2.5,3.19-4.39,2.43c-1.93-0.77-2.49-2.59-1.54-4.94
			c3.23-7.95,11.56-12.43,19.9-10.69c8.26,1.72,14.15,9.04,13.76,17.62c-0.14,3.07-1.17,6.11-1.84,9.42
			C131.42,89.98,133.11,93.57,132.97,98.47z M109.6,110.42c-0.11-1.52,0.12-2.64,1.62-3.65c2.54-1.71,2.63-5.4,0.52-7.61
			c-2.19-2.29-5.79-2.24-7.84,0.1c-1.99,2.28-1.75,5.96,0.74,7.65c1.21,0.82,1.51,1.68,1.47,3c-0.08,2.21-0.03,4.42-0.01,6.63
			c0.01,1.14,0.31,2.2,1.67,2.2c1.37,0,1.87-0.95,1.85-2.24c-0.01-1.29,0-2.58,0-3.87C109.61,111.9,109.66,111.16,109.6,110.42z"/>
	</g>
</g>
</svg>
