<?xml version="1.0" encoding="utf-8"?>
<!-- Generator: Adobe Illustrator 26.0.1, SVG Export Plug-In . SVG Version: 6.00 Build 0)  -->
<svg version="1.1" id="Layer_1" xmlns="http://www.w3.org/2000/svg" xmlns:xlink="http://www.w3.org/1999/xlink" x="0px" y="0px"
	 viewBox="0 0 216 216" style="enable-background:new 0 0 216 216;" xml:space="preserve">
<style type="text/css">
	.st0{fill:#41ae49;}
</style>
<g>
	<g>
		<path class="st0" d="M106.49,71.13c1.32,0,2.65,0,3.97,0c0.95,0.18,1.9,0.34,2.83,0.55c9.12,2.04,16.04,10.29,16.36,19.61
			c0.13,3.74,0.05,7.49,0.04,11.23c0,0.48,0.13,0.63,0.61,0.61c1.05-0.03,2.1-0.02,3.15-0.01c1.37,0.01,1.97,0.6,1.97,1.95
			c0,11.42,0,22.84,0,34.26c0,1.36-0.6,1.97-1.95,1.97c-16.99,0-33.98,0-50.97,0c-1.32,0-1.94-0.61-1.94-1.91
			c0-11.44,0-22.88,0-34.33c0-1.32,0.6-1.93,1.91-1.94c1.42-0.01,2.83-0.02,4.25,0.01c0.48,0.01,0.6-0.13,0.6-0.6
			c-0.02-3.06-0.01-6.12-0.01-9.18c0-1.35,0.04-2.69,0.23-4.03c1.28-8.74,7.74-15.71,16.38-17.7
			C104.78,71.44,105.66,71.43,106.49,71.13z M108.5,103.13c4.09,0,8.17-0.01,12.26,0.01c0.55,0,0.73-0.1,0.72-0.69
			c-0.03-3.33-0.01-6.67-0.02-10c0-0.8-0.05-1.59-0.17-2.39c-1.01-6.84-8.04-11.9-14.82-10.66c-6.53,1.2-10.92,6.46-10.94,13.09
			c-0.01,3.31,0.01,6.62-0.01,9.93c0,0.57,0.14,0.72,0.71,0.72C100.33,103.12,104.42,103.13,108.5,103.13z M107.64,134.32
			c0-0.01,0-0.01,0-0.02c1,0,2.01-0.03,3.01,0.01c0.55,0.02,0.57-0.19,0.48-0.63c-0.79-3.6-1.56-7.21-2.37-10.81
			c-0.12-0.52-0.01-0.68,0.49-0.85c2.49-0.84,3.83-3.51,3.05-6c-0.67-2.15-2.68-3.56-4.88-3.43c-2.31,0.14-4.1,1.72-4.55,4.02
			c-0.41,2.11,0.72,4.31,2.75,5.22c0.44,0.2,0.56,0.41,0.46,0.86c-0.19,0.89-0.32,1.79-0.47,2.69c-0.48,2.76-0.95,5.53-1.44,8.29
			c-0.08,0.47-0.06,0.68,0.53,0.65C105.67,134.27,106.65,134.32,107.64,134.32z"/>
	</g>
	<g>
		<path class="st0" d="M161.72,110.26h-0.03v-73.5c0-2.96-0.47-5.81-1.97-8.4c-3.09-5.31-7.83-7.97-13.87-8.03
			c-11.88-0.12-23.77-0.04-35.65-0.03c-13.07,0.01-26.13,0.05-39.2,0.01c-6.56-0.01-11.78,2.26-15.03,8.25
			c-1.77,3.26-1.69,6.77-1.69,10.32c0.04,45.69,0.04,91.39,0.06,137.08c0,3.08-0.08,6.17,0.05,9.25
			c0.31,7.84,6.17,14.31,13.95,15.27c2.71,0.34,5.48,0.23,8.22,0.23c22.48,0.02,44.97,0.02,67.45,0c3.79,0,7.51-0.39,10.7-2.77
			c4.75-3.54,7.02-8.26,7.02-14.17C161.71,159.27,161.72,134.76,161.72,110.26z M106.9,196.33c-4.23,0-7.66-3.43-7.66-7.66
			c0-4.23,3.43-7.66,7.66-7.66s7.66,3.43,7.66,7.66C114.56,192.9,111.13,196.33,106.9,196.33z M150.82,175.12
			c-28.54-0.07-57.08-0.07-85.62-0.08c-0.49,0-0.98-0.06-1.56-0.1V37.15h88.93v6.66c0.01,43.12,0.02,86.24,0.06,129.36
			C152.63,174.55,152.41,175.12,150.82,175.12z"/>
	</g>
</g>
</svg>
