<?xml version="1.0" encoding="utf-8"?>
<!-- Generator: Adobe Illustrator 26.0.1, SVG Export Plug-In . SVG Version: 6.00 Build 0)  -->
<svg version="1.1" id="Layer_1" xmlns="http://www.w3.org/2000/svg" xmlns:xlink="http://www.w3.org/1999/xlink" x="0px" y="0px"
	 viewBox="0 0 216 216" style="enable-background:new 0 0 216 216;" xml:space="preserve">
<style type="text/css">
	.st0{fill:#41ae49;}
</style>
<g>
	<path class="st0" d="M111.31,142.7v6.89c2.88-0.31,4.19-1.38,4.19-3.19v-0.13C115.51,144.57,114.57,143.63,111.31,142.7z"/>
	<path class="st0" d="M101.23,127.11v0.12c0,1.63,0.88,2.57,4.26,3.51v-6.76C102.42,124.23,101.23,125.48,101.23,127.11z"/>
	<path class="st0" d="M168.58,100.65c0-2.98-1.31-4.28-4.33-4.3c-2.31-0.01-4.62-0.06-6.93,0.02c-1.06,0.03-1.35-0.3-1.34-1.35
		c0.02-8.24,0.2-16.49-0.09-24.72c-0.71-20.52-15.93-38.65-35.99-43.14c-2.07-0.46-4.16-0.81-6.23-1.22c-2.91,0-5.83,0-8.74,0
		c-1.82,0.67-3.78,0.68-5.65,1.11c-19,4.36-33.22,19.71-36.03,38.93c-0.43,2.94-0.52,5.9-0.51,8.86c0.02,6.73-0.02,13.46,0.03,20.2
		c0.01,1.04-0.25,1.35-1.31,1.32c-3.11-0.08-6.23-0.04-9.34-0.02c-2.9,0.02-4.21,1.35-4.21,4.26c0,25.17,0,50.34,0,75.51
		c0,2.86,1.37,4.2,4.26,4.2c37.38,0,74.76,0,112.13,0c2.97,0,4.3-1.34,4.3-4.32C168.58,150.89,168.58,125.77,168.58,100.65z
		 M126.34,145.57c0,7.64-5.88,12.33-14.77,13.15c0,0,0,1.37,0,3.07c0,1.7-1.46,3.07-3.26,3.07c-1.8,0-3.26-1.4-3.26-3.13v-3.13
		c-4.33-0.44-8.62-1.66-12.43-3.53c-2.59-1.27-3.22-4.53-1.66-6.83c1.56-2.3,4.7-2.76,7.27-1.45c2.41,1.23,4.78,2.03,7.19,2.42
		v-7.51c-10.08-2.31-15.21-5.76-15.21-13.52v-0.13c0-7.39,5.38-12.52,14.96-13.21c0,0,0-0.8,0-1.78c0-0.98,1.46-1.78,3.26-1.78
		c1.8,0,3.25,0.84,3.25,1.88v1.88c3.18,0.35,6.05,1.16,8.67,2.33c2.63,1.18,3.39,4.43,1.98,6.75c-1.42,2.32-4.25,2.96-6.59,1.93
		c-1.45-0.64-2.93-1.14-4.37-1.49v7.26c9.95,2.32,14.96,5.88,14.96,13.65V145.57z M136.31,96.38c-8.99-0.05-17.98-0.03-26.97-0.03
		c-8.99,0-17.98-0.03-26.97,0.03c-1.25,0.01-1.57-0.33-1.56-1.58c0.06-7.28,0.02-14.56,0.03-21.84c0.02-14.6,9.69-26.17,24.06-28.8
		c14.91-2.73,30.38,8.41,32.6,23.45c0.26,1.75,0.36,3.49,0.36,5.25c0,7.33-0.04,14.66,0.04,22
		C137.91,96.16,137.51,96.39,136.31,96.38z"/>
</g>
</svg>
