<?xml version="1.0" encoding="utf-8"?>
<!-- Generator: Adobe Illustrator 26.0.1, SVG Export Plug-In . SVG Version: 6.00 Build 0)  -->
<svg version="1.1" id="Layer_1" xmlns="http://www.w3.org/2000/svg" xmlns:xlink="http://www.w3.org/1999/xlink" x="0px" y="0px"
	 viewBox="0 0 216 216" style="enable-background:new 0 0 216 216;" xml:space="preserve">
<style type="text/css">
	.st0{fill:#FFF;}
</style>
<g>
	<path class="st0" d="M104.28,20.1c3.27,0,6.54,0,9.81,0c2.33,0.45,4.68,0.84,7,1.36c22.51,5.04,39.59,25.39,40.39,48.42
		c0.32,9.24,0.12,18.49,0.1,27.74c0,1.18,0.32,1.55,1.51,1.51c2.59-0.09,5.19-0.04,7.78-0.02c3.39,0.02,4.86,1.47,4.86,4.82
		c0,28.19,0,56.38,0,84.58c0,3.35-1.49,4.85-4.82,4.85c-41.95,0-83.9,0-125.85,0c-3.25,0-4.79-1.51-4.79-4.72
		c-0.01-28.25-0.01-56.5,0-84.75c0-3.27,1.48-4.76,4.73-4.79c3.5-0.02,6.99-0.06,10.49,0.02c1.2,0.03,1.48-0.32,1.47-1.49
		c-0.05-7.56-0.02-15.11-0.03-22.67c-0.01-3.33,0.09-6.64,0.58-9.95c3.15-21.57,19.11-38.79,40.43-43.69
		C100.04,20.86,102.23,20.85,104.28,20.1z M109.24,99.11c10.09,0,20.18-0.03,30.27,0.03c1.35,0.01,1.8-0.25,1.79-1.71
		c-0.08-8.23-0.04-16.46-0.04-24.69c0-1.97-0.12-3.93-0.41-5.89c-2.49-16.88-19.85-29.38-36.59-26.32
		c-16.12,2.95-26.97,15.94-27,32.32c-0.01,8.17,0.03,16.34-0.04,24.52c-0.01,1.4,0.35,1.78,1.75,1.77
		C89.06,99.08,99.15,99.11,109.24,99.11z M107.1,176.1c0-0.01,0-0.03,0-0.04c2.48,0,4.96-0.08,7.44,0.03
		c1.37,0.06,1.42-0.47,1.18-1.56c-1.96-8.9-3.84-17.81-5.85-26.7c-0.29-1.29-0.02-1.67,1.21-2.09c6.16-2.08,9.45-8.67,7.53-14.8
		c-1.66-5.3-6.61-8.78-12.05-8.46c-5.71,0.34-10.12,4.24-11.23,9.93c-1.01,5.2,1.79,10.63,6.79,12.89c1.09,0.49,1.37,1.01,1.14,2.13
		c-0.46,2.2-0.79,4.43-1.17,6.65c-1.18,6.82-2.34,13.64-3.56,20.46c-0.21,1.16-0.14,1.69,1.3,1.6
		C102.25,176,104.68,176.1,107.1,176.1z"/>
</g>
</svg>
