<?xml version="1.0" encoding="utf-8"?>
<!-- Generator: Adobe Illustrator 26.0.1, SVG Export Plug-In . SVG Version: 6.00 Build 0)  -->
<svg version="1.1" id="Layer_1" xmlns="http://www.w3.org/2000/svg" xmlns:xlink="http://www.w3.org/1999/xlink" x="0px" y="0px"
	 viewBox="0 0 216 216" style="enable-background:new 0 0 216 216;" xml:space="preserve">
<style type="text/css">
	.st0{fill:#FFF;}
</style>
<g>
	<path class="st0" d="M58.04,81c-0.22-0.24-0.44-0.49-0.65-0.73c-1.32,0.32-3.08,0.24-3.82,1.07c-0.04,0.04-0.07,0.09-0.11,0.14
		c-0.16,0.26-0.25,0.65-0.27,1.08c-0.04,0.75,0.13,1.62,0.44,2.19c0.04,0.08,0.08,0.15,0.13,0.21c0.03,0.04,0.06,0.08,0.11,0.11
		c0.39,0.31,1.35,0.46,2.12,0.43c0.51-0.02,0.93-0.12,1.05-0.3C57.79,84.07,57.76,82.43,58.04,81C58.04,81,58.04,81,58.04,81
		C58.04,81,58.04,81,58.04,81z"/>
	<path class="st0" d="M51.67,93.61c2.07,0.36,3.64-0.07,4.65-1.23c0.51-0.58,0.87-1.34,1.09-2.29c0.04-0.19,0.08-0.38,0.11-0.59
		C52.75,88.78,52.21,89.16,51.67,93.61z"/>
	<path class="st0" d="M33.19,84.78C33.19,84.78,33.19,84.78,33.19,84.78c0.14-0.15,0.24-0.37,0.32-0.63c0.29-0.98,0.18-2.51-0.33-3
		c0,0,0,0,0,0c0,0,0,0,0,0c-0.29-0.27-0.7-0.41-1.17-0.5c-0.87-0.16-1.98-0.13-3.02-0.28c0,0,0,0,0,0c0,0,0,0,0,0
		c0,1.35-0.02,2.16,0.01,2.97c0.01,0.56,0.08,1.12,0.17,2.26c0,0,0,0,0,0c0,0,0,0,0,0C30.71,85.34,32.49,85.55,33.19,84.78
		C33.19,84.78,33.19,84.78,33.19,84.78z"/>
	<path class="st0" d="M38.49,76.46h9.89c0,0,0,0,0,0c0,0,0,0,0,0c-0.35-2.01-0.61-3.13-1.3-3.76c-0.16-0.14-0.33-0.26-0.54-0.35
		c-0.87-0.39-2.23-0.41-4.55-0.36c-0.82,0.01-1.44,0.14-1.92,0.44c-0.51,0.32-0.86,0.86-1.12,1.7
		C38.75,74.74,38.61,75.5,38.49,76.46C38.48,76.46,38.49,76.46,38.49,76.46C38.49,76.46,38.49,76.46,38.49,76.46z"/>
	<path class="st0" d="M48.29,89.48h-9.86c0,0,0,0,0,0c0,0,0,0,0,0c0.41,2.5,0.76,3.65,2.04,4.15c0.91,0.35,2.28,0.37,4.49,0.3
		c0.84-0.03,1.48-0.2,1.97-0.58C47.75,92.73,48.13,91.53,48.29,89.48C48.29,89.48,48.29,89.48,48.29,89.48
		C48.29,89.48,48.29,89.48,48.29,89.48z"/>
	<path class="st0" d="M29.25,89.64c0.13,0.56,0.29,1.06,0.49,1.5c0.47,1.06,1.15,1.77,2.09,2.18c0.29,0.12,0.6,0.22,0.94,0.28
		c0.72,0.14,1.54,0.16,2.51,0.05c-0.35-1.67-0.66-2.79-1.09-3.5C33.38,88.85,32.13,88.93,29.25,89.64z"/>
	<path class="st0" d="M49.48,82.84c0-0.5,0.02-1-0.09-1.42c-0.09-0.35-0.29-0.63-0.67-0.79c-0.24-0.1-0.55-0.16-0.97-0.15
		c-0.6,0.01-1.2,0.02-1.79,0.02c-2.27,0-4.55-0.06-6.82,0.08c-0.1,0.01-0.21,0.04-0.33,0.09c-0.6,0.25-1.31,0.99-1.4,1.53
		c-0.12,0.79-0.18,1.38-0.15,1.83c0.04,0.59,0.24,0.94,0.69,1.14c0.47,0.21,1.22,0.26,2.33,0.26c0.49,0,0.99,0,1.48,0
		c0.49,0,0.99,0,1.48,0c0.31,0,0.62,0,0.94-0.01c1.01-0.01,2.03-0.03,3.03,0.01c0.15,0.01,0.31,0.01,0.46,0.02
		c1.29,0.07,1.67-0.47,1.78-1.22c0.02-0.16,0.04-0.33,0.04-0.51c0-0.23,0-0.46-0.01-0.7C49.48,82.95,49.48,82.89,49.48,82.84z"/>
	<path class="st0" d="M57.3,76.42c0.1-0.02,0.19-0.03,0.3-0.05c-0.89-3.45-3.09-4.84-6.02-3.92c0.03,0.12,0.05,0.22,0.08,0.34
		C52.62,76.97,52.87,77.12,57.3,76.42z"/>
	<path class="st0" d="M35.27,72.26c-3.55-0.45-5.61,1.04-5.91,4.13c1.45,0.23,2.47,0.38,3.22,0.33
		C34.21,76.61,34.53,75.53,35.27,72.26C35.28,72.26,35.27,72.26,35.27,72.26C35.27,72.26,35.27,72.26,35.27,72.26z"/>
	<path class="st0" d="M137.62,118.56c0-0.58,0-1.15,0-1.72c0-1.42,0-2.85,0-4.27c0-1.57,0.03-3.64,0.35-5.8
		c1.92-13.16,11.57-23.59,24.58-26.58c0.66-0.15,1.25-0.23,1.73-0.3c0.25-0.04,0.59-0.08,0.72-0.12l0.96-0.35h1.06h4.86h0.57
		l0.56,0.11c0.35,0.07,0.7,0.13,1.05,0.2c0.56,0.1,1.14,0.22,1.73,0.33c0-8.47,0-16.95,0-25.42c0-6.31-3.53-9.83-9.82-9.83
		c-47.39-0.01-94.78,0-142.17,0c-6.81,0-10.2,3.39-10.2,10.19c0,27.57,0,55.15,0,82.72c0,7.15,3.3,10.46,10.44,10.46h70.59
		c11.59,0,23.17,0,34.75,0c0-7.1,0-14.2,0-21.3C129.37,122.01,132.76,118.6,137.62,118.56L137.62,118.56z M61.65,89.02
		c-0.21,5.12-4.03,8.66-9.2,8.75c-3.05,0.05-6.1,0.01-9.15,0.01c-3.05,0-6.1,0.06-9.15-0.02c-5.01-0.12-8.78-3.71-8.98-8.72
		c-0.16-4.03-0.15-8.08,0-12.11c0.18-4.9,3.8-8.59,8.7-8.72c6.34-0.16,12.69-0.14,19.04,0c4.88,0.11,8.52,3.77,8.73,8.7
		C61.81,80.94,61.81,84.98,61.65,89.02z M151.15,61.65h1.98v4.14c0.61-0.71,2.52-2.81,3.69-4.14h2.4l-3.73,3.86l3.86,5.42h-2.41
		l-2.85-4.12l-0.98,0.94v3.18h-1.98V61.65z M140.98,61.65h2.49c1.16,2.08,3.3,5.84,3.73,6.85h0.03c-0.1-0.97-0.1-2.58-0.1-4.1v-2.75
		h1.82v9.28h-2.36c-1-1.81-3.37-6.13-3.83-7.2h-0.03c0.07,0.81,0.09,2.72,0.09,4.38v2.82h-1.83V61.65z M126.85,70.93h-4.19v-9.28
		h4.05c2.24,0,3.09,1.17,3.09,2.37c0,1.05-0.55,1.72-1.18,2.01c0.63,0.24,1.45,0.89,1.45,2.11
		C130.07,69.74,128.82,70.93,126.85,70.93z M133.53,68.79l-0.72,2.14h-1.97l3.15-9.28h2.52l3.29,9.28h-2.11l-0.76-2.14H133.53z"/>
	<path class="st0" d="M126.43,66.86h-1.8v2.52h1.81c1.08,0,1.57-0.45,1.57-1.29C128.01,67.34,127.53,66.86,126.43,66.86z"/>
	<path class="st0" d="M127.83,64.23c0-0.68-0.52-1.03-1.29-1.03h-1.91v2.11h1.85C127.43,65.31,127.83,64.88,127.83,64.23z"/>
	<path class="st0" d="M135.17,63.1c-0.23,0.91-0.69,2.37-1.22,4.04h2.54c-0.66-1.96-1.08-3.21-1.3-4.04H135.17z"/>
	<path class="st0" d="M202.41,126.89c0-1.66-0.73-2.38-2.41-2.39c-0.71,0-1.43-0.01-2.15-0.01c-0.57,0-1.14,0.01-1.71,0.02
		c-0.03,0-0.05,0-0.08,0c-0.52,0-0.67-0.19-0.67-0.75c0.01-4.58,0.11-9.16-0.05-13.74c-0.39-11.25-8.64-21.21-19.56-23.87
		c-0.15-0.04-0.29-0.08-0.44-0.11c-1.15-0.26-2.31-0.45-3.47-0.68c-1.62,0-3.24,0-4.86,0c-1.01,0.37-2.1,0.38-3.14,0.62
		c-10.56,2.43-18.47,10.96-20.03,21.64c-0.24,1.64-0.29,3.28-0.29,4.93c0.01,3.74-0.01,7.49,0.02,11.23c0,0.56-0.13,0.74-0.66,0.74
		c-0.02,0-0.04,0-0.07,0c-0.81-0.02-1.63-0.03-2.44-0.03c-0.92,0-1.83,0.01-2.75,0.01c-1.61,0.01-2.34,0.75-2.34,2.37
		c0,7.1,0,14.2,0,21.29c0,6.89,0,13.79,0,20.68c0,1.59,0.76,2.34,2.37,2.34c10.48,0,20.96,0,31.44,0c10.3,0,20.6,0,30.9,0
		c1.65,0,2.39-0.74,2.39-2.4C202.41,154.82,202.41,140.86,202.41,126.89z M169.79,148.65c0.99,4.4,1.93,8.82,2.9,13.22
		c0.11,0.51,0.1,0.77-0.48,0.77c-0.03,0-0.07,0-0.1,0c-0.5-0.02-1.01-0.03-1.51-0.03c-0.72,0-1.45,0.01-2.17,0.01
		c0,0.01,0,0.01,0,0.02c-0.71,0-1.42-0.02-2.13-0.02c-0.49,0-0.98,0.01-1.47,0.04c-0.05,0-0.1,0-0.14,0c-0.58,0-0.6-0.26-0.5-0.8
		c0.6-3.37,1.18-6.75,1.76-10.13c0.19-1.1,0.35-2.2,0.58-3.29c0.02-0.11,0.03-0.21,0.03-0.3c0-0.35-0.17-0.56-0.6-0.75
		c-2.48-1.12-3.86-3.81-3.36-6.38c0.55-2.82,2.73-4.75,5.56-4.92c0.11-0.01,0.23-0.01,0.34-0.01c2.56,0,4.84,1.69,5.63,4.2
		c0.62,1.97,0.14,4.04-1.1,5.53c-0.67,0.8-1.56,1.44-2.63,1.81C169.78,147.82,169.65,148,169.79,148.65z M184.5,124.52
		c-0.01,0-0.02,0-0.03,0c-2.61-0.02-5.22-0.02-7.83-0.02c-0.28,0-0.56,0-0.85,0c-2.1,0-4.21,0-6.31,0c-2.41,0-4.82,0-7.23,0
		c-2.59,0-5.18,0-7.77,0.02c-0.01,0-0.02,0-0.02,0c-0.68,0-0.85-0.19-0.85-0.88c0.03-4.05,0.01-8.1,0.02-12.14
		c0.01-8.12,5.39-14.55,13.37-16.01c0.85-0.16,1.7-0.23,2.54-0.23c2.16,0,4.28,0.49,6.24,1.36c4.78,2.13,8.56,6.58,9.34,11.9
		c0.14,0.97,0.2,1.94,0.2,2.92c0,4.08-0.02,8.15,0.02,12.23C185.36,124.39,185.15,124.52,184.5,124.52z"/>
</g>
</svg>
