<?xml version="1.0" encoding="utf-8"?>
<!-- Generator: Adobe Illustrator 26.0.1, SVG Export Plug-In . SVG Version: 6.00 Build 0)  -->
<svg version="1.1" id="Layer_1" xmlns="http://www.w3.org/2000/svg" xmlns:xlink="http://www.w3.org/1999/xlink" x="0px" y="0px"
	 viewBox="0 0 571.19 366.81" style="enable-background:new 0 0 571.19 366.81;" xml:space="preserve">
<style type="text/css">
	.st0{fill:url(#SVGID_1_);}
	.st1{opacity:0.6;fill:url(#SVGID_00000080915022491926553190000002548899461151346320_);enable-background:new    ;}
	.st2{opacity:0.4;}
	.st3{fill:#004B9C;}
	.st4{fill:#FFFFFF;}
	.st5{fill:url(#SVGID_00000108989347779418514210000003542440617752598960_);}
	.st6{fill:#070A10;}
	.st7{fill:url(#SVGID_00000033367275503908783840000008403960845195036820_);}
	.st8{fill:url(#SVGID_00000023960656644936359820000010941974762093030534_);}
	.st9{fill:url(#SVGID_00000055687624184997119690000001027814197163667600_);}
	.st10{fill:url(#SVGID_00000033342780122223733220000005758956666640803459_);}
	.st11{fill:url(#SVGID_00000033327935063120096550000010796295970139628676_);}
	.st12{fill:url(#SVGID_00000022529952191827816510000013509961076900809146_);}
	.st13{fill:url(#SVGID_00000136404660135072417960000013802891062418740156_);}
	.st14{fill:url(#SVGID_00000153695026658765095260000003547885367867652505_);}
	.st15{fill:url(#SVGID_00000154415139119338536350000000012682194784391055_);}
	.st16{fill:url(#SVGID_00000013164479754351470470000010086505283120937395_);}
	.st17{fill:url(#SVGID_00000154420483961708049320000000209807668847332517_);}
	.st18{fill:url(#SVGID_00000156586014327503086950000014793739228733427641_);}
	.st19{fill:url(#SVGID_00000137100662671650562660000005984525268138253215_);}
	.st20{fill:url(#SVGID_00000124866782847445180230000002001309445659413176_);}
	.st21{fill:url(#SVGID_00000183931006195801575680000004483876279980849282_);}
	.st22{fill:url(#SVGID_00000078730185671477493830000006082800939879336585_);}
	.st23{fill:#50AE95;}
	.st24{fill:#FEFEFE;}
	.st25{fill:#F6921A;}
	.st26{fill:#FEFEFD;}
	.st27{fill:#8C8C8C;}
	.st28{fill:#343434;}
	.st29{fill:#393939;}
	.st30{fill:#141414;}
	.st31{fill:#3B3B3B;}
</style>
<g>
	<g>
		<g>
			
				<linearGradient id="SVGID_1_" gradientUnits="userSpaceOnUse" x1="14.72" y1="183.935" x2="557.79" y2="183.935" gradientTransform="matrix(1 0 0 -1 0 368)">
				<stop  offset="0" style="stop-color:#009280"/>
				<stop  offset="0.5" style="stop-color:#0060A2"/>
				<stop  offset="1" style="stop-color:#009344"/>
			</linearGradient>
			<path class="st0" d="M527.56,347.48H44.95c-16.7,0-30.23-13.53-30.23-30.23V50.88c0-16.7,13.53-30.23,30.23-30.23h482.61
				c16.7,0,30.23,13.53,30.23,30.23v266.37C557.79,333.95,544.25,347.48,527.56,347.48z"/>
			
				<linearGradient id="SVGID_00000065760911394074567900000010846124765336442299_" gradientUnits="userSpaceOnUse" x1="196.0862" y1="460.3317" x2="166.8688" y2="38.7702" gradientTransform="matrix(1 0 0 -1 0 368)">
				<stop  offset="0" style="stop-color:#FFFFFF"/>
				<stop  offset="0.0709" style="stop-color:#D4D4D4"/>
				<stop  offset="0.1641" style="stop-color:#A3A3A3"/>
				<stop  offset="0.2621" style="stop-color:#777777"/>
				<stop  offset="0.3634" style="stop-color:#525252"/>
				<stop  offset="0.4686" style="stop-color:#343434"/>
				<stop  offset="0.5793" style="stop-color:#1D1D1D"/>
				<stop  offset="0.6976" style="stop-color:#0D0D0D"/>
				<stop  offset="0.8291" style="stop-color:#030303"/>
				<stop  offset="1" style="stop-color:#000000"/>
			</linearGradient>
			<path style="opacity:0.6;fill:url(#SVGID_00000065760911394074567900000010846124765336442299_);enable-background:new    ;" d="
				M359.77,20.65H44.95c-16.7,0-30.23,13.53-30.23,30.23v266.37c0,16.7,13.53,30.23,30.23,30.23h127.7L359.77,20.65z"/>
			<g class="st2">
				<path class="st3" d="M79.03,216.16v24.17h-3.45v-20.72h-4.15v-3.45H79.03z"/>
				<path class="st3" d="M89.74,219.61v3.12h-3.46v-3.12c0-0.47,0.09-0.92,0.27-1.34s0.43-0.79,0.74-1.1
					c0.31-0.31,0.68-0.56,1.1-0.74c0.42-0.18,0.87-0.28,1.34-0.28h10.94c0.47,0,0.92,0.09,1.34,0.28s0.79,0.43,1.1,0.74
					c0.31,0.31,0.56,0.67,0.74,1.1c0.19,0.42,0.28,0.87,0.28,1.34v4.42c0,0.47-0.04,0.89-0.13,1.26s-0.23,0.7-0.43,1
					s-0.45,0.56-0.75,0.8s-0.67,0.46-1.11,0.67l-11.97,5.61v3.49h11.38v-3.1h3.46v6.56h-18.3v-6.35c0-0.47,0.05-0.89,0.14-1.26
					c0.1-0.37,0.24-0.7,0.43-1c0.19-0.29,0.44-0.56,0.75-0.8s0.67-0.46,1.09-0.66l11.98-5.63v-5.01L89.74,219.61L89.74,219.61z"/>
				<path class="st3" d="M110.09,233.02h3.39v1.28c0,0.91,0.21,1.58,0.61,2.01s1.07,0.64,1.99,0.64h6.96c0.92,0,1.58-0.21,1.99-0.64
					c0.41-0.43,0.61-1.09,0.61-2.01v-1.87c0-0.92-0.2-1.59-0.61-2.01c-0.4-0.42-1.07-0.62-1.99-0.62h-7.15v-3.37h7.05
					c0.84-0.04,1.45-0.26,1.81-0.68c0.37-0.42,0.55-1.07,0.55-1.95v-1.58c0-0.92-0.21-1.6-0.61-2.02c-0.41-0.43-1.07-0.64-1.98-0.64
					h-6.29c-0.91,0-1.57,0.21-1.97,0.64c-0.41,0.43-0.61,1.1-0.61,2.02v1.28h-3.39v-1.45c0-3.92,1.96-5.88,5.87-5.88h6.49
					c1.99,0,3.46,0.48,4.43,1.45c0.96,0.97,1.44,2.44,1.44,4.43v0.44c0,1.36-0.24,2.48-0.72,3.36c-0.48,0.88-1.17,1.54-2.08,1.96
					c1.02,0.3,1.8,0.91,2.34,1.82s0.81,2.12,0.81,3.62v1.21c0,3.91-1.96,5.86-5.87,5.86h-7.18c-3.92,0-5.88-1.95-5.88-5.86
					L110.09,233.02L110.09,233.02z"/>
				<path class="st3" d="M132.82,232.01l11.92-15.84h4.06v15.84h3.25v3.32h-3.25v5.01h-3.46v-5.01h-12.52L132.82,232.01
					L132.82,232.01z M145.34,232.01v-11.66l-8.76,11.66H145.34z"/>
				<path class="st3" d="M196.84,234.47c-0.03,1.97-0.53,3.43-1.48,4.41c-0.95,0.97-2.42,1.46-4.38,1.46h-6.49
					c-3.92,0-5.88-1.95-5.88-5.86v-1.45H182v1.28c0,0.91,0.2,1.58,0.61,2.01s1.07,0.64,1.99,0.64h6.27c0.92,0,1.58-0.21,1.99-0.64
					c0.4-0.43,0.61-1.09,0.61-2.01v-3.25c0-0.91-0.2-1.58-0.61-2s-1.07-0.63-1.99-0.63H179.3v-12.25h16.92v3.45h-13.47v5.43h8.23
					c1.98,0,3.45,0.48,4.41,1.44c0.97,0.96,1.45,2.44,1.45,4.42V234.47z"/>
				<path class="st3" d="M203.05,219.61c0-0.47,0.09-0.92,0.27-1.34c0.18-0.42,0.43-0.79,0.74-1.1c0.31-0.31,0.68-0.56,1.1-0.74
					c0.42-0.18,0.87-0.28,1.34-0.28h11.04c0.47,0,0.92,0.09,1.34,0.28s0.79,0.43,1.1,0.74c0.31,0.31,0.56,0.67,0.74,1.1
					c0.18,0.42,0.27,0.87,0.27,1.34v3.12h-3.46v-3.12h-11.04v6.91h11.04c0.47,0,0.92,0.09,1.34,0.27c0.42,0.18,0.79,0.43,1.1,0.74
					c0.31,0.31,0.56,0.68,0.74,1.11c0.18,0.42,0.27,0.87,0.27,1.34v6.89c0,0.47-0.09,0.92-0.27,1.34c-0.18,0.42-0.43,0.79-0.74,1.1
					c-0.31,0.31-0.68,0.56-1.1,0.74c-0.42,0.18-0.87,0.27-1.34,0.27h-11.04c-0.47,0-0.92-0.09-1.34-0.27
					c-0.42-0.18-0.79-0.43-1.1-0.74c-0.31-0.31-0.56-0.68-0.74-1.1c-0.18-0.42-0.27-0.87-0.27-1.34L203.05,219.61L203.05,219.61z
					 M206.51,229.98v6.89h11.04v-6.89H206.51z"/>
				<path class="st3" d="M229.2,240.33l10.84-20.72h-13.5v-3.45h18.64v1.05l-11.98,23.12H229.2z"/>
				<path class="st3" d="M254.85,240.33c-3.92,0-5.88-1.95-5.88-5.86v-1.21c0-1.51,0.27-2.71,0.81-3.62
					c0.54-0.91,1.32-1.52,2.34-1.82c-0.91-0.43-1.6-1.08-2.08-1.96s-0.72-2-0.72-3.36v-0.44c0-3.92,1.96-5.88,5.87-5.88h6.49
					c3.91,0,5.87,1.96,5.87,5.88v0.44c0,1.36-0.24,2.48-0.72,3.36s-1.17,1.54-2.08,1.96c1.02,0.3,1.8,0.91,2.34,1.82
					s0.81,2.12,0.81,3.62v1.21c0,3.91-1.96,5.86-5.87,5.86H254.85z M261.91,236.94c0.92,0,1.58-0.21,1.99-0.64s0.61-1.09,0.61-2.01
					v-1.87c0-0.92-0.2-1.59-0.61-2.01c-0.4-0.42-1.07-0.62-1.99-0.62h-6.96c-0.92,0-1.59,0.21-1.99,0.62
					c-0.4,0.42-0.61,1.09-0.61,2.01v1.87c0,0.91,0.2,1.58,0.61,2.01c0.4,0.43,1.07,0.64,1.99,0.64H261.91z M261.81,226.43
					c0.84-0.04,1.44-0.26,1.8-0.68s0.54-1.07,0.54-1.95v-1.58c0-0.92-0.2-1.6-0.61-2.02c-0.4-0.43-1.06-0.64-1.97-0.64h-6.29
					c-0.91,0-1.57,0.21-1.97,0.64c-0.41,0.43-0.61,1.1-0.61,2.02v1.58c0,0.88,0.18,1.53,0.55,1.95c0.37,0.42,0.97,0.65,1.8,0.68
					H261.81z"/>
				<path class="st3" d="M315.16,236.87c0,0.47-0.09,0.92-0.27,1.34s-0.43,0.79-0.74,1.1c-0.31,0.31-0.68,0.56-1.1,0.74
					c-0.42,0.18-0.87,0.27-1.34,0.27h-11.04c-0.47,0-0.92-0.09-1.34-0.27c-0.42-0.18-0.79-0.43-1.1-0.74
					c-0.31-0.31-0.56-0.68-0.74-1.1c-0.18-0.42-0.27-0.87-0.27-1.34v-3.1h3.46v3.1h11.04v-6.89h-11.04c-0.47,0-0.92-0.09-1.34-0.28
					c-0.42-0.19-0.79-0.43-1.1-0.74c-0.31-0.31-0.56-0.67-0.74-1.1c-0.18-0.42-0.27-0.87-0.27-1.34v-6.91
					c0-0.47,0.09-0.92,0.27-1.34s0.43-0.79,0.74-1.1c0.31-0.31,0.68-0.56,1.1-0.74c0.42-0.18,0.87-0.28,1.34-0.28h11.04
					c0.47,0,0.92,0.09,1.34,0.28c0.42,0.19,0.79,0.43,1.1,0.74c0.31,0.31,0.56,0.67,0.74,1.1c0.18,0.42,0.27,0.87,0.27,1.34v17.26
					H315.16z M311.71,226.53v-6.91h-11.04v6.91H311.71z"/>
				<path class="st3" d="M341.41,236.87c0,0.47-0.09,0.92-0.27,1.34s-0.43,0.79-0.74,1.1c-0.31,0.31-0.68,0.56-1.1,0.74
					c-0.42,0.18-0.87,0.27-1.34,0.27h-12.08c-0.47,0-0.92-0.09-1.34-0.27c-0.42-0.18-0.79-0.43-1.1-0.74
					c-0.31-0.31-0.56-0.68-0.74-1.1c-0.18-0.42-0.27-0.87-0.27-1.34v-17.26c0-0.47,0.09-0.92,0.27-1.34s0.43-0.79,0.74-1.1
					c0.31-0.31,0.68-0.56,1.1-0.74c0.42-0.18,0.87-0.28,1.34-0.28h12.08c0.47,0,0.92,0.09,1.34,0.28c0.42,0.19,0.79,0.43,1.1,0.74
					c0.31,0.31,0.56,0.67,0.74,1.1c0.18,0.42,0.27,0.87,0.27,1.34V236.87z M325.87,219.61v17.26h12.08v-17.26H325.87z"/>
				<path class="st3" d="M354.18,216.16v24.17h-3.46v-20.72h-4.15v-3.45H354.18z"/>
				<path class="st3" d="M364.89,219.61v3.12h-3.45v-3.12c0-0.47,0.09-0.92,0.27-1.34s0.43-0.79,0.74-1.1
					c0.31-0.31,0.68-0.56,1.1-0.74c0.42-0.18,0.87-0.28,1.34-0.28h10.94c0.47,0,0.92,0.09,1.34,0.28c0.42,0.19,0.79,0.43,1.09,0.74
					c0.31,0.31,0.56,0.67,0.74,1.1c0.19,0.42,0.28,0.87,0.28,1.34v4.42c0,0.47-0.05,0.89-0.13,1.26c-0.09,0.37-0.24,0.7-0.43,1
					c-0.2,0.3-0.45,0.56-0.75,0.8s-0.68,0.46-1.11,0.67l-11.97,5.61v3.49h11.38v-3.1h3.45v6.56h-18.29v-6.35
					c0-0.47,0.05-0.89,0.14-1.26c0.09-0.37,0.24-0.7,0.43-1c0.19-0.29,0.44-0.56,0.75-0.8s0.67-0.46,1.09-0.66l11.99-5.63v-5.01
					L364.89,219.61L364.89,219.61z"/>
				<path class="st3" d="M408.01,233.02h3.39v1.28c0,0.91,0.2,1.58,0.61,2.01c0.41,0.43,1.07,0.64,1.99,0.64h6.96
					c0.92,0,1.58-0.21,1.99-0.64c0.4-0.43,0.61-1.09,0.61-2.01v-1.87c0-0.92-0.2-1.59-0.61-2.01c-0.41-0.42-1.07-0.62-1.99-0.62
					h-7.15v-3.37h7.05c0.84-0.04,1.45-0.26,1.81-0.68s0.55-1.07,0.55-1.95v-1.58c0-0.92-0.2-1.6-0.61-2.02
					c-0.41-0.43-1.07-0.64-1.98-0.64h-6.29c-0.91,0-1.57,0.21-1.97,0.64s-0.61,1.1-0.61,2.02v1.28h-3.39v-1.45
					c0-3.92,1.96-5.88,5.87-5.88h6.49c1.99,0,3.46,0.48,4.42,1.45c0.96,0.97,1.44,2.44,1.44,4.43v0.44c0,1.36-0.24,2.48-0.72,3.36
					s-1.17,1.54-2.08,1.96c1.02,0.3,1.8,0.91,2.34,1.82s0.81,2.12,0.81,3.62v1.21c0,3.91-1.95,5.86-5.86,5.86h-7.18
					c-3.92,0-5.88-1.95-5.88-5.86L408.01,233.02L408.01,233.02z"/>
				<path class="st3" d="M430.74,232.01l11.92-15.84h4.06v15.84h3.25v3.32h-3.25v5.01h-3.45v-5.01h-12.52v-3.32H430.74z
					 M443.26,232.01v-11.66l-8.76,11.66H443.26z"/>
				<path class="st3" d="M471.99,234.47c-0.03,1.97-0.53,3.43-1.48,4.41c-0.96,0.97-2.42,1.46-4.38,1.46h-6.49
					c-3.92,0-5.88-1.95-5.88-5.86v-1.45h3.39v1.28c0,0.91,0.2,1.58,0.61,2.01c0.4,0.43,1.07,0.64,1.99,0.64h6.27
					c0.92,0,1.58-0.21,1.99-0.64c0.4-0.43,0.61-1.09,0.61-2.01v-3.25c0-0.91-0.2-1.58-0.61-2c-0.4-0.42-1.07-0.63-1.99-0.63h-11.56
					v-12.25h16.92v3.45H457.9v5.43h8.23c1.98,0,3.45,0.48,4.42,1.44s1.45,2.44,1.45,4.42v3.55H471.99z"/>
				<path class="st3" d="M478.2,219.61c0-0.47,0.09-0.92,0.27-1.34s0.43-0.79,0.74-1.1c0.31-0.31,0.68-0.56,1.1-0.74
					c0.42-0.18,0.87-0.28,1.34-0.28h11.04c0.47,0,0.92,0.09,1.34,0.28c0.42,0.19,0.79,0.43,1.1,0.74c0.31,0.31,0.56,0.67,0.74,1.1
					c0.18,0.42,0.27,0.87,0.27,1.34v3.12h-3.45v-3.12h-11.04v6.91h11.04c0.47,0,0.92,0.09,1.34,0.27c0.42,0.18,0.79,0.43,1.1,0.74
					c0.31,0.31,0.56,0.68,0.74,1.11c0.18,0.42,0.27,0.87,0.27,1.34v6.89c0,0.47-0.09,0.92-0.27,1.34s-0.43,0.79-0.74,1.1
					c-0.31,0.31-0.68,0.56-1.1,0.74c-0.42,0.18-0.87,0.27-1.34,0.27h-11.04c-0.47,0-0.92-0.09-1.34-0.27
					c-0.42-0.18-0.79-0.43-1.1-0.74c-0.31-0.31-0.56-0.68-0.74-1.1c-0.18-0.42-0.27-0.87-0.27-1.34L478.2,219.61L478.2,219.61z
					 M481.66,229.98v6.89h11.04v-6.89H481.66z"/>
			</g>
			<g>
				<path class="st4" d="M72.39,253.7v11.34h-1.62v-9.71h-1.94v-1.62h3.56V253.7z"/>
				<path class="st4" d="M77.41,255.32v1.46h-1.62v-1.46c0-0.22,0.04-0.43,0.13-0.63c0.08-0.2,0.2-0.37,0.35-0.51
					s0.32-0.26,0.52-0.35c0.2-0.09,0.41-0.13,0.63-0.13h5.13c0.22,0,0.43,0.04,0.63,0.13c0.2,0.09,0.37,0.2,0.51,0.35
					c0.14,0.15,0.26,0.32,0.35,0.51c0.09,0.2,0.13,0.41,0.13,0.63v2.07c0,0.22-0.02,0.42-0.06,0.59c-0.04,0.17-0.11,0.33-0.2,0.47
					s-0.21,0.27-0.35,0.38c-0.14,0.11-0.32,0.21-0.52,0.32l-5.61,2.63v1.64h5.33v-1.45h1.62v3.08H75.8v-2.98
					c0-0.22,0.02-0.42,0.07-0.59c0.04-0.17,0.11-0.33,0.2-0.47s0.21-0.26,0.35-0.38c0.14-0.11,0.31-0.22,0.51-0.31l5.62-2.64v-2.35
					L77.41,255.32L77.41,255.32z"/>
				<path class="st4" d="M86.96,261.6h1.59v0.6c0,0.43,0.1,0.74,0.29,0.94s0.5,0.3,0.93,0.3h3.26c0.43,0,0.74-0.1,0.93-0.3
					c0.19-0.2,0.28-0.51,0.28-0.94v-0.88c0-0.43-0.09-0.75-0.28-0.94s-0.5-0.29-0.93-0.29h-3.35v-1.58h3.3
					c0.4-0.02,0.68-0.12,0.85-0.32s0.26-0.5,0.26-0.91v-0.74c0-0.43-0.1-0.75-0.29-0.95s-0.5-0.3-0.93-0.3h-2.95
					c-0.43,0-0.74,0.1-0.93,0.3s-0.28,0.52-0.28,0.95v0.6h-1.59v-0.68c0-1.84,0.92-2.76,2.75-2.76h3.04c0.93,0,1.62,0.23,2.07,0.68
					s0.68,1.15,0.68,2.08v0.2c0,0.64-0.11,1.16-0.34,1.58c-0.22,0.41-0.55,0.72-0.98,0.92c0.48,0.14,0.85,0.43,1.1,0.85
					c0.25,0.43,0.38,0.99,0.38,1.7v0.57c0,1.83-0.92,2.75-2.75,2.75H89.7c-1.84,0-2.76-0.92-2.76-2.75v-0.68H86.96z"/>
				<path class="st4" d="M97.62,261.13l5.59-7.43h1.9v7.43h1.53v1.56h-1.53v2.35h-1.62v-2.35h-5.87V261.13z M103.49,261.13v-5.47
					l-4.11,5.47H103.49z"/>
			</g>
			<g>
				<g>
					<path class="st4" d="M424.67,271.53c0,0.22-0.04,0.43-0.13,0.63c-0.08,0.2-0.2,0.37-0.35,0.52s-0.32,0.26-0.52,0.35
						c-0.2,0.08-0.41,0.13-0.63,0.13h-5.67c-0.22,0-0.43-0.04-0.63-0.13c-0.2-0.08-0.37-0.2-0.52-0.35s-0.26-0.32-0.35-0.52
						c-0.08-0.2-0.13-0.41-0.13-0.63v-8.09c0-0.22,0.04-0.43,0.13-0.63c0.08-0.2,0.2-0.37,0.35-0.51s0.32-0.26,0.52-0.35
						c0.2-0.09,0.41-0.13,0.63-0.13h5.67c0.22,0,0.43,0.04,0.63,0.13s0.37,0.2,0.52,0.35s0.26,0.32,0.35,0.51
						c0.08,0.2,0.13,0.41,0.13,0.63V271.53z M417.39,263.43v8.09h5.67v-8.09H417.39z"/>
					<path class="st4" d="M428.07,263.43c0-0.22,0.04-0.43,0.13-0.63c0.08-0.2,0.2-0.37,0.35-0.51s0.32-0.26,0.52-0.35
						c0.2-0.09,0.41-0.13,0.63-0.13h5.18c0.22,0,0.43,0.04,0.63,0.13s0.37,0.2,0.52,0.35s0.26,0.32,0.35,0.51
						c0.08,0.2,0.13,0.41,0.13,0.63v1.46h-1.62v-1.46h-5.18v3.24h5.18c0.22,0,0.43,0.04,0.63,0.13c0.2,0.08,0.37,0.2,0.52,0.35
						s0.26,0.32,0.35,0.52c0.08,0.2,0.13,0.41,0.13,0.63v3.23c0,0.22-0.04,0.43-0.13,0.63c-0.08,0.2-0.2,0.37-0.35,0.52
						s-0.32,0.26-0.52,0.35c-0.2,0.08-0.41,0.13-0.63,0.13h-5.18c-0.22,0-0.43-0.04-0.63-0.13c-0.2-0.08-0.37-0.2-0.52-0.35
						s-0.26-0.32-0.35-0.52c-0.08-0.2-0.13-0.41-0.13-0.63v-8.1H428.07z M429.69,268.3v3.23h5.18v-3.23H429.69z"/>
					<path class="st4" d="M439.08,273.96l4.29-12.95h1.57l-4.37,12.95H439.08z"/>
					<path class="st4" d="M446.88,269.72h1.59v0.6c0,0.43,0.1,0.74,0.29,0.94s0.5,0.3,0.93,0.3h3.26c0.43,0,0.74-0.1,0.93-0.3
						c0.19-0.2,0.28-0.51,0.28-0.94v-0.88c0-0.43-0.09-0.75-0.28-0.94s-0.5-0.29-0.93-0.29h-3.35v-1.58h3.3
						c0.4-0.02,0.68-0.12,0.85-0.32s0.26-0.5,0.26-0.91v-0.74c0-0.43-0.1-0.75-0.29-0.95s-0.5-0.3-0.93-0.3h-2.95
						c-0.43,0-0.74,0.1-0.93,0.3c-0.19,0.2-0.28,0.52-0.28,0.95v0.6h-1.59v-0.68c0-1.84,0.92-2.76,2.75-2.76h3.04
						c0.93,0,1.62,0.23,2.07,0.68c0.45,0.45,0.68,1.15,0.68,2.08v0.2c0,0.64-0.11,1.16-0.34,1.58c-0.22,0.41-0.55,0.72-0.98,0.92
						c0.48,0.14,0.85,0.43,1.1,0.85c0.25,0.43,0.38,0.99,0.38,1.7v0.57c0,1.83-0.92,2.75-2.75,2.75h-3.37
						c-1.84,0-2.76-0.92-2.76-2.75v-0.68H446.88z"/>
					<path class="st4" d="M467.58,271.53c0,0.22-0.04,0.43-0.13,0.63c-0.08,0.2-0.2,0.37-0.35,0.52s-0.32,0.26-0.52,0.35
						c-0.2,0.08-0.41,0.13-0.63,0.13h-5.67c-0.22,0-0.43-0.04-0.63-0.13c-0.2-0.08-0.37-0.2-0.52-0.35s-0.26-0.32-0.35-0.52
						c-0.08-0.2-0.13-0.41-0.13-0.63v-8.09c0-0.22,0.04-0.43,0.13-0.63c0.08-0.2,0.2-0.37,0.35-0.51s0.32-0.26,0.52-0.35
						c0.2-0.09,0.41-0.13,0.63-0.13h5.67c0.22,0,0.43,0.04,0.63,0.13s0.37,0.2,0.52,0.35s0.26,0.32,0.35,0.51
						c0.08,0.2,0.13,0.41,0.13,0.63V271.53z M460.29,263.43v8.09h5.67v-8.09H460.29z"/>
				</g>
				<g>
					<path class="st4" d="M369.72,264.9l-2.86-7.41H368l2.31,6.1l2.31-6.1h1.13l-2.86,7.41H369.72z"/>
					<path class="st4" d="M377.87,257.49l2.86,7.41h-1.06l-0.66-1.71h-3.34l-0.66,1.71h-1.06l2.86-7.41H377.87z M376.07,262.14h2.53
						l-1.26-3.27L376.07,262.14z"/>
					<path class="st4" d="M383.37,257.49v6.35h3.81v1.06h-4.87v-7.41H383.37z"/>
					<path class="st4" d="M389.83,257.49v7.41h-1.06v-7.41H389.83z"/>
					<path class="st4" d="M392.05,264.9v-7.41h3.77c0.4,0,0.75,0.06,1.07,0.18s0.59,0.3,0.82,0.52c0.23,0.23,0.4,0.5,0.52,0.82
						s0.18,0.68,0.18,1.07v2.22c0,0.39-0.06,0.75-0.18,1.07s-0.3,0.59-0.52,0.82c-0.23,0.22-0.5,0.4-0.82,0.52s-0.68,0.18-1.07,0.18
						h-3.77V264.9z M395.81,263.85c0.49,0,0.87-0.13,1.14-0.4c0.27-0.27,0.4-0.64,0.4-1.14v-2.22c0-0.24-0.03-0.46-0.1-0.65
						s-0.17-0.35-0.3-0.48c-0.13-0.13-0.29-0.23-0.48-0.3c-0.19-0.07-0.4-0.1-0.65-0.1h-2.71v5.29H395.81z"/>
					<path class="st4" d="M367.82,270.19h5.93v1.06h-2.43v6.35h-1.06v-6.35h-2.43v-1.06H367.82z"/>
					<path class="st4" d="M381.69,270.19v7.41h-1.06v-3.17h-4.24v3.17h-1.06v-7.41h1.06v3.18h4.24v-3.18H381.69z"/>
					<path class="st4" d="M389.77,272.84c0,1.03-0.44,1.62-1.32,1.77l1.39,3h-1.17l-1.37-2.96h-2.32v2.96h-1.06v-7.41h4.06
						c1.2,0,1.8,0.6,1.8,1.8L389.77,272.84L389.77,272.84z M384.97,273.58h2.94c0.28,0,0.48-0.06,0.61-0.19
						c0.12-0.12,0.19-0.33,0.19-0.61v-0.74c0-0.28-0.06-0.48-0.19-0.61c-0.12-0.13-0.33-0.19-0.61-0.19h-2.94V273.58z"/>
					<path class="st4" d="M391.85,270.19h1.06v6.35h4.23v-6.35h1.06v6.35c0,0.14-0.03,0.28-0.08,0.41s-0.13,0.24-0.23,0.34
						s-0.21,0.17-0.34,0.23c-0.13,0.05-0.27,0.08-0.41,0.08h-4.23c-0.14,0-0.28-0.03-0.41-0.08s-0.24-0.13-0.34-0.23
						s-0.17-0.21-0.23-0.34s-0.08-0.27-0.08-0.41V270.19z"/>
				</g>
				<polygon class="st4" points="403.41,262.59 403.41,271.92 409.21,267.26 				"/>
			</g>
			<g>
				<path class="st4" d="M73.03,301.29c0-0.26,0.05-0.51,0.15-0.75s0.24-0.44,0.41-0.61c0.18-0.17,0.38-0.31,0.62-0.42
					c0.24-0.1,0.48-0.16,0.75-0.16h7.33c0.26,0,0.51,0.05,0.75,0.16c0.24,0.1,0.44,0.24,0.62,0.42c0.18,0.17,0.31,0.38,0.41,0.61
					c0.1,0.24,0.15,0.48,0.15,0.75v1.74h-1.93v-1.74h-7.33v9.64h7.33v-1.73h1.93v1.73c0,0.27-0.05,0.51-0.15,0.75
					s-0.24,0.44-0.41,0.62c-0.18,0.18-0.38,0.31-0.62,0.41c-0.24,0.1-0.48,0.15-0.75,0.15h-7.33c-0.26,0-0.51-0.05-0.75-0.15
					s-0.44-0.24-0.62-0.41c-0.18-0.18-0.32-0.38-0.41-0.62c-0.1-0.24-0.15-0.48-0.15-0.75V301.29z"/>
				<path class="st4" d="M93.87,299.36l5.21,13.51h-1.93l-1.2-3.11h-6.09l-1.2,3.11h-1.93l5.21-13.51H93.87z M90.6,307.83h4.62
					l-2.3-5.95L90.6,307.83z"/>
				<path class="st4" d="M112.65,304.19c0,1.88-0.8,2.96-2.41,3.22l2.54,5.46h-2.14l-2.51-5.4h-4.23v5.4h-1.93v-13.51h7.39
					c2.19,0,3.28,1.1,3.28,3.29v1.54H112.65z M103.91,305.54h5.36c0.51,0,0.89-0.11,1.11-0.34c0.23-0.23,0.34-0.6,0.34-1.11v-1.35
					c0-0.51-0.11-0.88-0.34-1.11c-0.23-0.23-0.6-0.34-1.11-0.34h-5.36V305.54z"/>
				<path class="st4" d="M116.45,312.87v-13.51h6.87c0.72,0,1.37,0.11,1.96,0.33c0.58,0.22,1.08,0.54,1.49,0.95
					c0.41,0.41,0.73,0.91,0.95,1.49c0.22,0.58,0.34,1.23,0.34,1.95v4.05c0,0.72-0.11,1.37-0.34,1.95c-0.22,0.58-0.54,1.08-0.95,1.49
					c-0.41,0.41-0.91,0.73-1.49,0.95c-0.58,0.22-1.23,0.33-1.96,0.33h-6.87V312.87z M123.32,310.94c0.9,0,1.59-0.24,2.07-0.73
					c0.48-0.48,0.72-1.17,0.72-2.07v-4.05c0-0.44-0.06-0.83-0.19-1.18c-0.13-0.35-0.31-0.64-0.55-0.88
					c-0.24-0.24-0.54-0.43-0.88-0.55c-0.35-0.13-0.74-0.19-1.18-0.19h-4.94v9.64L123.32,310.94L123.32,310.94z"/>
				<path class="st4" d="M143.31,299.36v13.51h-1.93v-5.78h-7.73v5.78h-1.93v-13.51h1.93v5.79h7.73v-5.79H143.31z"/>
				<path class="st4" d="M158.93,310.94c0,0.27-0.05,0.51-0.15,0.75c-0.1,0.24-0.24,0.44-0.42,0.62s-0.38,0.31-0.62,0.41
					c-0.24,0.1-0.48,0.15-0.75,0.15h-7.71c-0.26,0-0.51-0.05-0.75-0.15s-0.44-0.24-0.62-0.41c-0.18-0.18-0.32-0.38-0.41-0.62
					c-0.1-0.24-0.15-0.48-0.15-0.75v-9.64c0-0.26,0.05-0.51,0.15-0.75c0.1-0.24,0.24-0.44,0.41-0.61c0.18-0.17,0.38-0.31,0.62-0.42
					c0.24-0.1,0.48-0.16,0.75-0.16H157c0.26,0,0.51,0.05,0.75,0.16c0.24,0.1,0.44,0.24,0.62,0.42c0.18,0.17,0.31,0.38,0.42,0.61
					c0.1,0.24,0.15,0.48,0.15,0.75L158.93,310.94L158.93,310.94z M149.28,301.29v9.64H157v-9.64H149.28z"/>
				<path class="st4" d="M164.9,299.36v11.58h6.94v1.93h-8.87v-13.51L164.9,299.36L164.9,299.36z"/>
				<path class="st4" d="M174.74,312.87v-13.51h6.87c0.72,0,1.37,0.11,1.96,0.33c0.58,0.22,1.08,0.54,1.49,0.95s0.73,0.91,0.95,1.49
					s0.34,1.23,0.34,1.95v4.05c0,0.72-0.11,1.37-0.34,1.95c-0.22,0.58-0.54,1.08-0.95,1.49s-0.91,0.73-1.49,0.95
					s-1.23,0.33-1.96,0.33h-6.87V312.87z M181.61,310.94c0.9,0,1.59-0.24,2.07-0.73c0.48-0.48,0.72-1.17,0.72-2.07v-4.05
					c0-0.44-0.06-0.83-0.19-1.18s-0.31-0.64-0.55-0.88s-0.54-0.43-0.88-0.55c-0.35-0.13-0.74-0.19-1.18-0.19h-4.93v9.64
					L181.61,310.94L181.61,310.94z"/>
				<path class="st4" d="M190,299.36h9.84v1.93h-7.91v3.86h6.75v1.93h-6.75v3.85h7.91v1.93H190V299.36z"/>
				<path class="st4" d="M213.99,304.19c0,1.88-0.8,2.96-2.41,3.22l2.54,5.46h-2.14l-2.51-5.4h-4.23v5.4h-1.93v-13.51h7.39
					c2.19,0,3.28,1.1,3.28,3.29L213.99,304.19L213.99,304.19z M205.25,305.54h5.36c0.51,0,0.89-0.11,1.11-0.34
					c0.23-0.23,0.34-0.6,0.34-1.11v-1.35c0-0.51-0.11-0.88-0.34-1.11c-0.23-0.23-0.6-0.34-1.11-0.34h-5.36V305.54z"/>
				<path class="st4" d="M226.08,312.87h-1.93v-13.51h1.93l8.12,10.47v-10.47h1.93v13.51h-1.93l-8.12-10.47V312.87z"/>
				<path class="st4" d="M246.16,299.36l5.21,13.51h-1.93l-1.2-3.11h-6.09l-1.2,3.11h-1.93l5.21-13.51H246.16z M242.88,307.83h4.61
					l-2.3-5.95L242.88,307.83z"/>
				<path class="st4" d="M261.23,312.87l-5.04-9.9v9.9h-1.93v-13.51h2.11l5.14,10.17l5.15-10.17h2.1v13.51h-1.92v-9.9l-5.04,9.9
					H261.23z"/>
				<path class="st4" d="M272.82,299.36h9.84v1.93h-7.91v3.86h6.75v1.93h-6.75v3.85h7.91v1.93h-9.84V299.36z"/>
			</g>
			<g>
				<path class="st4" d="M73.83,64.11c0-0.35,0.07-0.68,0.2-0.99s0.32-0.58,0.55-0.81s0.51-0.41,0.82-0.55s0.64-0.21,0.99-0.21h9.72
					c0.35,0,0.68,0.07,0.99,0.21s0.59,0.32,0.82,0.55s0.42,0.5,0.55,0.81c0.13,0.31,0.2,0.64,0.2,0.99v2.31h-2.56v-2.31h-9.72V76.9
					h9.72v-2.3h2.56v2.3c0,0.35-0.07,0.68-0.2,0.99s-0.32,0.59-0.55,0.82s-0.51,0.42-0.82,0.55c-0.31,0.13-0.64,0.2-0.99,0.2h-9.72
					c-0.35,0-0.68-0.07-0.99-0.2s-0.58-0.32-0.82-0.55c-0.23-0.23-0.42-0.51-0.55-0.82c-0.13-0.31-0.2-0.64-0.2-0.99V64.11z"/>
				<path class="st4" d="M101.46,61.55l6.91,17.91h-2.56l-1.59-4.12h-8.08l-1.59,4.12H92l6.91-17.91H101.46z M97.12,72.77h6.12
					l-3.05-7.89L97.12,72.77z"/>
				<path class="st4" d="M126.36,67.94c0,2.5-1.07,3.92-3.2,4.27l3.37,7.24h-2.84l-3.32-7.16h-5.61v7.16h-2.56v-17.9h9.8
					c2.9,0,4.34,1.45,4.34,4.36v2.03H126.36z M114.77,69.74h7.11c0.68,0,1.17-0.15,1.47-0.45c0.3-0.3,0.45-0.79,0.45-1.47v-1.79
					c0-0.68-0.15-1.17-0.45-1.47c-0.3-0.3-0.79-0.45-1.47-0.45h-7.11V69.74z"/>
				<path class="st4" d="M131.4,79.46V61.55h9.1c0.96,0,1.82,0.15,2.59,0.44c0.77,0.3,1.43,0.72,1.97,1.26
					c0.54,0.54,0.97,1.21,1.26,1.98c0.3,0.78,0.44,1.64,0.44,2.59v5.37c0,0.95-0.15,1.81-0.44,2.59c-0.3,0.77-0.72,1.43-1.26,1.98
					c-0.55,0.54-1.2,0.97-1.97,1.26c-0.77,0.3-1.63,0.44-2.59,0.44H131.4z M140.5,76.9c1.19,0,2.11-0.32,2.75-0.96
					s0.96-1.56,0.96-2.75v-5.37c0-0.58-0.08-1.1-0.25-1.56s-0.41-0.85-0.73-1.17c-0.32-0.32-0.71-0.56-1.17-0.73
					c-0.46-0.17-0.98-0.25-1.56-0.25h-6.54V76.9H140.5z"/>
				<path class="st4" d="M158.54,61.55h14.32v2.56h-5.88v15.35h-2.56V64.11h-5.88L158.54,61.55L158.54,61.55z"/>
				<path class="st4" d="M177.89,61.55l5.21,8.37l5.22-8.37h2.97l-6.91,10.8v7.11h-2.56v-7.11l-6.91-10.8H177.89z"/>
				<path class="st4" d="M194.87,79.46V61.55h9.8c2.9,0,4.34,1.45,4.34,4.36v2.55c0,2.91-1.45,4.36-4.34,4.36h-7.24v6.64H194.87z
					 M197.43,70.25h7.11c0.68,0,1.17-0.15,1.47-0.45c0.3-0.3,0.45-0.79,0.45-1.47v-2.3c0-0.68-0.15-1.17-0.45-1.47
					s-0.79-0.45-1.47-0.45h-7.11V70.25z"/>
				<path class="st4" d="M213.36,61.55h13.05v2.56h-10.49v5.12h8.96v2.56h-8.96v5.11h10.49v2.56h-13.05V61.55z"/>
			</g>
			<g>
				<path class="st4" d="M489.09,68.37v4.18c4.94,0,8.95,4.02,8.95,8.95h4.18C502.22,74.26,496.33,68.37,489.09,68.37z"/>
				<path class="st4" d="M489.09,60.3v4.46c9.23,0,16.74,7.51,16.74,16.74h4.46C510.29,69.81,500.78,60.3,489.09,60.3z"/>
				<path class="st4" d="M491.5,76.68c-1.24,0-2.25,1.01-2.25,2.25s1.01,2.25,2.25,2.25s2.25-1.01,2.25-2.25
					C493.75,77.68,492.74,76.68,491.5,76.68z"/>
			</g>
			<g>
				
					<linearGradient id="SVGID_00000145040969387849084760000017937989676424184493_" gradientUnits="userSpaceOnUse" x1="114.32" y1="204.67" x2="114.32" y2="260.29" gradientTransform="matrix(1 0 0 -1 0 368)">
					<stop  offset="0" style="stop-color:#FFF08A"/>
					<stop  offset="0.0477" style="stop-color:#E6CC64"/>
					<stop  offset="0.099" style="stop-color:#D1AC42"/>
					<stop  offset="0.1517" style="stop-color:#C09328"/>
					<stop  offset="0.2056" style="stop-color:#B48116"/>
					<stop  offset="0.2616" style="stop-color:#AC760B"/>
					<stop  offset="0.3227" style="stop-color:#AA7307"/>
					<stop  offset="0.3935" style="stop-color:#AE790D"/>
					<stop  offset="0.4881" style="stop-color:#BA891E"/>
					<stop  offset="0.5957" style="stop-color:#CEA33A"/>
					<stop  offset="0.661" style="stop-color:#DCB64E"/>
					<stop  offset="0.6843" style="stop-color:#DFBC55"/>
					<stop  offset="0.8156" style="stop-color:#F1D975"/>
					<stop  offset="0.9255" style="stop-color:#FBEB89"/>
					<stop  offset="1" style="stop-color:#FFF290"/>
				</linearGradient>
				<path style="fill:url(#SVGID_00000145040969387849084760000017937989676424184493_);" d="M147.77,163.33h-66.9
					c-6.43,0-11.65-5.22-11.65-11.65v-32.32c0-6.43,5.22-11.65,11.65-11.65h66.9c6.43,0,11.65,5.22,11.65,11.65v32.32
					C159.42,158.11,154.2,163.33,147.77,163.33z"/>
				<g>
					<g>
						<path class="st6" d="M114.32,154.3c-5.83,0-10.58-4.75-10.58-10.58c0-3.21,1.45-6.2,3.93-8.21c-2.48-2-3.93-4.99-3.93-8.21
							c0-5.83,4.74-10.57,10.58-10.57c5.83,0,10.57,4.74,10.57,10.57c0,3.21-1.45,6.2-3.93,8.21c2.48,2,3.93,4.99,3.93,8.21
							C124.89,149.55,120.15,154.3,114.32,154.3z M114.32,118.34c-4.95,0-8.97,4.02-8.97,8.97c0,3.05,1.54,5.86,4.13,7.53l1.05,0.67
							l-1.05,0.67c-2.58,1.67-4.13,4.48-4.13,7.53c0,4.95,4.02,8.97,8.97,8.97c4.94,0,8.97-4.02,8.97-8.97
							c0-3.05-1.54-5.87-4.13-7.53l-1.05-0.67l1.05-0.67c2.58-1.66,4.13-4.48,4.13-7.53C123.28,122.36,119.26,118.34,114.32,118.34z
							"/>
					</g>
					<g>
						<rect x="69.21" y="123.09" class="st6" width="35.97" height="1.61"/>
					</g>
					<g>
						<rect x="124.09" y="123.09" class="st6" width="35.33" height="1.61"/>
					</g>
					<g>
						<rect x="69.21" y="146.08" class="st6" width="35.97" height="1.61"/>
					</g>
					<g>
						<rect x="124.09" y="146.08" class="st6" width="35.33" height="1.61"/>
					</g>
					<g>
						<rect x="86.4" y="107.7" class="st6" width="1.61" height="55.62"/>
					</g>
					<g>
						<rect x="135.75" y="123.89" class="st6" width="1.61" height="22.99"/>
					</g>
					<g>
						<rect x="144.08" y="107.7" class="st6" width="1.61" height="16.19"/>
					</g>
					<g>
						<rect x="144.08" y="146.88" class="st6" width="1.61" height="16.44"/>
					</g>
				</g>
			</g>
			<polygon class="st4" points="63.33,141.47 63.33,127.7 54.78,134.59 			"/>
			<g>
				
					<linearGradient id="SVGID_00000015324058546731714790000003118601111427627948_" gradientUnits="userSpaceOnUse" x1="73.17" y1="131.3323" x2="73.17" y2="149.0513" gradientTransform="matrix(1 0 0 -1 0 368)">
					<stop  offset="0" style="stop-color:#FFFFFF"/>
					<stop  offset="0.0139" style="stop-color:#F6F6F6"/>
					<stop  offset="0.0715" style="stop-color:#D4D4D4"/>
					<stop  offset="0.1307" style="stop-color:#BABABA"/>
					<stop  offset="0.1912" style="stop-color:#A8A8A8"/>
					<stop  offset="0.254" style="stop-color:#9D9D9D"/>
					<stop  offset="0.3227" style="stop-color:#999999"/>
					<stop  offset="0.3969" style="stop-color:#9F9F9F"/>
					<stop  offset="0.4959" style="stop-color:#B0B0B0"/>
					<stop  offset="0.6086" style="stop-color:#CCCCCC"/>
					<stop  offset="0.661" style="stop-color:#DBDBDB"/>
					<stop  offset="0.7215" style="stop-color:#E4E4E4"/>
					<stop  offset="0.8873" style="stop-color:#F8F8F8"/>
					<stop  offset="1" style="stop-color:#FFFFFF"/>
				</linearGradient>
				<path style="fill:url(#SVGID_00000015324058546731714790000003118601111427627948_);" d="M76.97,214.1v24.17h-3.45v-20.72h-4.15
					v-3.45H76.97z"/>
				
					<linearGradient id="SVGID_00000167392641180418325450000000319080616806340498_" gradientUnits="userSpaceOnUse" x1="93.37" y1="131.3323" x2="93.37" y2="149.0513" gradientTransform="matrix(1 0 0 -1 0 368)">
					<stop  offset="0" style="stop-color:#FFFFFF"/>
					<stop  offset="0.0139" style="stop-color:#F6F6F6"/>
					<stop  offset="0.0715" style="stop-color:#D4D4D4"/>
					<stop  offset="0.1307" style="stop-color:#BABABA"/>
					<stop  offset="0.1912" style="stop-color:#A8A8A8"/>
					<stop  offset="0.254" style="stop-color:#9D9D9D"/>
					<stop  offset="0.3227" style="stop-color:#999999"/>
					<stop  offset="0.3969" style="stop-color:#9F9F9F"/>
					<stop  offset="0.4959" style="stop-color:#B0B0B0"/>
					<stop  offset="0.6086" style="stop-color:#CCCCCC"/>
					<stop  offset="0.661" style="stop-color:#DBDBDB"/>
					<stop  offset="0.7215" style="stop-color:#E4E4E4"/>
					<stop  offset="0.8873" style="stop-color:#F8F8F8"/>
					<stop  offset="1" style="stop-color:#FFFFFF"/>
				</linearGradient>
				<path style="fill:url(#SVGID_00000167392641180418325450000000319080616806340498_);" d="M87.68,217.56v3.12h-3.46v-3.12
					c0-0.47,0.09-0.92,0.27-1.34s0.42-0.79,0.74-1.1c0.31-0.31,0.68-0.56,1.1-0.74c0.42-0.18,0.87-0.28,1.34-0.28h10.94
					c0.47,0,0.92,0.09,1.34,0.28s0.79,0.43,1.1,0.74c0.31,0.31,0.56,0.67,0.74,1.1c0.19,0.42,0.28,0.87,0.28,1.34v4.42
					c0,0.47-0.04,0.89-0.13,1.26s-0.23,0.7-0.43,1s-0.45,0.56-0.75,0.8s-0.67,0.46-1.11,0.67l-11.97,5.61v3.49h11.38v-3.1h3.46v6.56
					H84.23v-6.35c0-0.47,0.05-0.89,0.14-1.26c0.1-0.37,0.24-0.7,0.43-0.99c0.19-0.29,0.44-0.56,0.75-0.8s0.67-0.46,1.09-0.66
					l11.98-5.63v-5.01L87.68,217.56L87.68,217.56z"/>
				
					<linearGradient id="SVGID_00000077324969943123286620000005473707473843096741_" gradientUnits="userSpaceOnUse" x1="117.5" y1="131.3323" x2="117.5" y2="149.0513" gradientTransform="matrix(1 0 0 -1 0 368)">
					<stop  offset="0" style="stop-color:#FFFFFF"/>
					<stop  offset="0.0139" style="stop-color:#F6F6F6"/>
					<stop  offset="0.0715" style="stop-color:#D4D4D4"/>
					<stop  offset="0.1307" style="stop-color:#BABABA"/>
					<stop  offset="0.1912" style="stop-color:#A8A8A8"/>
					<stop  offset="0.254" style="stop-color:#9D9D9D"/>
					<stop  offset="0.3227" style="stop-color:#999999"/>
					<stop  offset="0.3969" style="stop-color:#9F9F9F"/>
					<stop  offset="0.4959" style="stop-color:#B0B0B0"/>
					<stop  offset="0.6086" style="stop-color:#CCCCCC"/>
					<stop  offset="0.661" style="stop-color:#DBDBDB"/>
					<stop  offset="0.7215" style="stop-color:#E4E4E4"/>
					<stop  offset="0.8873" style="stop-color:#F8F8F8"/>
					<stop  offset="1" style="stop-color:#FFFFFF"/>
				</linearGradient>
				<path style="fill:url(#SVGID_00000077324969943123286620000005473707473843096741_);" d="M108.03,230.96h3.39v1.28
					c0,0.91,0.21,1.58,0.61,2.01s1.07,0.64,1.99,0.64h6.96c0.92,0,1.58-0.21,1.99-0.64c0.41-0.43,0.61-1.09,0.61-2.01v-1.87
					c0-0.92-0.2-1.59-0.61-2.01c-0.4-0.42-1.07-0.62-1.99-0.62h-7.15v-3.37h7.05c0.84-0.04,1.45-0.26,1.81-0.68
					c0.37-0.42,0.55-1.07,0.55-1.95v-1.58c0-0.92-0.21-1.6-0.61-2.02c-0.41-0.43-1.07-0.64-1.98-0.64h-6.29
					c-0.91,0-1.57,0.21-1.97,0.64c-0.41,0.43-0.61,1.1-0.61,2.02v1.28h-3.39v-1.45c0-3.92,1.96-5.88,5.87-5.88h6.49
					c1.99,0,3.46,0.48,4.43,1.45c0.96,0.97,1.44,2.44,1.44,4.43v0.44c0,1.36-0.24,2.48-0.72,3.36s-1.17,1.54-2.08,1.96
					c1.02,0.3,1.8,0.91,2.34,1.82c0.54,0.91,0.81,2.12,0.81,3.62v1.21c0,3.91-1.96,5.86-5.87,5.86h-7.18
					c-3.92,0-5.88-1.96-5.88-5.86L108.03,230.96L108.03,230.96z"/>
				
					<linearGradient id="SVGID_00000084492417901815549510000007498488110969515953_" gradientUnits="userSpaceOnUse" x1="140.375" y1="131.3323" x2="140.375" y2="149.0513" gradientTransform="matrix(1 0 0 -1 0 368)">
					<stop  offset="0" style="stop-color:#FFFFFF"/>
					<stop  offset="0.0139" style="stop-color:#F6F6F6"/>
					<stop  offset="0.0715" style="stop-color:#D4D4D4"/>
					<stop  offset="0.1307" style="stop-color:#BABABA"/>
					<stop  offset="0.1912" style="stop-color:#A8A8A8"/>
					<stop  offset="0.254" style="stop-color:#9D9D9D"/>
					<stop  offset="0.3227" style="stop-color:#999999"/>
					<stop  offset="0.3969" style="stop-color:#9F9F9F"/>
					<stop  offset="0.4959" style="stop-color:#B0B0B0"/>
					<stop  offset="0.6086" style="stop-color:#CCCCCC"/>
					<stop  offset="0.661" style="stop-color:#DBDBDB"/>
					<stop  offset="0.7215" style="stop-color:#E4E4E4"/>
					<stop  offset="0.8873" style="stop-color:#F8F8F8"/>
					<stop  offset="1" style="stop-color:#FFFFFF"/>
				</linearGradient>
				<path style="fill:url(#SVGID_00000084492417901815549510000007498488110969515953_);" d="M130.76,229.95l11.92-15.84h4.06v15.84
					h3.25v3.32h-3.25v5.01h-3.46v-5.01h-12.52L130.76,229.95L130.76,229.95z M143.28,229.95v-11.66l-8.76,11.66H143.28z"/>
				
					<linearGradient id="SVGID_00000166661639623245577810000005677537280614179249_" gradientUnits="userSpaceOnUse" x1="185.67" y1="131.3323" x2="185.67" y2="149.0513" gradientTransform="matrix(1 0 0 -1 0 368)">
					<stop  offset="0" style="stop-color:#FFFFFF"/>
					<stop  offset="0.0139" style="stop-color:#F6F6F6"/>
					<stop  offset="0.0715" style="stop-color:#D4D4D4"/>
					<stop  offset="0.1307" style="stop-color:#BABABA"/>
					<stop  offset="0.1912" style="stop-color:#A8A8A8"/>
					<stop  offset="0.254" style="stop-color:#9D9D9D"/>
					<stop  offset="0.3227" style="stop-color:#999999"/>
					<stop  offset="0.3969" style="stop-color:#9F9F9F"/>
					<stop  offset="0.4959" style="stop-color:#B0B0B0"/>
					<stop  offset="0.6086" style="stop-color:#CCCCCC"/>
					<stop  offset="0.661" style="stop-color:#DBDBDB"/>
					<stop  offset="0.7215" style="stop-color:#E4E4E4"/>
					<stop  offset="0.8873" style="stop-color:#F8F8F8"/>
					<stop  offset="1" style="stop-color:#FFFFFF"/>
				</linearGradient>
				<path style="fill:url(#SVGID_00000166661639623245577810000005677537280614179249_);" d="M194.78,232.41
					c-0.03,1.97-0.53,3.43-1.48,4.41c-0.95,0.97-2.42,1.46-4.38,1.46h-6.49c-3.92,0-5.88-1.96-5.88-5.86v-1.45h3.39v1.28
					c0,0.91,0.2,1.58,0.61,2.01s1.07,0.64,1.99,0.64h6.27c0.92,0,1.58-0.21,1.99-0.64c0.4-0.43,0.61-1.09,0.61-2.01V229
					c0-0.91-0.2-1.58-0.61-2s-1.07-0.63-1.99-0.63h-11.56V214.1h16.92v3.45H180.7v5.43h8.23c1.98,0,3.45,0.48,4.41,1.44
					c0.97,0.96,1.45,2.44,1.45,4.43L194.78,232.41L194.78,232.41z"/>
				
					<linearGradient id="SVGID_00000062873799079983278880000013096947487257891007_" gradientUnits="userSpaceOnUse" x1="209.955" y1="131.3323" x2="209.955" y2="149.0513" gradientTransform="matrix(1 0 0 -1 0 368)">
					<stop  offset="0" style="stop-color:#FFFFFF"/>
					<stop  offset="0.0139" style="stop-color:#F6F6F6"/>
					<stop  offset="0.0715" style="stop-color:#D4D4D4"/>
					<stop  offset="0.1307" style="stop-color:#BABABA"/>
					<stop  offset="0.1912" style="stop-color:#A8A8A8"/>
					<stop  offset="0.254" style="stop-color:#9D9D9D"/>
					<stop  offset="0.3227" style="stop-color:#999999"/>
					<stop  offset="0.3969" style="stop-color:#9F9F9F"/>
					<stop  offset="0.4959" style="stop-color:#B0B0B0"/>
					<stop  offset="0.6086" style="stop-color:#CCCCCC"/>
					<stop  offset="0.661" style="stop-color:#DBDBDB"/>
					<stop  offset="0.7215" style="stop-color:#E4E4E4"/>
					<stop  offset="0.8873" style="stop-color:#F8F8F8"/>
					<stop  offset="1" style="stop-color:#FFFFFF"/>
				</linearGradient>
				<path style="fill:url(#SVGID_00000062873799079983278880000013096947487257891007_);" d="M200.99,217.56
					c0-0.47,0.09-0.92,0.27-1.34c0.18-0.42,0.43-0.79,0.74-1.1c0.31-0.31,0.68-0.56,1.1-0.74c0.42-0.18,0.87-0.28,1.34-0.28h11.04
					c0.47,0,0.92,0.09,1.34,0.28s0.79,0.43,1.1,0.74c0.31,0.31,0.56,0.67,0.74,1.1c0.18,0.42,0.27,0.87,0.27,1.34v3.12h-3.46v-3.12
					h-11.04v6.91h11.04c0.47,0,0.92,0.09,1.34,0.27c0.42,0.18,0.79,0.43,1.1,0.74c0.31,0.31,0.56,0.68,0.74,1.11
					c0.18,0.42,0.27,0.87,0.27,1.34v6.89c0,0.47-0.09,0.92-0.27,1.34c-0.18,0.42-0.43,0.79-0.74,1.1c-0.31,0.31-0.68,0.56-1.1,0.74
					c-0.42,0.18-0.87,0.27-1.34,0.27h-11.04c-0.47,0-0.92-0.09-1.34-0.27c-0.42-0.18-0.79-0.43-1.1-0.74
					c-0.31-0.31-0.56-0.68-0.74-1.1c-0.18-0.42-0.27-0.87-0.27-1.34L200.99,217.56L200.99,217.56z M204.45,227.92v6.89h11.04v-6.89
					H204.45z"/>
				
					<linearGradient id="SVGID_00000147200801683011802720000016194059140229876644_" gradientUnits="userSpaceOnUse" x1="233.8" y1="131.3323" x2="233.8" y2="149.0513" gradientTransform="matrix(1 0 0 -1 0 368)">
					<stop  offset="0" style="stop-color:#FFFFFF"/>
					<stop  offset="0.0139" style="stop-color:#F6F6F6"/>
					<stop  offset="0.0715" style="stop-color:#D4D4D4"/>
					<stop  offset="0.1307" style="stop-color:#BABABA"/>
					<stop  offset="0.1912" style="stop-color:#A8A8A8"/>
					<stop  offset="0.254" style="stop-color:#9D9D9D"/>
					<stop  offset="0.3227" style="stop-color:#999999"/>
					<stop  offset="0.3969" style="stop-color:#9F9F9F"/>
					<stop  offset="0.4959" style="stop-color:#B0B0B0"/>
					<stop  offset="0.6086" style="stop-color:#CCCCCC"/>
					<stop  offset="0.661" style="stop-color:#DBDBDB"/>
					<stop  offset="0.7215" style="stop-color:#E4E4E4"/>
					<stop  offset="0.8873" style="stop-color:#F8F8F8"/>
					<stop  offset="1" style="stop-color:#FFFFFF"/>
				</linearGradient>
				<path style="fill:url(#SVGID_00000147200801683011802720000016194059140229876644_);" d="M227.14,238.27l10.84-20.72h-13.5
					v-3.45h18.64v1.05l-11.98,23.13h-4V238.27z"/>
				
					<linearGradient id="SVGID_00000092427120733384064550000010586964176149692068_" gradientUnits="userSpaceOnUse" x1="256.375" y1="131.3323" x2="256.375" y2="149.0513" gradientTransform="matrix(1 0 0 -1 0 368)">
					<stop  offset="0" style="stop-color:#FFFFFF"/>
					<stop  offset="0.0139" style="stop-color:#F6F6F6"/>
					<stop  offset="0.0715" style="stop-color:#D4D4D4"/>
					<stop  offset="0.1307" style="stop-color:#BABABA"/>
					<stop  offset="0.1912" style="stop-color:#A8A8A8"/>
					<stop  offset="0.254" style="stop-color:#9D9D9D"/>
					<stop  offset="0.3227" style="stop-color:#999999"/>
					<stop  offset="0.3969" style="stop-color:#9F9F9F"/>
					<stop  offset="0.4959" style="stop-color:#B0B0B0"/>
					<stop  offset="0.6086" style="stop-color:#CCCCCC"/>
					<stop  offset="0.661" style="stop-color:#DBDBDB"/>
					<stop  offset="0.7215" style="stop-color:#E4E4E4"/>
					<stop  offset="0.8873" style="stop-color:#F8F8F8"/>
					<stop  offset="1" style="stop-color:#FFFFFF"/>
				</linearGradient>
				<path style="fill:url(#SVGID_00000092427120733384064550000010586964176149692068_);" d="M252.79,238.27
					c-3.92,0-5.88-1.96-5.88-5.86v-1.21c0-1.51,0.27-2.71,0.81-3.62c0.54-0.91,1.32-1.52,2.34-1.82c-0.91-0.43-1.6-1.08-2.08-1.96
					s-0.72-2-0.72-3.36V220c0-3.92,1.96-5.88,5.87-5.88h6.49c3.91,0,5.87,1.96,5.87,5.88v0.44c0,1.36-0.24,2.48-0.72,3.36
					s-1.17,1.54-2.08,1.96c1.02,0.3,1.8,0.91,2.34,1.82s0.81,2.12,0.81,3.62v1.21c0,3.91-1.96,5.86-5.87,5.86H252.79z
					 M259.85,234.89c0.92,0,1.58-0.21,1.99-0.64s0.61-1.09,0.61-2.01v-1.87c0-0.92-0.2-1.59-0.61-2.01
					c-0.4-0.42-1.07-0.62-1.99-0.62h-6.96c-0.92,0-1.59,0.21-1.99,0.62c-0.4,0.42-0.61,1.09-0.61,2.01v1.87
					c0,0.91,0.21,1.58,0.61,2.01s1.07,0.64,1.99,0.64H259.85z M259.75,224.37c0.84-0.04,1.44-0.26,1.8-0.68s0.54-1.07,0.54-1.95
					v-1.58c0-0.92-0.2-1.6-0.61-2.02c-0.4-0.43-1.06-0.64-1.97-0.64h-6.29c-0.91,0-1.57,0.21-1.97,0.64
					c-0.41,0.43-0.61,1.1-0.61,2.02v1.58c0,0.88,0.18,1.53,0.55,1.95c0.37,0.42,0.97,0.65,1.8,0.68H259.75z"/>
				
					<linearGradient id="SVGID_00000038371349885959531740000001402888990457654659_" gradientUnits="userSpaceOnUse" x1="304.135" y1="131.3323" x2="304.135" y2="149.0513" gradientTransform="matrix(1 0 0 -1 0 368)">
					<stop  offset="0" style="stop-color:#FFFFFF"/>
					<stop  offset="0.0139" style="stop-color:#F6F6F6"/>
					<stop  offset="0.0715" style="stop-color:#D4D4D4"/>
					<stop  offset="0.1307" style="stop-color:#BABABA"/>
					<stop  offset="0.1912" style="stop-color:#A8A8A8"/>
					<stop  offset="0.254" style="stop-color:#9D9D9D"/>
					<stop  offset="0.3227" style="stop-color:#999999"/>
					<stop  offset="0.3969" style="stop-color:#9F9F9F"/>
					<stop  offset="0.4959" style="stop-color:#B0B0B0"/>
					<stop  offset="0.6086" style="stop-color:#CCCCCC"/>
					<stop  offset="0.661" style="stop-color:#DBDBDB"/>
					<stop  offset="0.7215" style="stop-color:#E4E4E4"/>
					<stop  offset="0.8873" style="stop-color:#F8F8F8"/>
					<stop  offset="1" style="stop-color:#FFFFFF"/>
				</linearGradient>
				<path style="fill:url(#SVGID_00000038371349885959531740000001402888990457654659_);" d="M313.1,234.82
					c0,0.47-0.09,0.92-0.27,1.34s-0.43,0.79-0.74,1.1c-0.31,0.31-0.68,0.56-1.1,0.74c-0.42,0.18-0.87,0.27-1.34,0.27h-11.04
					c-0.47,0-0.92-0.09-1.34-0.27c-0.42-0.18-0.79-0.43-1.1-0.74c-0.31-0.31-0.56-0.68-0.74-1.1c-0.18-0.42-0.27-0.87-0.27-1.34
					v-3.1h3.46v3.1h11.04v-6.89h-11.04c-0.47,0-0.92-0.09-1.34-0.28c-0.42-0.19-0.79-0.43-1.1-0.74c-0.31-0.31-0.56-0.67-0.74-1.1
					c-0.18-0.42-0.27-0.87-0.27-1.34v-6.91c0-0.47,0.09-0.92,0.27-1.34s0.43-0.79,0.74-1.1c0.31-0.31,0.68-0.56,1.1-0.74
					c0.42-0.18,0.87-0.28,1.34-0.28h11.04c0.47,0,0.92,0.09,1.34,0.28c0.42,0.19,0.79,0.43,1.1,0.74c0.31,0.31,0.56,0.67,0.74,1.1
					c0.18,0.42,0.27,0.87,0.27,1.34v17.26H313.1z M309.65,224.47v-6.91h-11.04v6.91H309.65z"/>
				
					<linearGradient id="SVGID_00000012434344693225656410000006468883224873464980_" gradientUnits="userSpaceOnUse" x1="329.86" y1="131.3323" x2="329.86" y2="149.0513" gradientTransform="matrix(1 0 0 -1 0 368)">
					<stop  offset="0" style="stop-color:#FFFFFF"/>
					<stop  offset="0.0139" style="stop-color:#F6F6F6"/>
					<stop  offset="0.0715" style="stop-color:#D4D4D4"/>
					<stop  offset="0.1307" style="stop-color:#BABABA"/>
					<stop  offset="0.1912" style="stop-color:#A8A8A8"/>
					<stop  offset="0.254" style="stop-color:#9D9D9D"/>
					<stop  offset="0.3227" style="stop-color:#999999"/>
					<stop  offset="0.3969" style="stop-color:#9F9F9F"/>
					<stop  offset="0.4959" style="stop-color:#B0B0B0"/>
					<stop  offset="0.6086" style="stop-color:#CCCCCC"/>
					<stop  offset="0.661" style="stop-color:#DBDBDB"/>
					<stop  offset="0.7215" style="stop-color:#E4E4E4"/>
					<stop  offset="0.8873" style="stop-color:#F8F8F8"/>
					<stop  offset="1" style="stop-color:#FFFFFF"/>
				</linearGradient>
				<path style="fill:url(#SVGID_00000012434344693225656410000006468883224873464980_);" d="M339.35,234.82
					c0,0.47-0.09,0.92-0.27,1.34s-0.43,0.79-0.74,1.1c-0.31,0.31-0.68,0.56-1.1,0.74c-0.42,0.18-0.87,0.27-1.34,0.27h-12.08
					c-0.47,0-0.92-0.09-1.34-0.27c-0.42-0.18-0.79-0.43-1.1-0.74c-0.31-0.31-0.56-0.68-0.74-1.1c-0.18-0.42-0.27-0.87-0.27-1.34
					v-17.26c0-0.47,0.09-0.92,0.27-1.34s0.43-0.79,0.74-1.1c0.31-0.31,0.68-0.56,1.1-0.74c0.42-0.18,0.87-0.28,1.34-0.28h12.08
					c0.47,0,0.92,0.09,1.34,0.28c0.42,0.19,0.79,0.43,1.1,0.74c0.31,0.31,0.56,0.67,0.74,1.1c0.18,0.42,0.27,0.87,0.27,1.34V234.82z
					 M323.81,217.56v17.26h12.08v-17.26H323.81z"/>
				
					<linearGradient id="SVGID_00000123410431343069543580000005747327853328910769_" gradientUnits="userSpaceOnUse" x1="348.315" y1="131.3323" x2="348.315" y2="149.0513" gradientTransform="matrix(1 0 0 -1 0 368)">
					<stop  offset="0" style="stop-color:#FFFFFF"/>
					<stop  offset="0.0139" style="stop-color:#F6F6F6"/>
					<stop  offset="0.0715" style="stop-color:#D4D4D4"/>
					<stop  offset="0.1307" style="stop-color:#BABABA"/>
					<stop  offset="0.1912" style="stop-color:#A8A8A8"/>
					<stop  offset="0.254" style="stop-color:#9D9D9D"/>
					<stop  offset="0.3227" style="stop-color:#999999"/>
					<stop  offset="0.3969" style="stop-color:#9F9F9F"/>
					<stop  offset="0.4959" style="stop-color:#B0B0B0"/>
					<stop  offset="0.6086" style="stop-color:#CCCCCC"/>
					<stop  offset="0.661" style="stop-color:#DBDBDB"/>
					<stop  offset="0.7215" style="stop-color:#E4E4E4"/>
					<stop  offset="0.8873" style="stop-color:#F8F8F8"/>
					<stop  offset="1" style="stop-color:#FFFFFF"/>
				</linearGradient>
				<path style="fill:url(#SVGID_00000123410431343069543580000005747327853328910769_);" d="M352.12,214.1v24.17h-3.46v-20.72
					h-4.15v-3.45H352.12z"/>
				
					<linearGradient id="SVGID_00000137846050445334406970000011463501478877724549_" gradientUnits="userSpaceOnUse" x1="368.515" y1="131.3323" x2="368.515" y2="149.0513" gradientTransform="matrix(1 0 0 -1 0 368)">
					<stop  offset="0" style="stop-color:#FFFFFF"/>
					<stop  offset="0.0139" style="stop-color:#F6F6F6"/>
					<stop  offset="0.0715" style="stop-color:#D4D4D4"/>
					<stop  offset="0.1307" style="stop-color:#BABABA"/>
					<stop  offset="0.1912" style="stop-color:#A8A8A8"/>
					<stop  offset="0.254" style="stop-color:#9D9D9D"/>
					<stop  offset="0.3227" style="stop-color:#999999"/>
					<stop  offset="0.3969" style="stop-color:#9F9F9F"/>
					<stop  offset="0.4959" style="stop-color:#B0B0B0"/>
					<stop  offset="0.6086" style="stop-color:#CCCCCC"/>
					<stop  offset="0.661" style="stop-color:#DBDBDB"/>
					<stop  offset="0.7215" style="stop-color:#E4E4E4"/>
					<stop  offset="0.8873" style="stop-color:#F8F8F8"/>
					<stop  offset="1" style="stop-color:#FFFFFF"/>
				</linearGradient>
				<path style="fill:url(#SVGID_00000137846050445334406970000011463501478877724549_);" d="M362.83,217.56v3.12h-3.45v-3.12
					c0-0.47,0.09-0.92,0.27-1.34s0.43-0.79,0.74-1.1c0.31-0.31,0.68-0.56,1.1-0.74c0.42-0.18,0.87-0.28,1.34-0.28h10.94
					c0.47,0,0.92,0.09,1.34,0.28c0.42,0.19,0.79,0.43,1.09,0.74c0.31,0.31,0.56,0.67,0.74,1.1c0.19,0.42,0.28,0.87,0.28,1.34v4.42
					c0,0.47-0.05,0.89-0.13,1.26c-0.09,0.37-0.24,0.7-0.43,1c-0.2,0.3-0.45,0.56-0.75,0.8s-0.68,0.46-1.11,0.67l-11.97,5.61v3.49
					h11.38v-3.1h3.45v6.56h-18.29v-6.35c0-0.47,0.05-0.89,0.14-1.26c0.09-0.37,0.24-0.7,0.43-0.99c0.19-0.29,0.44-0.56,0.75-0.8
					s0.67-0.46,1.09-0.66l11.99-5.63v-5.01L362.83,217.56L362.83,217.56z"/>
				
					<linearGradient id="SVGID_00000060738893015537897420000014723421952895005112_" gradientUnits="userSpaceOnUse" x1="415.415" y1="131.3323" x2="415.415" y2="149.0513" gradientTransform="matrix(1 0 0 -1 0 368)">
					<stop  offset="0" style="stop-color:#FFFFFF"/>
					<stop  offset="0.0139" style="stop-color:#F6F6F6"/>
					<stop  offset="0.0715" style="stop-color:#D4D4D4"/>
					<stop  offset="0.1307" style="stop-color:#BABABA"/>
					<stop  offset="0.1912" style="stop-color:#A8A8A8"/>
					<stop  offset="0.254" style="stop-color:#9D9D9D"/>
					<stop  offset="0.3227" style="stop-color:#999999"/>
					<stop  offset="0.3969" style="stop-color:#9F9F9F"/>
					<stop  offset="0.4959" style="stop-color:#B0B0B0"/>
					<stop  offset="0.6086" style="stop-color:#CCCCCC"/>
					<stop  offset="0.661" style="stop-color:#DBDBDB"/>
					<stop  offset="0.7215" style="stop-color:#E4E4E4"/>
					<stop  offset="0.8873" style="stop-color:#F8F8F8"/>
					<stop  offset="1" style="stop-color:#FFFFFF"/>
				</linearGradient>
				<path style="fill:url(#SVGID_00000060738893015537897420000014723421952895005112_);" d="M405.95,230.96h3.39v1.28
					c0,0.91,0.2,1.58,0.61,2.01c0.41,0.43,1.07,0.64,1.99,0.64h6.96c0.92,0,1.58-0.21,1.99-0.64c0.4-0.43,0.61-1.09,0.61-2.01v-1.87
					c0-0.92-0.2-1.59-0.61-2.01c-0.41-0.42-1.07-0.62-1.99-0.62h-7.15v-3.37h7.05c0.84-0.04,1.45-0.26,1.81-0.68
					s0.55-1.07,0.55-1.95v-1.58c0-0.92-0.21-1.6-0.61-2.02c-0.41-0.43-1.07-0.64-1.98-0.64h-6.29c-0.91,0-1.57,0.21-1.97,0.64
					s-0.61,1.1-0.61,2.02v1.28h-3.39v-1.45c0-3.92,1.96-5.88,5.87-5.88h6.49c1.99,0,3.46,0.48,4.42,1.45
					c0.96,0.97,1.44,2.44,1.44,4.43v0.44c0,1.36-0.24,2.48-0.72,3.36s-1.17,1.54-2.08,1.96c1.02,0.3,1.8,0.91,2.34,1.82
					s0.81,2.12,0.81,3.62v1.21c0,3.91-1.95,5.86-5.86,5.86h-7.18c-3.92,0-5.88-1.96-5.88-5.86L405.95,230.96L405.95,230.96z"/>
				
					<linearGradient id="SVGID_00000160169170731038751780000010533241485114560162_" gradientUnits="userSpaceOnUse" x1="438.295" y1="131.3323" x2="438.295" y2="149.0513" gradientTransform="matrix(1 0 0 -1 0 368)">
					<stop  offset="0" style="stop-color:#FFFFFF"/>
					<stop  offset="0.0139" style="stop-color:#F6F6F6"/>
					<stop  offset="0.0715" style="stop-color:#D4D4D4"/>
					<stop  offset="0.1307" style="stop-color:#BABABA"/>
					<stop  offset="0.1912" style="stop-color:#A8A8A8"/>
					<stop  offset="0.254" style="stop-color:#9D9D9D"/>
					<stop  offset="0.3227" style="stop-color:#999999"/>
					<stop  offset="0.3969" style="stop-color:#9F9F9F"/>
					<stop  offset="0.4959" style="stop-color:#B0B0B0"/>
					<stop  offset="0.6086" style="stop-color:#CCCCCC"/>
					<stop  offset="0.661" style="stop-color:#DBDBDB"/>
					<stop  offset="0.7215" style="stop-color:#E4E4E4"/>
					<stop  offset="0.8873" style="stop-color:#F8F8F8"/>
					<stop  offset="1" style="stop-color:#FFFFFF"/>
				</linearGradient>
				<path style="fill:url(#SVGID_00000160169170731038751780000010533241485114560162_);" d="M428.68,229.95l11.92-15.84h4.06v15.84
					h3.25v3.32h-3.25v5.01h-3.45v-5.01h-12.52v-3.32H428.68z M441.2,229.95v-11.66l-8.76,11.66H441.2z"/>
				
					<linearGradient id="SVGID_00000021824397462288111670000010354680360377866681_" gradientUnits="userSpaceOnUse" x1="460.825" y1="131.3323" x2="460.825" y2="149.0513" gradientTransform="matrix(1 0 0 -1 0 368)">
					<stop  offset="0" style="stop-color:#FFFFFF"/>
					<stop  offset="0.0139" style="stop-color:#F6F6F6"/>
					<stop  offset="0.0715" style="stop-color:#D4D4D4"/>
					<stop  offset="0.1307" style="stop-color:#BABABA"/>
					<stop  offset="0.1912" style="stop-color:#A8A8A8"/>
					<stop  offset="0.254" style="stop-color:#9D9D9D"/>
					<stop  offset="0.3227" style="stop-color:#999999"/>
					<stop  offset="0.3969" style="stop-color:#9F9F9F"/>
					<stop  offset="0.4959" style="stop-color:#B0B0B0"/>
					<stop  offset="0.6086" style="stop-color:#CCCCCC"/>
					<stop  offset="0.661" style="stop-color:#DBDBDB"/>
					<stop  offset="0.7215" style="stop-color:#E4E4E4"/>
					<stop  offset="0.8873" style="stop-color:#F8F8F8"/>
					<stop  offset="1" style="stop-color:#FFFFFF"/>
				</linearGradient>
				<path style="fill:url(#SVGID_00000021824397462288111670000010354680360377866681_);" d="M469.93,232.41
					c-0.03,1.97-0.53,3.43-1.48,4.41c-0.96,0.97-2.42,1.46-4.38,1.46h-6.49c-3.92,0-5.88-1.96-5.88-5.86v-1.45h3.39v1.28
					c0,0.91,0.2,1.58,0.61,2.01c0.4,0.43,1.07,0.64,1.99,0.64h6.27c0.92,0,1.58-0.21,1.99-0.64c0.4-0.43,0.61-1.09,0.61-2.01V229
					c0-0.91-0.2-1.58-0.61-2c-0.4-0.42-1.07-0.63-1.99-0.63H452.4V214.1h16.92v3.45h-13.47v5.43h8.23c1.98,0,3.45,0.48,4.42,1.44
					s1.45,2.44,1.45,4.43v3.56H469.93z"/>
				
					<linearGradient id="SVGID_00000082333872544206297700000001863696965167072657_" gradientUnits="userSpaceOnUse" x1="485.115" y1="131.3323" x2="485.115" y2="149.0513" gradientTransform="matrix(1 0 0 -1 0 368)">
					<stop  offset="0" style="stop-color:#FFFFFF"/>
					<stop  offset="0.0139" style="stop-color:#F6F6F6"/>
					<stop  offset="0.0715" style="stop-color:#D4D4D4"/>
					<stop  offset="0.1307" style="stop-color:#BABABA"/>
					<stop  offset="0.1912" style="stop-color:#A8A8A8"/>
					<stop  offset="0.254" style="stop-color:#9D9D9D"/>
					<stop  offset="0.3227" style="stop-color:#999999"/>
					<stop  offset="0.3969" style="stop-color:#9F9F9F"/>
					<stop  offset="0.4959" style="stop-color:#B0B0B0"/>
					<stop  offset="0.6086" style="stop-color:#CCCCCC"/>
					<stop  offset="0.661" style="stop-color:#DBDBDB"/>
					<stop  offset="0.7215" style="stop-color:#E4E4E4"/>
					<stop  offset="0.8873" style="stop-color:#F8F8F8"/>
					<stop  offset="1" style="stop-color:#FFFFFF"/>
				</linearGradient>
				<path style="fill:url(#SVGID_00000082333872544206297700000001863696965167072657_);" d="M476.14,217.56
					c0-0.47,0.09-0.92,0.27-1.34s0.43-0.79,0.74-1.1c0.31-0.31,0.68-0.56,1.1-0.74c0.42-0.18,0.87-0.28,1.34-0.28h11.04
					c0.47,0,0.92,0.09,1.34,0.28c0.42,0.19,0.79,0.43,1.1,0.74c0.31,0.31,0.56,0.67,0.74,1.1c0.18,0.42,0.27,0.87,0.27,1.34v3.12
					h-3.45v-3.12H479.6v6.91h11.04c0.47,0,0.92,0.09,1.34,0.27c0.42,0.18,0.79,0.43,1.1,0.74c0.31,0.31,0.56,0.68,0.74,1.11
					c0.18,0.42,0.27,0.87,0.27,1.34v6.89c0,0.47-0.09,0.92-0.27,1.34s-0.43,0.79-0.74,1.1c-0.31,0.31-0.68,0.56-1.1,0.74
					c-0.42,0.18-0.87,0.27-1.34,0.27H479.6c-0.47,0-0.92-0.09-1.34-0.27c-0.42-0.18-0.79-0.43-1.1-0.74
					c-0.31-0.31-0.56-0.68-0.74-1.1c-0.18-0.42-0.27-0.87-0.27-1.34v-17.26H476.14z M479.6,227.92v6.89h11.04v-6.89H479.6z"/>
			</g>
		</g>
	</g>
	<g>
		<path class="st4" d="M371.91,81.78c-1.53,0-2.95-0.25-4.23-0.75c-1.29-0.5-2.41-1.22-3.37-2.15s-1.7-2.01-2.23-3.24
			c-0.53-1.23-0.8-2.59-0.8-4.09s0.27-2.86,0.8-4.09c0.53-1.23,1.28-2.31,2.24-3.24c0.97-0.93,2.09-1.64,3.38-2.15
			c1.29-0.5,2.7-0.75,4.23-0.75c1.63,0,3.12,0.28,4.46,0.84s2.48,1.39,3.41,2.49l-2.39,2.24c-0.74-0.78-1.55-1.36-2.44-1.75
			s-1.85-0.58-2.87-0.58c-1.04,0-1.99,0.17-2.86,0.51c-0.86,0.34-1.61,0.82-2.24,1.45c-0.63,0.62-1.13,1.36-1.49,2.22
			c-0.36,0.85-0.54,1.79-0.54,2.81s0.18,1.96,0.54,2.81c0.36,0.85,0.86,1.59,1.49,2.22c0.63,0.62,1.38,1.11,2.24,1.45
			s1.81,0.51,2.86,0.51c1.02,0,1.98-0.19,2.87-0.58c0.89-0.39,1.7-0.98,2.44-1.78l2.39,2.24c-0.93,1.1-2.06,1.93-3.41,2.5
			C375.05,81.5,373.55,81.78,371.91,81.78z"/>
		<path class="st4" d="M383.35,81.5V61.61h8.18c1.76,0,3.27,0.28,4.53,0.84s2.23,1.37,2.91,2.43s1.02,2.33,1.02,3.81
			c0,1.46-0.34,2.71-1.02,3.75s-1.65,1.85-2.91,2.41c-1.26,0.57-2.77,0.85-4.53,0.85h-6.11l1.62-1.65v7.44h-3.69V81.5z
			 M387.05,74.45l-1.62-1.79h5.94c1.63,0,2.86-0.35,3.68-1.05c0.82-0.7,1.24-1.68,1.24-2.93s-0.41-2.22-1.24-2.91
			c-0.82-0.69-2.05-1.04-3.68-1.04h-5.94l1.62-1.82V74.45z M396.37,81.5l-5.03-7.22h3.95l5.06,7.22H396.37z"/>
		<path class="st4" d="M409.01,81.5v-7.87l0.85,2.24l-8.67-14.26h3.92l6.99,11.51h-2.22l6.96-11.51h3.64l-8.64,14.26l0.82-2.24v7.87
			H409.01z"/>
		<path class="st4" d="M422.9,81.5V61.61h8.18c1.76,0,3.27,0.28,4.53,0.84s2.23,1.37,2.91,2.43s1.02,2.33,1.02,3.81
			c0,1.46-0.34,2.71-1.02,3.76s-1.65,1.87-2.91,2.44c-1.26,0.58-2.77,0.87-4.53,0.87h-6.11l1.62-1.7v7.44
			C426.59,81.5,422.9,81.5,422.9,81.5z M426.59,74.45l-1.62-1.82h5.94c1.63,0,2.86-0.35,3.68-1.04s1.24-1.66,1.24-2.91
			s-0.41-2.22-1.24-2.91c-0.82-0.69-2.05-1.04-3.68-1.04h-5.94l1.62-1.82V74.45z"/>
		<path class="st4" d="M447.56,81.5V64.74h-6.59v-3.13h16.88v3.13h-6.59V81.5H447.56z"/>
		<path class="st4" d="M469.95,81.78c-1.53,0-2.96-0.26-4.28-0.77c-1.32-0.51-2.46-1.23-3.42-2.16c-0.97-0.93-1.71-2.01-2.24-3.25
			s-0.8-2.59-0.8-4.05c0-1.48,0.27-2.84,0.8-4.08c0.53-1.24,1.28-2.32,2.24-3.24c0.97-0.92,2.1-1.63,3.41-2.15
			c1.31-0.51,2.74-0.77,4.29-0.77c1.53,0,2.95,0.25,4.26,0.75s2.44,1.21,3.4,2.13c0.96,0.92,1.7,2,2.23,3.25s0.8,2.61,0.8,4.09
			s-0.27,2.84-0.8,4.08c-0.53,1.24-1.27,2.33-2.23,3.25c-0.96,0.93-2.09,1.64-3.4,2.15C472.9,81.53,471.48,81.78,469.95,81.78z
			 M469.95,78.54c1,0,1.93-0.17,2.77-0.51c0.84-0.34,1.58-0.82,2.2-1.45c0.63-0.62,1.11-1.36,1.46-2.22
			c0.35-0.85,0.53-1.79,0.53-2.81s-0.17-1.96-0.51-2.81s-0.83-1.59-1.46-2.22c-0.63-0.62-1.37-1.11-2.22-1.45
			c-0.84-0.34-1.77-0.51-2.77-0.51s-1.94,0.17-2.8,0.51c-0.86,0.34-1.61,0.83-2.23,1.46c-0.62,0.63-1.12,1.37-1.48,2.22
			c-0.36,0.84-0.54,1.78-0.54,2.8c0,1,0.18,1.93,0.54,2.78c0.36,0.85,0.85,1.6,1.48,2.23c0.62,0.63,1.37,1.12,2.23,1.46
			C468.01,78.37,468.94,78.54,469.95,78.54z"/>
	</g>
</g>
<g>
	<g>
		<path class="st23" d="M418.43,114.42c0.19-0.38,0.37-0.76,0.55-1.14c0.82-1.72,1.63-3.43,2.45-5.15
			c2.07-4.35,4.15-8.71,6.22-13.06c0.1-0.2,0.23-0.29,0.45-0.29c10.4,0,20.8,0,31.21,0c0.22,0,0.36,0.09,0.45,0.29
			c2.2,4.62,4.4,9.24,6.6,13.86c0.85,1.79,1.7,3.58,2.55,5.37c0.12,0.25,0.1,0.37-0.1,0.56c-2.31,2.21-4.62,4.42-6.93,6.64
			c-1.55,1.49-3.11,2.98-4.66,4.47c-1.41,1.36-2.83,2.71-4.24,4.07c-1.62,1.55-3.24,3.11-4.86,4.66c-1.21,1.16-2.42,2.32-3.63,3.48
			c-0.16,0.15-0.32,0.3-0.48,0.45c-0.2,0.19-0.41,0.19-0.61,0c-1.11-1.06-2.21-2.12-3.32-3.18c-2.06-1.97-4.12-3.95-6.18-5.92
			c-1.19-1.14-2.38-2.28-3.58-3.43c-1.84-1.77-3.69-3.53-5.53-5.3c-1.2-1.15-2.41-2.31-3.61-3.46c-0.85-0.82-1.7-1.63-2.56-2.45
			c-0.08-0.08-0.14-0.16-0.2-0.26C418.43,114.55,418.43,114.48,418.43,114.42z M443.72,100.77c-3.95,0-7.9,0-11.86,0
			c-0.12,0-0.15,0.03-0.14,0.15c0,1.85,0,3.7,0,5.55c0,0.21-0.03,0.19,0.19,0.19c2.83,0,5.65,0,8.48,0c0.09,0,0.14,0,0.14,0.12
			c0,1.2,0,2.41,0,3.61c0,0.08-0.02,0.11-0.11,0.12c-0.92,0.05-1.83,0.11-2.75,0.19c-0.89,0.08-1.78,0.18-2.67,0.32
			c-1.06,0.16-2.12,0.35-3.17,0.62c-0.91,0.24-1.8,0.51-2.63,0.94c-0.38,0.2-0.74,0.42-1.01,0.77c-0.3,0.39-0.3,0.79-0.01,1.18
			c0.15,0.21,0.35,0.37,0.56,0.51c0.52,0.35,1.09,0.59,1.67,0.79c1.12,0.39,2.27,0.65,3.43,0.86c0.81,0.15,1.63,0.26,2.45,0.36
			c0.77,0.09,1.54,0.17,2.31,0.22c0.59,0.04,1.18,0.08,1.76,0.11c0.12,0.01,0.15,0.04,0.15,0.16c0,4.01,0,8.01,0,12.02
			c0,0.2-0.02,0.17,0.18,0.17c2,0,4,0,6,0c0.22,0,0.2,0.03,0.2-0.19c0-3.99,0-7.97,0-11.96c0-0.03,0-0.07,0-0.1
			c-0.01-0.07,0.01-0.1,0.09-0.1c0.04,0,0.08-0.01,0.13-0.01c0.65-0.03,1.3-0.07,1.95-0.13c1.01-0.08,2.02-0.19,3.02-0.33
			c1.2-0.17,2.39-0.38,3.56-0.69c0.88-0.23,1.74-0.5,2.54-0.92c0.36-0.19,0.7-0.41,0.97-0.72c0.33-0.38,0.35-0.82,0.06-1.21
			c-0.09-0.12-0.19-0.23-0.3-0.32c-0.39-0.33-0.85-0.56-1.32-0.76c-1-0.42-2.05-0.69-3.11-0.91c-1.39-0.29-2.8-0.49-4.21-0.64
			c-1.09-0.11-2.18-0.19-3.27-0.24c-0.11-0.01-0.1-0.06-0.1-0.14c0-1.18,0-2.35,0-3.53c0-0.22-0.03-0.19,0.19-0.19
			c2.83,0,5.65,0,8.48,0c0.12,0,0.15-0.03,0.15-0.15c0-1.86,0-3.72,0-5.57c0-0.16,0-0.16-0.16-0.16
			C451.61,100.77,447.66,100.77,443.72,100.77z"/>
		<path class="st24" d="M443.72,100.77c3.95,0,7.9,0,11.84,0c0.16,0,0.16,0,0.16,0.16c0,1.86,0,3.72,0,5.57
			c0,0.12-0.03,0.15-0.15,0.15c-2.83,0-5.65,0-8.48,0c-0.21,0-0.18-0.03-0.19,0.19c0,1.18,0,2.35,0,3.53c0,0.07-0.01,0.13,0.1,0.14
			c1.09,0.05,2.18,0.13,3.27,0.24c1.41,0.15,2.82,0.34,4.21,0.64c1.06,0.22,2.1,0.49,3.11,0.91c0.47,0.2,0.93,0.42,1.32,0.76
			c0.11,0.1,0.21,0.2,0.3,0.32c0.29,0.39,0.27,0.83-0.06,1.21c-0.27,0.31-0.61,0.53-0.97,0.72c-0.81,0.42-1.67,0.69-2.54,0.92
			c-1.17,0.31-2.36,0.52-3.56,0.69c-1,0.14-2.01,0.25-3.02,0.33c-0.65,0.05-1.3,0.1-1.95,0.13c-0.04,0-0.08,0.01-0.13,0.01
			c-0.07,0-0.09,0.04-0.09,0.1c0,0.03,0,0.07,0,0.1c0,3.99,0,7.97,0,11.96c0,0.22,0.03,0.19-0.2,0.19c-2,0-4,0-6,0
			c-0.2,0-0.18,0.02-0.18-0.17c0-4.01,0-8.01,0-12.02c0-0.12-0.03-0.15-0.15-0.16c-0.59-0.03-1.18-0.07-1.76-0.11
			c-0.77-0.05-1.54-0.13-2.31-0.22c-0.82-0.1-1.63-0.21-2.45-0.36c-1.16-0.21-2.32-0.47-3.43-0.86c-0.58-0.21-1.16-0.44-1.67-0.79
			c-0.21-0.14-0.41-0.3-0.56-0.51c-0.29-0.39-0.29-0.8,0.01-1.18c0.27-0.34,0.63-0.57,1.01-0.77c0.83-0.44,1.73-0.71,2.63-0.94
			c1.04-0.27,2.1-0.47,3.17-0.62c0.89-0.13,1.78-0.23,2.67-0.32c0.91-0.08,1.83-0.15,2.75-0.19c0.09,0,0.11-0.04,0.11-0.12
			c0-1.2,0-2.41,0-3.61c0-0.12-0.05-0.12-0.14-0.12c-2.83,0-5.65,0-8.48,0c-0.22,0-0.19,0.02-0.19-0.19c0-1.85,0-3.7,0-5.55
			c0-0.11,0.03-0.15,0.14-0.15C435.81,100.77,439.76,100.77,443.72,100.77z M443.86,116.41c0.73,0.01,1.53,0,2.33-0.03
			c1.14-0.05,2.27-0.11,3.4-0.21c0.73-0.07,1.47-0.14,2.2-0.24c0.94-0.13,1.88-0.28,2.81-0.5c0.77-0.18,1.53-0.39,2.25-0.72
			c0.33-0.15,0.65-0.33,0.89-0.61c0.15-0.17,0.24-0.36,0.18-0.59c-0.06-0.25-0.24-0.41-0.43-0.56c-0.33-0.25-0.7-0.42-1.08-0.56
			c-1.17-0.44-2.39-0.68-3.62-0.88c-0.96-0.16-1.93-0.27-2.9-0.36c-0.94-0.09-1.89-0.15-2.83-0.2c-0.12-0.01-0.15,0.03-0.14,0.14
			c0,1.34,0,2.69,0,4.03c0,0.09-0.02,0.13-0.12,0.13c-0.73,0.06-1.47,0.07-2.21,0.08c-1.3,0.02-2.59-0.01-3.89-0.09
			c-0.12-0.01-0.15-0.04-0.15-0.16c0-1.34,0-2.67,0-4.01c0-0.11-0.02-0.15-0.14-0.15c-0.43,0.03-0.87,0.05-1.3,0.08
			c-0.97,0.06-1.93,0.15-2.89,0.26c-1.14,0.14-2.27,0.31-3.39,0.58c-0.77,0.18-1.54,0.39-2.26,0.73c-0.34,0.16-0.66,0.33-0.9,0.63
			c-0.22,0.28-0.22,0.56,0,0.84c0.04,0.06,0.09,0.11,0.15,0.16c0.32,0.28,0.69,0.46,1.08,0.62c0.94,0.38,1.92,0.6,2.92,0.79
			c1.16,0.22,2.33,0.37,3.51,0.49c1.15,0.11,2.3,0.19,3.45,0.24C441.76,116.4,442.77,116.42,443.86,116.41z"/>
		<path class="st23" d="M443.86,116.41c-1.08,0.01-2.1-0.02-3.11-0.06c-1.15-0.05-2.3-0.12-3.45-0.24
			c-1.18-0.12-2.35-0.27-3.51-0.49c-0.99-0.19-1.98-0.41-2.92-0.79c-0.39-0.16-0.76-0.33-1.08-0.62c-0.05-0.05-0.1-0.1-0.15-0.16
			c-0.22-0.28-0.22-0.56,0-0.84c0.24-0.3,0.57-0.47,0.9-0.63c0.72-0.34,1.49-0.55,2.26-0.73c1.12-0.26,2.25-0.44,3.39-0.58
			c0.96-0.12,1.92-0.21,2.89-0.26c0.43-0.03,0.87-0.05,1.3-0.08c0.12-0.01,0.14,0.03,0.14,0.15c0,1.34,0,2.67,0,4.01
			c0,0.12,0.03,0.15,0.15,0.16c1.3,0.08,2.59,0.11,3.89,0.09c0.74-0.01,1.47-0.02,2.21-0.08c0.1-0.01,0.12-0.04,0.12-0.13
			c0-1.34,0-2.69,0-4.03c0-0.11,0.02-0.15,0.14-0.14c0.95,0.05,1.89,0.11,2.83,0.2c0.97,0.09,1.94,0.2,2.9,0.36
			c1.23,0.2,2.45,0.44,3.62,0.88c0.38,0.14,0.76,0.31,1.08,0.56c0.19,0.15,0.37,0.31,0.43,0.56c0.06,0.23-0.03,0.42-0.18,0.59
			c-0.24,0.28-0.56,0.45-0.89,0.61c-0.72,0.33-1.48,0.54-2.25,0.72c-0.93,0.22-1.86,0.37-2.81,0.5c-0.73,0.1-1.46,0.17-2.2,0.24
			c-1.13,0.1-2.27,0.17-3.4,0.21C445.39,116.41,444.59,116.42,443.86,116.41z"/>
	</g>
	<g>
		<path class="st25" d="M407.95,108.39c0.36,1.32,0.71,2.63,1.07,3.95c-0.01,0-0.02-0.01-0.03-0.01c-0.01,0-0.02-0.01-0.02-0.01
			c-0.05,0.09-0.01,0.18,0,0.27c0.34,1.94,0.47,3.89,0.3,5.86c-0.69,8.11-4.47,14.4-11.23,18.91c-1.41,0.94-2.94,1.68-4.54,2.27
			c-0.08,0.03-0.22,0.01-0.19,0.17c-1.34,0.36-2.67,0.72-4.01,1.08c0.01-0.02,0.02-0.03,0.02-0.05c0,0-0.02-0.01-0.03-0.01
			c-0.08,0-0.16,0-0.24,0.01c-1.4,0.25-2.82,0.38-4.24,0.35c-8.8-0.23-15.63-4.04-20.5-11.35c-0.94-1.41-1.66-2.93-2.25-4.51
			c-0.02-0.06,0.01-0.22-0.15-0.16c-0.36-1.32-0.71-2.63-1.07-3.95c0.01,0,0.02,0.01,0.03,0.01c0.01,0,0.02,0.01,0.02,0.01
			c0.05-0.09,0.01-0.18,0-0.27c-0.34-1.96-0.46-3.93-0.29-5.92c0.62-7.41,3.92-13.37,9.83-17.88c1.81-1.38,3.8-2.45,5.94-3.24
			c0.08-0.03,0.22,0,0.2-0.17c1.34-0.36,2.67-0.72,4.01-1.08c-0.01,0.02-0.02,0.03-0.02,0.05c0,0,0.02,0.01,0.03,0.01
			c0.08,0,0.16,0,0.24-0.01c0.91-0.16,1.83-0.26,2.75-0.31c8.85-0.49,17.19,3.78,21.96,11.26c0.91,1.43,1.68,2.94,2.26,4.54
			C407.83,108.35,407.83,108.35,407.95,108.39z M392.17,115.27c0.6-0.34,1.1-0.73,1.48-1.26c1.66-2.25,0.72-5.81-1.86-7.03
			c-1.22-0.58-2.53-0.79-3.87-0.89c-0.24-0.02-0.32-0.09-0.32-0.34c-0.01-1.33-0.05-2.66-0.07-3.99c0-0.19-0.06-0.24-0.25-0.24
			c-0.73,0.02-1.46,0.05-2.19,0.04c-0.29,0-0.34,0.11-0.33,0.37c0.04,1.27,0.05,2.54,0.08,3.81c0,0.18-0.01,0.27-0.24,0.27
			c-0.57,0-1.14,0.02-1.7,0.06c-0.22,0.01-0.26-0.06-0.27-0.27c-0.02-1.3-0.06-2.6-0.07-3.9c0-0.25-0.09-0.28-0.3-0.28
			c-0.7,0.02-1.4,0.05-2.1,0.04c-0.29,0-0.38,0.07-0.37,0.37c0.04,1.29,0.05,2.58,0.09,3.87c0.01,0.25-0.06,0.32-0.32,0.32
			c-1.65,0.02-3.31,0.07-4.96,0.09c-0.23,0-0.29,0.07-0.28,0.29c0.03,0.8,0.04,1.6,0.05,2.41c0,0.19,0.04,0.26,0.26,0.25
			c0.69-0.03,1.38-0.09,2.07-0.02c0.8,0.08,1.29,0.6,1.3,1.38c0.08,3.98,0.16,7.96,0.23,11.94c0.02,0.8-0.32,1.17-1.12,1.2
			c-0.56,0.02-1.12,0.03-1.67,0.03c-0.19,0-0.24,0.06-0.26,0.23c-0.13,0.95-0.27,1.89-0.42,2.83c-0.03,0.22,0.02,0.25,0.23,0.24
			c1.67-0.04,3.35-0.06,5.02-0.09c0.22,0,0.29,0.04,0.29,0.28c0.01,1.35,0.05,2.7,0.07,4.05c0,0.22,0.06,0.27,0.27,0.26
			c0.74-0.03,1.48-0.05,2.22-0.04c0.26,0,0.27-0.1,0.27-0.3c-0.03-1.31-0.05-2.62-0.09-3.93c-0.01-0.25,0.05-0.34,0.31-0.33
			c0.53,0.01,1.06,0.01,1.58-0.01c0.26-0.01,0.32,0.06,0.33,0.32c0.01,1.31,0.05,2.62,0.07,3.93c0,0.24,0.08,0.28,0.3,0.27
			c0.73-0.03,1.46-0.04,2.19-0.04c0.22,0,0.29-0.05,0.28-0.29c-0.04-1.28-0.06-2.56-0.08-3.84c-0.01-0.47-0.01-0.47,0.48-0.51
			c1.45-0.13,2.89-0.36,4.24-0.93c1.32-0.55,2.36-1.42,2.94-2.77c0.46-1.07,0.58-2.2,0.52-3.34c-0.1-2-1.02-3.43-2.93-4.15
			C392.93,115.5,392.57,115.4,392.17,115.27z"/>
		<path class="st26" d="M392.17,115.27c0.4,0.13,0.76,0.23,1.11,0.36c1.92,0.72,2.83,2.15,2.93,4.15c0.06,1.15-0.06,2.27-0.52,3.34
			c-0.58,1.35-1.61,2.22-2.94,2.77c-1.36,0.57-2.79,0.79-4.24,0.93c-0.49,0.04-0.49,0.04-0.48,0.51c0.03,1.28,0.05,2.56,0.08,3.84
			c0.01,0.23-0.06,0.29-0.28,0.29c-0.73,0-1.46,0.01-2.19,0.04c-0.21,0.01-0.29-0.03-0.3-0.27c-0.01-1.31-0.05-2.62-0.07-3.93
			c0-0.25-0.07-0.33-0.33-0.32c-0.53,0.03-1.06,0.03-1.58,0.01c-0.26-0.01-0.31,0.08-0.31,0.33c0.04,1.31,0.06,2.62,0.09,3.93
			c0,0.2-0.01,0.3-0.27,0.3c-0.74-0.01-1.48,0.01-2.22,0.04c-0.22,0.01-0.27-0.04-0.27-0.26c-0.02-1.35-0.06-2.7-0.07-4.05
			c0-0.24-0.08-0.28-0.29-0.28c-1.67,0.04-3.35,0.06-5.02,0.09c-0.2,0-0.26-0.03-0.23-0.24c0.15-0.94,0.29-1.89,0.42-2.83
			c0.02-0.17,0.07-0.24,0.26-0.23c0.56,0.01,1.12,0,1.67-0.03c0.8-0.03,1.13-0.4,1.12-1.2c-0.08-3.98-0.15-7.96-0.23-11.94
			c-0.02-0.78-0.51-1.3-1.3-1.38c-0.69-0.07-1.38-0.01-2.07,0.02c-0.22,0.01-0.26-0.07-0.26-0.25c-0.01-0.8-0.02-1.6-0.05-2.41
			c-0.01-0.23,0.05-0.29,0.28-0.29c1.65-0.02,3.31-0.07,4.96-0.09c0.26,0,0.32-0.08,0.32-0.32c-0.04-1.29-0.05-2.58-0.09-3.87
			c-0.01-0.3,0.08-0.37,0.37-0.37c0.7,0.01,1.4-0.02,2.1-0.04c0.21-0.01,0.3,0.03,0.3,0.28c0.01,1.3,0.05,2.6,0.07,3.9
			c0,0.21,0.04,0.28,0.27,0.27c0.57-0.04,1.14-0.06,1.7-0.06c0.23,0,0.24-0.08,0.24-0.27c-0.03-1.27-0.05-2.54-0.08-3.81
			c-0.01-0.26,0.03-0.37,0.33-0.37c0.73,0.01,1.46-0.01,2.19-0.04c0.19-0.01,0.24,0.04,0.25,0.24c0.02,1.33,0.06,2.66,0.07,3.99
			c0,0.26,0.08,0.32,0.32,0.34c1.33,0.1,2.64,0.31,3.87,0.89c2.59,1.22,3.52,4.78,1.86,7.03
			C393.27,114.53,392.77,114.93,392.17,115.27z M388.03,123.25c0.09-0.02,0.18-0.04,0.26-0.07c0.5-0.16,0.99-0.36,1.42-0.68
			c1.4-1.02,1.37-3.06-0.05-4.05c-0.77-0.53-1.65-0.72-2.55-0.83c-1.29-0.16-2.59-0.09-3.89-0.05c-0.24,0.01-0.28,0.09-0.27,0.3
			c0.04,1.66,0.07,3.33,0.1,4.99c0.01,0.25-0.07,0.58,0.06,0.74c0.15,0.18,0.49,0.06,0.75,0.06
			C385.26,123.65,386.66,123.59,388.03,123.25z M386.9,114.48c0.33-0.09,0.64-0.19,0.95-0.34c0.9-0.44,1.45-1.13,1.44-2.17
			c-0.01-1.05-0.51-1.77-1.45-2.21c-0.42-0.2-0.86-0.31-1.31-0.39c-1.19-0.2-2.39-0.13-3.58-0.08c-0.17,0.01-0.16,0.11-0.16,0.22
			c0.01,0.4,0.02,0.79,0.02,1.19c0.02,1.28,0.05,2.56,0.08,3.83c0,0.11-0.07,0.28,0.17,0.28C384.35,114.8,385.64,114.8,386.9,114.48
			z"/>
		<path class="st25" d="M388.03,123.25c-1.37,0.34-2.77,0.4-4.17,0.41c-0.26,0-0.6,0.12-0.75-0.06c-0.13-0.15-0.05-0.48-0.06-0.74
			c-0.03-1.66-0.06-3.33-0.1-4.99c0-0.21,0.03-0.29,0.27-0.3c1.3-0.04,2.6-0.11,3.89,0.05c0.9,0.11,1.79,0.3,2.55,0.83
			c1.42,0.98,1.45,3.03,0.05,4.05c-0.43,0.32-0.92,0.51-1.42,0.68C388.21,123.2,388.12,123.22,388.03,123.25z"/>
		<path class="st25" d="M386.9,114.48c-1.26,0.33-2.55,0.33-3.84,0.34c-0.23,0-0.17-0.17-0.17-0.28c-0.03-1.28-0.05-2.56-0.08-3.83
			c-0.01-0.4-0.02-0.79-0.02-1.19c0-0.11-0.01-0.22,0.16-0.22c1.2-0.04,2.39-0.11,3.58,0.08c0.45,0.08,0.89,0.19,1.31,0.39
			c0.93,0.44,1.44,1.16,1.45,2.21c0.01,1.05-0.54,1.73-1.44,2.17C387.54,114.29,387.22,114.39,386.9,114.48z"/>
	</g>
	<g>
		<path class="st27" d="M482.21,117.12c0.02-0.15,0.12-0.26,0.19-0.38c1.24-2.06,2.49-4.12,3.73-6.19c1.38-2.28,2.76-4.57,4.13-6.85
			c1.25-2.08,2.51-4.16,3.76-6.24c0.66-1.1,1.33-2.2,2-3.3c0.04-0.07,0.06-0.16,0.16-0.19c0.02,0,0.04,0.01,0.06,0.01
			c0,0.09-0.01,0.19-0.01,0.28c0,5.32,0,10.65,0,15.97c0,0.19-0.01,0.39-0.04,0.58c-0.15,0.06-0.3,0.12-0.45,0.19
			c-0.88,0.4-1.76,0.8-2.64,1.21c-1.5,0.68-2.99,1.36-4.49,2.04c-0.88,0.4-1.75,0.8-2.63,1.2c-1.1,0.5-2.19,1-3.3,1.49
			C482.53,117.01,482.39,117.11,482.21,117.12z"/>
		<path class="st28" d="M496.2,110.81c0.03-0.19,0.04-0.39,0.04-0.58c0-5.32,0-10.65,0-15.97c0-0.09,0-0.19,0.01-0.28
			c0-0.02,0.01-0.05,0.01-0.07c0.2,0.25,0.34,0.53,0.5,0.8c1.25,2.06,2.49,4.13,3.74,6.2c1.1,1.83,2.2,3.65,3.3,5.48
			c1.49,2.47,2.97,4.93,4.46,7.4c0.63,1.05,1.27,2.1,1.9,3.16c0.03,0.05,0.08,0.1,0.09,0.17c-0.06,0.01-0.11-0.01-0.17-0.04
			c-0.58-0.26-1.17-0.52-1.75-0.79c-0.39-0.18-0.77-0.36-1.16-0.53c-0.61-0.28-1.22-0.55-1.82-0.83c-0.35-0.16-0.69-0.32-1.04-0.47
			c-0.71-0.32-1.41-0.64-2.12-0.96c-0.56-0.25-1.11-0.51-1.67-0.76c-0.7-0.32-1.4-0.63-2.1-0.95c-0.56-0.26-1.12-0.52-1.69-0.77
			c-0.16-0.07-0.32-0.17-0.49-0.21C496.23,110.81,496.21,110.81,496.2,110.81z"/>
		<path class="st29" d="M496.2,110.81c0.02,0,0.03,0,0.05,0c0,0.05,0,0.1,0,0.15c0,4.75,0,9.49,0,14.24c0,0.05,0,0.1,0,0.15
			c0,0.05,0.02,0.08,0.06,0.11c-0.09,0.08-0.16,0.02-0.23-0.03c-0.54-0.32-1.09-0.64-1.63-0.96c-1.44-0.85-2.88-1.7-4.32-2.56
			c-1.52-0.9-3.04-1.8-4.56-2.69c-1.09-0.64-2.17-1.29-3.26-1.93c-0.04-0.03-0.09-0.05-0.13-0.08c-0.05-0.05,0.01-0.07,0.03-0.1
			c0.18-0.01,0.32-0.11,0.48-0.18c1.1-0.49,2.2-0.99,3.3-1.49c0.88-0.4,1.75-0.8,2.63-1.2c1.5-0.68,2.99-1.36,4.49-2.04
			c0.88-0.4,1.76-0.8,2.64-1.21C495.89,110.94,496.05,110.88,496.2,110.81z"/>
		<path class="st30" d="M496.3,125.47c-0.04-0.02-0.06-0.06-0.06-0.11c0-0.05,0-0.1,0-0.15c0-4.75,0-9.49,0-14.24
			c0-0.05,0-0.1,0-0.15c0.18,0.04,0.33,0.14,0.49,0.21c0.57,0.25,1.12,0.51,1.69,0.77c0.7,0.32,1.4,0.63,2.1,0.95
			c0.56,0.25,1.11,0.51,1.67,0.76c0.71,0.32,1.41,0.64,2.12,0.96c0.35,0.16,0.69,0.32,1.04,0.47c0.61,0.28,1.22,0.55,1.82,0.83
			c0.39,0.18,0.77,0.36,1.16,0.53c0.58,0.26,1.17,0.52,1.75,0.79c0.05,0.02,0.11,0.04,0.17,0.04c0.04,0.03,0.07,0.06,0.02,0.1
			c-0.03,0.03-0.07,0.05-0.11,0.07c-0.67,0.38-1.34,0.78-2,1.17c-1.78,1.07-3.57,2.11-5.35,3.17c-0.83,0.49-1.66,0.97-2.48,1.46
			c-0.89,0.53-1.78,1.05-2.66,1.58C497.21,124.94,496.76,125.2,496.3,125.47z"/>
		<path class="st31" d="M510.21,120.02c0,0.01-0.01,0.02-0.02,0.03c-0.02,0-0.04,0.02-0.03,0.04c-1.04,1.46-2.07,2.92-3.11,4.38
			c-1,1.41-2.01,2.82-3.01,4.24c-1.6,2.25-3.2,4.5-4.8,6.75c-0.96,1.35-1.91,2.7-2.87,4.04c-0.04,0.05-0.07,0.11-0.12,0.15
			c-0.03,0.03-0.05,0-0.06-0.03c0.03-0.08,0.02-0.17,0.02-0.26c0-3.66,0-7.32,0-10.97c0-0.07,0-0.14-0.01-0.22
			c0.94-0.55,1.88-1.1,2.82-1.66c1.93-1.14,3.86-2.28,5.78-3.42c1.74-1.03,3.47-2.05,5.21-3.08c0.04-0.03,0.09-0.05,0.13-0.07
			C510.18,119.97,510.2,119.99,510.21,120.02z"/>
		<path class="st27" d="M496.2,128.18c0,0.07,0.01,0.14,0.01,0.22c0,3.66,0,7.32,0,10.97c0,0.09,0.01,0.17-0.02,0.26
			c-0.13-0.08-0.19-0.22-0.27-0.33c-1.59-2.24-3.18-4.48-4.77-6.72c-1.89-2.66-3.78-5.32-5.67-7.99c-1.06-1.49-2.11-2.98-3.17-4.47
			c-0.04-0.05-0.09-0.1-0.11-0.18c0.08-0.02,0.12,0.03,0.16,0.06c1.64,0.97,3.28,1.94,4.92,2.91c2.19,1.29,4.37,2.58,6.56,3.87
			c0.75,0.44,1.5,0.88,2.25,1.33C496.14,128.13,496.17,128.16,496.2,128.18z"/>
		<path class="st27" d="M510.21,120.02c-0.01-0.03-0.03-0.05-0.06-0.06c0.02-0.05,0.07-0.06,0.13-0.08
			C510.28,119.95,510.26,119.99,510.21,120.02z"/>
		<path class="st31" d="M496.25,93.91c0,0.02-0.01,0.05-0.01,0.07c-0.02,0-0.04-0.01-0.06-0.01c0.01-0.03,0.01-0.06,0.02-0.08
			C496.24,93.83,496.24,93.88,496.25,93.91z"/>
		<path class="st27" d="M510.15,120.09c0-0.03,0.01-0.04,0.03-0.04C510.19,120.07,510.18,120.09,510.15,120.09z"/>
	</g>
</g>
</svg>
