<?xml version="1.0" encoding="utf-8"?>
<!-- Generator: Adobe Illustrator 26.0.1, SVG Export Plug-In . SVG Version: 6.00 Build 0)  -->
<svg version="1.1" id="Layer_1" xmlns="http://www.w3.org/2000/svg" xmlns:xlink="http://www.w3.org/1999/xlink" x="0px" y="0px"
	 viewBox="0 0 216 70.17" style="enable-background:new 0 0 216 70.17;" xml:space="preserve">
<style type="text/css">
	.st0{fill-rule:evenodd;clip-rule:evenodd;fill:#097939;}
	.st1{fill-rule:evenodd;clip-rule:evenodd;fill:#ED752E;}
	.st2{fill-rule:evenodd;clip-rule:evenodd;fill:#FFFFFF;}
	.st3{fill:#FFFFFF;}
	.st4{fill:#F37920;}
	.st5{fill:#028C44;}
	.st6{fill:#FEFEFE;}
	.st7{fill:#F6931A;}
	.st8{fill:#8891B1;}
	.st9{fill:#63688E;}
	.st10{fill:#464A75;}
	.st11{fill:#27A17C;}
	.st12{fill:#FBFEFD;}
</style>
<g>
	<path class="st8" d="M18.09,25.66V6.11L1.88,33.02L18.09,25.66z"/>
	<path class="st9" d="M18.09,42.61V25.66L1.88,33.02L18.09,42.61z M18.09,25.66l16.23,7.36L18.09,6.11V25.66z"/>
	<path class="st10" d="M18.09,25.66v16.95l16.23-9.59L18.09,25.66z"/>
	<path class="st8" d="M18.09,45.68L1.88,36.11l16.21,22.85V45.68z"/>
	<path class="st9" d="M34.31,36.11l-16.23,9.57v13.28L34.31,36.11z"/>
	<path class="st3" d="M61.42,36.65c0,0.37-0.33,0.7-0.7,0.7H47.75c0.33,3.09,2.73,6.09,6.13,6.09c2.32,0,4.04-0.9,5.35-2.77
		c0.14-0.2,0.33-0.33,0.57-0.33c0.37,0,0.64,0.27,0.64,0.64c0,0.14-0.04,0.23-0.1,0.33c-1.31,2.28-3.91,3.4-6.46,3.4
		c-4.37,0-7.48-3.91-7.48-8.08s3.11-8.07,7.48-8.07S61.42,32.47,61.42,36.65L61.42,36.65z M60.01,36.03
		c-0.27-3.3-2.73-6.13-6.13-6.13s-5.82,2.83-6.13,6.13H60.01z M77.18,28.78c0.37,0,0.64,0.33,0.64,0.66c0,0.37-0.27,0.66-0.64,0.66
		H73.7v13.71c0,0.33-0.29,0.64-0.66,0.64c-0.37,0-0.66-0.33-0.66-0.64V30.11h-3.34c-0.37,0-0.64-0.29-0.64-0.66
		c0-0.33,0.27-0.66,0.64-0.66h3.34v-4.96c0-0.37,0.29-0.64,0.66-0.64c0.37,0,0.66,0.27,0.66,0.64v4.96H77.18z M98.31,35.44v8.28
		c0,0.37-0.21,0.64-0.55,0.64c-0.37,0-0.55-0.27-0.55-0.64v-8.28c0-2.79-1.62-5.59-4.75-5.59c-4,0-5.78,3.5-5.57,7.07
		c0,0.1-0.02,0.51-0.02,0.57v6.23c0,0.37-0.18,0.64-0.55,0.64s-0.55-0.27-0.55-0.64v-27.2c0-0.33,0.18-0.64,0.55-0.64
		s0.55,0.33,0.55,0.64v15.39c1.33-1.99,3.11-3.34,5.43-3.34C96.12,28.57,98.31,31.91,98.31,35.44L98.31,35.44z M121.7,36.65
		c0,0.37-0.33,0.7-0.7,0.7h-12.97c0.33,3.09,2.73,6.09,6.13,6.09c2.32,0,4.04-0.9,5.35-2.77c0.14-0.2,0.33-0.33,0.57-0.33
		c0.37,0,0.64,0.27,0.64,0.64c0,0.14-0.04,0.23-0.1,0.33c-1.31,2.28-3.91,3.4-6.46,3.4c-4.37,0-7.48-3.91-7.48-8.08
		s3.11-8.07,7.48-8.07C118.54,28.57,121.7,32.47,121.7,36.65z M120.32,36.03c-0.27-3.3-2.73-6.13-6.13-6.13s-5.82,2.83-6.13,6.13
		H120.32z M137.66,29.45c0,0.41-0.23,0.64-0.62,0.7c-3.81,0.57-5.55,3.67-5.55,7.3v6.21c0,0.37-0.29,0.64-0.66,0.64
		s-0.66-0.27-0.66-0.64V29.49c0-0.37,0.29-0.64,0.66-0.64s0.66,0.27,0.66,0.64v2.89c1.09-1.82,3.22-3.53,5.45-3.53
		C137.27,28.84,137.66,29.08,137.66,29.45z M158.99,36.65c0,0.37-0.33,0.7-0.7,0.7h-12.97c0.33,3.09,2.73,6.09,6.13,6.09
		c2.32,0,4.04-0.9,5.35-2.77c0.14-0.2,0.33-0.33,0.57-0.33c0.37,0,0.64,0.27,0.64,0.64c0,0.14-0.04,0.23-0.1,0.33
		c-1.31,2.28-3.91,3.4-6.46,3.4c-4.37,0-7.48-3.91-7.48-8.08s3.11-8.07,7.48-8.07C155.82,28.55,158.99,32.47,158.99,36.65
		L158.99,36.65z M157.6,36.03c-0.27-3.3-2.73-6.13-6.13-6.13c-3.4,0-5.82,2.83-6.13,6.13H157.6z M180.06,29.58V43.8
		c0,0.37-0.33,0.64-0.66,0.64c-0.37,0-0.66-0.27-0.66-0.64v-2.68c-1.09,2.13-2.99,3.67-5.41,3.67c-3.87,0-6.01-3.34-6.01-6.87V29.6
		c0-0.33,0.29-0.64,0.66-0.64s0.66,0.33,0.66,0.64v8.32c0,2.79,1.58,5.59,4.71,5.59c4.37,0,5.41-4.08,5.41-8.59v-5.29
		c0-0.33,0.29-0.64,0.66-0.64C179.72,28.94,180.06,29.27,180.06,29.58L180.06,29.58z M212.79,35.4v8.32c0,0.37-0.33,0.64-0.66,0.64
		c-0.37,0-0.66-0.27-0.66-0.64V35.4c0-2.79-1.58-5.53-4.71-5.53c-3.91,0-5.41,4.18-5.41,7.44v6.41c0,0.37-0.33,0.64-0.66,0.64
		c-0.37,0-0.66-0.27-0.66-0.64V35.4c0-2.79-1.54-5.53-4.65-5.53c-3.94,0-5.59,3.11-5.45,7.25v6.6c0,0.37-0.29,0.64-0.66,0.64
		s-0.66-0.27-0.66-0.64V29.51c0-0.37,0.29-0.64,0.66-0.64s0.66,0.27,0.66,0.64v2.36c1.09-1.99,3.14-3.3,5.47-3.3
		c2.66,0,4.71,1.68,5.55,4.14c1.07-2.42,3.16-4.14,5.86-4.14C210.62,28.57,212.79,31.87,212.79,35.4L212.79,35.4z"/>
</g>
</svg>
