<?xml version="1.0" encoding="utf-8"?>
<!-- Generator: Adobe Illustrator 26.0.1, SVG Export Plug-In . SVG Version: 6.00 Build 0)  -->
<svg version="1.1" id="Layer_1" xmlns="http://www.w3.org/2000/svg" xmlns:xlink="http://www.w3.org/1999/xlink" x="0px" y="0px"
	 viewBox="0 0 216 70.17" style="enable-background:new 0 0 216 70.17;" xml:space="preserve">
<style type="text/css">
	.st0{fill-rule:evenodd;clip-rule:evenodd;fill:#097939;}
	.st1{fill-rule:evenodd;clip-rule:evenodd;fill:#ED752E;}
	.st2{fill-rule:evenodd;clip-rule:evenodd;fill:#FFFFFF;}
	.st3{fill:#FFFFFF;}
	.st4{fill:#F37920;}
	.st5{fill:#028C44;}
	.st6{fill:#FEFEFE;}
	.st7{fill:#F6931A;}
	.st8{fill:#8891B1;}
	.st9{fill:#63688E;}
	.st10{fill:#464A75;}
	.st11{fill:#27A17C;}
	.st12{fill:#FBFEFD;}
</style>
<g>
	<g>
		<path class="st3" d="M151.96,51.82c-7.09,0-14.2,0-21.29,0c-0.51,0-0.5,0-0.37-0.48c0.61-2.21,1.23-4.42,1.82-6.63
			c0.1-0.39,0.25-0.53,0.68-0.53c12.6,0.02,25.2,0.01,37.81,0.02c0.44,0,0.61-0.11,0.72-0.54c0.61-2.3,1.26-4.58,1.89-6.87
			c0.14-0.51,0.13-0.51-0.38-0.51c-11.44-0.01-22.87-0.02-34.31-0.02c-0.84,0-1.64-0.13-2.28-0.73c-0.91-0.86-1.01-1.93-0.7-3.07
			c1.05-3.84,2.12-7.69,3.19-11.53c0.38-1.37,0.76-2.73,1.13-4.11c0.59-2.21,2.77-4.03,5.24-4.03c14.03,0.03,28.06,0.02,42.09,0.02
			c0.48,0,0.48,0,0.35,0.47c-0.62,2.24-1.25,4.47-1.85,6.71c-0.1,0.36-0.23,0.47-0.6,0.47c-12.55-0.01-25.09-0.01-37.65-0.01
			c-0.78,0-0.78,0-0.97,0.72c-0.65,2.34-1.29,4.68-1.96,7.02c-0.11,0.38-0.01,0.44,0.34,0.44c11.41-0.01,22.82,0,34.23-0.01
			c0.86,0,1.68,0.05,2.35,0.64c0.98,0.86,1.12,1.97,0.79,3.15c-1.33,4.85-2.68,9.69-4.01,14.54c-0.27,0.97-0.49,1.97-1.16,2.77
			c-1.12,1.34-2.49,2.12-4.29,2.12C165.83,51.81,158.9,51.82,151.96,51.82z"/>
		<path class="st3" d="M80.96,12.96c-0.17,0.64-0.35,1.25-0.52,1.87c-2.44,8.81-4.88,17.63-7.32,26.45
			c-0.94,3.39-1.88,6.79-2.81,10.19c-0.07,0.28-0.19,0.36-0.48,0.36c-2.35-0.02-4.68-0.01-7.03,0c-0.31,0-0.39-0.05-0.3-0.38
			c1.63-5.88,3.25-11.77,4.87-17.65c0.03-0.13,0.12-0.25,0.05-0.39c-0.13-0.02-0.19,0.1-0.27,0.17c-3.49,3.18-6.97,6.36-10.46,9.55
			c-3.12,2.85-6.25,5.69-9.37,8.55c-0.32,0.29-0.36,0.04-0.48-0.14c-2.07-3.53-4.14-7.06-6.21-10.59c-1.9-3.25-3.8-6.49-5.71-9.73
			c-0.06-0.11-0.1-0.25-0.27-0.34c-0.34,1.22-0.67,2.42-1.01,3.62c-1.57,5.67-3.14,11.34-4.7,17.02c-0.07,0.26-0.2,0.32-0.46,0.32
			c-2.35-0.01-4.68-0.02-7.03,0c-0.37,0-0.38-0.11-0.29-0.41c2.04-7.33,4.07-14.66,6.1-21.99c1.51-5.42,3-10.84,4.51-16.26
			c0.03-0.1,0.02-0.27,0.17-0.29c0.13-0.01,0.16,0.13,0.21,0.22c3.51,5.81,7.01,11.62,10.53,17.42c1.88,3.11,3.77,6.22,5.64,9.34
			c0.19,0.31,0.29,0.28,0.54,0.07c6.37-5.39,12.76-10.78,19.14-16.16c4.19-3.54,8.39-7.08,12.59-10.62
			C80.69,13.08,80.77,12.97,80.96,12.96z"/>
		<path class="st3" d="M103.29,28.61c2.88,0,5.75,0.03,8.63-0.01c3.44-0.05,6.88-0.02,10.31-0.02c0.36,0,0.49-0.12,0.58-0.45
			c0.66-2.43,1.32-4.84,2.01-7.26c0.1-0.35,0.06-0.44-0.32-0.44c-1.52,0.02-3.04,0.01-4.57,0.01c-11.1,0-22.19,0-33.29,0
			c-0.54,0-0.54,0-0.4-0.53c0.63-2.25,1.25-4.5,1.86-6.75c0.08-0.28,0.19-0.36,0.48-0.36c14.12,0.01,28.25,0.01,42.37,0.01
			c2.14,0,3.38,1.59,2.84,3.69c-0.75,2.88-1.58,5.74-2.37,8.62c-0.65,2.35-1.29,4.68-1.94,7.03c-0.71,2.54-2.77,4.11-5.41,4.11
			c-11.07,0-22.14,0-33.21,0c-0.32,0-0.63,0.02-0.94-0.01c-0.32-0.03-0.44,0.11-0.52,0.4c-1.01,3.69-2.04,7.37-3.06,11.06
			c-0.35,1.26-0.71,2.53-1.05,3.79c-0.06,0.24-0.15,0.33-0.41,0.33c-2.37-0.01-4.74-0.02-7.11,0c-0.4,0-0.32-0.17-0.25-0.43
			c1.28-4.6,2.57-9.21,3.84-13.81c0.79-2.85,1.59-5.68,2.36-8.53c0.1-0.36,0.25-0.46,0.62-0.45
			C90.67,28.61,96.98,28.61,103.29,28.61z"/>
		<path class="st3" d="M9.53,51.82c-1.17,0-2.33-0.01-3.5,0.01c-0.32,0.01-0.42-0.04-0.32-0.4c1.03-3.65,2.04-7.32,3.05-10.98
			c2.19-7.89,4.38-15.79,6.56-23.69c0.33-1.21,0.67-2.42,1-3.63c0.06-0.2,0.15-0.28,0.36-0.28c2.39,0.01,4.8,0.02,7.19,0
			c0.44,0,0.25,0.24,0.21,0.41c-0.57,2.08-1.15,4.16-1.73,6.24c-2.95,10.64-5.9,21.3-8.85,31.94c-0.08,0.29-0.2,0.38-0.5,0.38
			C11.86,51.8,10.69,51.82,9.53,51.82z"/>
		<path class="st4" d="M193.88,43.19c-0.97,0.8-1.85,1.7-2.77,2.57c-2.04,1.91-4.06,3.83-6.09,5.75c-0.11,0.1-0.22,0.2-0.41,0.36
			c3.61-13,7.19-25.89,10.8-38.91c0.42,0.84,0.79,1.57,1.16,2.3c1.05,2.08,2.11,4.18,3.16,6.26c0.03,0.06,0.07,0.11,0.11,0.17
			c0.1,0.22,0.19,0.45,0.3,0.67c1.64,3.27,3.27,6.54,4.93,9.8c0.11,0.21,0.1,0.32-0.07,0.48c-2.79,2.62-5.58,5.25-8.35,7.88
			C195.73,41.4,194.75,42.24,193.88,43.19z"/>
		<path class="st5" d="M193.88,43.19c0.87-0.94,1.85-1.78,2.78-2.66c2.77-2.64,5.56-5.25,8.35-7.88c0.17-0.16,0.17-0.27,0.07-0.48
			c-1.65-3.27-3.29-6.54-4.93-9.8c-0.11-0.22-0.21-0.44-0.3-0.67c0.8-2.88,1.61-5.75,2.41-8.63c0.16,0.06,0.17,0.2,0.22,0.3
			c3.14,6.24,6.28,12.48,9.42,18.71c0.14,0.29,0.11,0.44-0.12,0.65c-4.66,4.39-9.3,8.79-13.96,13.19c-2.02,1.91-4.03,3.81-6.06,5.72
			c-0.06,0.06-0.13,0.1-0.27,0.21c0.24-0.88,0.46-1.66,0.67-2.45C192.75,47.32,193.31,45.25,193.88,43.19z"/>
		<path class="st6" d="M14.56,61.31c0.02-0.04,0.04-0.09,0.06-0.13c0.08,0.06,0.04,0.13,0.01,0.19
			C14.62,61.35,14.59,61.33,14.56,61.31z"/>
		<path class="st6" d="M88.37,59.24c0.03,0,0.13,0.02,0.25,0.02c0.63,0.06,0.86,0.21,0.92,0.57c0.06,0.47-0.3,1.09-0.75,1.24
			c-0.4,0.13-0.83,0.15-1.25,0.16c-0.17,0-0.21-0.06-0.17-0.22c0.15-0.52,0.29-1.05,0.45-1.57C87.88,59.23,87.88,59.23,88.37,59.24z
			"/>
	</g>
</g>
</svg>
