<?xml version="1.0" encoding="UTF-8"?>
<svg width="568px" height="278px" viewBox="0 0 568 278" version="1.1" xmlns="http://www.w3.org/2000/svg" xmlns:xlink="http://www.w3.org/1999/xlink">
    <title>Slice 1</title>
    <defs>
        <linearGradient x1="0%" y1="50.0009976%" x2="100.001151%" y2="50.0009976%" id="linearGradient-1">
            <stop stop-color="#742663" offset="0%"></stop>
            <stop stop-color="#472954" offset="100%"></stop>
        </linearGradient>
        <linearGradient x1="-0.00143702937%" y1="49.9980392%" x2="100.003564%" y2="49.9980392%" id="linearGradient-2">
            <stop stop-color="#742663" offset="0%"></stop>
            <stop stop-color="#472954" offset="100%"></stop>
        </linearGradient>
    </defs>
    <g id="Page-1" stroke="none" stroke-width="1" fill="none" fill-rule="evenodd">
        <g id="Skrill-Logo-Business" fill-rule="nonzero">
            <path d="M407.286436,45.6572822 C420.132595,45.6572822 430.556938,35.4433607 430.556938,22.8497007 C430.556938,10.2349812 420.132595,0 407.286436,0 C394.440276,0 384.036993,10.2349812 384.036993,22.8286411 C384.036993,35.422301 394.440276,45.6572822 407.286436,45.6572822 M229.040707,57.9771669 C227.987743,60.5675017 220.427462,81.5218355 202.148009,103.213256 L202.148009,10.3823986 L153.437899,19.8381734 L153.437899,188.104633 L202.148009,188.104633 L202.148009,136.087342 C216.257725,156.852139 223.228346,188.104633 223.228346,188.104633 L281.562546,188.104633 C275.792304,164.559965 250.54223,121.177123 250.54223,121.177123 C273.202013,92.999335 283.141992,62.9682997 284.742497,57.9982266 L229.040707,57.9982266 L229.040707,57.9771669 Z M357.081117,56.2081578 C313.446293,57.5770339 291.312992,76.7834183 291.312992,114.964531 L291.312992,188.083573 L338.90696,188.083573 L338.90696,128.463755 C338.90696,105.614055 341.960556,95.800266 369.611388,94.8736422 L369.611388,56.8820661 C364.957287,55.913323 357.081117,56.2081578 357.081117,56.2081578 M71.7700193,76.4885835 C65.8102436,76.1095101 51.9953573,75.2250055 51.9953573,63.0314786 C51.9953573,48.3107958 71.8753157,48.3107958 79.3303001,48.3107958 C92.4502303,48.3107958 109.424008,52.1015296 121.554152,55.681667 C121.554152,55.681667 128.314181,58.0192862 134.084423,60.4200842 L134.631964,60.5675017 L134.631964,60.0199512 L134.631964,20.2383064 L133.894889,20.02771 C119.57458,15.1208158 102.937751,10.3823986 72.0859085,10.3823986 C18.8480538,10.3823986 0,40.7925072 0,66.843272 C0,81.8587896 6.57049473,117.196852 67.4949859,121.282421 C72.654509,121.598315 86.3640989,122.356462 86.3640989,134.971182 C86.3640989,145.37464 75.1395038,151.524052 56.2703907,151.524052 C35.5901798,151.524052 15.5206879,146.343383 3.32736592,141.436489 L3.32736592,182.966083 C21.5647006,187.662381 42.1396152,190 66.2524885,190 C118.268905,190 141.581526,161.232543 141.581526,132.717801 C141.581526,100.370206 115.51014,79.373753 71.7700193,76.4885835 M383.678985,188.083573 L430.893886,188.083573 L430.893886,58.1245843 L383.678985,58.1245843 L383.678985,188.083573 Z M519.785099,18.6798936 L519.785099,188.104633 L567,188.104633 L567,10.3823986 L519.785099,18.6798936 Z M450.900201,18.6798936 L498.072983,10.4034582 L498.072983,188.104633 L450.900201,188.104633 L450.900201,18.6798936 Z" id="Shape" fill="url(#linearGradient-1)"></path>
            <path d="M335.972811,263.75098 C336.015003,266.44902 336.774444,268.894118 338.272231,271.065196 C339.770018,273.236275 341.81629,274.943627 344.474335,276.166176 C347.111284,277.388725 350.127953,278 353.503248,278 C356.646491,278 359.4733,277.409804 362.004771,276.25049 C364.515146,275.091176 366.477036,273.489216 367.890441,271.444608 C369.303845,269.421078 370,267.102451 370,264.530882 C370,261.875 369.409323,259.746078 368.206875,258.165196 C367.025522,256.584314 365.464448,255.382843 363.523654,254.602941 C361.582859,253.823039 359.220153,253.169608 356.393344,252.642647 C353.608726,252.115686 351.562453,251.673039 350.233431,251.293627 C348.904409,250.914216 347.870725,250.408333 347.153475,249.77598 C346.436225,249.143627 346.056504,248.279412 346.056504,247.141176 C346.056504,245.560294 346.668276,244.358824 347.870725,243.515686 C349.073174,242.672549 350.697534,242.25098 352.701615,242.25098 C354.874461,242.25098 356.625395,242.79902 357.954417,243.916176 C359.28344,245.033333 360.042881,246.487745 360.253837,248.30049 L369.135081,248.30049 C369.09289,245.771078 368.354544,243.494608 366.920044,241.471078 C365.485543,239.468627 363.523654,237.866667 361.055469,236.728431 C358.587285,235.590196 355.781572,235 352.68052,235 C349.66385,235 346.942519,235.548039 344.558717,236.665196 C342.15382,237.782353 340.276312,239.3 338.926194,241.218137 C337.576076,243.157353 336.901017,245.34951 336.901017,247.794608 C336.901017,250.492647 337.491694,252.663725 338.673047,254.286765 C339.8544,255.909804 341.394378,257.153431 343.292982,257.97549 C345.191585,258.797549 347.533195,259.472059 350.296718,259.99902 C353.123527,260.568137 355.211991,261.031863 356.562108,261.411275 C357.912226,261.790686 358.967006,262.317647 359.705351,262.971078 C360.443697,263.645588 360.823418,264.530882 360.823418,265.669118 C360.823418,267.271078 360.148359,268.535784 358.798241,269.442157 C357.448123,270.348529 355.697189,270.791176 353.566534,270.791176 C350.992872,270.791176 348.925504,270.158824 347.364431,268.894118 C345.824452,267.629412 344.959533,265.943137 344.790769,263.856373 L335.972811,263.75098 Z M286.672415,263.75098 C286.714606,266.44902 287.474047,268.894118 288.971834,271.065196 C290.469621,273.236275 292.515894,274.943627 295.173938,276.166176 C297.810887,277.388725 300.827556,278 304.202851,278 C307.346094,278 310.172903,277.409804 312.704374,276.25049 C315.21475,275.091176 317.17664,273.489216 318.590044,271.444608 C320.003449,269.421078 320.699603,267.102451 320.699603,264.530882 C320.699603,261.875 320.108927,259.746078 318.906478,258.165196 C317.725125,256.584314 316.164051,255.382843 314.223257,254.602941 C312.282462,253.823039 309.919756,253.169608 307.092947,252.642647 C304.308329,252.115686 302.262057,251.673039 300.933034,251.293627 C299.604012,250.914216 298.570328,250.408333 297.853078,249.77598 C297.135828,249.143627 296.756107,248.279412 296.756107,247.141176 C296.756107,245.560294 297.36788,244.358824 298.570328,243.515686 C299.772777,242.672549 301.397137,242.25098 303.401219,242.25098 C305.574064,242.25098 307.324999,242.79902 308.654021,243.916176 C309.983043,245.033333 310.742484,246.487745 310.95344,248.30049 L319.834684,248.30049 C319.792493,245.771078 319.054147,243.494608 317.619647,241.471078 C316.185147,239.468627 314.223257,237.866667 311.755073,236.728431 C309.286889,235.590196 306.481175,235 303.380123,235 C300.363453,235 297.642122,235.548039 295.25832,236.665196 C292.853423,237.782353 290.975915,239.3 289.625798,241.218137 C288.27568,243.157353 287.600621,245.34951 287.600621,247.794608 C287.600621,250.492647 288.191297,252.663725 289.37265,254.286765 C290.554004,255.909804 292.093982,257.153431 293.992585,257.97549 C295.891188,258.797549 298.232799,259.472059 300.996321,259.99902 C303.82313,260.568137 305.911594,261.031863 307.261712,261.411275 C308.61183,261.790686 309.666609,262.317647 310.404955,262.971078 C311.143301,263.645588 311.523021,264.530882 311.523021,265.669118 C311.523021,267.271078 310.847962,268.535784 309.497844,269.442157 C308.147727,270.348529 306.396793,270.791176 304.266138,270.791176 C301.692476,270.791176 299.625108,270.158824 298.064034,268.894118 C296.524056,267.629412 295.659137,265.943137 295.490372,263.856373 L286.672415,263.75098 Z M241.823188,277.641667 L270.892913,277.641667 L270.892913,269.842647 L250.894292,269.842647 L250.894292,260.062255 L266.610508,260.062255 L266.610508,252.642647 L250.894292,252.642647 L250.894292,243.157353 L270.238949,243.157353 L270.238949,235.358333 L241.823188,235.358333 L241.823188,277.641667 Z M195.180836,277.641667 L195.180836,250.998529 L213.133184,277.641667 L221.423751,277.641667 L221.423751,235.358333 L212.479221,235.358333 L212.479221,262.001471 L194.526872,235.358333 L186.299592,235.358333 L186.299592,277.641667 L195.180836,277.641667 Z M156.807955,277.641667 L165.87906,277.641667 L165.87906,235.358333 L156.807955,235.358333 L156.807955,277.641667 Z M105.313617,263.75098 C105.355808,266.44902 106.11525,268.894118 107.613037,271.065196 C109.110824,273.236275 111.178192,274.943627 113.815141,276.166176 C116.452089,277.388725 119.468759,278 122.844054,278 C125.987297,278 128.814106,277.409804 131.345577,276.25049 C133.855952,275.091176 135.817842,273.489216 137.231247,271.444608 C138.644651,269.421078 139.340806,267.102451 139.340806,264.530882 C139.340806,261.875 138.750129,259.746078 137.568776,258.165196 C136.387423,256.584314 134.826349,255.382843 132.885555,254.602941 C130.944761,253.823039 128.582054,253.169608 125.755245,252.642647 C122.970627,252.115686 120.924355,251.673039 119.595333,251.293627 C118.26631,250.914216 117.232626,250.408333 116.515376,249.77598 C115.798126,249.143627 115.418405,248.279412 115.418405,247.141176 C115.418405,245.560294 116.030178,244.358824 117.232626,243.515686 C118.435075,242.672549 120.059436,242.25098 122.063517,242.25098 C124.236363,242.25098 125.987297,242.79902 127.316319,243.916176 C128.645341,245.033333 129.404782,246.487745 129.615738,248.30049 L138.496982,248.30049 C138.454791,245.771078 137.716445,243.494608 136.281945,241.471078 C134.847445,239.468627 132.906651,237.866667 130.417371,236.728431 C127.928091,235.590196 125.143473,235 122.042421,235 C119.025752,235 116.30442,235.548039 113.920618,236.665196 C111.515721,237.782353 109.659309,239.3 108.309191,241.218137 C106.959073,243.157353 106.284014,245.34951 106.284014,247.794608 C106.284014,250.492647 106.874691,252.663725 108.056044,254.286765 C109.237397,255.909804 110.777375,257.153431 112.675979,257.97549 C114.574582,258.797549 116.916192,259.472059 119.679715,259.99902 C122.506524,260.568137 124.594988,261.031863 125.945105,261.411275 C127.295223,261.790686 128.350003,262.317647 129.088349,262.971078 C129.826694,263.645588 130.206415,264.530882 130.206415,265.669118 C130.206415,267.271078 129.531356,268.535784 128.181238,269.442157 C126.83112,270.348529 125.080186,270.791176 122.949532,270.791176 C120.375869,270.791176 118.308501,270.158824 116.747428,268.894118 C115.186354,267.629412 114.34253,265.943137 114.173766,263.856373 L105.313617,263.75098 Z M53.2707938,235.358333 L53.2707938,259.387745 C53.2707938,265.437255 54.7474852,270.032353 57.6797724,273.215196 C60.6120596,276.398039 64.9366557,277.978922 70.6113698,277.978922 C76.2860838,277.978922 80.61068,276.398039 83.5851584,273.215196 C86.5385411,270.032353 88.0363281,265.416176 88.0363281,259.387745 L88.0363281,235.358333 L78.9652239,235.358333 L78.9652239,259.872549 C78.9652239,263.287255 78.290165,265.879902 76.9400471,267.608333 C75.5899293,269.336765 73.4803702,270.20098 70.6324654,270.20098 C67.763465,270.20098 65.6750014,269.336765 64.3459792,267.608333 C63.0169569,265.879902 62.341898,263.308333 62.341898,259.872549 L62.341898,235.358333 L53.2707938,235.358333 L53.2707938,235.358333 Z M12.0711042,259.767157 L19.9397597,259.767157 C22.0704144,259.767157 23.7580617,260.230882 24.9605104,261.179412 C26.1629591,262.127941 26.7747313,263.455882 26.7747313,265.205392 C26.7747313,266.84951 26.1840547,268.135294 24.981606,269.062745 C23.8002529,269.990196 22.1126056,270.453922 19.9397597,270.453922 L12.0711042,270.453922 L12.0711042,259.767157 Z M12.0711042,242.482843 L19.3279876,242.482843 C21.268782,242.482843 22.7665689,242.946569 23.8635397,243.87402 C24.9605104,244.801471 25.4879002,246.045098 25.4879002,247.62598 C25.4879002,249.206863 24.9394148,250.45049 23.8635397,251.377941 C22.7665689,252.305392 21.268782,252.769118 19.3279876,252.769118 L12.0711042,252.769118 L12.0711042,242.482843 Z M3,235.358333 L3,277.641667 L19.8553774,277.641667 C25.0237972,277.641667 29.0108639,276.587745 31.8165776,274.479902 C34.6433868,272.372059 36.0567914,269.463235 36.0567914,265.753431 C36.0567914,262.844608 35.1918722,260.610294 33.4831293,258.987255 C31.7743864,257.385294 29.3483934,256.373529 26.2051503,255.973039 C28.8631948,255.488235 30.9305627,254.434314 32.3650629,252.832353 C33.8206587,251.230392 34.5379088,249.101471 34.5379088,246.487745 C34.5379088,242.946569 33.187791,240.206373 30.4875553,238.267157 C27.7873197,236.327941 23.9901132,235.358333 19.0748405,235.358333 L3,235.358333 L3,235.358333 Z" id="Shape" fill="url(#linearGradient-2)"></path>
        </g>
    </g>
</svg>