<?xml version="1.0" encoding="utf-8"?>
<!-- Generator: Adobe Illustrator 26.0.1, SVG Export Plug-In . SVG Version: 6.00 Build 0)  -->
<svg version="1.1" id="Layer_1" xmlns="http://www.w3.org/2000/svg" xmlns:xlink="http://www.w3.org/1999/xlink" x="0px" y="0px"
	 viewBox="0 0 216 70.17" style="enable-background:new 0 0 216 70.17;" xml:space="preserve">
<style type="text/css">
	.st0{fill-rule:evenodd;clip-rule:evenodd;fill:#097939;}
	.st1{fill-rule:evenodd;clip-rule:evenodd;fill:#ED752E;}
	.st2{fill-rule:evenodd;clip-rule:evenodd;fill:#747474;}
	.st3{fill:#6D6E71;}
	.st4{fill:#F37920;}
	.st5{fill:#028C44;}
	.st6{fill:#FEFEFE;}
	.st7{fill:#4D4D4D;}
	.st8{fill:#F6931A;}
	.st9{fill:#8891B1;}
	.st10{fill:#63688E;}
	.st11{fill:#464A75;}
	.st12{fill:#27A17C;}
	.st13{fill:#5D5C5F;}
	.st14{fill:#5C5B5E;}
	.st15{fill:#FBFEFD;}
</style>
<g>
	<path class="st9" d="M18.19,25.61V5.94L1.88,33.02L18.19,25.61z"/>
	<path class="st10" d="M18.19,42.67V25.61L1.88,33.02L18.19,42.67z M18.19,25.61l16.33,7.41L18.19,5.94V25.61z"/>
	<path class="st11" d="M18.19,25.61v17.06l16.33-9.65L18.19,25.61z"/>
	<path class="st9" d="M18.19,45.76L1.88,36.13l16.31,22.99V45.76z"/>
	<path class="st10" d="M34.52,36.13l-16.33,9.63v13.36L34.52,36.13z"/>
	<path class="st9" d="M61.8,36.68c0,0.37-0.33,0.71-0.71,0.71H48.04c0.33,3.11,2.75,6.13,6.17,6.13c2.34,0,4.07-0.9,5.38-2.79
		c0.14-0.2,0.33-0.33,0.57-0.33c0.37,0,0.65,0.28,0.65,0.65c0,0.14-0.04,0.24-0.1,0.33c-1.32,2.3-3.93,3.42-6.5,3.42
		c-4.4,0-7.53-3.93-7.53-8.14s3.12-8.12,7.53-8.12S61.8,32.47,61.8,36.68L61.8,36.68z M60.38,36.05c-0.28-3.32-2.75-6.17-6.17-6.17
		s-5.86,2.85-6.17,6.17H60.38z M77.66,28.76c0.37,0,0.65,0.33,0.65,0.67c0,0.37-0.28,0.67-0.65,0.67h-3.5v13.8
		c0,0.33-0.29,0.65-0.67,0.65c-0.37,0-0.67-0.33-0.67-0.65V30.1h-3.36c-0.37,0-0.65-0.29-0.65-0.67c0-0.33,0.28-0.67,0.65-0.67h3.36
		v-4.99c0-0.37,0.29-0.65,0.67-0.65c0.37,0,0.67,0.28,0.67,0.65v4.99H77.66z M98.92,35.46v8.33c0,0.37-0.22,0.65-0.55,0.65
		c-0.37,0-0.55-0.28-0.55-0.65v-8.33c0-2.81-1.63-5.62-4.78-5.62c-4.03,0-5.82,3.52-5.6,7.11c0,0.1-0.02,0.51-0.02,0.57v6.27
		c0,0.37-0.18,0.65-0.55,0.65c-0.37,0-0.55-0.28-0.55-0.65V16.42c0-0.33,0.18-0.65,0.55-0.65c0.37,0,0.55,0.33,0.55,0.65V31.9
		c1.34-2,3.12-3.36,5.46-3.36C96.72,28.54,98.92,31.9,98.92,35.46L98.92,35.46z M122.46,36.68c0,0.37-0.33,0.71-0.71,0.71h-13.05
		c0.33,3.11,2.75,6.13,6.17,6.13c2.34,0,4.07-0.9,5.38-2.79c0.14-0.2,0.33-0.33,0.57-0.33c0.37,0,0.65,0.28,0.65,0.65
		c0,0.14-0.04,0.24-0.1,0.33c-1.32,2.3-3.93,3.42-6.5,3.42c-4.4,0-7.53-3.93-7.53-8.14s3.12-8.12,7.53-8.12
		C119.28,28.54,122.46,32.47,122.46,36.68z M121.07,36.05c-0.28-3.32-2.75-6.17-6.17-6.17s-5.86,2.85-6.17,6.17H121.07z
		 M138.52,29.43c0,0.41-0.24,0.65-0.63,0.71c-3.83,0.57-5.58,3.69-5.58,7.35v6.25c0,0.37-0.29,0.65-0.67,0.65s-0.67-0.28-0.67-0.65
		V29.47c0-0.37,0.29-0.65,0.67-0.65s0.67,0.28,0.67,0.65v2.91c1.1-1.83,3.24-3.56,5.48-3.56C138.13,28.82,138.52,29.05,138.52,29.43
		z M159.98,36.68c0,0.37-0.33,0.71-0.71,0.71h-13.05c0.33,3.11,2.75,6.13,6.17,6.13c2.34,0,4.07-0.9,5.38-2.79
		c0.14-0.2,0.33-0.33,0.57-0.33c0.37,0,0.65,0.28,0.65,0.65c0,0.14-0.04,0.24-0.1,0.33c-1.32,2.3-3.93,3.42-6.5,3.42
		c-4.4,0-7.53-3.93-7.53-8.14s3.12-8.12,7.53-8.12C156.8,28.52,159.98,32.47,159.98,36.68L159.98,36.68z M158.59,36.05
		c-0.28-3.32-2.75-6.17-6.17-6.17c-3.42,0-5.86,2.85-6.17,6.17H158.59z M181.19,29.56v14.31c0,0.37-0.33,0.65-0.67,0.65
		c-0.37,0-0.67-0.28-0.67-0.65v-2.69c-1.1,2.14-3.01,3.69-5.44,3.69c-3.89,0-6.05-3.36-6.05-6.92v-8.37c0-0.33,0.29-0.65,0.67-0.65
		c0.37,0,0.67,0.33,0.67,0.65v8.37c0,2.81,1.59,5.62,4.74,5.62c4.4,0,5.44-4.11,5.44-8.65V29.6c0-0.33,0.29-0.65,0.67-0.65
		C180.85,28.92,181.19,29.25,181.19,29.56L181.19,29.56z M214.12,35.42v8.37c0,0.37-0.33,0.65-0.67,0.65
		c-0.37,0-0.67-0.28-0.67-0.65v-8.37c0-2.81-1.59-5.56-4.74-5.56c-3.93,0-5.44,4.21-5.44,7.49v6.45c0,0.37-0.33,0.65-0.67,0.65
		c-0.37,0-0.67-0.28-0.67-0.65v-8.37c0-2.81-1.55-5.56-4.68-5.56c-3.97,0-5.62,3.12-5.48,7.29v6.64c0,0.37-0.29,0.65-0.67,0.65
		s-0.67-0.28-0.67-0.65V29.49c0-0.37,0.29-0.65,0.67-0.65s0.67,0.28,0.67,0.65v2.38c1.1-2,3.16-3.32,5.5-3.32
		c2.67,0,4.74,1.69,5.58,4.17c1.08-2.44,3.18-4.17,5.9-4.17C211.94,28.54,214.12,31.86,214.12,35.42L214.12,35.42z"/>
</g>
</svg>
