<?xml version="1.0" encoding="utf-8"?>
<!-- Generator: Adobe Illustrator 26.0.1, SVG Export Plug-In . SVG Version: 6.00 Build 0)  -->
<svg version="1.1" id="Layer_1" xmlns="http://www.w3.org/2000/svg" xmlns:xlink="http://www.w3.org/1999/xlink" x="0px" y="0px"
	 viewBox="0 0 216 70.17" style="enable-background:new 0 0 216 70.17;" xml:space="preserve">
<style type="text/css">
	.st0{fill-rule:evenodd;clip-rule:evenodd;fill:#097939;}
	.st1{fill-rule:evenodd;clip-rule:evenodd;fill:#ED752E;}
	.st2{fill-rule:evenodd;clip-rule:evenodd;fill:#747474;}
	.st3{fill:#6D6E71;}
	.st4{fill:#F37920;}
	.st5{fill:#028C44;}
	.st6{fill:#FEFEFE;}
	.st7{fill:#4D4D4D;}
	.st8{fill:#F6931A;}
	.st9{fill:#8891B1;}
	.st10{fill:#63688E;}
	.st11{fill:#464A75;}
	.st12{fill:#27A17C;}
	.st13{fill:#5D5C5F;}
	.st14{fill:#5C5B5E;}
	.st15{fill:#FBFEFD;}
</style>
<g>
	<path class="st0" d="M167.26,55.52l23.79-21.7l-11.27-22.45L167.26,55.52z"/>
	<path class="st1" d="M159.25,55.52l23.79-21.7l-11.27-22.45L159.25,55.52z"/>
	<path class="st2" d="M45.56,11.62L35.55,47.29l35.56,0.25l9.77-35.92h9.01L78.17,53.38c-0.45,1.59-2.16,2.89-3.81,2.89H28.79
		c-2.76,0-4.4-2.16-3.65-4.82L36.3,11.62L45.56,11.62z M155.49,11.38h9.01l-12.52,44.9h-9.27L155.49,11.38z M90.89,30.08l45.07-0.25
		l3.01-9.48H93.14l2.75-8.73l48.83-0.45c3.04-0.03,4.85,2.33,4.05,5.26l-4.6,16.82c-0.8,2.93-3.92,5.31-6.96,5.31H96.9l-4.75,18.46
		h-8.77L90.89,30.08z"/>
</g>
</svg>
