<?xml version="1.0" encoding="utf-8"?>
<!-- Generator: Adobe Illustrator 26.0.1, SVG Export Plug-In . SVG Version: 6.00 Build 0)  -->
<svg version="1.1" id="Layer_1" xmlns="http://www.w3.org/2000/svg" xmlns:xlink="http://www.w3.org/1999/xlink" x="0px" y="0px"
	 viewBox="0 0 216 70.17" style="enable-background:new 0 0 216 70.17;" xml:space="preserve">
<style type="text/css">
	.st0{fill-rule:evenodd;clip-rule:evenodd;fill:#097939;}
	.st1{fill-rule:evenodd;clip-rule:evenodd;fill:#ED752E;}
	.st2{fill-rule:evenodd;clip-rule:evenodd;fill:#747474;}
	.st3{fill:#6D6E71;}
	.st4{fill:#F37920;}
	.st5{fill:#028C44;}
	.st6{fill:#FEFEFE;}
	.st7{fill:#4D4D4D;}
	.st8{fill:#F6931A;}
	.st9{fill:#8891B1;}
	.st10{fill:#63688E;}
	.st11{fill:#464A75;}
	.st12{fill:#27A17C;}
	.st13{fill:#5D5C5F;}
	.st14{fill:#5C5B5E;}
	.st15{fill:#FBFEFD;}
</style>
<g>
	<g>
		<path class="st3" d="M153.15,50.51c-7.43,0-14.86,0-22.29,0c-0.53,0-0.52,0-0.39-0.51c0.64-2.32,1.29-4.63,1.91-6.95
			c0.11-0.41,0.26-0.56,0.71-0.56c13.19,0.02,26.39,0.01,39.58,0.02c0.46,0,0.64-0.12,0.76-0.56c0.64-2.41,1.32-4.8,1.97-7.19
			c0.15-0.53,0.14-0.53-0.4-0.53c-11.97-0.01-23.95-0.02-35.92-0.02c-0.88,0-1.72-0.13-2.39-0.76c-0.95-0.9-1.05-2.02-0.73-3.21
			c1.1-4.02,2.22-8.05,3.34-12.07c0.4-1.44,0.8-2.86,1.19-4.3c0.62-2.32,2.9-4.22,5.48-4.22c14.69,0.03,29.37,0.02,44.06,0.02
			c0.5,0,0.5,0,0.37,0.49c-0.65,2.34-1.31,4.68-1.94,7.03c-0.1,0.37-0.24,0.49-0.63,0.49c-13.14-0.01-26.27-0.01-39.41-0.01
			c-0.81,0-0.81,0-1.02,0.76c-0.68,2.45-1.35,4.9-2.05,7.35c-0.12,0.4-0.01,0.46,0.36,0.46c11.95-0.01,23.89,0,35.84-0.01
			c0.9,0,1.76,0.05,2.46,0.67c1.03,0.9,1.17,2.06,0.83,3.3c-1.39,5.08-2.8,10.14-4.2,15.22c-0.28,1.02-0.51,2.07-1.21,2.9
			c-1.17,1.4-2.61,2.22-4.49,2.22C167.66,50.5,160.41,50.51,153.15,50.51z"/>
		<path class="st3" d="M78.82,9.83c-0.18,0.67-0.37,1.31-0.54,1.96c-2.56,9.23-5.11,18.46-7.67,27.69
			c-0.99,3.55-1.97,7.11-2.95,10.67c-0.07,0.29-0.2,0.37-0.5,0.37c-2.46-0.02-4.9-0.01-7.36,0c-0.32,0-0.41-0.05-0.32-0.4
			c1.71-6.16,3.4-12.32,5.09-18.48c0.03-0.13,0.12-0.27,0.05-0.41c-0.14-0.02-0.2,0.1-0.28,0.17c-3.65,3.33-7.3,6.66-10.95,10
			c-3.27,2.99-6.55,5.96-9.81,8.95c-0.34,0.31-0.38,0.04-0.5-0.15c-2.17-3.69-4.33-7.39-6.5-11.09c-1.99-3.4-3.98-6.8-5.97-10.19
			c-0.07-0.12-0.11-0.27-0.28-0.36c-0.36,1.28-0.71,2.53-1.05,3.79c-1.64,5.94-3.29,11.87-4.92,17.81
			c-0.07,0.27-0.21,0.34-0.48,0.34c-2.46-0.01-4.9-0.02-7.36,0c-0.39,0-0.4-0.12-0.31-0.43c2.13-7.68,4.26-15.35,6.39-23.02
			c1.58-5.68,3.14-11.35,4.72-17.03c0.03-0.11,0.02-0.28,0.18-0.3c0.14-0.01,0.17,0.13,0.22,0.23c3.68,6.08,7.34,12.16,11.02,18.24
			c1.97,3.26,3.95,6.51,5.91,9.78c0.2,0.32,0.31,0.29,0.56,0.07c6.67-5.64,13.36-11.28,20.04-16.92c4.39-3.71,8.78-7.41,13.18-11.12
			C78.54,9.95,78.61,9.84,78.82,9.83z"/>
		<path class="st3" d="M102.19,26.22c3.01,0,6.02,0.03,9.04-0.01c3.6-0.05,7.2-0.02,10.8-0.02c0.37,0,0.51-0.12,0.61-0.47
			c0.69-2.54,1.39-5.07,2.11-7.6c0.1-0.37,0.06-0.46-0.34-0.46c-1.59,0.02-3.19,0.01-4.78,0.01c-11.62,0-23.23,0-34.85,0
			c-0.56,0-0.56,0-0.41-0.56c0.66-2.36,1.31-4.71,1.95-7.07c0.08-0.29,0.2-0.38,0.5-0.38c14.79,0.01,29.57,0.01,44.36,0.01
			c2.24,0,3.54,1.66,2.97,3.87c-0.79,3.01-1.65,6.01-2.48,9.02c-0.68,2.46-1.35,4.9-2.03,7.36c-0.74,2.66-2.9,4.31-5.67,4.31
			c-11.59,0-23.18,0-34.77,0c-0.33,0-0.66,0.02-0.99-0.01c-0.34-0.03-0.46,0.12-0.55,0.42c-1.06,3.86-2.13,7.72-3.2,11.58
			c-0.37,1.32-0.75,2.65-1.1,3.97c-0.07,0.25-0.16,0.35-0.43,0.35c-2.48-0.01-4.96-0.02-7.44,0c-0.42,0-0.33-0.18-0.27-0.45
			c1.34-4.82,2.69-9.64,4.02-14.46c0.83-2.98,1.66-5.95,2.47-8.93c0.1-0.37,0.27-0.48,0.65-0.47
			C88.97,26.22,95.59,26.22,102.19,26.22z"/>
		<path class="st3" d="M4.03,50.51c-1.22,0-2.44-0.01-3.66,0.01c-0.33,0.01-0.44-0.04-0.33-0.41c1.08-3.83,2.13-7.66,3.19-11.49
			c2.29-8.26,4.58-16.53,6.87-24.8c0.35-1.27,0.71-2.53,1.05-3.8c0.06-0.21,0.16-0.29,0.38-0.29c2.51,0.01,5.02,0.02,7.53,0
			c0.46,0,0.27,0.25,0.22,0.43c-0.6,2.18-1.2,4.36-1.81,6.53c-3.09,11.14-6.17,22.3-9.26,33.44c-0.08,0.3-0.21,0.4-0.52,0.4
			C6.47,50.49,5.25,50.51,4.03,50.51z"/>
		<path class="st4" d="M197.03,41.47c-1.01,0.84-1.93,1.78-2.9,2.69c-2.13,2-4.25,4.01-6.37,6.02c-0.12,0.11-0.23,0.21-0.43,0.38
			c3.78-13.61,7.53-27.11,11.31-40.73c0.44,0.88,0.83,1.64,1.21,2.41c1.1,2.18,2.21,4.37,3.31,6.56c0.03,0.06,0.07,0.12,0.12,0.17
			c0.11,0.23,0.2,0.47,0.32,0.7c1.72,3.43,3.43,6.85,5.16,10.26c0.12,0.22,0.1,0.34-0.07,0.51c-2.92,2.75-5.84,5.49-8.75,8.25
			C198.97,39.61,197.95,40.49,197.03,41.47z"/>
		<path class="st5" d="M197.03,41.47c0.91-0.99,1.93-1.87,2.91-2.79c2.9-2.76,5.82-5.5,8.75-8.25c0.17-0.17,0.18-0.28,0.07-0.51
			c-1.73-3.42-3.44-6.85-5.16-10.26c-0.12-0.23-0.22-0.46-0.32-0.7c0.84-3.01,1.68-6.02,2.52-9.04c0.17,0.07,0.18,0.21,0.23,0.32
			c3.29,6.53,6.57,13.06,9.87,19.59c0.15,0.3,0.12,0.46-0.12,0.68c-4.88,4.6-9.74,9.2-14.61,13.81c-2.12,2-4.22,3.99-6.34,5.99
			c-0.06,0.06-0.13,0.1-0.28,0.22c0.25-0.92,0.48-1.74,0.71-2.56C195.85,45.8,196.44,43.63,197.03,41.47z"/>
		<path class="st6" d="M9.3,60.45c0.02-0.04,0.04-0.09,0.07-0.13c0.08,0.07,0.04,0.13,0.01,0.2C9.36,60.49,9.33,60.47,9.3,60.45z"/>
		<path class="st6" d="M86.58,58.28c0.03,0,0.14,0.02,0.26,0.02c0.66,0.07,0.9,0.22,0.96,0.6c0.07,0.49-0.32,1.15-0.79,1.3
			c-0.42,0.14-0.87,0.16-1.31,0.17c-0.17,0-0.22-0.07-0.18-0.23c0.16-0.55,0.31-1.1,0.47-1.64C86.05,58.27,86.06,58.27,86.58,58.28z
			"/>
	</g>
</g>
</svg>
