<?xml version="1.0" encoding="utf-8"?>
<!-- Generator: Adobe Illustrator 26.0.1, SVG Export Plug-In . SVG Version: 6.00 Build 0)  -->
<svg version="1.1" id="Layer_1" xmlns="http://www.w3.org/2000/svg" xmlns:xlink="http://www.w3.org/1999/xlink" x="0px" y="0px"
	 viewBox="0 0 571.19 366.81" style="enable-background:new 0 0 571.19 366.81;" xml:space="preserve">
<style type="text/css">
	.st0{fill:url(#SVGID_1_);}
	.st1{opacity:0.6;fill:url(#SVGID_00000171700072622434237510000015113784635938324372_);}
	.st2{opacity:0.4;}
	.st3{fill:#004B9C;}
	.st4{fill:#FFFFFF;}
	.st5{fill:url(#SVGID_00000115477498688865462950000002977055946875515809_);}
	.st6{fill:#070A10;}
	.st7{fill:url(#SVGID_00000043449157600618105320000012421895740309594260_);}
	.st8{fill:url(#SVGID_00000128443440656784455890000018070675116172529571_);}
	.st9{fill:url(#SVGID_00000134209813047306826130000004299597652164104097_);}
	.st10{fill:url(#SVGID_00000085243465678051570070000011442702953184141220_);}
	.st11{fill:url(#SVGID_00000108303358099782019990000005984308949563695523_);}
	.st12{fill:url(#SVGID_00000133495106177490428230000018099530317261288618_);}
	.st13{fill:url(#SVGID_00000115495998862931217990000007897277690408396179_);}
	.st14{fill:url(#SVGID_00000095302578074215554180000004000827862995589506_);}
	.st15{fill:url(#SVGID_00000141436789293505156650000014695851606613707954_);}
	.st16{fill:url(#SVGID_00000040550791607298178980000016439175194374064278_);}
	.st17{fill:url(#SVGID_00000016784478588325676520000014109897789283353241_);}
	.st18{fill:url(#SVGID_00000089534037927385498920000016748545370863928998_);}
	.st19{fill:url(#SVGID_00000022523853366642422660000007706245495833639322_);}
	.st20{fill:url(#SVGID_00000002360632575084809250000009404829248219356861_);}
	.st21{fill:url(#SVGID_00000158001720796277929930000006505184763789696641_);}
	.st22{fill:url(#SVGID_00000044173423380360613460000001093668918092391611_);}
</style>
<g>
	<g>
		<g>
			<radialGradient id="SVGID_1_" cx="151.6154" cy="147.6514" r="618.5065" gradientUnits="userSpaceOnUse">
				<stop  offset="0.1698" style="stop-color:#074B81"/>
				<stop  offset="0.3261" style="stop-color:#053160"/>
				<stop  offset="0.4937" style="stop-color:#031C44"/>
				<stop  offset="0.6623" style="stop-color:#010C30"/>
				<stop  offset="0.8309" style="stop-color:#000324"/>
				<stop  offset="1" style="stop-color:#000020"/>
			</radialGradient>
			<path class="st0" d="M526.9,346.82H44.29c-16.7,0-30.23-13.53-30.23-30.23V50.22c0-16.7,13.53-30.23,30.23-30.23H526.9
				c16.7,0,30.23,13.53,30.23,30.23v266.37C557.13,333.29,543.59,346.82,526.9,346.82z"/>
			
				<linearGradient id="SVGID_00000080184461490991504990000007178416078906541216_" gradientUnits="userSpaceOnUse" x1="195.4287" y1="-92.9912" x2="166.2112" y2="328.5703">
				<stop  offset="0" style="stop-color:#FFFFFF"/>
				<stop  offset="0.0709" style="stop-color:#D4D4D4"/>
				<stop  offset="0.1641" style="stop-color:#A3A3A3"/>
				<stop  offset="0.2621" style="stop-color:#777777"/>
				<stop  offset="0.3634" style="stop-color:#525252"/>
				<stop  offset="0.4686" style="stop-color:#343434"/>
				<stop  offset="0.5793" style="stop-color:#1D1D1D"/>
				<stop  offset="0.6976" style="stop-color:#0D0D0D"/>
				<stop  offset="0.8291" style="stop-color:#030303"/>
				<stop  offset="1" style="stop-color:#000000"/>
			</linearGradient>
			<path style="opacity:0.6;fill:url(#SVGID_00000080184461490991504990000007178416078906541216_);" d="M359.11,19.99H44.29
				c-16.7,0-30.23,13.53-30.23,30.23v266.37c0,16.7,13.53,30.23,30.23,30.23h127.7L359.11,19.99z"/>
			<g class="st2">
				<path class="st3" d="M78.37,215.5v24.17h-3.45v-20.72h-4.15v-3.45H78.37z"/>
				<path class="st3" d="M89.08,218.96v3.12h-3.46v-3.12c0-0.47,0.09-0.92,0.27-1.34c0.18-0.42,0.43-0.79,0.74-1.1
					c0.31-0.31,0.68-0.56,1.1-0.74c0.42-0.18,0.87-0.28,1.34-0.28h10.94c0.47,0,0.92,0.09,1.34,0.28c0.42,0.19,0.79,0.43,1.1,0.74
					c0.31,0.31,0.56,0.67,0.74,1.1c0.19,0.42,0.28,0.87,0.28,1.34v4.42c0,0.47-0.04,0.89-0.13,1.26c-0.09,0.37-0.23,0.7-0.43,1
					c-0.2,0.3-0.45,0.56-0.75,0.8c-0.3,0.24-0.67,0.46-1.11,0.67l-11.97,5.61v3.49h11.38v-3.1h3.46v6.56H85.62v-6.35
					c0-0.47,0.05-0.89,0.14-1.26c0.1-0.37,0.24-0.7,0.43-1c0.19-0.29,0.44-0.56,0.75-0.8c0.31-0.24,0.67-0.46,1.09-0.66l11.98-5.63
					v-5.01H89.08z"/>
				<path class="st3" d="M109.43,232.36h3.39v1.28c0,0.91,0.21,1.58,0.61,2.01c0.4,0.43,1.07,0.64,1.99,0.64h6.96
					c0.92,0,1.58-0.21,1.99-0.64c0.41-0.43,0.61-1.09,0.61-2.01v-1.87c0-0.92-0.2-1.59-0.61-2.01c-0.4-0.42-1.07-0.62-1.99-0.62
					h-7.15v-3.37h7.05c0.84-0.04,1.45-0.26,1.81-0.68c0.37-0.42,0.55-1.07,0.55-1.95v-1.58c0-0.92-0.21-1.6-0.61-2.02
					c-0.41-0.43-1.07-0.64-1.98-0.64h-6.29c-0.91,0-1.57,0.21-1.97,0.64c-0.41,0.43-0.61,1.1-0.61,2.02v1.28h-3.39v-1.45
					c0-3.92,1.96-5.88,5.87-5.88h6.49c1.99,0,3.46,0.48,4.43,1.45c0.96,0.97,1.44,2.44,1.44,4.43v0.44c0,1.36-0.24,2.48-0.72,3.36
					c-0.48,0.88-1.17,1.54-2.08,1.96c1.02,0.3,1.8,0.91,2.34,1.82c0.54,0.91,0.81,2.12,0.81,3.62v1.21c0,3.91-1.96,5.86-5.87,5.86
					h-7.18c-3.92,0-5.88-1.95-5.88-5.86V232.36z"/>
				<path class="st3" d="M132.16,231.35l11.92-15.84h4.06v15.84h3.25v3.32h-3.25v5.01h-3.46v-5.01h-12.52V231.35z M144.68,231.35
					v-11.66l-8.76,11.66H144.68z"/>
				<path class="st3" d="M196.18,233.81c-0.03,1.97-0.53,3.43-1.48,4.41c-0.95,0.97-2.42,1.46-4.38,1.46h-6.49
					c-3.92,0-5.88-1.95-5.88-5.86v-1.45h3.39v1.28c0,0.91,0.2,1.58,0.61,2.01c0.41,0.43,1.07,0.64,1.99,0.64h6.27
					c0.92,0,1.58-0.21,1.99-0.64c0.4-0.43,0.61-1.09,0.61-2.01v-3.25c0-0.91-0.2-1.58-0.61-2c-0.41-0.42-1.07-0.63-1.99-0.63h-11.56
					V215.5h16.92v3.45h-13.47v5.43h8.23c1.98,0,3.45,0.48,4.41,1.44c0.97,0.96,1.45,2.44,1.45,4.42V233.81z"/>
				<path class="st3" d="M202.39,218.96c0-0.47,0.09-0.92,0.27-1.34c0.18-0.42,0.43-0.79,0.74-1.1c0.31-0.31,0.68-0.56,1.1-0.74
					c0.42-0.18,0.87-0.28,1.34-0.28h11.04c0.47,0,0.92,0.09,1.34,0.28c0.42,0.19,0.79,0.43,1.1,0.74c0.31,0.31,0.56,0.67,0.74,1.1
					c0.18,0.42,0.27,0.87,0.27,1.34v3.12h-3.46v-3.12h-11.04v6.91h11.04c0.47,0,0.92,0.09,1.34,0.27c0.42,0.18,0.79,0.43,1.1,0.74
					c0.31,0.31,0.56,0.68,0.74,1.11c0.18,0.42,0.27,0.87,0.27,1.34v6.89c0,0.47-0.09,0.92-0.27,1.34c-0.18,0.42-0.43,0.79-0.74,1.1
					c-0.31,0.31-0.68,0.56-1.1,0.74c-0.42,0.18-0.87,0.27-1.34,0.27h-11.04c-0.47,0-0.92-0.09-1.34-0.27
					c-0.42-0.18-0.79-0.43-1.1-0.74c-0.31-0.31-0.56-0.68-0.74-1.1c-0.18-0.42-0.27-0.87-0.27-1.34V218.96z M205.85,229.32v6.89
					h11.04v-6.89H205.85z"/>
				<path class="st3" d="M228.54,239.67l10.84-20.72h-13.5v-3.45h18.64v1.05l-11.98,23.12H228.54z"/>
				<path class="st3" d="M254.19,239.67c-3.92,0-5.88-1.95-5.88-5.86v-1.21c0-1.51,0.27-2.71,0.81-3.62
					c0.54-0.91,1.32-1.52,2.34-1.82c-0.91-0.43-1.6-1.08-2.08-1.96c-0.48-0.88-0.72-2-0.72-3.36v-0.44c0-3.92,1.96-5.88,5.87-5.88
					h6.49c3.91,0,5.87,1.96,5.87,5.88v0.44c0,1.36-0.24,2.48-0.72,3.36c-0.48,0.88-1.17,1.54-2.08,1.96c1.02,0.3,1.8,0.91,2.34,1.82
					c0.54,0.91,0.81,2.12,0.81,3.62v1.21c0,3.91-1.96,5.86-5.87,5.86H254.19z M261.25,236.28c0.92,0,1.58-0.21,1.99-0.64
					c0.41-0.43,0.61-1.09,0.61-2.01v-1.87c0-0.92-0.2-1.59-0.61-2.01c-0.4-0.42-1.07-0.62-1.99-0.62h-6.96
					c-0.92,0-1.59,0.21-1.99,0.62c-0.4,0.42-0.61,1.09-0.61,2.01v1.87c0,0.91,0.2,1.58,0.61,2.01c0.4,0.43,1.07,0.64,1.99,0.64
					H261.25z M261.15,225.77c0.84-0.04,1.44-0.26,1.8-0.68c0.36-0.42,0.54-1.07,0.54-1.95v-1.58c0-0.92-0.2-1.6-0.61-2.02
					c-0.4-0.43-1.06-0.64-1.97-0.64h-6.29c-0.91,0-1.57,0.21-1.97,0.64c-0.41,0.43-0.61,1.1-0.61,2.02v1.58
					c0,0.88,0.18,1.53,0.55,1.95c0.37,0.42,0.97,0.65,1.8,0.68H261.15z"/>
				<path class="st3" d="M314.5,236.22c0,0.47-0.09,0.92-0.27,1.34c-0.18,0.42-0.43,0.79-0.74,1.1c-0.31,0.31-0.68,0.56-1.1,0.74
					c-0.42,0.18-0.87,0.27-1.34,0.27h-11.04c-0.47,0-0.92-0.09-1.34-0.27c-0.42-0.18-0.79-0.43-1.1-0.74
					c-0.31-0.31-0.56-0.68-0.74-1.1c-0.18-0.42-0.27-0.87-0.27-1.34v-3.1h3.46v3.1h11.04v-6.89h-11.04c-0.47,0-0.92-0.09-1.34-0.28
					c-0.42-0.19-0.79-0.43-1.1-0.74c-0.31-0.31-0.56-0.67-0.74-1.1c-0.18-0.42-0.27-0.87-0.27-1.34v-6.91
					c0-0.47,0.09-0.92,0.27-1.34c0.18-0.42,0.43-0.79,0.74-1.1c0.31-0.31,0.68-0.56,1.1-0.74c0.42-0.18,0.87-0.28,1.34-0.28h11.04
					c0.47,0,0.92,0.09,1.34,0.28c0.42,0.19,0.79,0.43,1.1,0.74c0.31,0.31,0.56,0.67,0.74,1.1c0.18,0.42,0.27,0.87,0.27,1.34V236.22z
					 M311.05,225.87v-6.91h-11.04v6.91H311.05z"/>
				<path class="st3" d="M340.75,236.22c0,0.47-0.09,0.92-0.27,1.34c-0.18,0.42-0.43,0.79-0.74,1.1c-0.31,0.31-0.68,0.56-1.1,0.74
					c-0.42,0.18-0.87,0.27-1.34,0.27h-12.08c-0.47,0-0.92-0.09-1.34-0.27c-0.42-0.18-0.79-0.43-1.1-0.74
					c-0.31-0.31-0.56-0.68-0.74-1.1c-0.18-0.42-0.27-0.87-0.27-1.34v-17.26c0-0.47,0.09-0.92,0.27-1.34
					c0.18-0.42,0.43-0.79,0.74-1.1s0.68-0.56,1.1-0.74c0.42-0.18,0.87-0.28,1.34-0.28h12.08c0.47,0,0.92,0.09,1.34,0.28
					c0.42,0.19,0.79,0.43,1.1,0.74c0.31,0.31,0.56,0.67,0.74,1.1c0.18,0.42,0.27,0.87,0.27,1.34V236.22z M325.21,218.96v17.26h12.08
					v-17.26H325.21z"/>
				<path class="st3" d="M353.52,215.5v24.17h-3.46v-20.72h-4.15v-3.45H353.52z"/>
				<path class="st3" d="M364.23,218.96v3.12h-3.45v-3.12c0-0.47,0.09-0.92,0.27-1.34c0.18-0.42,0.43-0.79,0.74-1.1
					c0.31-0.31,0.68-0.56,1.1-0.74c0.42-0.18,0.87-0.28,1.34-0.28h10.94c0.47,0,0.92,0.09,1.34,0.28c0.42,0.19,0.79,0.43,1.09,0.74
					c0.31,0.31,0.56,0.67,0.74,1.1c0.19,0.42,0.28,0.87,0.28,1.34v4.42c0,0.47-0.05,0.89-0.13,1.26c-0.09,0.37-0.24,0.7-0.43,1
					c-0.2,0.3-0.45,0.56-0.75,0.8c-0.3,0.24-0.68,0.46-1.11,0.67l-11.97,5.61v3.49h11.38v-3.1h3.45v6.56h-18.29v-6.35
					c0-0.47,0.05-0.89,0.14-1.26c0.09-0.37,0.24-0.7,0.43-1c0.19-0.29,0.44-0.56,0.75-0.8c0.31-0.24,0.67-0.46,1.09-0.66l11.99-5.63
					v-5.01H364.23z"/>
				<path class="st3" d="M407.35,232.36h3.39v1.28c0,0.91,0.2,1.58,0.61,2.01c0.41,0.43,1.07,0.64,1.99,0.64h6.96
					c0.92,0,1.58-0.21,1.99-0.64c0.4-0.43,0.61-1.09,0.61-2.01v-1.87c0-0.92-0.2-1.59-0.61-2.01c-0.41-0.42-1.07-0.62-1.99-0.62
					h-7.15v-3.37h7.05c0.84-0.04,1.45-0.26,1.81-0.68c0.36-0.42,0.55-1.07,0.55-1.95v-1.58c0-0.92-0.2-1.6-0.61-2.02
					c-0.41-0.43-1.07-0.64-1.98-0.64h-6.29c-0.91,0-1.57,0.21-1.97,0.64c-0.4,0.43-0.61,1.1-0.61,2.02v1.28h-3.39v-1.45
					c0-3.92,1.96-5.88,5.87-5.88h6.49c1.99,0,3.46,0.48,4.42,1.45c0.96,0.97,1.44,2.44,1.44,4.43v0.44c0,1.36-0.24,2.48-0.72,3.36
					c-0.48,0.88-1.17,1.54-2.08,1.96c1.02,0.3,1.8,0.91,2.34,1.82c0.54,0.91,0.81,2.12,0.81,3.62v1.21c0,3.91-1.95,5.86-5.86,5.86
					h-7.18c-3.92,0-5.88-1.95-5.88-5.86V232.36z"/>
				<path class="st3" d="M430.08,231.35l11.92-15.84h4.06v15.84h3.25v3.32h-3.25v5.01h-3.45v-5.01h-12.52V231.35z M442.6,231.35
					v-11.66l-8.76,11.66H442.6z"/>
				<path class="st3" d="M471.33,233.81c-0.03,1.97-0.53,3.43-1.48,4.41c-0.96,0.97-2.42,1.46-4.38,1.46h-6.49
					c-3.92,0-5.88-1.95-5.88-5.86v-1.45h3.39v1.28c0,0.91,0.2,1.58,0.61,2.01c0.4,0.43,1.07,0.64,1.99,0.64h6.27
					c0.92,0,1.58-0.21,1.99-0.64c0.4-0.43,0.61-1.09,0.61-2.01v-3.25c0-0.91-0.2-1.58-0.61-2c-0.4-0.42-1.07-0.63-1.99-0.63h-11.56
					V215.5h16.92v3.45h-13.47v5.43h8.23c1.98,0,3.45,0.48,4.42,1.44c0.97,0.96,1.45,2.44,1.45,4.42V233.81z"/>
				<path class="st3" d="M477.54,218.96c0-0.47,0.09-0.92,0.27-1.34c0.18-0.42,0.43-0.79,0.74-1.1s0.68-0.56,1.1-0.74
					c0.42-0.18,0.87-0.28,1.34-0.28h11.04c0.47,0,0.92,0.09,1.34,0.28c0.42,0.19,0.79,0.43,1.1,0.74c0.31,0.31,0.56,0.67,0.74,1.1
					c0.18,0.42,0.27,0.87,0.27,1.34v3.12h-3.45v-3.12H481v6.91h11.04c0.47,0,0.92,0.09,1.34,0.27c0.42,0.18,0.79,0.43,1.1,0.74
					c0.31,0.31,0.56,0.68,0.74,1.11c0.18,0.42,0.27,0.87,0.27,1.34v6.89c0,0.47-0.09,0.92-0.27,1.34c-0.18,0.42-0.43,0.79-0.74,1.1
					c-0.31,0.31-0.68,0.56-1.1,0.74c-0.42,0.18-0.87,0.27-1.34,0.27H481c-0.47,0-0.92-0.09-1.34-0.27c-0.42-0.18-0.79-0.43-1.1-0.74
					c-0.31-0.31-0.56-0.68-0.74-1.1c-0.18-0.42-0.27-0.87-0.27-1.34V218.96z M481,229.32v6.89h11.04v-6.89H481z"/>
			</g>
			<g>
				<path class="st4" d="M71.73,253.04v11.34h-1.62v-9.71h-1.94v-1.62H71.73z"/>
				<path class="st4" d="M76.75,254.66v1.46h-1.62v-1.46c0-0.22,0.04-0.43,0.13-0.63c0.08-0.2,0.2-0.37,0.35-0.51
					c0.15-0.14,0.32-0.26,0.52-0.35c0.2-0.09,0.41-0.13,0.63-0.13h5.13c0.22,0,0.43,0.04,0.63,0.13c0.2,0.09,0.37,0.2,0.51,0.35
					c0.14,0.15,0.26,0.32,0.35,0.51c0.09,0.2,0.13,0.41,0.13,0.63v2.07c0,0.22-0.02,0.42-0.06,0.59c-0.04,0.17-0.11,0.33-0.2,0.47
					c-0.09,0.14-0.21,0.27-0.35,0.38c-0.14,0.11-0.32,0.21-0.52,0.32l-5.61,2.63v1.64h5.33v-1.45h1.62v3.08h-8.58v-2.98
					c0-0.22,0.02-0.42,0.07-0.59c0.04-0.17,0.11-0.33,0.2-0.47c0.09-0.14,0.21-0.26,0.35-0.38c0.14-0.11,0.31-0.22,0.51-0.31
					l5.62-2.64v-2.35H76.75z"/>
				<path class="st4" d="M86.3,260.94h1.59v0.6c0,0.43,0.1,0.74,0.29,0.94c0.19,0.2,0.5,0.3,0.93,0.3h3.26c0.43,0,0.74-0.1,0.93-0.3
					c0.19-0.2,0.28-0.51,0.28-0.94v-0.88c0-0.43-0.09-0.75-0.28-0.94c-0.19-0.19-0.5-0.29-0.93-0.29h-3.35v-1.58h3.3
					c0.4-0.02,0.68-0.12,0.85-0.32c0.17-0.2,0.26-0.5,0.26-0.91v-0.74c0-0.43-0.1-0.75-0.29-0.95c-0.19-0.2-0.5-0.3-0.93-0.3h-2.95
					c-0.43,0-0.74,0.1-0.93,0.3c-0.19,0.2-0.28,0.52-0.28,0.95v0.6h-1.59v-0.68c0-1.84,0.92-2.76,2.75-2.76h3.04
					c0.93,0,1.62,0.23,2.07,0.68c0.45,0.45,0.68,1.15,0.68,2.08v0.2c0,0.64-0.11,1.16-0.34,1.58c-0.22,0.41-0.55,0.72-0.98,0.92
					c0.48,0.14,0.85,0.43,1.1,0.85c0.25,0.43,0.38,0.99,0.38,1.7v0.57c0,1.83-0.92,2.75-2.75,2.75h-3.37
					c-1.84,0-2.76-0.92-2.76-2.75V260.94z"/>
				<path class="st4" d="M96.96,260.47l5.59-7.43h1.9v7.43h1.53v1.56h-1.53v2.35h-1.62v-2.35h-5.87V260.47z M102.83,260.47V255
					l-4.11,5.47H102.83z"/>
			</g>
			<g>
				<g>
					<path class="st4" d="M424.01,270.87c0,0.22-0.04,0.43-0.13,0.63c-0.08,0.2-0.2,0.37-0.35,0.52c-0.15,0.15-0.32,0.26-0.52,0.35
						c-0.2,0.08-0.41,0.13-0.63,0.13h-5.67c-0.22,0-0.43-0.04-0.63-0.13c-0.2-0.08-0.37-0.2-0.52-0.35
						c-0.15-0.15-0.26-0.32-0.35-0.52c-0.08-0.2-0.13-0.41-0.13-0.63v-8.09c0-0.22,0.04-0.43,0.13-0.63c0.08-0.2,0.2-0.37,0.35-0.51
						c0.15-0.14,0.32-0.26,0.52-0.35c0.2-0.09,0.41-0.13,0.63-0.13h5.67c0.22,0,0.43,0.04,0.63,0.13c0.2,0.09,0.37,0.2,0.52,0.35
						c0.15,0.15,0.26,0.32,0.35,0.51c0.08,0.2,0.13,0.41,0.13,0.63V270.87z M416.73,262.77v8.09h5.67v-8.09H416.73z"/>
					<path class="st4" d="M427.41,262.77c0-0.22,0.04-0.43,0.13-0.63c0.08-0.2,0.2-0.37,0.35-0.51c0.15-0.14,0.32-0.26,0.52-0.35
						c0.2-0.09,0.41-0.13,0.63-0.13h5.18c0.22,0,0.43,0.04,0.63,0.13c0.2,0.09,0.37,0.2,0.52,0.35c0.15,0.15,0.26,0.32,0.35,0.51
						c0.08,0.2,0.13,0.41,0.13,0.63v1.46h-1.62v-1.46h-5.18v3.24h5.18c0.22,0,0.43,0.04,0.63,0.13c0.2,0.08,0.37,0.2,0.52,0.35
						c0.15,0.15,0.26,0.32,0.35,0.52c0.08,0.2,0.13,0.41,0.13,0.63v3.23c0,0.22-0.04,0.43-0.13,0.63c-0.08,0.2-0.2,0.37-0.35,0.52
						c-0.15,0.15-0.32,0.26-0.52,0.35c-0.2,0.08-0.41,0.13-0.63,0.13h-5.18c-0.22,0-0.43-0.04-0.63-0.13
						c-0.2-0.08-0.37-0.2-0.52-0.35c-0.15-0.15-0.26-0.32-0.35-0.52c-0.08-0.2-0.13-0.41-0.13-0.63V262.77z M429.03,267.64v3.23
						h5.18v-3.23H429.03z"/>
					<path class="st4" d="M438.42,273.3l4.29-12.95h1.57l-4.37,12.95H438.42z"/>
					<path class="st4" d="M446.22,269.06h1.59v0.6c0,0.43,0.1,0.74,0.29,0.94c0.19,0.2,0.5,0.3,0.93,0.3h3.26
						c0.43,0,0.74-0.1,0.93-0.3c0.19-0.2,0.28-0.51,0.28-0.94v-0.88c0-0.43-0.09-0.75-0.28-0.94c-0.19-0.19-0.5-0.29-0.93-0.29
						h-3.35v-1.58h3.3c0.4-0.02,0.68-0.12,0.85-0.32c0.17-0.2,0.26-0.5,0.26-0.91v-0.74c0-0.43-0.1-0.75-0.29-0.95
						c-0.19-0.2-0.5-0.3-0.93-0.3h-2.95c-0.43,0-0.74,0.1-0.93,0.3c-0.19,0.2-0.28,0.52-0.28,0.95v0.6h-1.59v-0.68
						c0-1.84,0.92-2.76,2.75-2.76h3.04c0.93,0,1.62,0.23,2.07,0.68c0.45,0.45,0.68,1.15,0.68,2.08v0.2c0,0.64-0.11,1.16-0.34,1.58
						c-0.22,0.41-0.55,0.72-0.98,0.92c0.48,0.14,0.85,0.43,1.1,0.85c0.25,0.43,0.38,0.99,0.38,1.7v0.57c0,1.83-0.92,2.75-2.75,2.75
						h-3.37c-1.84,0-2.76-0.92-2.76-2.75V269.06z"/>
					<path class="st4" d="M466.92,270.87c0,0.22-0.04,0.43-0.13,0.63c-0.08,0.2-0.2,0.37-0.35,0.52c-0.15,0.15-0.32,0.26-0.52,0.35
						c-0.2,0.08-0.41,0.13-0.63,0.13h-5.67c-0.22,0-0.43-0.04-0.63-0.13c-0.2-0.08-0.37-0.2-0.52-0.35
						c-0.15-0.15-0.26-0.32-0.35-0.52c-0.08-0.2-0.13-0.41-0.13-0.63v-8.09c0-0.22,0.04-0.43,0.13-0.63c0.08-0.2,0.2-0.37,0.35-0.51
						c0.15-0.14,0.32-0.26,0.52-0.35c0.2-0.09,0.41-0.13,0.63-0.13h5.67c0.22,0,0.43,0.04,0.63,0.13c0.2,0.09,0.37,0.2,0.52,0.35
						c0.15,0.15,0.26,0.32,0.35,0.51c0.08,0.2,0.13,0.41,0.13,0.63V270.87z M459.63,262.77v8.09h5.67v-8.09H459.63z"/>
				</g>
				<g>
					<path class="st4" d="M369.06,264.24l-2.86-7.41h1.14l2.31,6.1l2.31-6.1h1.13l-2.86,7.41H369.06z"/>
					<path class="st4" d="M377.21,256.84l2.86,7.41H379l-0.66-1.71h-3.34l-0.66,1.71h-1.06l2.86-7.41H377.21z M375.41,261.48h2.53
						l-1.26-3.27L375.41,261.48z"/>
					<path class="st4" d="M382.71,256.84v6.35h3.81v1.06h-4.87v-7.41H382.71z"/>
					<path class="st4" d="M389.17,256.84v7.41h-1.06v-7.41H389.17z"/>
					<path class="st4" d="M391.39,264.24v-7.41h3.77c0.4,0,0.75,0.06,1.07,0.18c0.32,0.12,0.59,0.3,0.82,0.52
						c0.23,0.23,0.4,0.5,0.52,0.82c0.12,0.32,0.18,0.68,0.18,1.07v2.22c0,0.39-0.06,0.75-0.18,1.07c-0.12,0.32-0.3,0.59-0.52,0.82
						c-0.23,0.22-0.5,0.4-0.82,0.52c-0.32,0.12-0.68,0.18-1.07,0.18H391.39z M395.15,263.19c0.49,0,0.87-0.13,1.14-0.4
						c0.27-0.27,0.4-0.64,0.4-1.14v-2.22c0-0.24-0.03-0.46-0.1-0.65c-0.07-0.19-0.17-0.35-0.3-0.48c-0.13-0.13-0.29-0.23-0.48-0.3
						c-0.19-0.07-0.4-0.1-0.65-0.1h-2.71v5.29H395.15z"/>
					<path class="st4" d="M367.16,269.53h5.93v1.06h-2.43v6.35h-1.06v-6.35h-2.43V269.53z"/>
					<path class="st4" d="M381.03,269.53v7.41h-1.06v-3.17h-4.24v3.17h-1.06v-7.41h1.06v3.18h4.24v-3.18H381.03z"/>
					<path class="st4" d="M389.11,272.18c0,1.03-0.44,1.62-1.32,1.77l1.39,3H388l-1.37-2.96h-2.32v2.96h-1.06v-7.41h4.06
						c1.2,0,1.8,0.6,1.8,1.8V272.18z M384.31,272.92h2.94c0.28,0,0.48-0.06,0.61-0.19c0.12-0.12,0.19-0.33,0.19-0.61v-0.74
						c0-0.28-0.06-0.48-0.19-0.61c-0.12-0.13-0.33-0.19-0.61-0.19h-2.94V272.92z"/>
					<path class="st4" d="M391.19,269.53h1.06v6.35h4.23v-6.35h1.06v6.35c0,0.14-0.03,0.28-0.08,0.41
						c-0.05,0.13-0.13,0.24-0.23,0.34c-0.1,0.1-0.21,0.17-0.34,0.23c-0.13,0.05-0.27,0.08-0.41,0.08h-4.23
						c-0.14,0-0.28-0.03-0.41-0.08c-0.13-0.05-0.24-0.13-0.34-0.23c-0.1-0.1-0.17-0.21-0.23-0.34c-0.06-0.13-0.08-0.27-0.08-0.41
						V269.53z"/>
				</g>
				<polygon class="st4" points="402.75,261.93 402.75,271.26 408.55,266.6 				"/>
			</g>
			<g>
				<path class="st4" d="M72.37,300.63c0-0.26,0.05-0.51,0.15-0.75c0.1-0.24,0.24-0.44,0.41-0.61c0.18-0.17,0.38-0.31,0.62-0.42
					c0.24-0.1,0.48-0.16,0.75-0.16h7.33c0.26,0,0.51,0.05,0.75,0.16c0.24,0.1,0.44,0.24,0.62,0.42c0.18,0.17,0.31,0.38,0.41,0.61
					c0.1,0.24,0.15,0.48,0.15,0.75v1.74h-1.93v-1.74h-7.33v9.64h7.33v-1.73h1.93v1.73c0,0.27-0.05,0.51-0.15,0.75
					c-0.1,0.24-0.24,0.44-0.41,0.62c-0.18,0.18-0.38,0.31-0.62,0.41c-0.24,0.1-0.48,0.15-0.75,0.15h-7.33
					c-0.26,0-0.51-0.05-0.75-0.15c-0.24-0.1-0.44-0.24-0.62-0.41c-0.18-0.18-0.32-0.38-0.41-0.62c-0.1-0.24-0.15-0.48-0.15-0.75
					V300.63z"/>
				<path class="st4" d="M93.21,298.7l5.21,13.51h-1.93l-1.2-3.11H89.2l-1.2,3.11h-1.93l5.21-13.51H93.21z M89.94,307.17h4.62
					l-2.3-5.95L89.94,307.17z"/>
				<path class="st4" d="M111.99,303.53c0,1.88-0.8,2.96-2.41,3.22l2.54,5.46h-2.14l-2.51-5.4h-4.23v5.4h-1.93V298.7h7.39
					c2.19,0,3.28,1.1,3.28,3.29V303.53z M103.25,304.88h5.36c0.51,0,0.89-0.11,1.11-0.34c0.23-0.23,0.34-0.6,0.34-1.11v-1.35
					c0-0.51-0.11-0.88-0.34-1.11c-0.23-0.23-0.6-0.34-1.11-0.34h-5.36V304.88z"/>
				<path class="st4" d="M115.79,312.21V298.7h6.87c0.72,0,1.37,0.11,1.96,0.33c0.58,0.22,1.08,0.54,1.49,0.95
					c0.41,0.41,0.73,0.91,0.95,1.49c0.22,0.58,0.34,1.23,0.34,1.95v4.05c0,0.72-0.11,1.37-0.34,1.95c-0.22,0.58-0.54,1.08-0.95,1.49
					c-0.41,0.41-0.91,0.73-1.49,0.95c-0.58,0.22-1.23,0.33-1.96,0.33H115.79z M122.66,310.28c0.9,0,1.59-0.24,2.07-0.73
					c0.48-0.48,0.72-1.17,0.72-2.07v-4.05c0-0.44-0.06-0.83-0.19-1.18c-0.13-0.35-0.31-0.64-0.55-0.88
					c-0.24-0.24-0.54-0.43-0.88-0.55c-0.35-0.13-0.74-0.19-1.18-0.19h-4.94v9.64H122.66z"/>
				<path class="st4" d="M142.65,298.7v13.51h-1.93v-5.78h-7.73v5.78h-1.93V298.7h1.93v5.79h7.73v-5.79H142.65z"/>
				<path class="st4" d="M158.27,310.28c0,0.27-0.05,0.51-0.15,0.75c-0.1,0.24-0.24,0.44-0.42,0.62c-0.18,0.18-0.38,0.31-0.62,0.41
					c-0.24,0.1-0.48,0.15-0.75,0.15h-7.71c-0.26,0-0.51-0.05-0.75-0.15c-0.24-0.1-0.44-0.24-0.62-0.41
					c-0.18-0.18-0.32-0.38-0.41-0.62c-0.1-0.24-0.15-0.48-0.15-0.75v-9.64c0-0.26,0.05-0.51,0.15-0.75c0.1-0.24,0.24-0.44,0.41-0.61
					c0.18-0.17,0.38-0.31,0.62-0.42c0.24-0.1,0.48-0.16,0.75-0.16h7.71c0.26,0,0.51,0.05,0.75,0.16c0.24,0.1,0.44,0.24,0.62,0.42
					c0.18,0.17,0.31,0.38,0.42,0.61c0.1,0.24,0.15,0.48,0.15,0.75V310.28z M148.62,300.63v9.64h7.71v-9.64H148.62z"/>
				<path class="st4" d="M164.24,298.7v11.58h6.94v1.93h-8.87V298.7H164.24z"/>
				<path class="st4" d="M174.08,312.21V298.7h6.87c0.72,0,1.37,0.11,1.96,0.33c0.58,0.22,1.08,0.54,1.49,0.95
					c0.41,0.41,0.73,0.91,0.95,1.49c0.22,0.58,0.34,1.23,0.34,1.95v4.05c0,0.72-0.11,1.37-0.34,1.95c-0.22,0.58-0.54,1.08-0.95,1.49
					c-0.41,0.41-0.91,0.73-1.49,0.95c-0.58,0.22-1.23,0.33-1.96,0.33H174.08z M180.95,310.28c0.9,0,1.59-0.24,2.07-0.73
					c0.48-0.48,0.72-1.17,0.72-2.07v-4.05c0-0.44-0.06-0.83-0.19-1.18c-0.13-0.35-0.31-0.64-0.55-0.88
					c-0.24-0.24-0.54-0.43-0.88-0.55c-0.35-0.13-0.74-0.19-1.18-0.19h-4.93v9.64H180.95z"/>
				<path class="st4" d="M189.34,298.7h9.84v1.93h-7.91v3.86h6.75v1.93h-6.75v3.85h7.91v1.93h-9.84V298.7z"/>
				<path class="st4" d="M213.33,303.53c0,1.88-0.8,2.96-2.41,3.22l2.54,5.46h-2.14l-2.51-5.4h-4.23v5.4h-1.93V298.7h7.39
					c2.19,0,3.28,1.1,3.28,3.29V303.53z M204.59,304.88h5.36c0.51,0,0.89-0.11,1.11-0.34c0.23-0.23,0.34-0.6,0.34-1.11v-1.35
					c0-0.51-0.11-0.88-0.34-1.11c-0.23-0.23-0.6-0.34-1.11-0.34h-5.36V304.88z"/>
				<path class="st4" d="M225.42,312.21h-1.93V298.7h1.93l8.12,10.47V298.7h1.93v13.51h-1.93l-8.12-10.47V312.21z"/>
				<path class="st4" d="M245.5,298.7l5.21,13.51h-1.93l-1.2-3.11h-6.09l-1.2,3.11h-1.93l5.21-13.51H245.5z M242.22,307.17h4.61
					l-2.3-5.95L242.22,307.17z"/>
				<path class="st4" d="M260.57,312.21l-5.04-9.9v9.9h-1.93V298.7h2.11l5.14,10.17l5.15-10.17h2.1v13.51h-1.92v-9.9l-5.04,9.9
					H260.57z"/>
				<path class="st4" d="M272.16,298.7H282v1.93h-7.91v3.86h6.75v1.93h-6.75v3.85H282v1.93h-9.84V298.7z"/>
			</g>
			<g>
				<path class="st4" d="M73.17,63.45c0-0.35,0.07-0.68,0.2-0.99c0.13-0.31,0.32-0.58,0.55-0.81c0.23-0.23,0.51-0.41,0.82-0.55
					c0.31-0.14,0.64-0.21,0.99-0.21h9.72c0.35,0,0.68,0.07,0.99,0.21c0.31,0.14,0.59,0.32,0.82,0.55c0.23,0.23,0.42,0.5,0.55,0.81
					c0.13,0.31,0.2,0.64,0.2,0.99v2.31h-2.56v-2.31h-9.72v12.79h9.72v-2.3h2.56v2.3c0,0.35-0.07,0.68-0.2,0.99
					c-0.13,0.31-0.32,0.59-0.55,0.82c-0.23,0.23-0.51,0.42-0.82,0.55c-0.31,0.13-0.64,0.2-0.99,0.2h-9.72
					c-0.35,0-0.68-0.07-0.99-0.2c-0.31-0.13-0.58-0.32-0.82-0.55c-0.23-0.23-0.42-0.51-0.55-0.82c-0.13-0.31-0.2-0.64-0.2-0.99
					V63.45z"/>
				<path class="st4" d="M100.8,60.89l6.91,17.91h-2.56l-1.59-4.12h-8.08L93.9,78.8h-2.56l6.91-17.91H100.8z M96.46,72.11h6.12
					l-3.05-7.89L96.46,72.11z"/>
				<path class="st4" d="M125.7,67.28c0,2.5-1.07,3.92-3.2,4.27l3.37,7.24h-2.84l-3.32-7.16h-5.61v7.16h-2.56V60.89h9.8
					c2.9,0,4.34,1.45,4.34,4.36V67.28z M114.11,69.08h7.11c0.68,0,1.17-0.15,1.47-0.45c0.3-0.3,0.45-0.79,0.45-1.47v-1.79
					c0-0.68-0.15-1.17-0.45-1.47c-0.3-0.3-0.79-0.45-1.47-0.45h-7.11V69.08z"/>
				<path class="st4" d="M130.74,78.8V60.89h9.1c0.96,0,1.82,0.15,2.59,0.44c0.77,0.3,1.43,0.72,1.97,1.26
					c0.54,0.54,0.97,1.21,1.26,1.98c0.3,0.78,0.44,1.64,0.44,2.59v5.37c0,0.95-0.15,1.81-0.44,2.59c-0.3,0.77-0.72,1.43-1.26,1.98
					c-0.55,0.54-1.2,0.97-1.97,1.26c-0.77,0.3-1.63,0.44-2.59,0.44H130.74z M139.84,76.24c1.19,0,2.11-0.32,2.75-0.96
					c0.64-0.64,0.96-1.56,0.96-2.75v-5.37c0-0.58-0.08-1.1-0.25-1.56c-0.17-0.46-0.41-0.85-0.73-1.17
					c-0.32-0.32-0.71-0.56-1.17-0.73c-0.46-0.17-0.98-0.25-1.56-0.25h-6.54v12.79H139.84z"/>
				<path class="st4" d="M157.88,60.89h14.32v2.56h-5.88V78.8h-2.56V63.45h-5.88V60.89z"/>
				<path class="st4" d="M177.23,60.89l5.21,8.37l5.22-8.37h2.97l-6.91,10.8v7.11h-2.56v-7.11l-6.91-10.8H177.23z"/>
				<path class="st4" d="M194.21,78.8V60.89h9.8c2.9,0,4.34,1.45,4.34,4.36v2.55c0,2.91-1.45,4.36-4.34,4.36h-7.24v6.64H194.21z
					 M196.77,69.59h7.11c0.68,0,1.17-0.15,1.47-0.45c0.3-0.3,0.45-0.79,0.45-1.47v-2.3c0-0.68-0.15-1.17-0.45-1.47
					c-0.3-0.3-0.79-0.45-1.47-0.45h-7.11V69.59z"/>
				<path class="st4" d="M212.7,60.89h13.05v2.56h-10.49v5.12h8.96v2.56h-8.96v5.11h10.49v2.56H212.7V60.89z"/>
			</g>
			<g>
				<path class="st4" d="M488.43,67.71v4.18c4.94,0,8.95,4.02,8.95,8.95h4.18C501.56,73.6,495.67,67.71,488.43,67.71z"/>
				<path class="st4" d="M488.43,59.64v4.46c9.23,0,16.74,7.51,16.74,16.74h4.46C509.63,69.15,500.12,59.64,488.43,59.64z"/>
				<path class="st4" d="M490.84,76.02c-1.24,0-2.25,1.01-2.25,2.25c0,1.24,1.01,2.25,2.25,2.25c1.24,0,2.25-1.01,2.25-2.25
					C493.09,77.02,492.09,76.02,490.84,76.02z"/>
			</g>
			<g>
				
					<linearGradient id="SVGID_00000116222653555613299360000000917516585072229263_" gradientUnits="userSpaceOnUse" x1="113.656" y1="162.6672" x2="113.656" y2="107.0428">
					<stop  offset="0" style="stop-color:#FFF08A"/>
					<stop  offset="0.0477" style="stop-color:#E6CC64"/>
					<stop  offset="0.099" style="stop-color:#D1AC42"/>
					<stop  offset="0.1517" style="stop-color:#C09328"/>
					<stop  offset="0.2056" style="stop-color:#B48116"/>
					<stop  offset="0.2616" style="stop-color:#AC760B"/>
					<stop  offset="0.3227" style="stop-color:#AA7307"/>
					<stop  offset="0.3935" style="stop-color:#AE790D"/>
					<stop  offset="0.4881" style="stop-color:#BA891E"/>
					<stop  offset="0.5957" style="stop-color:#CEA33A"/>
					<stop  offset="0.661" style="stop-color:#DCB64E"/>
					<stop  offset="0.6843" style="stop-color:#DFBC55"/>
					<stop  offset="0.8156" style="stop-color:#F1D975"/>
					<stop  offset="0.9255" style="stop-color:#FBEB89"/>
					<stop  offset="1" style="stop-color:#FFF290"/>
				</linearGradient>
				<path style="fill:url(#SVGID_00000116222653555613299360000000917516585072229263_);" d="M147.11,162.67h-66.9
					c-6.43,0-11.65-5.22-11.65-11.65v-32.32c0-6.43,5.22-11.65,11.65-11.65h66.9c6.43,0,11.65,5.22,11.65,11.65v32.32
					C158.76,157.45,153.54,162.67,147.11,162.67z"/>
				<g>
					<g>
						<path class="st6" d="M113.66,153.64c-5.83,0-10.58-4.75-10.58-10.58c0-3.21,1.45-6.2,3.93-8.21c-2.48-2-3.93-4.99-3.93-8.21
							c0-5.83,4.74-10.57,10.58-10.57c5.83,0,10.57,4.74,10.57,10.57c0,3.21-1.45,6.2-3.93,8.21c2.48,2,3.93,4.99,3.93,8.21
							C124.23,148.89,119.49,153.64,113.66,153.64z M113.66,117.68c-4.95,0-8.97,4.02-8.97,8.97c0,3.05,1.54,5.86,4.13,7.53
							l1.05,0.67l-1.05,0.67c-2.58,1.67-4.13,4.48-4.13,7.53c0,4.95,4.02,8.97,8.97,8.97c4.94,0,8.97-4.02,8.97-8.97
							c0-3.05-1.54-5.87-4.13-7.53l-1.05-0.67l1.05-0.67c2.58-1.66,4.13-4.48,4.13-7.53C122.62,121.71,118.6,117.68,113.66,117.68z"
							/>
					</g>
					<g>
						<rect x="68.56" y="122.43" class="st6" width="35.97" height="1.61"/>
					</g>
					<g>
						<rect x="123.43" y="122.43" class="st6" width="35.33" height="1.61"/>
					</g>
					<g>
						<rect x="68.56" y="145.42" class="st6" width="35.97" height="1.61"/>
					</g>
					<g>
						<rect x="123.43" y="145.42" class="st6" width="35.33" height="1.61"/>
					</g>
					<g>
						<rect x="85.74" y="107.04" class="st6" width="1.61" height="55.62"/>
					</g>
					<g>
						<rect x="135.09" y="123.23" class="st6" width="1.61" height="22.99"/>
					</g>
					<g>
						<rect x="143.42" y="107.04" class="st6" width="1.61" height="16.19"/>
					</g>
					<g>
						<rect x="143.42" y="146.22" class="st6" width="1.61" height="16.44"/>
					</g>
				</g>
			</g>
			<polygon class="st4" points="62.67,140.81 62.67,127.04 54.12,133.93 			"/>
			<g>
				
					<linearGradient id="SVGID_00000171706703384675748760000004173529620659651981_" gradientUnits="userSpaceOnUse" x1="72.5121" y1="236.0081" x2="72.5121" y2="218.2891">
					<stop  offset="0" style="stop-color:#FFFFFF"/>
					<stop  offset="0.0139" style="stop-color:#F6F6F6"/>
					<stop  offset="0.0715" style="stop-color:#D4D4D4"/>
					<stop  offset="0.1307" style="stop-color:#BABABA"/>
					<stop  offset="0.1912" style="stop-color:#A8A8A8"/>
					<stop  offset="0.254" style="stop-color:#9D9D9D"/>
					<stop  offset="0.3227" style="stop-color:#999999"/>
					<stop  offset="0.3969" style="stop-color:#9F9F9F"/>
					<stop  offset="0.4959" style="stop-color:#B0B0B0"/>
					<stop  offset="0.6086" style="stop-color:#CCCCCC"/>
					<stop  offset="0.661" style="stop-color:#DBDBDB"/>
					<stop  offset="0.7215" style="stop-color:#E4E4E4"/>
					<stop  offset="0.8873" style="stop-color:#F8F8F8"/>
					<stop  offset="1" style="stop-color:#FFFFFF"/>
				</linearGradient>
				<path style="fill:url(#SVGID_00000171706703384675748760000004173529620659651981_);" d="M76.31,213.44v24.17h-3.45V216.9h-4.15
					v-3.45H76.31z"/>
				
					<linearGradient id="SVGID_00000039831644341972499340000003648164631267548582_" gradientUnits="userSpaceOnUse" x1="92.7113" y1="236.0081" x2="92.7113" y2="218.2891">
					<stop  offset="0" style="stop-color:#FFFFFF"/>
					<stop  offset="0.0139" style="stop-color:#F6F6F6"/>
					<stop  offset="0.0715" style="stop-color:#D4D4D4"/>
					<stop  offset="0.1307" style="stop-color:#BABABA"/>
					<stop  offset="0.1912" style="stop-color:#A8A8A8"/>
					<stop  offset="0.254" style="stop-color:#9D9D9D"/>
					<stop  offset="0.3227" style="stop-color:#999999"/>
					<stop  offset="0.3969" style="stop-color:#9F9F9F"/>
					<stop  offset="0.4959" style="stop-color:#B0B0B0"/>
					<stop  offset="0.6086" style="stop-color:#CCCCCC"/>
					<stop  offset="0.661" style="stop-color:#DBDBDB"/>
					<stop  offset="0.7215" style="stop-color:#E4E4E4"/>
					<stop  offset="0.8873" style="stop-color:#F8F8F8"/>
					<stop  offset="1" style="stop-color:#FFFFFF"/>
				</linearGradient>
				<path style="fill:url(#SVGID_00000039831644341972499340000003648164631267548582_);" d="M87.02,216.9v3.12h-3.46v-3.12
					c0-0.47,0.09-0.92,0.27-1.34c0.18-0.42,0.42-0.79,0.74-1.1c0.31-0.31,0.68-0.56,1.1-0.74c0.42-0.18,0.87-0.28,1.34-0.28h10.94
					c0.47,0,0.92,0.09,1.34,0.28c0.42,0.19,0.79,0.43,1.1,0.74c0.31,0.31,0.56,0.67,0.74,1.1c0.19,0.42,0.28,0.87,0.28,1.34v4.42
					c0,0.47-0.04,0.89-0.13,1.26c-0.09,0.37-0.23,0.7-0.43,1c-0.2,0.3-0.45,0.56-0.75,0.8c-0.3,0.24-0.67,0.46-1.11,0.67
					l-11.97,5.61v3.49H98.4v-3.1h3.46v6.56H83.57v-6.35c0-0.47,0.05-0.89,0.14-1.26c0.1-0.37,0.24-0.7,0.43-0.99
					c0.19-0.29,0.44-0.56,0.75-0.8c0.31-0.24,0.67-0.46,1.09-0.66l11.98-5.63v-5.01H87.02z"/>
				
					<linearGradient id="SVGID_00000165935773173841982410000012576675962441707708_" gradientUnits="userSpaceOnUse" x1="116.8389" y1="236.0081" x2="116.8389" y2="218.2891">
					<stop  offset="0" style="stop-color:#FFFFFF"/>
					<stop  offset="0.0139" style="stop-color:#F6F6F6"/>
					<stop  offset="0.0715" style="stop-color:#D4D4D4"/>
					<stop  offset="0.1307" style="stop-color:#BABABA"/>
					<stop  offset="0.1912" style="stop-color:#A8A8A8"/>
					<stop  offset="0.254" style="stop-color:#9D9D9D"/>
					<stop  offset="0.3227" style="stop-color:#999999"/>
					<stop  offset="0.3969" style="stop-color:#9F9F9F"/>
					<stop  offset="0.4959" style="stop-color:#B0B0B0"/>
					<stop  offset="0.6086" style="stop-color:#CCCCCC"/>
					<stop  offset="0.661" style="stop-color:#DBDBDB"/>
					<stop  offset="0.7215" style="stop-color:#E4E4E4"/>
					<stop  offset="0.8873" style="stop-color:#F8F8F8"/>
					<stop  offset="1" style="stop-color:#FFFFFF"/>
				</linearGradient>
				<path style="fill:url(#SVGID_00000165935773173841982410000012576675962441707708_);" d="M107.37,230.3h3.39v1.28
					c0,0.91,0.21,1.58,0.61,2.01c0.4,0.43,1.07,0.64,1.99,0.64h6.96c0.92,0,1.58-0.21,1.99-0.64c0.41-0.43,0.61-1.09,0.61-2.01
					v-1.87c0-0.92-0.2-1.59-0.61-2.01c-0.4-0.42-1.07-0.62-1.99-0.62h-7.15v-3.37h7.05c0.84-0.04,1.45-0.26,1.81-0.68
					c0.37-0.42,0.55-1.07,0.55-1.95v-1.58c0-0.92-0.21-1.6-0.61-2.02c-0.41-0.43-1.07-0.64-1.98-0.64h-6.29
					c-0.91,0-1.57,0.21-1.97,0.64c-0.41,0.43-0.61,1.1-0.61,2.02v1.28h-3.39v-1.45c0-3.92,1.96-5.88,5.87-5.88h6.49
					c1.99,0,3.46,0.48,4.43,1.45c0.96,0.97,1.44,2.44,1.44,4.43v0.44c0,1.36-0.24,2.48-0.72,3.36c-0.48,0.88-1.17,1.54-2.08,1.96
					c1.02,0.3,1.8,0.91,2.34,1.82c0.54,0.91,0.81,2.12,0.81,3.62v1.21c0,3.91-1.96,5.86-5.87,5.86h-7.18
					c-3.92,0-5.88-1.96-5.88-5.86V230.3z"/>
				
					<linearGradient id="SVGID_00000052817049288631612130000008252866505410001282_" gradientUnits="userSpaceOnUse" x1="139.7193" y1="236.0081" x2="139.7193" y2="218.2891">
					<stop  offset="0" style="stop-color:#FFFFFF"/>
					<stop  offset="0.0139" style="stop-color:#F6F6F6"/>
					<stop  offset="0.0715" style="stop-color:#D4D4D4"/>
					<stop  offset="0.1307" style="stop-color:#BABABA"/>
					<stop  offset="0.1912" style="stop-color:#A8A8A8"/>
					<stop  offset="0.254" style="stop-color:#9D9D9D"/>
					<stop  offset="0.3227" style="stop-color:#999999"/>
					<stop  offset="0.3969" style="stop-color:#9F9F9F"/>
					<stop  offset="0.4959" style="stop-color:#B0B0B0"/>
					<stop  offset="0.6086" style="stop-color:#CCCCCC"/>
					<stop  offset="0.661" style="stop-color:#DBDBDB"/>
					<stop  offset="0.7215" style="stop-color:#E4E4E4"/>
					<stop  offset="0.8873" style="stop-color:#F8F8F8"/>
					<stop  offset="1" style="stop-color:#FFFFFF"/>
				</linearGradient>
				<path style="fill:url(#SVGID_00000052817049288631612130000008252866505410001282_);" d="M130.1,229.29l11.92-15.84h4.06v15.84
					h3.25v3.32h-3.25v5.01h-3.46v-5.01H130.1V229.29z M142.63,229.29v-11.66l-8.76,11.66H142.63z"/>
				
					<linearGradient id="SVGID_00000097460909356201452930000007961966903186423180_" gradientUnits="userSpaceOnUse" x1="185.0062" y1="236.0081" x2="185.0062" y2="218.2891">
					<stop  offset="0" style="stop-color:#FFFFFF"/>
					<stop  offset="0.0139" style="stop-color:#F6F6F6"/>
					<stop  offset="0.0715" style="stop-color:#D4D4D4"/>
					<stop  offset="0.1307" style="stop-color:#BABABA"/>
					<stop  offset="0.1912" style="stop-color:#A8A8A8"/>
					<stop  offset="0.254" style="stop-color:#9D9D9D"/>
					<stop  offset="0.3227" style="stop-color:#999999"/>
					<stop  offset="0.3969" style="stop-color:#9F9F9F"/>
					<stop  offset="0.4959" style="stop-color:#B0B0B0"/>
					<stop  offset="0.6086" style="stop-color:#CCCCCC"/>
					<stop  offset="0.661" style="stop-color:#DBDBDB"/>
					<stop  offset="0.7215" style="stop-color:#E4E4E4"/>
					<stop  offset="0.8873" style="stop-color:#F8F8F8"/>
					<stop  offset="1" style="stop-color:#FFFFFF"/>
				</linearGradient>
				<path style="fill:url(#SVGID_00000097460909356201452930000007961966903186423180_);" d="M194.12,231.75
					c-0.03,1.97-0.53,3.43-1.48,4.41c-0.95,0.97-2.42,1.46-4.38,1.46h-6.49c-3.92,0-5.88-1.96-5.88-5.86v-1.45h3.39v1.28
					c0,0.91,0.2,1.58,0.61,2.01c0.41,0.43,1.07,0.64,1.99,0.64h6.27c0.92,0,1.58-0.21,1.99-0.64c0.4-0.43,0.61-1.09,0.61-2.01v-3.25
					c0-0.91-0.2-1.58-0.61-2c-0.41-0.42-1.07-0.63-1.99-0.63h-11.56v-12.25h16.92v3.45h-13.47v5.43h8.23c1.98,0,3.45,0.48,4.41,1.44
					c0.97,0.96,1.45,2.44,1.45,4.43V231.75z"/>
				
					<linearGradient id="SVGID_00000081619479563696000550000002564022864764283069_" gradientUnits="userSpaceOnUse" x1="209.311" y1="236.0081" x2="209.311" y2="218.2891">
					<stop  offset="0" style="stop-color:#FFFFFF"/>
					<stop  offset="0.0139" style="stop-color:#F6F6F6"/>
					<stop  offset="0.0715" style="stop-color:#D4D4D4"/>
					<stop  offset="0.1307" style="stop-color:#BABABA"/>
					<stop  offset="0.1912" style="stop-color:#A8A8A8"/>
					<stop  offset="0.254" style="stop-color:#9D9D9D"/>
					<stop  offset="0.3227" style="stop-color:#999999"/>
					<stop  offset="0.3969" style="stop-color:#9F9F9F"/>
					<stop  offset="0.4959" style="stop-color:#B0B0B0"/>
					<stop  offset="0.6086" style="stop-color:#CCCCCC"/>
					<stop  offset="0.661" style="stop-color:#DBDBDB"/>
					<stop  offset="0.7215" style="stop-color:#E4E4E4"/>
					<stop  offset="0.8873" style="stop-color:#F8F8F8"/>
					<stop  offset="1" style="stop-color:#FFFFFF"/>
				</linearGradient>
				<path style="fill:url(#SVGID_00000081619479563696000550000002564022864764283069_);" d="M200.34,216.9
					c0-0.47,0.09-0.92,0.27-1.34c0.18-0.42,0.43-0.79,0.74-1.1c0.31-0.31,0.68-0.56,1.1-0.74c0.42-0.18,0.87-0.28,1.34-0.28h11.04
					c0.47,0,0.92,0.09,1.34,0.28c0.42,0.19,0.79,0.43,1.1,0.74c0.31,0.31,0.56,0.67,0.74,1.1c0.18,0.42,0.27,0.87,0.27,1.34v3.12
					h-3.46v-3.12h-11.04v6.91h11.04c0.47,0,0.92,0.09,1.34,0.27c0.42,0.18,0.79,0.43,1.1,0.74c0.31,0.31,0.56,0.68,0.74,1.11
					c0.18,0.42,0.27,0.87,0.27,1.34v6.89c0,0.47-0.09,0.92-0.27,1.34c-0.18,0.42-0.43,0.79-0.74,1.1c-0.31,0.31-0.68,0.56-1.1,0.74
					c-0.42,0.18-0.87,0.27-1.34,0.27h-11.04c-0.47,0-0.92-0.09-1.34-0.27c-0.42-0.18-0.79-0.43-1.1-0.74
					c-0.31-0.31-0.56-0.68-0.74-1.1c-0.18-0.42-0.27-0.87-0.27-1.34V216.9z M203.79,227.26v6.89h11.04v-6.89H203.79z"/>
				
					<linearGradient id="SVGID_00000096032148886952516400000012747951468165701274_" gradientUnits="userSpaceOnUse" x1="233.1436" y1="236.0081" x2="233.1436" y2="218.2891">
					<stop  offset="0" style="stop-color:#FFFFFF"/>
					<stop  offset="0.0139" style="stop-color:#F6F6F6"/>
					<stop  offset="0.0715" style="stop-color:#D4D4D4"/>
					<stop  offset="0.1307" style="stop-color:#BABABA"/>
					<stop  offset="0.1912" style="stop-color:#A8A8A8"/>
					<stop  offset="0.254" style="stop-color:#9D9D9D"/>
					<stop  offset="0.3227" style="stop-color:#999999"/>
					<stop  offset="0.3969" style="stop-color:#9F9F9F"/>
					<stop  offset="0.4959" style="stop-color:#B0B0B0"/>
					<stop  offset="0.6086" style="stop-color:#CCCCCC"/>
					<stop  offset="0.661" style="stop-color:#DBDBDB"/>
					<stop  offset="0.7215" style="stop-color:#E4E4E4"/>
					<stop  offset="0.8873" style="stop-color:#F8F8F8"/>
					<stop  offset="1" style="stop-color:#FFFFFF"/>
				</linearGradient>
				<path style="fill:url(#SVGID_00000096032148886952516400000012747951468165701274_);" d="M226.49,237.61l10.84-20.72h-13.5
					v-3.45h18.64v1.05l-11.98,23.13H226.49z"/>
				
					<linearGradient id="SVGID_00000085928961977785276120000016656687828403866003_" gradientUnits="userSpaceOnUse" x1="255.7104" y1="236.0081" x2="255.7104" y2="218.2891">
					<stop  offset="0" style="stop-color:#FFFFFF"/>
					<stop  offset="0.0139" style="stop-color:#F6F6F6"/>
					<stop  offset="0.0715" style="stop-color:#D4D4D4"/>
					<stop  offset="0.1307" style="stop-color:#BABABA"/>
					<stop  offset="0.1912" style="stop-color:#A8A8A8"/>
					<stop  offset="0.254" style="stop-color:#9D9D9D"/>
					<stop  offset="0.3227" style="stop-color:#999999"/>
					<stop  offset="0.3969" style="stop-color:#9F9F9F"/>
					<stop  offset="0.4959" style="stop-color:#B0B0B0"/>
					<stop  offset="0.6086" style="stop-color:#CCCCCC"/>
					<stop  offset="0.661" style="stop-color:#DBDBDB"/>
					<stop  offset="0.7215" style="stop-color:#E4E4E4"/>
					<stop  offset="0.8873" style="stop-color:#F8F8F8"/>
					<stop  offset="1" style="stop-color:#FFFFFF"/>
				</linearGradient>
				<path style="fill:url(#SVGID_00000085928961977785276120000016656687828403866003_);" d="M252.13,237.61
					c-3.92,0-5.88-1.96-5.88-5.86v-1.21c0-1.51,0.27-2.71,0.81-3.62c0.54-0.91,1.32-1.52,2.34-1.82c-0.91-0.43-1.6-1.08-2.08-1.96
					c-0.48-0.88-0.72-2-0.72-3.36v-0.44c0-3.92,1.96-5.88,5.87-5.88h6.49c3.91,0,5.87,1.96,5.87,5.88v0.44
					c0,1.36-0.24,2.48-0.72,3.36c-0.48,0.88-1.17,1.54-2.08,1.96c1.02,0.3,1.8,0.91,2.34,1.82c0.54,0.91,0.81,2.12,0.81,3.62v1.21
					c0,3.91-1.96,5.86-5.87,5.86H252.13z M259.19,234.23c0.92,0,1.58-0.21,1.99-0.64c0.41-0.43,0.61-1.09,0.61-2.01v-1.87
					c0-0.92-0.2-1.59-0.61-2.01c-0.4-0.42-1.07-0.62-1.99-0.62h-6.96c-0.92,0-1.59,0.21-1.99,0.62c-0.4,0.42-0.61,1.09-0.61,2.01
					v1.87c0,0.91,0.21,1.58,0.61,2.01c0.4,0.43,1.07,0.64,1.99,0.64H259.19z M259.09,223.71c0.84-0.04,1.44-0.26,1.8-0.68
					c0.36-0.42,0.54-1.07,0.54-1.95v-1.58c0-0.92-0.2-1.6-0.61-2.02c-0.4-0.43-1.06-0.64-1.97-0.64h-6.29
					c-0.91,0-1.57,0.21-1.97,0.64c-0.41,0.43-0.61,1.1-0.61,2.02v1.58c0,0.88,0.18,1.53,0.55,1.95c0.37,0.42,0.97,0.65,1.8,0.68
					H259.09z"/>
				
					<linearGradient id="SVGID_00000065766622060543536400000014780964762697384343_" gradientUnits="userSpaceOnUse" x1="303.4675" y1="236.0081" x2="303.4675" y2="218.2891">
					<stop  offset="0" style="stop-color:#FFFFFF"/>
					<stop  offset="0.0139" style="stop-color:#F6F6F6"/>
					<stop  offset="0.0715" style="stop-color:#D4D4D4"/>
					<stop  offset="0.1307" style="stop-color:#BABABA"/>
					<stop  offset="0.1912" style="stop-color:#A8A8A8"/>
					<stop  offset="0.254" style="stop-color:#9D9D9D"/>
					<stop  offset="0.3227" style="stop-color:#999999"/>
					<stop  offset="0.3969" style="stop-color:#9F9F9F"/>
					<stop  offset="0.4959" style="stop-color:#B0B0B0"/>
					<stop  offset="0.6086" style="stop-color:#CCCCCC"/>
					<stop  offset="0.661" style="stop-color:#DBDBDB"/>
					<stop  offset="0.7215" style="stop-color:#E4E4E4"/>
					<stop  offset="0.8873" style="stop-color:#F8F8F8"/>
					<stop  offset="1" style="stop-color:#FFFFFF"/>
				</linearGradient>
				<path style="fill:url(#SVGID_00000065766622060543536400000014780964762697384343_);" d="M312.44,234.16
					c0,0.47-0.09,0.92-0.27,1.34c-0.18,0.42-0.43,0.79-0.74,1.1c-0.31,0.31-0.68,0.56-1.1,0.74c-0.42,0.18-0.87,0.27-1.34,0.27
					h-11.04c-0.47,0-0.92-0.09-1.34-0.27c-0.42-0.18-0.79-0.43-1.1-0.74c-0.31-0.31-0.56-0.68-0.74-1.1
					c-0.18-0.42-0.27-0.87-0.27-1.34v-3.1h3.46v3.1h11.04v-6.89h-11.04c-0.47,0-0.92-0.09-1.34-0.28c-0.42-0.19-0.79-0.43-1.1-0.74
					c-0.31-0.31-0.56-0.67-0.74-1.1c-0.18-0.42-0.27-0.87-0.27-1.34v-6.91c0-0.47,0.09-0.92,0.27-1.34c0.18-0.42,0.43-0.79,0.74-1.1
					c0.31-0.31,0.68-0.56,1.1-0.74c0.42-0.18,0.87-0.28,1.34-0.28h11.04c0.47,0,0.92,0.09,1.34,0.28c0.42,0.19,0.79,0.43,1.1,0.74
					c0.31,0.31,0.56,0.67,0.74,1.1c0.18,0.42,0.27,0.87,0.27,1.34V234.16z M308.99,223.81v-6.91h-11.04v6.91H308.99z"/>
				
					<linearGradient id="SVGID_00000138569072538456913950000004778326149367856575_" gradientUnits="userSpaceOnUse" x1="329.1953" y1="236.0081" x2="329.1953" y2="218.2891">
					<stop  offset="0" style="stop-color:#FFFFFF"/>
					<stop  offset="0.0139" style="stop-color:#F6F6F6"/>
					<stop  offset="0.0715" style="stop-color:#D4D4D4"/>
					<stop  offset="0.1307" style="stop-color:#BABABA"/>
					<stop  offset="0.1912" style="stop-color:#A8A8A8"/>
					<stop  offset="0.254" style="stop-color:#9D9D9D"/>
					<stop  offset="0.3227" style="stop-color:#999999"/>
					<stop  offset="0.3969" style="stop-color:#9F9F9F"/>
					<stop  offset="0.4959" style="stop-color:#B0B0B0"/>
					<stop  offset="0.6086" style="stop-color:#CCCCCC"/>
					<stop  offset="0.661" style="stop-color:#DBDBDB"/>
					<stop  offset="0.7215" style="stop-color:#E4E4E4"/>
					<stop  offset="0.8873" style="stop-color:#F8F8F8"/>
					<stop  offset="1" style="stop-color:#FFFFFF"/>
				</linearGradient>
				<path style="fill:url(#SVGID_00000138569072538456913950000004778326149367856575_);" d="M338.69,234.16
					c0,0.47-0.09,0.92-0.27,1.34c-0.18,0.42-0.43,0.79-0.74,1.1c-0.31,0.31-0.68,0.56-1.1,0.74c-0.42,0.18-0.87,0.27-1.34,0.27
					h-12.08c-0.47,0-0.92-0.09-1.34-0.27c-0.42-0.18-0.79-0.43-1.1-0.74c-0.31-0.31-0.56-0.68-0.74-1.1
					c-0.18-0.42-0.27-0.87-0.27-1.34V216.9c0-0.47,0.09-0.92,0.27-1.34c0.18-0.42,0.43-0.79,0.74-1.1c0.31-0.31,0.68-0.56,1.1-0.74
					c0.42-0.18,0.87-0.28,1.34-0.28h12.08c0.47,0,0.92,0.09,1.34,0.28c0.42,0.19,0.79,0.43,1.1,0.74c0.31,0.31,0.56,0.67,0.74,1.1
					c0.18,0.42,0.27,0.87,0.27,1.34V234.16z M323.15,216.9v17.26h12.08V216.9H323.15z"/>
				
					<linearGradient id="SVGID_00000107547768919103345690000014926903352871952530_" gradientUnits="userSpaceOnUse" x1="347.6613" y1="236.0081" x2="347.6613" y2="218.2891">
					<stop  offset="0" style="stop-color:#FFFFFF"/>
					<stop  offset="0.0139" style="stop-color:#F6F6F6"/>
					<stop  offset="0.0715" style="stop-color:#D4D4D4"/>
					<stop  offset="0.1307" style="stop-color:#BABABA"/>
					<stop  offset="0.1912" style="stop-color:#A8A8A8"/>
					<stop  offset="0.254" style="stop-color:#9D9D9D"/>
					<stop  offset="0.3227" style="stop-color:#999999"/>
					<stop  offset="0.3969" style="stop-color:#9F9F9F"/>
					<stop  offset="0.4959" style="stop-color:#B0B0B0"/>
					<stop  offset="0.6086" style="stop-color:#CCCCCC"/>
					<stop  offset="0.661" style="stop-color:#DBDBDB"/>
					<stop  offset="0.7215" style="stop-color:#E4E4E4"/>
					<stop  offset="0.8873" style="stop-color:#F8F8F8"/>
					<stop  offset="1" style="stop-color:#FFFFFF"/>
				</linearGradient>
				<path style="fill:url(#SVGID_00000107547768919103345690000014926903352871952530_);" d="M351.46,213.44v24.17h-3.46V216.9
					h-4.15v-3.45H351.46z"/>
				
					<linearGradient id="SVGID_00000108268904741090782080000012153418651678055088_" gradientUnits="userSpaceOnUse" x1="367.8607" y1="236.0081" x2="367.8607" y2="218.2891">
					<stop  offset="0" style="stop-color:#FFFFFF"/>
					<stop  offset="0.0139" style="stop-color:#F6F6F6"/>
					<stop  offset="0.0715" style="stop-color:#D4D4D4"/>
					<stop  offset="0.1307" style="stop-color:#BABABA"/>
					<stop  offset="0.1912" style="stop-color:#A8A8A8"/>
					<stop  offset="0.254" style="stop-color:#9D9D9D"/>
					<stop  offset="0.3227" style="stop-color:#999999"/>
					<stop  offset="0.3969" style="stop-color:#9F9F9F"/>
					<stop  offset="0.4959" style="stop-color:#B0B0B0"/>
					<stop  offset="0.6086" style="stop-color:#CCCCCC"/>
					<stop  offset="0.661" style="stop-color:#DBDBDB"/>
					<stop  offset="0.7215" style="stop-color:#E4E4E4"/>
					<stop  offset="0.8873" style="stop-color:#F8F8F8"/>
					<stop  offset="1" style="stop-color:#FFFFFF"/>
				</linearGradient>
				<path style="fill:url(#SVGID_00000108268904741090782080000012153418651678055088_);" d="M362.17,216.9v3.12h-3.45v-3.12
					c0-0.47,0.09-0.92,0.27-1.34c0.18-0.42,0.43-0.79,0.74-1.1c0.31-0.31,0.68-0.56,1.1-0.74c0.42-0.18,0.87-0.28,1.34-0.28h10.94
					c0.47,0,0.92,0.09,1.34,0.28c0.42,0.19,0.79,0.43,1.09,0.74c0.31,0.31,0.56,0.67,0.74,1.1c0.19,0.42,0.28,0.87,0.28,1.34v4.42
					c0,0.47-0.05,0.89-0.13,1.26c-0.09,0.37-0.24,0.7-0.43,1c-0.2,0.3-0.45,0.56-0.75,0.8c-0.3,0.24-0.68,0.46-1.11,0.67
					l-11.97,5.61v3.49h11.38v-3.1H377v6.56h-18.29v-6.35c0-0.47,0.05-0.89,0.14-1.26c0.09-0.37,0.24-0.7,0.43-0.99
					c0.19-0.29,0.44-0.56,0.75-0.8c0.31-0.24,0.67-0.46,1.09-0.66l11.99-5.63v-5.01H362.17z"/>
				
					<linearGradient id="SVGID_00000040561004566566359470000002053499350569576344_" gradientUnits="userSpaceOnUse" x1="414.7569" y1="236.0081" x2="414.7569" y2="218.2891">
					<stop  offset="0" style="stop-color:#FFFFFF"/>
					<stop  offset="0.0139" style="stop-color:#F6F6F6"/>
					<stop  offset="0.0715" style="stop-color:#D4D4D4"/>
					<stop  offset="0.1307" style="stop-color:#BABABA"/>
					<stop  offset="0.1912" style="stop-color:#A8A8A8"/>
					<stop  offset="0.254" style="stop-color:#9D9D9D"/>
					<stop  offset="0.3227" style="stop-color:#999999"/>
					<stop  offset="0.3969" style="stop-color:#9F9F9F"/>
					<stop  offset="0.4959" style="stop-color:#B0B0B0"/>
					<stop  offset="0.6086" style="stop-color:#CCCCCC"/>
					<stop  offset="0.661" style="stop-color:#DBDBDB"/>
					<stop  offset="0.7215" style="stop-color:#E4E4E4"/>
					<stop  offset="0.8873" style="stop-color:#F8F8F8"/>
					<stop  offset="1" style="stop-color:#FFFFFF"/>
				</linearGradient>
				<path style="fill:url(#SVGID_00000040561004566566359470000002053499350569576344_);" d="M405.29,230.3h3.39v1.28
					c0,0.91,0.2,1.58,0.61,2.01c0.41,0.43,1.07,0.64,1.99,0.64h6.96c0.92,0,1.58-0.21,1.99-0.64c0.4-0.43,0.61-1.09,0.61-2.01v-1.87
					c0-0.92-0.2-1.59-0.61-2.01c-0.41-0.42-1.07-0.62-1.99-0.62h-7.15v-3.37h7.05c0.84-0.04,1.45-0.26,1.81-0.68
					c0.36-0.42,0.55-1.07,0.55-1.95v-1.58c0-0.92-0.21-1.6-0.61-2.02c-0.41-0.43-1.07-0.64-1.98-0.64h-6.29
					c-0.91,0-1.57,0.21-1.97,0.64c-0.4,0.43-0.61,1.1-0.61,2.02v1.28h-3.39v-1.45c0-3.92,1.96-5.88,5.87-5.88H418
					c1.99,0,3.46,0.48,4.42,1.45c0.96,0.97,1.44,2.44,1.44,4.43v0.44c0,1.36-0.24,2.48-0.72,3.36c-0.48,0.88-1.17,1.54-2.08,1.96
					c1.02,0.3,1.8,0.91,2.34,1.82c0.54,0.91,0.81,2.12,0.81,3.62v1.21c0,3.91-1.95,5.86-5.86,5.86h-7.18
					c-3.92,0-5.88-1.96-5.88-5.86V230.3z"/>
				
					<linearGradient id="SVGID_00000017486611041872919700000008666619010560348859_" gradientUnits="userSpaceOnUse" x1="437.6357" y1="236.0081" x2="437.6357" y2="218.2891">
					<stop  offset="0" style="stop-color:#FFFFFF"/>
					<stop  offset="0.0139" style="stop-color:#F6F6F6"/>
					<stop  offset="0.0715" style="stop-color:#D4D4D4"/>
					<stop  offset="0.1307" style="stop-color:#BABABA"/>
					<stop  offset="0.1912" style="stop-color:#A8A8A8"/>
					<stop  offset="0.254" style="stop-color:#9D9D9D"/>
					<stop  offset="0.3227" style="stop-color:#999999"/>
					<stop  offset="0.3969" style="stop-color:#9F9F9F"/>
					<stop  offset="0.4959" style="stop-color:#B0B0B0"/>
					<stop  offset="0.6086" style="stop-color:#CCCCCC"/>
					<stop  offset="0.661" style="stop-color:#DBDBDB"/>
					<stop  offset="0.7215" style="stop-color:#E4E4E4"/>
					<stop  offset="0.8873" style="stop-color:#F8F8F8"/>
					<stop  offset="1" style="stop-color:#FFFFFF"/>
				</linearGradient>
				<path style="fill:url(#SVGID_00000017486611041872919700000008666619010560348859_);" d="M428.02,229.29l11.92-15.84H444v15.84
					h3.25v3.32H444v5.01h-3.45v-5.01h-12.52V229.29z M440.54,229.29v-11.66l-8.76,11.66H440.54z"/>
				
					<linearGradient id="SVGID_00000084500794551915114790000006631577358621769649_" gradientUnits="userSpaceOnUse" x1="460.1553" y1="236.0081" x2="460.1553" y2="218.2891">
					<stop  offset="0" style="stop-color:#FFFFFF"/>
					<stop  offset="0.0139" style="stop-color:#F6F6F6"/>
					<stop  offset="0.0715" style="stop-color:#D4D4D4"/>
					<stop  offset="0.1307" style="stop-color:#BABABA"/>
					<stop  offset="0.1912" style="stop-color:#A8A8A8"/>
					<stop  offset="0.254" style="stop-color:#9D9D9D"/>
					<stop  offset="0.3227" style="stop-color:#999999"/>
					<stop  offset="0.3969" style="stop-color:#9F9F9F"/>
					<stop  offset="0.4959" style="stop-color:#B0B0B0"/>
					<stop  offset="0.6086" style="stop-color:#CCCCCC"/>
					<stop  offset="0.661" style="stop-color:#DBDBDB"/>
					<stop  offset="0.7215" style="stop-color:#E4E4E4"/>
					<stop  offset="0.8873" style="stop-color:#F8F8F8"/>
					<stop  offset="1" style="stop-color:#FFFFFF"/>
				</linearGradient>
				<path style="fill:url(#SVGID_00000084500794551915114790000006631577358621769649_);" d="M469.27,231.75
					c-0.03,1.97-0.53,3.43-1.48,4.41c-0.96,0.97-2.42,1.46-4.38,1.46h-6.49c-3.92,0-5.88-1.96-5.88-5.86v-1.45h3.39v1.28
					c0,0.91,0.2,1.58,0.61,2.01c0.4,0.43,1.07,0.64,1.99,0.64h6.27c0.92,0,1.58-0.21,1.99-0.64c0.4-0.43,0.61-1.09,0.61-2.01v-3.25
					c0-0.91-0.2-1.58-0.61-2c-0.4-0.42-1.07-0.63-1.99-0.63h-11.56v-12.25h16.92v3.45h-13.47v5.43h8.23c1.98,0,3.45,0.48,4.42,1.44
					c0.97,0.96,1.45,2.44,1.45,4.43V231.75z"/>
				
					<linearGradient id="SVGID_00000039094648537633335730000008226722934028114337_" gradientUnits="userSpaceOnUse" x1="484.4589" y1="236.0081" x2="484.4589" y2="218.2891">
					<stop  offset="0" style="stop-color:#FFFFFF"/>
					<stop  offset="0.0139" style="stop-color:#F6F6F6"/>
					<stop  offset="0.0715" style="stop-color:#D4D4D4"/>
					<stop  offset="0.1307" style="stop-color:#BABABA"/>
					<stop  offset="0.1912" style="stop-color:#A8A8A8"/>
					<stop  offset="0.254" style="stop-color:#9D9D9D"/>
					<stop  offset="0.3227" style="stop-color:#999999"/>
					<stop  offset="0.3969" style="stop-color:#9F9F9F"/>
					<stop  offset="0.4959" style="stop-color:#B0B0B0"/>
					<stop  offset="0.6086" style="stop-color:#CCCCCC"/>
					<stop  offset="0.661" style="stop-color:#DBDBDB"/>
					<stop  offset="0.7215" style="stop-color:#E4E4E4"/>
					<stop  offset="0.8873" style="stop-color:#F8F8F8"/>
					<stop  offset="1" style="stop-color:#FFFFFF"/>
				</linearGradient>
				<path style="fill:url(#SVGID_00000039094648537633335730000008226722934028114337_);" d="M475.48,216.9
					c0-0.47,0.09-0.92,0.27-1.34c0.18-0.42,0.43-0.79,0.74-1.1c0.31-0.31,0.68-0.56,1.1-0.74c0.42-0.18,0.87-0.28,1.34-0.28h11.04
					c0.47,0,0.92,0.09,1.34,0.28c0.42,0.19,0.79,0.43,1.1,0.74c0.31,0.31,0.56,0.67,0.74,1.1c0.18,0.42,0.27,0.87,0.27,1.34v3.12
					h-3.45v-3.12h-11.04v6.91h11.04c0.47,0,0.92,0.09,1.34,0.27c0.42,0.18,0.79,0.43,1.1,0.74c0.31,0.31,0.56,0.68,0.74,1.11
					c0.18,0.42,0.27,0.87,0.27,1.34v6.89c0,0.47-0.09,0.92-0.27,1.34c-0.18,0.42-0.43,0.79-0.74,1.1c-0.31,0.31-0.68,0.56-1.1,0.74
					c-0.42,0.18-0.87,0.27-1.34,0.27h-11.04c-0.47,0-0.92-0.09-1.34-0.27c-0.42-0.18-0.79-0.43-1.1-0.74
					c-0.31-0.31-0.56-0.68-0.74-1.1c-0.18-0.42-0.27-0.87-0.27-1.34V216.9z M478.94,227.26v6.89h11.04v-6.89H478.94z"/>
			</g>
		</g>
	</g>
	<g>
		<path class="st4" d="M393.51,80.71V60.82h8.72c2.12,0,4,0.41,5.64,1.24c1.64,0.82,2.91,1.98,3.82,3.48
			c0.91,1.5,1.36,3.24,1.36,5.23c0,1.99-0.45,3.73-1.36,5.23c-0.91,1.5-2.18,2.66-3.82,3.48c-1.64,0.82-3.52,1.24-5.64,1.24H393.51z
			 M397.2,77.59h4.8c1.5,0,2.79-0.28,3.88-0.85c1.09-0.57,1.94-1.36,2.56-2.39c0.62-1.02,0.92-2.22,0.92-3.58
			c0-1.4-0.31-2.6-0.92-3.61c-0.62-1-1.47-1.79-2.56-2.36c-1.09-0.57-2.38-0.85-3.88-0.85h-4.8V77.59z"/>
		<path class="st4" d="M420.67,77.59h11.22v3.13h-14.92V60.82h14.52v3.13h-10.82V77.59z M420.39,69.09h9.89v3.04h-9.89V69.09z"/>
		<path class="st4" d="M436.04,80.71V60.82h9.35c2.37,0,4.18,0.47,5.43,1.41s1.88,2.19,1.88,3.76c0,1.06-0.25,1.97-0.74,2.71
			c-0.49,0.75-1.15,1.33-1.97,1.73c-0.82,0.41-1.72,0.61-2.68,0.61l0.51-1.02c1.12,0,2.12,0.2,3.01,0.61c0.89,0.41,1.59,1,2.1,1.78
			c0.51,0.78,0.77,1.74,0.77,2.9c0,1.7-0.65,3.03-1.95,3.98c-1.3,0.95-3.22,1.42-5.78,1.42H436.04z M439.73,77.81h5.99
			c1.36,0,2.41-0.23,3.15-0.68c0.74-0.45,1.11-1.18,1.11-2.19c0-0.98-0.37-1.71-1.11-2.17c-0.74-0.46-1.79-0.7-3.15-0.7h-6.28v-2.87
			h5.51c1.27,0,2.25-0.23,2.95-0.68c0.7-0.45,1.05-1.14,1.05-2.05c0-0.93-0.35-1.62-1.05-2.07c-0.7-0.45-1.69-0.68-2.95-0.68h-5.23
			V77.81z"/>
		<path class="st4" d="M457.66,80.71V60.82h3.69v19.89H457.66z"/>
		<path class="st4" d="M470.73,80.71V63.95h-6.59v-3.13h16.88v3.13h-6.59v16.76H470.73z"/>
	</g>
</g>
</svg>
