<?xml version="1.0" encoding="utf-8"?>
<!-- Generator: Adobe Illustrator 26.0.1, SVG Export Plug-In . SVG Version: 6.00 Build 0)  -->
<svg version="1.1" id="Layer_1" xmlns="http://www.w3.org/2000/svg" xmlns:xlink="http://www.w3.org/1999/xlink" x="0px" y="0px"
	 viewBox="0 0 571.19 366.81" style="enable-background:new 0 0 571.19 366.81;" xml:space="preserve">
<style type="text/css">
	.st0{fill:url(#SVGID_1_);}
	.st1{opacity:0.6;fill:url(#SVGID_00000127745201130189047530000015503603702811097785_);}
	.st2{opacity:0.4;}
	.st3{fill:#004B9C;}
	.st4{fill:#FFFFFF;}
	.st5{fill:url(#SVGID_00000024001298173711327460000017579473099933999766_);}
	.st6{fill:#070A10;}
	.st7{fill:url(#SVGID_00000018224252792912506720000008906261046504612775_);}
	.st8{fill:url(#SVGID_00000139974285685124802560000017903434877328317352_);}
	.st9{fill:url(#SVGID_00000122698145201044366740000012021726711706882690_);}
	.st10{fill:url(#SVGID_00000116929726768066662250000009130469768157922997_);}
	.st11{fill:url(#SVGID_00000147904642170038855410000005053980891729013423_);}
	.st12{fill:url(#SVGID_00000089566462583152831290000002730667571979959980_);}
	.st13{fill:url(#SVGID_00000045608979272205944610000011789001566775581063_);}
	.st14{fill:url(#SVGID_00000098915676390641415940000014032096201916736168_);}
	.st15{fill:url(#SVGID_00000019651371706519091930000012608924317281092997_);}
	.st16{fill:url(#SVGID_00000041998040471903905650000001554867925012788921_);}
	.st17{fill:url(#SVGID_00000171717422760557719660000002538845794145460380_);}
	.st18{fill:url(#SVGID_00000138547893418041552340000002689850401254011008_);}
	.st19{fill:url(#SVGID_00000162325584776028511920000000152703049113165980_);}
	.st20{fill:url(#SVGID_00000108286250505108319170000006631976383846146740_);}
	.st21{fill:url(#SVGID_00000159459112393285030560000011702840346742038459_);}
	.st22{fill:url(#SVGID_00000166650871175965401020000008182497543588920986_);}
</style>
<g>
	<g>
		<g>
			<linearGradient id="SVGID_1_" gradientUnits="userSpaceOnUse" x1="14.7223" y1="184.0638" x2="557.7883" y2="184.0638">
				<stop  offset="0" style="stop-color:#BE1349"/>
				<stop  offset="0.2191" style="stop-color:#C14846"/>
				<stop  offset="0.3934" style="stop-color:#C36C44"/>
				<stop  offset="0.4862" style="stop-color:#C47A43"/>
				<stop  offset="0.5792" style="stop-color:#C27642"/>
				<stop  offset="0.6723" style="stop-color:#BA6A3F"/>
				<stop  offset="0.7657" style="stop-color:#AE563A"/>
				<stop  offset="0.8591" style="stop-color:#9C3A33"/>
				<stop  offset="0.9518" style="stop-color:#86162A"/>
				<stop  offset="1" style="stop-color:#790025"/>
			</linearGradient>
			<path class="st0" d="M527.56,347.48H44.95c-16.7,0-30.23-13.53-30.23-30.23V50.88c0-16.7,13.53-30.23,30.23-30.23h482.61
				c16.7,0,30.23,13.53,30.23,30.23v266.37C557.79,333.95,544.25,347.48,527.56,347.48z"/>
			
				<linearGradient id="SVGID_00000112628540835778972630000005365050112889172391_" gradientUnits="userSpaceOnUse" x1="196.0882" y1="-92.3316" x2="166.8708" y2="329.2299">
				<stop  offset="0" style="stop-color:#FFFFFF"/>
				<stop  offset="0.0709" style="stop-color:#D4D4D4"/>
				<stop  offset="0.1641" style="stop-color:#A3A3A3"/>
				<stop  offset="0.2621" style="stop-color:#777777"/>
				<stop  offset="0.3634" style="stop-color:#525252"/>
				<stop  offset="0.4686" style="stop-color:#343434"/>
				<stop  offset="0.5793" style="stop-color:#1D1D1D"/>
				<stop  offset="0.6976" style="stop-color:#0D0D0D"/>
				<stop  offset="0.8291" style="stop-color:#030303"/>
				<stop  offset="1" style="stop-color:#000000"/>
			</linearGradient>
			<path style="opacity:0.6;fill:url(#SVGID_00000112628540835778972630000005365050112889172391_);" d="M359.77,20.65H44.95
				c-16.7,0-30.23,13.53-30.23,30.23v266.37c0,16.7,13.53,30.23,30.23,30.23h127.7L359.77,20.65z"/>
			<g class="st2">
				<path class="st3" d="M79.03,216.16v24.17h-3.45v-20.72h-4.15v-3.45H79.03z"/>
				<path class="st3" d="M89.74,219.61v3.12h-3.46v-3.12c0-0.47,0.09-0.92,0.27-1.34c0.18-0.42,0.43-0.79,0.74-1.1
					c0.31-0.31,0.68-0.56,1.1-0.74c0.42-0.18,0.87-0.28,1.34-0.28h10.94c0.47,0,0.92,0.09,1.34,0.28c0.42,0.19,0.79,0.43,1.1,0.74
					c0.31,0.31,0.56,0.67,0.74,1.1c0.19,0.42,0.28,0.87,0.28,1.34v4.42c0,0.47-0.04,0.89-0.13,1.26c-0.09,0.37-0.23,0.7-0.43,1
					c-0.2,0.3-0.45,0.56-0.75,0.8c-0.3,0.24-0.67,0.46-1.11,0.67l-11.97,5.61v3.49h11.38v-3.1h3.46v6.56H86.28v-6.35
					c0-0.47,0.05-0.89,0.14-1.26c0.1-0.37,0.24-0.7,0.43-1c0.19-0.29,0.44-0.56,0.75-0.8c0.31-0.24,0.67-0.46,1.09-0.66l11.98-5.63
					v-5.01H89.74z"/>
				<path class="st3" d="M110.09,233.02h3.39v1.28c0,0.91,0.21,1.58,0.61,2.01c0.4,0.43,1.07,0.64,1.99,0.64h6.96
					c0.92,0,1.58-0.21,1.99-0.64c0.41-0.43,0.61-1.09,0.61-2.01v-1.87c0-0.92-0.2-1.59-0.61-2.01c-0.4-0.42-1.07-0.62-1.99-0.62
					h-7.15v-3.37h7.05c0.84-0.04,1.45-0.26,1.81-0.68c0.37-0.42,0.55-1.07,0.55-1.95v-1.58c0-0.92-0.21-1.6-0.61-2.02
					c-0.41-0.43-1.07-0.64-1.98-0.64h-6.29c-0.91,0-1.57,0.21-1.97,0.64c-0.41,0.43-0.61,1.1-0.61,2.02v1.28h-3.39v-1.45
					c0-3.92,1.96-5.88,5.87-5.88h6.49c1.99,0,3.46,0.48,4.43,1.45c0.96,0.97,1.44,2.44,1.44,4.43v0.44c0,1.36-0.24,2.48-0.72,3.36
					c-0.48,0.88-1.17,1.54-2.08,1.96c1.02,0.3,1.8,0.91,2.34,1.82c0.54,0.91,0.81,2.12,0.81,3.62v1.21c0,3.91-1.96,5.86-5.87,5.86
					h-7.18c-3.92,0-5.88-1.95-5.88-5.86V233.02z"/>
				<path class="st3" d="M132.82,232.01l11.92-15.84h4.06v15.84h3.25v3.32h-3.25v5.01h-3.46v-5.01h-12.52V232.01z M145.34,232.01
					v-11.66l-8.76,11.66H145.34z"/>
				<path class="st3" d="M196.84,234.47c-0.03,1.97-0.53,3.43-1.48,4.41c-0.95,0.97-2.42,1.46-4.38,1.46h-6.49
					c-3.92,0-5.88-1.95-5.88-5.86v-1.45h3.39v1.28c0,0.91,0.2,1.58,0.61,2.01c0.41,0.43,1.07,0.64,1.99,0.64h6.27
					c0.92,0,1.58-0.21,1.99-0.64c0.4-0.43,0.61-1.09,0.61-2.01v-3.25c0-0.91-0.2-1.58-0.61-2c-0.41-0.42-1.07-0.63-1.99-0.63H179.3
					v-12.25h16.92v3.45h-13.47v5.43h8.23c1.98,0,3.45,0.48,4.41,1.44c0.97,0.96,1.45,2.44,1.45,4.42V234.47z"/>
				<path class="st3" d="M203.05,219.61c0-0.47,0.09-0.92,0.27-1.34c0.18-0.42,0.43-0.79,0.74-1.1c0.31-0.31,0.68-0.56,1.1-0.74
					c0.42-0.18,0.87-0.28,1.34-0.28h11.04c0.47,0,0.92,0.09,1.34,0.28c0.42,0.19,0.79,0.43,1.1,0.74c0.31,0.31,0.56,0.67,0.74,1.1
					c0.18,0.42,0.27,0.87,0.27,1.34v3.12h-3.46v-3.12h-11.04v6.91h11.04c0.47,0,0.92,0.09,1.34,0.27c0.42,0.18,0.79,0.43,1.1,0.74
					c0.31,0.31,0.56,0.68,0.74,1.11c0.18,0.42,0.27,0.87,0.27,1.34v6.89c0,0.47-0.09,0.92-0.27,1.34c-0.18,0.42-0.43,0.79-0.74,1.1
					c-0.31,0.31-0.68,0.56-1.1,0.74c-0.42,0.18-0.87,0.27-1.34,0.27h-11.04c-0.47,0-0.92-0.09-1.34-0.27
					c-0.42-0.18-0.79-0.43-1.1-0.74c-0.31-0.31-0.56-0.68-0.74-1.1c-0.18-0.42-0.27-0.87-0.27-1.34V219.61z M206.51,229.98v6.89
					h11.04v-6.89H206.51z"/>
				<path class="st3" d="M229.2,240.33l10.84-20.72h-13.5v-3.45h18.64v1.05l-11.98,23.12H229.2z"/>
				<path class="st3" d="M254.85,240.33c-3.92,0-5.88-1.95-5.88-5.86v-1.21c0-1.51,0.27-2.71,0.81-3.62
					c0.54-0.91,1.32-1.52,2.34-1.82c-0.91-0.43-1.6-1.08-2.08-1.96c-0.48-0.88-0.72-2-0.72-3.36v-0.44c0-3.92,1.96-5.88,5.87-5.88
					h6.49c3.91,0,5.87,1.96,5.87,5.88v0.44c0,1.36-0.24,2.48-0.72,3.36c-0.48,0.88-1.17,1.54-2.08,1.96c1.02,0.3,1.8,0.91,2.34,1.82
					c0.54,0.91,0.81,2.12,0.81,3.62v1.21c0,3.91-1.96,5.86-5.87,5.86H254.85z M261.91,236.94c0.92,0,1.58-0.21,1.99-0.64
					c0.41-0.43,0.61-1.09,0.61-2.01v-1.87c0-0.92-0.2-1.59-0.61-2.01c-0.4-0.42-1.07-0.62-1.99-0.62h-6.96
					c-0.92,0-1.59,0.21-1.99,0.62c-0.4,0.42-0.61,1.09-0.61,2.01v1.87c0,0.91,0.2,1.58,0.61,2.01c0.4,0.43,1.07,0.64,1.99,0.64
					H261.91z M261.81,226.43c0.84-0.04,1.44-0.26,1.8-0.68c0.36-0.42,0.54-1.07,0.54-1.95v-1.58c0-0.92-0.2-1.6-0.61-2.02
					c-0.4-0.43-1.06-0.64-1.97-0.64h-6.29c-0.91,0-1.57,0.21-1.97,0.64c-0.41,0.43-0.61,1.1-0.61,2.02v1.58
					c0,0.88,0.18,1.53,0.55,1.95c0.37,0.42,0.97,0.65,1.8,0.68H261.81z"/>
				<path class="st3" d="M315.16,236.87c0,0.47-0.09,0.92-0.27,1.34c-0.18,0.42-0.43,0.79-0.74,1.1c-0.31,0.31-0.68,0.56-1.1,0.74
					c-0.42,0.18-0.87,0.27-1.34,0.27h-11.04c-0.47,0-0.92-0.09-1.34-0.27c-0.42-0.18-0.79-0.43-1.1-0.74
					c-0.31-0.31-0.56-0.68-0.74-1.1c-0.18-0.42-0.27-0.87-0.27-1.34v-3.1h3.46v3.1h11.04v-6.89h-11.04c-0.47,0-0.92-0.09-1.34-0.28
					c-0.42-0.19-0.79-0.43-1.1-0.74c-0.31-0.31-0.56-0.67-0.74-1.1c-0.18-0.42-0.27-0.87-0.27-1.34v-6.91
					c0-0.47,0.09-0.92,0.27-1.34c0.18-0.42,0.43-0.79,0.74-1.1c0.31-0.31,0.68-0.56,1.1-0.74c0.42-0.18,0.87-0.28,1.34-0.28h11.04
					c0.47,0,0.92,0.09,1.34,0.28c0.42,0.19,0.79,0.43,1.1,0.74c0.31,0.31,0.56,0.67,0.74,1.1c0.18,0.42,0.27,0.87,0.27,1.34V236.87z
					 M311.71,226.53v-6.91h-11.04v6.91H311.71z"/>
				<path class="st3" d="M341.41,236.87c0,0.47-0.09,0.92-0.27,1.34c-0.18,0.42-0.43,0.79-0.74,1.1c-0.31,0.31-0.68,0.56-1.1,0.74
					c-0.42,0.18-0.87,0.27-1.34,0.27h-12.08c-0.47,0-0.92-0.09-1.34-0.27c-0.42-0.18-0.79-0.43-1.1-0.74
					c-0.31-0.31-0.56-0.68-0.74-1.1c-0.18-0.42-0.27-0.87-0.27-1.34v-17.26c0-0.47,0.09-0.92,0.27-1.34
					c0.18-0.42,0.43-0.79,0.74-1.1c0.31-0.31,0.68-0.56,1.1-0.74c0.42-0.18,0.87-0.28,1.34-0.28h12.08c0.47,0,0.92,0.09,1.34,0.28
					c0.42,0.19,0.79,0.43,1.1,0.74c0.31,0.31,0.56,0.67,0.74,1.1c0.18,0.42,0.27,0.87,0.27,1.34V236.87z M325.87,219.61v17.26h12.08
					v-17.26H325.87z"/>
				<path class="st3" d="M354.18,216.16v24.17h-3.46v-20.72h-4.15v-3.45H354.18z"/>
				<path class="st3" d="M364.89,219.61v3.12h-3.45v-3.12c0-0.47,0.09-0.92,0.27-1.34c0.18-0.42,0.43-0.79,0.74-1.1
					c0.31-0.31,0.68-0.56,1.1-0.74c0.42-0.18,0.87-0.28,1.34-0.28h10.94c0.47,0,0.92,0.09,1.34,0.28c0.42,0.19,0.79,0.43,1.09,0.74
					c0.31,0.31,0.56,0.67,0.74,1.1c0.19,0.42,0.28,0.87,0.28,1.34v4.42c0,0.47-0.05,0.89-0.13,1.26c-0.09,0.37-0.24,0.7-0.43,1
					c-0.2,0.3-0.45,0.56-0.75,0.8c-0.3,0.24-0.68,0.46-1.11,0.67l-11.97,5.61v3.49h11.38v-3.1h3.45v6.56h-18.29v-6.35
					c0-0.47,0.05-0.89,0.14-1.26c0.09-0.37,0.24-0.7,0.43-1c0.19-0.29,0.44-0.56,0.75-0.8c0.31-0.24,0.67-0.46,1.09-0.66l11.99-5.63
					v-5.01H364.89z"/>
				<path class="st3" d="M408.01,233.02h3.39v1.28c0,0.91,0.2,1.58,0.61,2.01c0.41,0.43,1.07,0.64,1.99,0.64h6.96
					c0.92,0,1.58-0.21,1.99-0.64c0.4-0.43,0.61-1.09,0.61-2.01v-1.87c0-0.92-0.2-1.59-0.61-2.01c-0.41-0.42-1.07-0.62-1.99-0.62
					h-7.15v-3.37h7.05c0.84-0.04,1.45-0.26,1.81-0.68c0.36-0.42,0.55-1.07,0.55-1.95v-1.58c0-0.92-0.2-1.6-0.61-2.02
					c-0.41-0.43-1.07-0.64-1.98-0.64h-6.29c-0.91,0-1.57,0.21-1.97,0.64c-0.4,0.43-0.61,1.1-0.61,2.02v1.28h-3.39v-1.45
					c0-3.92,1.96-5.88,5.87-5.88h6.49c1.99,0,3.46,0.48,4.42,1.45c0.96,0.97,1.44,2.44,1.44,4.43v0.44c0,1.36-0.24,2.48-0.72,3.36
					c-0.48,0.88-1.17,1.54-2.08,1.96c1.02,0.3,1.8,0.91,2.34,1.82c0.54,0.91,0.81,2.12,0.81,3.62v1.21c0,3.91-1.95,5.86-5.86,5.86
					h-7.18c-3.92,0-5.88-1.95-5.88-5.86V233.02z"/>
				<path class="st3" d="M430.74,232.01l11.92-15.84h4.06v15.84h3.25v3.32h-3.25v5.01h-3.45v-5.01h-12.52V232.01z M443.26,232.01
					v-11.66l-8.76,11.66H443.26z"/>
				<path class="st3" d="M471.99,234.47c-0.03,1.97-0.53,3.43-1.48,4.41c-0.96,0.97-2.42,1.46-4.38,1.46h-6.49
					c-3.92,0-5.88-1.95-5.88-5.86v-1.45h3.39v1.28c0,0.91,0.2,1.58,0.61,2.01c0.4,0.43,1.07,0.64,1.99,0.64h6.27
					c0.92,0,1.58-0.21,1.99-0.64c0.4-0.43,0.61-1.09,0.61-2.01v-3.25c0-0.91-0.2-1.58-0.61-2c-0.4-0.42-1.07-0.63-1.99-0.63h-11.56
					v-12.25h16.92v3.45H457.9v5.43h8.23c1.98,0,3.45,0.48,4.42,1.44c0.97,0.96,1.45,2.44,1.45,4.42V234.47z"/>
				<path class="st3" d="M478.2,219.61c0-0.47,0.09-0.92,0.27-1.34c0.18-0.42,0.43-0.79,0.74-1.1c0.31-0.31,0.68-0.56,1.1-0.74
					c0.42-0.18,0.87-0.28,1.34-0.28h11.04c0.47,0,0.92,0.09,1.34,0.28c0.42,0.19,0.79,0.43,1.1,0.74c0.31,0.31,0.56,0.67,0.74,1.1
					c0.18,0.42,0.27,0.87,0.27,1.34v3.12h-3.45v-3.12h-11.04v6.91h11.04c0.47,0,0.92,0.09,1.34,0.27c0.42,0.18,0.79,0.43,1.1,0.74
					c0.31,0.31,0.56,0.68,0.74,1.11c0.18,0.42,0.27,0.87,0.27,1.34v6.89c0,0.47-0.09,0.92-0.27,1.34c-0.18,0.42-0.43,0.79-0.74,1.1
					c-0.31,0.31-0.68,0.56-1.1,0.74c-0.42,0.18-0.87,0.27-1.34,0.27h-11.04c-0.47,0-0.92-0.09-1.34-0.27
					c-0.42-0.18-0.79-0.43-1.1-0.74c-0.31-0.31-0.56-0.68-0.74-1.1c-0.18-0.42-0.27-0.87-0.27-1.34V219.61z M481.66,229.98v6.89
					h11.04v-6.89H481.66z"/>
			</g>
			<g>
				<path class="st4" d="M72.39,253.7v11.34h-1.62v-9.71h-1.94v-1.62H72.39z"/>
				<path class="st4" d="M77.41,255.32v1.46h-1.62v-1.46c0-0.22,0.04-0.43,0.13-0.63c0.08-0.2,0.2-0.37,0.35-0.51
					c0.15-0.14,0.32-0.26,0.52-0.35c0.2-0.09,0.41-0.13,0.63-0.13h5.13c0.22,0,0.43,0.04,0.63,0.13c0.2,0.09,0.37,0.2,0.51,0.35
					c0.14,0.15,0.26,0.32,0.35,0.51c0.09,0.2,0.13,0.41,0.13,0.63v2.07c0,0.22-0.02,0.42-0.06,0.59c-0.04,0.17-0.11,0.33-0.2,0.47
					c-0.09,0.14-0.21,0.27-0.35,0.38c-0.14,0.11-0.32,0.21-0.52,0.32l-5.61,2.63v1.64h5.33v-1.45h1.62v3.08h-8.58v-2.98
					c0-0.22,0.02-0.42,0.07-0.59c0.04-0.17,0.11-0.33,0.2-0.47c0.09-0.14,0.21-0.26,0.35-0.38c0.14-0.11,0.31-0.22,0.51-0.31
					l5.62-2.64v-2.35H77.41z"/>
				<path class="st4" d="M86.96,261.6h1.59v0.6c0,0.43,0.1,0.74,0.29,0.94c0.19,0.2,0.5,0.3,0.93,0.3h3.26c0.43,0,0.74-0.1,0.93-0.3
					c0.19-0.2,0.28-0.51,0.28-0.94v-0.88c0-0.43-0.09-0.75-0.28-0.94c-0.19-0.19-0.5-0.29-0.93-0.29h-3.35v-1.58h3.3
					c0.4-0.02,0.68-0.12,0.85-0.32c0.17-0.2,0.26-0.5,0.26-0.91v-0.74c0-0.43-0.1-0.75-0.29-0.95c-0.19-0.2-0.5-0.3-0.93-0.3h-2.95
					c-0.43,0-0.74,0.1-0.93,0.3c-0.19,0.2-0.28,0.52-0.28,0.95v0.6h-1.59v-0.68c0-1.84,0.92-2.76,2.75-2.76h3.04
					c0.93,0,1.62,0.23,2.07,0.68c0.45,0.45,0.68,1.15,0.68,2.08v0.2c0,0.64-0.11,1.16-0.34,1.58c-0.22,0.41-0.55,0.72-0.98,0.92
					c0.48,0.14,0.85,0.43,1.1,0.85c0.25,0.43,0.38,0.99,0.38,1.7v0.57c0,1.83-0.92,2.75-2.75,2.75h-3.37
					c-1.84,0-2.76-0.92-2.76-2.75V261.6z"/>
				<path class="st4" d="M97.62,261.13l5.59-7.43h1.9v7.43h1.53v1.56h-1.53v2.35h-1.62v-2.35h-5.87V261.13z M103.49,261.13v-5.47
					l-4.11,5.47H103.49z"/>
			</g>
			<g>
				<g>
					<path class="st4" d="M424.67,271.53c0,0.22-0.04,0.43-0.13,0.63c-0.08,0.2-0.2,0.37-0.35,0.52c-0.15,0.15-0.32,0.26-0.52,0.35
						c-0.2,0.08-0.41,0.13-0.63,0.13h-5.67c-0.22,0-0.43-0.04-0.63-0.13c-0.2-0.08-0.37-0.2-0.52-0.35
						c-0.15-0.15-0.26-0.32-0.35-0.52c-0.08-0.2-0.13-0.41-0.13-0.63v-8.09c0-0.22,0.04-0.43,0.13-0.63c0.08-0.2,0.2-0.37,0.35-0.51
						c0.15-0.14,0.32-0.26,0.52-0.35c0.2-0.09,0.41-0.13,0.63-0.13h5.67c0.22,0,0.43,0.04,0.63,0.13c0.2,0.09,0.37,0.2,0.52,0.35
						c0.15,0.15,0.26,0.32,0.35,0.51c0.08,0.2,0.13,0.41,0.13,0.63V271.53z M417.39,263.43v8.09h5.67v-8.09H417.39z"/>
					<path class="st4" d="M428.07,263.43c0-0.22,0.04-0.43,0.13-0.63c0.08-0.2,0.2-0.37,0.35-0.51c0.15-0.14,0.32-0.26,0.52-0.35
						c0.2-0.09,0.41-0.13,0.63-0.13h5.18c0.22,0,0.43,0.04,0.63,0.13c0.2,0.09,0.37,0.2,0.52,0.35c0.15,0.15,0.26,0.32,0.35,0.51
						c0.08,0.2,0.13,0.41,0.13,0.63v1.46h-1.62v-1.46h-5.18v3.24h5.18c0.22,0,0.43,0.04,0.63,0.13c0.2,0.08,0.37,0.2,0.52,0.35
						c0.15,0.15,0.26,0.32,0.35,0.52c0.08,0.2,0.13,0.41,0.13,0.63v3.23c0,0.22-0.04,0.43-0.13,0.63c-0.08,0.2-0.2,0.37-0.35,0.52
						c-0.15,0.15-0.32,0.26-0.52,0.35c-0.2,0.08-0.41,0.13-0.63,0.13h-5.18c-0.22,0-0.43-0.04-0.63-0.13
						c-0.2-0.08-0.37-0.2-0.52-0.35c-0.15-0.15-0.26-0.32-0.35-0.52c-0.08-0.2-0.13-0.41-0.13-0.63V263.43z M429.69,268.3v3.23h5.18
						v-3.23H429.69z"/>
					<path class="st4" d="M439.08,273.96l4.29-12.95h1.57l-4.37,12.95H439.08z"/>
					<path class="st4" d="M446.88,269.72h1.59v0.6c0,0.43,0.1,0.74,0.29,0.94c0.19,0.2,0.5,0.3,0.93,0.3h3.26
						c0.43,0,0.74-0.1,0.93-0.3c0.19-0.2,0.28-0.51,0.28-0.94v-0.88c0-0.43-0.09-0.75-0.28-0.94c-0.19-0.19-0.5-0.29-0.93-0.29
						h-3.35v-1.58h3.3c0.4-0.02,0.68-0.12,0.85-0.32c0.17-0.2,0.26-0.5,0.26-0.91v-0.74c0-0.43-0.1-0.75-0.29-0.95
						c-0.19-0.2-0.5-0.3-0.93-0.3h-2.95c-0.43,0-0.74,0.1-0.93,0.3c-0.19,0.2-0.28,0.52-0.28,0.95v0.6h-1.59v-0.68
						c0-1.84,0.92-2.76,2.75-2.76h3.04c0.93,0,1.62,0.23,2.07,0.68c0.45,0.45,0.68,1.15,0.68,2.08v0.2c0,0.64-0.11,1.16-0.34,1.58
						c-0.22,0.41-0.55,0.72-0.98,0.92c0.48,0.14,0.85,0.43,1.1,0.85c0.25,0.43,0.38,0.99,0.38,1.7v0.57c0,1.83-0.92,2.75-2.75,2.75
						h-3.37c-1.84,0-2.76-0.92-2.76-2.75V269.72z"/>
					<path class="st4" d="M467.58,271.53c0,0.22-0.04,0.43-0.13,0.63c-0.08,0.2-0.2,0.37-0.35,0.52s-0.32,0.26-0.52,0.35
						c-0.2,0.08-0.41,0.13-0.63,0.13h-5.67c-0.22,0-0.43-0.04-0.63-0.13c-0.2-0.08-0.37-0.2-0.52-0.35
						c-0.15-0.15-0.26-0.32-0.35-0.52c-0.08-0.2-0.13-0.41-0.13-0.63v-8.09c0-0.22,0.04-0.43,0.13-0.63c0.08-0.2,0.2-0.37,0.35-0.51
						c0.15-0.14,0.32-0.26,0.52-0.35c0.2-0.09,0.41-0.13,0.63-0.13h5.67c0.22,0,0.43,0.04,0.63,0.13c0.2,0.09,0.37,0.2,0.52,0.35
						c0.15,0.15,0.26,0.32,0.35,0.51c0.08,0.2,0.13,0.41,0.13,0.63V271.53z M460.29,263.43v8.09h5.67v-8.09H460.29z"/>
				</g>
				<g>
					<path class="st4" d="M369.72,264.9l-2.86-7.41h1.14l2.31,6.1l2.31-6.1h1.13l-2.86,7.41H369.72z"/>
					<path class="st4" d="M377.87,257.49l2.86,7.41h-1.06l-0.66-1.71h-3.34l-0.66,1.71h-1.06l2.86-7.41H377.87z M376.07,262.14h2.53
						l-1.26-3.27L376.07,262.14z"/>
					<path class="st4" d="M383.37,257.49v6.35h3.81v1.06h-4.87v-7.41H383.37z"/>
					<path class="st4" d="M389.83,257.49v7.41h-1.06v-7.41H389.83z"/>
					<path class="st4" d="M392.05,264.9v-7.41h3.77c0.4,0,0.75,0.06,1.07,0.18c0.32,0.12,0.59,0.3,0.82,0.52
						c0.23,0.23,0.4,0.5,0.52,0.82c0.12,0.32,0.18,0.68,0.18,1.07v2.22c0,0.39-0.06,0.75-0.18,1.07c-0.12,0.32-0.3,0.59-0.52,0.82
						c-0.23,0.22-0.5,0.4-0.82,0.52c-0.32,0.12-0.68,0.18-1.07,0.18H392.05z M395.81,263.85c0.49,0,0.87-0.13,1.14-0.4
						c0.27-0.27,0.4-0.64,0.4-1.14v-2.22c0-0.24-0.03-0.46-0.1-0.65c-0.07-0.19-0.17-0.35-0.3-0.48c-0.13-0.13-0.29-0.23-0.48-0.3
						c-0.19-0.07-0.4-0.1-0.65-0.1h-2.71v5.29H395.81z"/>
					<path class="st4" d="M367.82,270.19h5.93v1.06h-2.43v6.35h-1.06v-6.35h-2.43V270.19z"/>
					<path class="st4" d="M381.69,270.19v7.41h-1.06v-3.17h-4.24v3.17h-1.06v-7.41h1.06v3.18h4.24v-3.18H381.69z"/>
					<path class="st4" d="M389.77,272.84c0,1.03-0.44,1.62-1.32,1.77l1.39,3h-1.17l-1.37-2.96h-2.32v2.96h-1.06v-7.41h4.06
						c1.2,0,1.8,0.6,1.8,1.8V272.84z M384.97,273.58h2.94c0.28,0,0.48-0.06,0.61-0.19c0.12-0.12,0.19-0.33,0.19-0.61v-0.74
						c0-0.28-0.06-0.48-0.19-0.61c-0.12-0.13-0.33-0.19-0.61-0.19h-2.94V273.58z"/>
					<path class="st4" d="M391.85,270.19h1.06v6.35h4.23v-6.35h1.06v6.35c0,0.14-0.03,0.28-0.08,0.41
						c-0.05,0.13-0.13,0.24-0.23,0.34c-0.1,0.1-0.21,0.17-0.34,0.23c-0.13,0.05-0.27,0.08-0.41,0.08h-4.23
						c-0.14,0-0.28-0.03-0.41-0.08c-0.13-0.05-0.24-0.13-0.34-0.23c-0.1-0.1-0.17-0.21-0.23-0.34c-0.06-0.13-0.08-0.27-0.08-0.41
						V270.19z"/>
				</g>
				<polygon class="st4" points="403.41,262.59 403.41,271.92 409.21,267.26 				"/>
			</g>
			<g>
				<path class="st4" d="M73.03,301.29c0-0.26,0.05-0.51,0.15-0.75c0.1-0.24,0.24-0.44,0.41-0.61c0.18-0.17,0.38-0.31,0.62-0.42
					c0.24-0.1,0.48-0.16,0.75-0.16h7.33c0.26,0,0.51,0.05,0.75,0.16c0.24,0.1,0.44,0.24,0.62,0.42c0.18,0.17,0.31,0.38,0.41,0.61
					c0.1,0.24,0.15,0.48,0.15,0.75v1.74h-1.93v-1.74h-7.33v9.64h7.33v-1.73h1.93v1.73c0,0.27-0.05,0.51-0.15,0.75
					c-0.1,0.24-0.24,0.44-0.41,0.62c-0.18,0.18-0.38,0.31-0.62,0.41c-0.24,0.1-0.48,0.15-0.75,0.15h-7.33
					c-0.26,0-0.51-0.05-0.75-0.15c-0.24-0.1-0.44-0.24-0.62-0.41c-0.18-0.18-0.32-0.38-0.41-0.62c-0.1-0.24-0.15-0.48-0.15-0.75
					V301.29z"/>
				<path class="st4" d="M93.87,299.36l5.21,13.51h-1.93l-1.2-3.11h-6.09l-1.2,3.11h-1.93l5.21-13.51H93.87z M90.6,307.83h4.62
					l-2.3-5.95L90.6,307.83z"/>
				<path class="st4" d="M112.65,304.19c0,1.88-0.8,2.96-2.41,3.22l2.54,5.46h-2.14l-2.51-5.4h-4.23v5.4h-1.93v-13.51h7.39
					c2.19,0,3.28,1.1,3.28,3.29V304.19z M103.91,305.54h5.36c0.51,0,0.89-0.11,1.11-0.34c0.23-0.23,0.34-0.6,0.34-1.11v-1.35
					c0-0.51-0.11-0.88-0.34-1.11c-0.23-0.23-0.6-0.34-1.11-0.34h-5.36V305.54z"/>
				<path class="st4" d="M116.45,312.87v-13.51h6.87c0.72,0,1.37,0.11,1.96,0.33c0.58,0.22,1.08,0.54,1.49,0.95
					c0.41,0.41,0.73,0.91,0.95,1.49c0.22,0.58,0.34,1.23,0.34,1.95v4.05c0,0.72-0.11,1.37-0.34,1.95c-0.22,0.58-0.54,1.08-0.95,1.49
					c-0.41,0.41-0.91,0.73-1.49,0.95c-0.58,0.22-1.23,0.33-1.96,0.33H116.45z M123.32,310.94c0.9,0,1.59-0.24,2.07-0.73
					c0.48-0.48,0.72-1.17,0.72-2.07v-4.05c0-0.44-0.06-0.83-0.19-1.18c-0.13-0.35-0.31-0.64-0.55-0.88
					c-0.24-0.24-0.54-0.43-0.88-0.55c-0.35-0.13-0.74-0.19-1.18-0.19h-4.94v9.64H123.32z"/>
				<path class="st4" d="M143.31,299.36v13.51h-1.93v-5.78h-7.73v5.78h-1.93v-13.51h1.93v5.79h7.73v-5.79H143.31z"/>
				<path class="st4" d="M158.93,310.94c0,0.27-0.05,0.51-0.15,0.75c-0.1,0.24-0.24,0.44-0.42,0.62c-0.18,0.18-0.38,0.31-0.62,0.41
					c-0.24,0.1-0.48,0.15-0.75,0.15h-7.71c-0.26,0-0.51-0.05-0.75-0.15c-0.24-0.1-0.44-0.24-0.62-0.41
					c-0.18-0.18-0.32-0.38-0.41-0.62c-0.1-0.24-0.15-0.48-0.15-0.75v-9.64c0-0.26,0.05-0.51,0.15-0.75c0.1-0.24,0.24-0.44,0.41-0.61
					c0.18-0.17,0.38-0.31,0.62-0.42c0.24-0.1,0.48-0.16,0.75-0.16H157c0.26,0,0.51,0.05,0.75,0.16c0.24,0.1,0.44,0.24,0.62,0.42
					c0.18,0.17,0.31,0.38,0.42,0.61c0.1,0.24,0.15,0.48,0.15,0.75V310.94z M149.28,301.29v9.64H157v-9.64H149.28z"/>
				<path class="st4" d="M164.9,299.36v11.58h6.94v1.93h-8.87v-13.51H164.9z"/>
				<path class="st4" d="M174.74,312.87v-13.51h6.87c0.72,0,1.37,0.11,1.96,0.33c0.58,0.22,1.08,0.54,1.49,0.95
					c0.41,0.41,0.73,0.91,0.95,1.49c0.22,0.58,0.34,1.23,0.34,1.95v4.05c0,0.72-0.11,1.37-0.34,1.95c-0.22,0.58-0.54,1.08-0.95,1.49
					c-0.41,0.41-0.91,0.73-1.49,0.95c-0.58,0.22-1.23,0.33-1.96,0.33H174.74z M181.61,310.94c0.9,0,1.59-0.24,2.07-0.73
					c0.48-0.48,0.72-1.17,0.72-2.07v-4.05c0-0.44-0.06-0.83-0.19-1.18c-0.13-0.35-0.31-0.64-0.55-0.88
					c-0.24-0.24-0.54-0.43-0.88-0.55c-0.35-0.13-0.74-0.19-1.18-0.19h-4.93v9.64H181.61z"/>
				<path class="st4" d="M190,299.36h9.84v1.93h-7.91v3.86h6.75v1.93h-6.75v3.85h7.91v1.93H190V299.36z"/>
				<path class="st4" d="M213.99,304.19c0,1.88-0.8,2.96-2.41,3.22l2.54,5.46h-2.14l-2.51-5.4h-4.23v5.4h-1.93v-13.51h7.39
					c2.19,0,3.28,1.1,3.28,3.29V304.19z M205.25,305.54h5.36c0.51,0,0.89-0.11,1.11-0.34c0.23-0.23,0.34-0.6,0.34-1.11v-1.35
					c0-0.51-0.11-0.88-0.34-1.11c-0.23-0.23-0.6-0.34-1.11-0.34h-5.36V305.54z"/>
				<path class="st4" d="M226.08,312.87h-1.93v-13.51h1.93l8.12,10.47v-10.47h1.93v13.51h-1.93l-8.12-10.47V312.87z"/>
				<path class="st4" d="M246.16,299.36l5.21,13.51h-1.93l-1.2-3.11h-6.09l-1.2,3.11h-1.93l5.21-13.51H246.16z M242.88,307.83h4.61
					l-2.3-5.95L242.88,307.83z"/>
				<path class="st4" d="M261.23,312.87l-5.04-9.9v9.9h-1.93v-13.51h2.11l5.14,10.17l5.15-10.17h2.1v13.51h-1.92v-9.9l-5.04,9.9
					H261.23z"/>
				<path class="st4" d="M272.82,299.36h9.84v1.93h-7.91v3.86h6.75v1.93h-6.75v3.85h7.91v1.93h-9.84V299.36z"/>
			</g>
			<g>
				<path class="st4" d="M73.83,64.11c0-0.35,0.07-0.68,0.2-0.99c0.13-0.31,0.32-0.58,0.55-0.81c0.23-0.23,0.51-0.41,0.82-0.55
					c0.31-0.14,0.64-0.21,0.99-0.21h9.72c0.35,0,0.68,0.07,0.99,0.21c0.31,0.14,0.59,0.32,0.82,0.55c0.23,0.23,0.42,0.5,0.55,0.81
					c0.13,0.31,0.2,0.64,0.2,0.99v2.31h-2.56v-2.31h-9.72V76.9h9.72v-2.3h2.56v2.3c0,0.35-0.07,0.68-0.2,0.99
					c-0.13,0.31-0.32,0.59-0.55,0.82c-0.23,0.23-0.51,0.42-0.82,0.55c-0.31,0.13-0.64,0.2-0.99,0.2h-9.72
					c-0.35,0-0.68-0.07-0.99-0.2c-0.31-0.13-0.58-0.32-0.82-0.55c-0.23-0.23-0.42-0.51-0.55-0.82c-0.13-0.31-0.2-0.64-0.2-0.99
					V64.11z"/>
				<path class="st4" d="M101.46,61.55l6.91,17.91h-2.56l-1.59-4.12h-8.08l-1.59,4.12H92l6.91-17.91H101.46z M97.12,72.77h6.12
					l-3.05-7.89L97.12,72.77z"/>
				<path class="st4" d="M126.36,67.94c0,2.5-1.07,3.92-3.2,4.27l3.37,7.24h-2.84l-3.32-7.16h-5.61v7.16h-2.56V61.55h9.8
					c2.9,0,4.34,1.45,4.34,4.36V67.94z M114.77,69.74h7.11c0.68,0,1.17-0.15,1.47-0.45c0.3-0.3,0.45-0.79,0.45-1.47v-1.79
					c0-0.68-0.15-1.17-0.45-1.47c-0.3-0.3-0.79-0.45-1.47-0.45h-7.11V69.74z"/>
				<path class="st4" d="M131.4,79.46V61.55h9.1c0.96,0,1.82,0.15,2.59,0.44c0.77,0.3,1.43,0.72,1.97,1.26
					c0.54,0.54,0.97,1.21,1.26,1.98c0.3,0.78,0.44,1.64,0.44,2.59v5.37c0,0.95-0.15,1.81-0.44,2.59c-0.3,0.77-0.72,1.43-1.26,1.98
					c-0.55,0.54-1.2,0.97-1.97,1.26c-0.77,0.3-1.63,0.44-2.59,0.44H131.4z M140.5,76.9c1.19,0,2.11-0.32,2.75-0.96
					c0.64-0.64,0.96-1.56,0.96-2.75v-5.37c0-0.58-0.08-1.1-0.25-1.56c-0.17-0.46-0.41-0.85-0.73-1.17
					c-0.32-0.32-0.71-0.56-1.17-0.73c-0.46-0.17-0.98-0.25-1.56-0.25h-6.54V76.9H140.5z"/>
				<path class="st4" d="M158.54,61.55h14.32v2.56h-5.88v15.35h-2.56V64.11h-5.88V61.55z"/>
				<path class="st4" d="M177.89,61.55l5.21,8.37l5.22-8.37h2.97l-6.91,10.8v7.11h-2.56v-7.11l-6.91-10.8H177.89z"/>
				<path class="st4" d="M194.87,79.46V61.55h9.8c2.9,0,4.34,1.45,4.34,4.36v2.55c0,2.91-1.45,4.36-4.34,4.36h-7.24v6.64H194.87z
					 M197.43,70.25h7.11c0.68,0,1.17-0.15,1.47-0.45c0.3-0.3,0.45-0.79,0.45-1.47v-2.3c0-0.68-0.15-1.17-0.45-1.47
					c-0.3-0.3-0.79-0.45-1.47-0.45h-7.11V70.25z"/>
				<path class="st4" d="M213.36,61.55h13.05v2.56h-10.49v5.12h8.96v2.56h-8.96v5.11h10.49v2.56h-13.05V61.55z"/>
			</g>
			<g>
				<path class="st4" d="M489.09,68.37v4.18c4.94,0,8.95,4.02,8.95,8.95h4.18C502.22,74.26,496.33,68.37,489.09,68.37z"/>
				<path class="st4" d="M489.09,60.3v4.46c9.23,0,16.74,7.51,16.74,16.74h4.46C510.29,69.81,500.78,60.3,489.09,60.3z"/>
				<path class="st4" d="M491.5,76.68c-1.24,0-2.25,1.01-2.25,2.25c0,1.24,1.01,2.25,2.25,2.25c1.24,0,2.25-1.01,2.25-2.25
					C493.75,77.68,492.74,76.68,491.5,76.68z"/>
			</g>
			<g>
				
					<linearGradient id="SVGID_00000028307674679971140160000007786912787877850002_" gradientUnits="userSpaceOnUse" x1="114.3155" y1="163.3268" x2="114.3155" y2="107.7024">
					<stop  offset="0" style="stop-color:#FFF08A"/>
					<stop  offset="0.0477" style="stop-color:#E6CC64"/>
					<stop  offset="0.099" style="stop-color:#D1AC42"/>
					<stop  offset="0.1517" style="stop-color:#C09328"/>
					<stop  offset="0.2056" style="stop-color:#B48116"/>
					<stop  offset="0.2616" style="stop-color:#AC760B"/>
					<stop  offset="0.3227" style="stop-color:#AA7307"/>
					<stop  offset="0.3935" style="stop-color:#AE790D"/>
					<stop  offset="0.4881" style="stop-color:#BA891E"/>
					<stop  offset="0.5957" style="stop-color:#CEA33A"/>
					<stop  offset="0.661" style="stop-color:#DCB64E"/>
					<stop  offset="0.6843" style="stop-color:#DFBC55"/>
					<stop  offset="0.8156" style="stop-color:#F1D975"/>
					<stop  offset="0.9255" style="stop-color:#FBEB89"/>
					<stop  offset="1" style="stop-color:#FFF290"/>
				</linearGradient>
				<path style="fill:url(#SVGID_00000028307674679971140160000007786912787877850002_);" d="M147.77,163.33h-66.9
					c-6.43,0-11.65-5.22-11.65-11.65v-32.32c0-6.43,5.22-11.65,11.65-11.65h66.9c6.43,0,11.65,5.22,11.65,11.65v32.32
					C159.42,158.11,154.2,163.33,147.77,163.33z"/>
				<g>
					<g>
						<path class="st6" d="M114.32,154.3c-5.83,0-10.58-4.75-10.58-10.58c0-3.21,1.45-6.2,3.93-8.21c-2.48-2-3.93-4.99-3.93-8.21
							c0-5.83,4.74-10.57,10.58-10.57c5.83,0,10.57,4.74,10.57,10.57c0,3.21-1.45,6.2-3.93,8.21c2.48,2,3.93,4.99,3.93,8.21
							C124.89,149.55,120.15,154.3,114.32,154.3z M114.32,118.34c-4.95,0-8.97,4.02-8.97,8.97c0,3.05,1.54,5.86,4.13,7.53l1.05,0.67
							l-1.05,0.67c-2.58,1.67-4.13,4.48-4.13,7.53c0,4.95,4.02,8.97,8.97,8.97c4.94,0,8.97-4.02,8.97-8.97
							c0-3.05-1.54-5.87-4.13-7.53l-1.05-0.67l1.05-0.67c2.58-1.66,4.13-4.48,4.13-7.53C123.28,122.36,119.26,118.34,114.32,118.34z
							"/>
					</g>
					<g>
						<rect x="69.21" y="123.09" class="st6" width="35.97" height="1.61"/>
					</g>
					<g>
						<rect x="124.09" y="123.09" class="st6" width="35.33" height="1.61"/>
					</g>
					<g>
						<rect x="69.21" y="146.08" class="st6" width="35.97" height="1.61"/>
					</g>
					<g>
						<rect x="124.09" y="146.08" class="st6" width="35.33" height="1.61"/>
					</g>
					<g>
						<rect x="86.4" y="107.7" class="st6" width="1.61" height="55.62"/>
					</g>
					<g>
						<rect x="135.75" y="123.89" class="st6" width="1.61" height="22.99"/>
					</g>
					<g>
						<rect x="144.08" y="107.7" class="st6" width="1.61" height="16.19"/>
					</g>
					<g>
						<rect x="144.08" y="146.88" class="st6" width="1.61" height="16.44"/>
					</g>
				</g>
			</g>
			<polygon class="st4" points="63.33,141.47 63.33,127.7 54.78,134.59 			"/>
			<g>
				
					<linearGradient id="SVGID_00000044880455561989859140000012854458925720776842_" gradientUnits="userSpaceOnUse" x1="73.1717" y1="236.6677" x2="73.1717" y2="218.9487">
					<stop  offset="0" style="stop-color:#FFFFFF"/>
					<stop  offset="0.0139" style="stop-color:#F6F6F6"/>
					<stop  offset="0.0715" style="stop-color:#D4D4D4"/>
					<stop  offset="0.1307" style="stop-color:#BABABA"/>
					<stop  offset="0.1912" style="stop-color:#A8A8A8"/>
					<stop  offset="0.254" style="stop-color:#9D9D9D"/>
					<stop  offset="0.3227" style="stop-color:#999999"/>
					<stop  offset="0.3969" style="stop-color:#9F9F9F"/>
					<stop  offset="0.4959" style="stop-color:#B0B0B0"/>
					<stop  offset="0.6086" style="stop-color:#CCCCCC"/>
					<stop  offset="0.661" style="stop-color:#DBDBDB"/>
					<stop  offset="0.7215" style="stop-color:#E4E4E4"/>
					<stop  offset="0.8873" style="stop-color:#F8F8F8"/>
					<stop  offset="1" style="stop-color:#FFFFFF"/>
				</linearGradient>
				<path style="fill:url(#SVGID_00000044880455561989859140000012854458925720776842_);" d="M76.97,214.1v24.17h-3.45v-20.72h-4.15
					v-3.45H76.97z"/>
				
					<linearGradient id="SVGID_00000090276405663221661080000006951325107612686994_" gradientUnits="userSpaceOnUse" x1="93.3709" y1="236.6677" x2="93.3709" y2="218.9487">
					<stop  offset="0" style="stop-color:#FFFFFF"/>
					<stop  offset="0.0139" style="stop-color:#F6F6F6"/>
					<stop  offset="0.0715" style="stop-color:#D4D4D4"/>
					<stop  offset="0.1307" style="stop-color:#BABABA"/>
					<stop  offset="0.1912" style="stop-color:#A8A8A8"/>
					<stop  offset="0.254" style="stop-color:#9D9D9D"/>
					<stop  offset="0.3227" style="stop-color:#999999"/>
					<stop  offset="0.3969" style="stop-color:#9F9F9F"/>
					<stop  offset="0.4959" style="stop-color:#B0B0B0"/>
					<stop  offset="0.6086" style="stop-color:#CCCCCC"/>
					<stop  offset="0.661" style="stop-color:#DBDBDB"/>
					<stop  offset="0.7215" style="stop-color:#E4E4E4"/>
					<stop  offset="0.8873" style="stop-color:#F8F8F8"/>
					<stop  offset="1" style="stop-color:#FFFFFF"/>
				</linearGradient>
				<path style="fill:url(#SVGID_00000090276405663221661080000006951325107612686994_);" d="M87.68,217.56v3.12h-3.46v-3.12
					c0-0.47,0.09-0.92,0.27-1.34c0.18-0.42,0.42-0.79,0.74-1.1c0.31-0.31,0.68-0.56,1.1-0.74c0.42-0.18,0.87-0.28,1.34-0.28h10.94
					c0.47,0,0.92,0.09,1.34,0.28c0.42,0.19,0.79,0.43,1.1,0.74c0.31,0.31,0.56,0.67,0.74,1.1c0.19,0.42,0.28,0.87,0.28,1.34v4.42
					c0,0.47-0.04,0.89-0.13,1.26c-0.09,0.37-0.23,0.7-0.43,1c-0.2,0.3-0.45,0.56-0.75,0.8c-0.3,0.24-0.67,0.46-1.11,0.67
					l-11.97,5.61v3.49h11.38v-3.1h3.46v6.56H84.23v-6.35c0-0.47,0.05-0.89,0.14-1.26c0.1-0.37,0.24-0.7,0.43-0.99
					c0.19-0.29,0.44-0.56,0.75-0.8c0.31-0.24,0.67-0.46,1.09-0.66l11.98-5.63v-5.01H87.68z"/>
				
					<linearGradient id="SVGID_00000138574348894753952230000010412127243185473459_" gradientUnits="userSpaceOnUse" x1="117.4985" y1="236.6677" x2="117.4985" y2="218.9487">
					<stop  offset="0" style="stop-color:#FFFFFF"/>
					<stop  offset="0.0139" style="stop-color:#F6F6F6"/>
					<stop  offset="0.0715" style="stop-color:#D4D4D4"/>
					<stop  offset="0.1307" style="stop-color:#BABABA"/>
					<stop  offset="0.1912" style="stop-color:#A8A8A8"/>
					<stop  offset="0.254" style="stop-color:#9D9D9D"/>
					<stop  offset="0.3227" style="stop-color:#999999"/>
					<stop  offset="0.3969" style="stop-color:#9F9F9F"/>
					<stop  offset="0.4959" style="stop-color:#B0B0B0"/>
					<stop  offset="0.6086" style="stop-color:#CCCCCC"/>
					<stop  offset="0.661" style="stop-color:#DBDBDB"/>
					<stop  offset="0.7215" style="stop-color:#E4E4E4"/>
					<stop  offset="0.8873" style="stop-color:#F8F8F8"/>
					<stop  offset="1" style="stop-color:#FFFFFF"/>
				</linearGradient>
				<path style="fill:url(#SVGID_00000138574348894753952230000010412127243185473459_);" d="M108.03,230.96h3.39v1.28
					c0,0.91,0.21,1.58,0.61,2.01c0.4,0.43,1.07,0.64,1.99,0.64h6.96c0.92,0,1.58-0.21,1.99-0.64c0.41-0.43,0.61-1.09,0.61-2.01
					v-1.87c0-0.92-0.2-1.59-0.61-2.01c-0.4-0.42-1.07-0.62-1.99-0.62h-7.15v-3.37h7.05c0.84-0.04,1.45-0.26,1.81-0.68
					c0.37-0.42,0.55-1.07,0.55-1.95v-1.58c0-0.92-0.21-1.6-0.61-2.02c-0.41-0.43-1.07-0.64-1.98-0.64h-6.29
					c-0.91,0-1.57,0.21-1.97,0.64c-0.41,0.43-0.61,1.1-0.61,2.02v1.28h-3.39v-1.45c0-3.92,1.96-5.88,5.87-5.88h6.49
					c1.99,0,3.46,0.48,4.43,1.45c0.96,0.97,1.44,2.44,1.44,4.43v0.44c0,1.36-0.24,2.48-0.72,3.36c-0.48,0.88-1.17,1.54-2.08,1.96
					c1.02,0.3,1.8,0.91,2.34,1.82c0.54,0.91,0.81,2.12,0.81,3.62v1.21c0,3.91-1.96,5.86-5.87,5.86h-7.18
					c-3.92,0-5.88-1.96-5.88-5.86V230.96z"/>
				
					<linearGradient id="SVGID_00000034799228362502564090000001732992532294342588_" gradientUnits="userSpaceOnUse" x1="140.3789" y1="236.6677" x2="140.3789" y2="218.9487">
					<stop  offset="0" style="stop-color:#FFFFFF"/>
					<stop  offset="0.0139" style="stop-color:#F6F6F6"/>
					<stop  offset="0.0715" style="stop-color:#D4D4D4"/>
					<stop  offset="0.1307" style="stop-color:#BABABA"/>
					<stop  offset="0.1912" style="stop-color:#A8A8A8"/>
					<stop  offset="0.254" style="stop-color:#9D9D9D"/>
					<stop  offset="0.3227" style="stop-color:#999999"/>
					<stop  offset="0.3969" style="stop-color:#9F9F9F"/>
					<stop  offset="0.4959" style="stop-color:#B0B0B0"/>
					<stop  offset="0.6086" style="stop-color:#CCCCCC"/>
					<stop  offset="0.661" style="stop-color:#DBDBDB"/>
					<stop  offset="0.7215" style="stop-color:#E4E4E4"/>
					<stop  offset="0.8873" style="stop-color:#F8F8F8"/>
					<stop  offset="1" style="stop-color:#FFFFFF"/>
				</linearGradient>
				<path style="fill:url(#SVGID_00000034799228362502564090000001732992532294342588_);" d="M130.76,229.95l11.92-15.84h4.06v15.84
					h3.25v3.32h-3.25v5.01h-3.46v-5.01h-12.52V229.95z M143.28,229.95v-11.66l-8.76,11.66H143.28z"/>
				
					<linearGradient id="SVGID_00000024693243409146759470000017120355844659553971_" gradientUnits="userSpaceOnUse" x1="185.6657" y1="236.6677" x2="185.6657" y2="218.9487">
					<stop  offset="0" style="stop-color:#FFFFFF"/>
					<stop  offset="0.0139" style="stop-color:#F6F6F6"/>
					<stop  offset="0.0715" style="stop-color:#D4D4D4"/>
					<stop  offset="0.1307" style="stop-color:#BABABA"/>
					<stop  offset="0.1912" style="stop-color:#A8A8A8"/>
					<stop  offset="0.254" style="stop-color:#9D9D9D"/>
					<stop  offset="0.3227" style="stop-color:#999999"/>
					<stop  offset="0.3969" style="stop-color:#9F9F9F"/>
					<stop  offset="0.4959" style="stop-color:#B0B0B0"/>
					<stop  offset="0.6086" style="stop-color:#CCCCCC"/>
					<stop  offset="0.661" style="stop-color:#DBDBDB"/>
					<stop  offset="0.7215" style="stop-color:#E4E4E4"/>
					<stop  offset="0.8873" style="stop-color:#F8F8F8"/>
					<stop  offset="1" style="stop-color:#FFFFFF"/>
				</linearGradient>
				<path style="fill:url(#SVGID_00000024693243409146759470000017120355844659553971_);" d="M194.78,232.41
					c-0.03,1.97-0.53,3.43-1.48,4.41c-0.95,0.97-2.42,1.46-4.38,1.46h-6.49c-3.92,0-5.88-1.96-5.88-5.86v-1.45h3.39v1.28
					c0,0.91,0.2,1.58,0.61,2.01c0.41,0.43,1.07,0.64,1.99,0.64h6.27c0.92,0,1.58-0.21,1.99-0.64c0.4-0.43,0.61-1.09,0.61-2.01v-3.25
					c0-0.91-0.2-1.58-0.61-2c-0.41-0.42-1.07-0.63-1.99-0.63h-11.56V214.1h16.92v3.45h-13.47v5.43h8.23c1.98,0,3.45,0.48,4.41,1.44
					c0.97,0.96,1.45,2.44,1.45,4.43V232.41z"/>
				
					<linearGradient id="SVGID_00000155856822438168301470000008892462255239372961_" gradientUnits="userSpaceOnUse" x1="209.9706" y1="236.6677" x2="209.9706" y2="218.9487">
					<stop  offset="0" style="stop-color:#FFFFFF"/>
					<stop  offset="0.0139" style="stop-color:#F6F6F6"/>
					<stop  offset="0.0715" style="stop-color:#D4D4D4"/>
					<stop  offset="0.1307" style="stop-color:#BABABA"/>
					<stop  offset="0.1912" style="stop-color:#A8A8A8"/>
					<stop  offset="0.254" style="stop-color:#9D9D9D"/>
					<stop  offset="0.3227" style="stop-color:#999999"/>
					<stop  offset="0.3969" style="stop-color:#9F9F9F"/>
					<stop  offset="0.4959" style="stop-color:#B0B0B0"/>
					<stop  offset="0.6086" style="stop-color:#CCCCCC"/>
					<stop  offset="0.661" style="stop-color:#DBDBDB"/>
					<stop  offset="0.7215" style="stop-color:#E4E4E4"/>
					<stop  offset="0.8873" style="stop-color:#F8F8F8"/>
					<stop  offset="1" style="stop-color:#FFFFFF"/>
				</linearGradient>
				<path style="fill:url(#SVGID_00000155856822438168301470000008892462255239372961_);" d="M200.99,217.56
					c0-0.47,0.09-0.92,0.27-1.34c0.18-0.42,0.43-0.79,0.74-1.1c0.31-0.31,0.68-0.56,1.1-0.74c0.42-0.18,0.87-0.28,1.34-0.28h11.04
					c0.47,0,0.92,0.09,1.34,0.28c0.42,0.19,0.79,0.43,1.1,0.74c0.31,0.31,0.56,0.67,0.74,1.1c0.18,0.42,0.27,0.87,0.27,1.34v3.12
					h-3.46v-3.12h-11.04v6.91h11.04c0.47,0,0.92,0.09,1.34,0.27c0.42,0.18,0.79,0.43,1.1,0.74c0.31,0.31,0.56,0.68,0.74,1.11
					c0.18,0.42,0.27,0.87,0.27,1.34v6.89c0,0.47-0.09,0.92-0.27,1.34c-0.18,0.42-0.43,0.79-0.74,1.1c-0.31,0.31-0.68,0.56-1.1,0.74
					c-0.42,0.18-0.87,0.27-1.34,0.27h-11.04c-0.47,0-0.92-0.09-1.34-0.27c-0.42-0.18-0.79-0.43-1.1-0.74
					c-0.31-0.31-0.56-0.68-0.74-1.1c-0.18-0.42-0.27-0.87-0.27-1.34V217.56z M204.45,227.92v6.89h11.04v-6.89H204.45z"/>
				
					<linearGradient id="SVGID_00000150100144912998763730000008951383528799355523_" gradientUnits="userSpaceOnUse" x1="233.8031" y1="236.6677" x2="233.8031" y2="218.9487">
					<stop  offset="0" style="stop-color:#FFFFFF"/>
					<stop  offset="0.0139" style="stop-color:#F6F6F6"/>
					<stop  offset="0.0715" style="stop-color:#D4D4D4"/>
					<stop  offset="0.1307" style="stop-color:#BABABA"/>
					<stop  offset="0.1912" style="stop-color:#A8A8A8"/>
					<stop  offset="0.254" style="stop-color:#9D9D9D"/>
					<stop  offset="0.3227" style="stop-color:#999999"/>
					<stop  offset="0.3969" style="stop-color:#9F9F9F"/>
					<stop  offset="0.4959" style="stop-color:#B0B0B0"/>
					<stop  offset="0.6086" style="stop-color:#CCCCCC"/>
					<stop  offset="0.661" style="stop-color:#DBDBDB"/>
					<stop  offset="0.7215" style="stop-color:#E4E4E4"/>
					<stop  offset="0.8873" style="stop-color:#F8F8F8"/>
					<stop  offset="1" style="stop-color:#FFFFFF"/>
				</linearGradient>
				<path style="fill:url(#SVGID_00000150100144912998763730000008951383528799355523_);" d="M227.14,238.27l10.84-20.72h-13.5
					v-3.45h18.64v1.05l-11.98,23.13H227.14z"/>
				
					<linearGradient id="SVGID_00000150823094639460321800000001736121462903488954_" gradientUnits="userSpaceOnUse" x1="256.37" y1="236.6677" x2="256.37" y2="218.9487">
					<stop  offset="0" style="stop-color:#FFFFFF"/>
					<stop  offset="0.0139" style="stop-color:#F6F6F6"/>
					<stop  offset="0.0715" style="stop-color:#D4D4D4"/>
					<stop  offset="0.1307" style="stop-color:#BABABA"/>
					<stop  offset="0.1912" style="stop-color:#A8A8A8"/>
					<stop  offset="0.254" style="stop-color:#9D9D9D"/>
					<stop  offset="0.3227" style="stop-color:#999999"/>
					<stop  offset="0.3969" style="stop-color:#9F9F9F"/>
					<stop  offset="0.4959" style="stop-color:#B0B0B0"/>
					<stop  offset="0.6086" style="stop-color:#CCCCCC"/>
					<stop  offset="0.661" style="stop-color:#DBDBDB"/>
					<stop  offset="0.7215" style="stop-color:#E4E4E4"/>
					<stop  offset="0.8873" style="stop-color:#F8F8F8"/>
					<stop  offset="1" style="stop-color:#FFFFFF"/>
				</linearGradient>
				<path style="fill:url(#SVGID_00000150823094639460321800000001736121462903488954_);" d="M252.79,238.27
					c-3.92,0-5.88-1.96-5.88-5.86v-1.21c0-1.51,0.27-2.71,0.81-3.62c0.54-0.91,1.32-1.52,2.34-1.82c-0.91-0.43-1.6-1.08-2.08-1.96
					c-0.48-0.88-0.72-2-0.72-3.36v-0.44c0-3.92,1.96-5.88,5.87-5.88h6.49c3.91,0,5.87,1.96,5.87,5.88v0.44
					c0,1.36-0.24,2.48-0.72,3.36c-0.48,0.88-1.17,1.54-2.08,1.96c1.02,0.3,1.8,0.91,2.34,1.82c0.54,0.91,0.81,2.12,0.81,3.62v1.21
					c0,3.91-1.96,5.86-5.87,5.86H252.79z M259.85,234.89c0.92,0,1.58-0.21,1.99-0.64c0.41-0.43,0.61-1.09,0.61-2.01v-1.87
					c0-0.92-0.2-1.59-0.61-2.01c-0.4-0.42-1.07-0.62-1.99-0.62h-6.96c-0.92,0-1.59,0.21-1.99,0.62c-0.4,0.42-0.61,1.09-0.61,2.01
					v1.87c0,0.91,0.21,1.58,0.61,2.01c0.4,0.43,1.07,0.64,1.99,0.64H259.85z M259.75,224.37c0.84-0.04,1.44-0.26,1.8-0.68
					c0.36-0.42,0.54-1.07,0.54-1.95v-1.58c0-0.92-0.2-1.6-0.61-2.02c-0.4-0.43-1.06-0.64-1.97-0.64h-6.29
					c-0.91,0-1.57,0.21-1.97,0.64c-0.41,0.43-0.61,1.1-0.61,2.02v1.58c0,0.88,0.18,1.53,0.55,1.95c0.37,0.42,0.97,0.65,1.8,0.68
					H259.75z"/>
				
					<linearGradient id="SVGID_00000101103185957028274060000009975762882606738821_" gradientUnits="userSpaceOnUse" x1="304.127" y1="236.6677" x2="304.127" y2="218.9487">
					<stop  offset="0" style="stop-color:#FFFFFF"/>
					<stop  offset="0.0139" style="stop-color:#F6F6F6"/>
					<stop  offset="0.0715" style="stop-color:#D4D4D4"/>
					<stop  offset="0.1307" style="stop-color:#BABABA"/>
					<stop  offset="0.1912" style="stop-color:#A8A8A8"/>
					<stop  offset="0.254" style="stop-color:#9D9D9D"/>
					<stop  offset="0.3227" style="stop-color:#999999"/>
					<stop  offset="0.3969" style="stop-color:#9F9F9F"/>
					<stop  offset="0.4959" style="stop-color:#B0B0B0"/>
					<stop  offset="0.6086" style="stop-color:#CCCCCC"/>
					<stop  offset="0.661" style="stop-color:#DBDBDB"/>
					<stop  offset="0.7215" style="stop-color:#E4E4E4"/>
					<stop  offset="0.8873" style="stop-color:#F8F8F8"/>
					<stop  offset="1" style="stop-color:#FFFFFF"/>
				</linearGradient>
				<path style="fill:url(#SVGID_00000101103185957028274060000009975762882606738821_);" d="M313.1,234.82
					c0,0.47-0.09,0.92-0.27,1.34c-0.18,0.42-0.43,0.79-0.74,1.1c-0.31,0.31-0.68,0.56-1.1,0.74c-0.42,0.18-0.87,0.27-1.34,0.27
					h-11.04c-0.47,0-0.92-0.09-1.34-0.27c-0.42-0.18-0.79-0.43-1.1-0.74c-0.31-0.31-0.56-0.68-0.74-1.1
					c-0.18-0.42-0.27-0.87-0.27-1.34v-3.1h3.46v3.1h11.04v-6.89h-11.04c-0.47,0-0.92-0.09-1.34-0.28c-0.42-0.19-0.79-0.43-1.1-0.74
					c-0.31-0.31-0.56-0.67-0.74-1.1c-0.18-0.42-0.27-0.87-0.27-1.34v-6.91c0-0.47,0.09-0.92,0.27-1.34c0.18-0.42,0.43-0.79,0.74-1.1
					c0.31-0.31,0.68-0.56,1.1-0.74c0.42-0.18,0.87-0.28,1.34-0.28h11.04c0.47,0,0.92,0.09,1.34,0.28c0.42,0.19,0.79,0.43,1.1,0.74
					c0.31,0.31,0.56,0.67,0.74,1.1c0.18,0.42,0.27,0.87,0.27,1.34V234.82z M309.65,224.47v-6.91h-11.04v6.91H309.65z"/>
				
					<linearGradient id="SVGID_00000151526638957625073770000013965960710960258982_" gradientUnits="userSpaceOnUse" x1="329.8549" y1="236.6677" x2="329.8549" y2="218.9487">
					<stop  offset="0" style="stop-color:#FFFFFF"/>
					<stop  offset="0.0139" style="stop-color:#F6F6F6"/>
					<stop  offset="0.0715" style="stop-color:#D4D4D4"/>
					<stop  offset="0.1307" style="stop-color:#BABABA"/>
					<stop  offset="0.1912" style="stop-color:#A8A8A8"/>
					<stop  offset="0.254" style="stop-color:#9D9D9D"/>
					<stop  offset="0.3227" style="stop-color:#999999"/>
					<stop  offset="0.3969" style="stop-color:#9F9F9F"/>
					<stop  offset="0.4959" style="stop-color:#B0B0B0"/>
					<stop  offset="0.6086" style="stop-color:#CCCCCC"/>
					<stop  offset="0.661" style="stop-color:#DBDBDB"/>
					<stop  offset="0.7215" style="stop-color:#E4E4E4"/>
					<stop  offset="0.8873" style="stop-color:#F8F8F8"/>
					<stop  offset="1" style="stop-color:#FFFFFF"/>
				</linearGradient>
				<path style="fill:url(#SVGID_00000151526638957625073770000013965960710960258982_);" d="M339.35,234.82
					c0,0.47-0.09,0.92-0.27,1.34c-0.18,0.42-0.43,0.79-0.74,1.1c-0.31,0.31-0.68,0.56-1.1,0.74c-0.42,0.18-0.87,0.27-1.34,0.27
					h-12.08c-0.47,0-0.92-0.09-1.34-0.27c-0.42-0.18-0.79-0.43-1.1-0.74c-0.31-0.31-0.56-0.68-0.74-1.1
					c-0.18-0.42-0.27-0.87-0.27-1.34v-17.26c0-0.47,0.09-0.92,0.27-1.34c0.18-0.42,0.43-0.79,0.74-1.1c0.31-0.31,0.68-0.56,1.1-0.74
					c0.42-0.18,0.87-0.28,1.34-0.28h12.08c0.47,0,0.92,0.09,1.34,0.28c0.42,0.19,0.79,0.43,1.1,0.74c0.31,0.31,0.56,0.67,0.74,1.1
					c0.18,0.42,0.27,0.87,0.27,1.34V234.82z M323.81,217.56v17.26h12.08v-17.26H323.81z"/>
				
					<linearGradient id="SVGID_00000127729113984946966770000000024626042578723458_" gradientUnits="userSpaceOnUse" x1="348.3208" y1="236.6677" x2="348.3208" y2="218.9487">
					<stop  offset="0" style="stop-color:#FFFFFF"/>
					<stop  offset="0.0139" style="stop-color:#F6F6F6"/>
					<stop  offset="0.0715" style="stop-color:#D4D4D4"/>
					<stop  offset="0.1307" style="stop-color:#BABABA"/>
					<stop  offset="0.1912" style="stop-color:#A8A8A8"/>
					<stop  offset="0.254" style="stop-color:#9D9D9D"/>
					<stop  offset="0.3227" style="stop-color:#999999"/>
					<stop  offset="0.3969" style="stop-color:#9F9F9F"/>
					<stop  offset="0.4959" style="stop-color:#B0B0B0"/>
					<stop  offset="0.6086" style="stop-color:#CCCCCC"/>
					<stop  offset="0.661" style="stop-color:#DBDBDB"/>
					<stop  offset="0.7215" style="stop-color:#E4E4E4"/>
					<stop  offset="0.8873" style="stop-color:#F8F8F8"/>
					<stop  offset="1" style="stop-color:#FFFFFF"/>
				</linearGradient>
				<path style="fill:url(#SVGID_00000127729113984946966770000000024626042578723458_);" d="M352.12,214.1v24.17h-3.46v-20.72
					h-4.15v-3.45H352.12z"/>
				
					<linearGradient id="SVGID_00000023254411301427889090000003228964750032376761_" gradientUnits="userSpaceOnUse" x1="368.5202" y1="236.6677" x2="368.5202" y2="218.9487">
					<stop  offset="0" style="stop-color:#FFFFFF"/>
					<stop  offset="0.0139" style="stop-color:#F6F6F6"/>
					<stop  offset="0.0715" style="stop-color:#D4D4D4"/>
					<stop  offset="0.1307" style="stop-color:#BABABA"/>
					<stop  offset="0.1912" style="stop-color:#A8A8A8"/>
					<stop  offset="0.254" style="stop-color:#9D9D9D"/>
					<stop  offset="0.3227" style="stop-color:#999999"/>
					<stop  offset="0.3969" style="stop-color:#9F9F9F"/>
					<stop  offset="0.4959" style="stop-color:#B0B0B0"/>
					<stop  offset="0.6086" style="stop-color:#CCCCCC"/>
					<stop  offset="0.661" style="stop-color:#DBDBDB"/>
					<stop  offset="0.7215" style="stop-color:#E4E4E4"/>
					<stop  offset="0.8873" style="stop-color:#F8F8F8"/>
					<stop  offset="1" style="stop-color:#FFFFFF"/>
				</linearGradient>
				<path style="fill:url(#SVGID_00000023254411301427889090000003228964750032376761_);" d="M362.83,217.56v3.12h-3.45v-3.12
					c0-0.47,0.09-0.92,0.27-1.34c0.18-0.42,0.43-0.79,0.74-1.1c0.31-0.31,0.68-0.56,1.1-0.74c0.42-0.18,0.87-0.28,1.34-0.28h10.94
					c0.47,0,0.92,0.09,1.34,0.28c0.42,0.19,0.79,0.43,1.09,0.74c0.31,0.31,0.56,0.67,0.74,1.1c0.19,0.42,0.28,0.87,0.28,1.34v4.42
					c0,0.47-0.05,0.89-0.13,1.26c-0.09,0.37-0.24,0.7-0.43,1c-0.2,0.3-0.45,0.56-0.75,0.8c-0.3,0.24-0.68,0.46-1.11,0.67
					l-11.97,5.61v3.49h11.38v-3.1h3.45v6.56h-18.29v-6.35c0-0.47,0.05-0.89,0.14-1.26c0.09-0.37,0.24-0.7,0.43-0.99
					c0.19-0.29,0.44-0.56,0.75-0.8c0.31-0.24,0.67-0.46,1.09-0.66l11.99-5.63v-5.01H362.83z"/>
				
					<linearGradient id="SVGID_00000062899838974209093690000014159024857900946314_" gradientUnits="userSpaceOnUse" x1="415.4165" y1="236.6677" x2="415.4165" y2="218.9487">
					<stop  offset="0" style="stop-color:#FFFFFF"/>
					<stop  offset="0.0139" style="stop-color:#F6F6F6"/>
					<stop  offset="0.0715" style="stop-color:#D4D4D4"/>
					<stop  offset="0.1307" style="stop-color:#BABABA"/>
					<stop  offset="0.1912" style="stop-color:#A8A8A8"/>
					<stop  offset="0.254" style="stop-color:#9D9D9D"/>
					<stop  offset="0.3227" style="stop-color:#999999"/>
					<stop  offset="0.3969" style="stop-color:#9F9F9F"/>
					<stop  offset="0.4959" style="stop-color:#B0B0B0"/>
					<stop  offset="0.6086" style="stop-color:#CCCCCC"/>
					<stop  offset="0.661" style="stop-color:#DBDBDB"/>
					<stop  offset="0.7215" style="stop-color:#E4E4E4"/>
					<stop  offset="0.8873" style="stop-color:#F8F8F8"/>
					<stop  offset="1" style="stop-color:#FFFFFF"/>
				</linearGradient>
				<path style="fill:url(#SVGID_00000062899838974209093690000014159024857900946314_);" d="M405.95,230.96h3.39v1.28
					c0,0.91,0.2,1.58,0.61,2.01c0.41,0.43,1.07,0.64,1.99,0.64h6.96c0.92,0,1.58-0.21,1.99-0.64c0.4-0.43,0.61-1.09,0.61-2.01v-1.87
					c0-0.92-0.2-1.59-0.61-2.01c-0.41-0.42-1.07-0.62-1.99-0.62h-7.15v-3.37h7.05c0.84-0.04,1.45-0.26,1.81-0.68
					c0.36-0.42,0.55-1.07,0.55-1.95v-1.58c0-0.92-0.21-1.6-0.61-2.02c-0.41-0.43-1.07-0.64-1.98-0.64h-6.29
					c-0.91,0-1.57,0.21-1.97,0.64c-0.4,0.43-0.61,1.1-0.61,2.02v1.28h-3.39v-1.45c0-3.92,1.96-5.88,5.87-5.88h6.49
					c1.99,0,3.46,0.48,4.42,1.45c0.96,0.97,1.44,2.44,1.44,4.43v0.44c0,1.36-0.24,2.48-0.72,3.36c-0.48,0.88-1.17,1.54-2.08,1.96
					c1.02,0.3,1.8,0.91,2.34,1.82c0.54,0.91,0.81,2.12,0.81,3.62v1.21c0,3.91-1.95,5.86-5.86,5.86h-7.18
					c-3.92,0-5.88-1.96-5.88-5.86V230.96z"/>
				
					<linearGradient id="SVGID_00000073717391737859113090000007972285284686023341_" gradientUnits="userSpaceOnUse" x1="438.2953" y1="236.6677" x2="438.2953" y2="218.9487">
					<stop  offset="0" style="stop-color:#FFFFFF"/>
					<stop  offset="0.0139" style="stop-color:#F6F6F6"/>
					<stop  offset="0.0715" style="stop-color:#D4D4D4"/>
					<stop  offset="0.1307" style="stop-color:#BABABA"/>
					<stop  offset="0.1912" style="stop-color:#A8A8A8"/>
					<stop  offset="0.254" style="stop-color:#9D9D9D"/>
					<stop  offset="0.3227" style="stop-color:#999999"/>
					<stop  offset="0.3969" style="stop-color:#9F9F9F"/>
					<stop  offset="0.4959" style="stop-color:#B0B0B0"/>
					<stop  offset="0.6086" style="stop-color:#CCCCCC"/>
					<stop  offset="0.661" style="stop-color:#DBDBDB"/>
					<stop  offset="0.7215" style="stop-color:#E4E4E4"/>
					<stop  offset="0.8873" style="stop-color:#F8F8F8"/>
					<stop  offset="1" style="stop-color:#FFFFFF"/>
				</linearGradient>
				<path style="fill:url(#SVGID_00000073717391737859113090000007972285284686023341_);" d="M428.68,229.95l11.92-15.84h4.06v15.84
					h3.25v3.32h-3.25v5.01h-3.45v-5.01h-12.52V229.95z M441.2,229.95v-11.66l-8.76,11.66H441.2z"/>
				
					<linearGradient id="SVGID_00000132074356742664459380000014443863560176182704_" gradientUnits="userSpaceOnUse" x1="460.8149" y1="236.6677" x2="460.8149" y2="218.9487">
					<stop  offset="0" style="stop-color:#FFFFFF"/>
					<stop  offset="0.0139" style="stop-color:#F6F6F6"/>
					<stop  offset="0.0715" style="stop-color:#D4D4D4"/>
					<stop  offset="0.1307" style="stop-color:#BABABA"/>
					<stop  offset="0.1912" style="stop-color:#A8A8A8"/>
					<stop  offset="0.254" style="stop-color:#9D9D9D"/>
					<stop  offset="0.3227" style="stop-color:#999999"/>
					<stop  offset="0.3969" style="stop-color:#9F9F9F"/>
					<stop  offset="0.4959" style="stop-color:#B0B0B0"/>
					<stop  offset="0.6086" style="stop-color:#CCCCCC"/>
					<stop  offset="0.661" style="stop-color:#DBDBDB"/>
					<stop  offset="0.7215" style="stop-color:#E4E4E4"/>
					<stop  offset="0.8873" style="stop-color:#F8F8F8"/>
					<stop  offset="1" style="stop-color:#FFFFFF"/>
				</linearGradient>
				<path style="fill:url(#SVGID_00000132074356742664459380000014443863560176182704_);" d="M469.93,232.41
					c-0.03,1.97-0.53,3.43-1.48,4.41c-0.96,0.97-2.42,1.46-4.38,1.46h-6.49c-3.92,0-5.88-1.96-5.88-5.86v-1.45h3.39v1.28
					c0,0.91,0.2,1.58,0.61,2.01c0.4,0.43,1.07,0.64,1.99,0.64h6.27c0.92,0,1.58-0.21,1.99-0.64c0.4-0.43,0.61-1.09,0.61-2.01v-3.25
					c0-0.91-0.2-1.58-0.61-2c-0.4-0.42-1.07-0.63-1.99-0.63h-11.56V214.1h16.92v3.45h-13.47v5.43h8.23c1.98,0,3.45,0.48,4.42,1.44
					c0.97,0.96,1.45,2.44,1.45,4.43V232.41z"/>
				
					<linearGradient id="SVGID_00000177477234708473172370000017945578792532276365_" gradientUnits="userSpaceOnUse" x1="485.1184" y1="236.6677" x2="485.1184" y2="218.9487">
					<stop  offset="0" style="stop-color:#FFFFFF"/>
					<stop  offset="0.0139" style="stop-color:#F6F6F6"/>
					<stop  offset="0.0715" style="stop-color:#D4D4D4"/>
					<stop  offset="0.1307" style="stop-color:#BABABA"/>
					<stop  offset="0.1912" style="stop-color:#A8A8A8"/>
					<stop  offset="0.254" style="stop-color:#9D9D9D"/>
					<stop  offset="0.3227" style="stop-color:#999999"/>
					<stop  offset="0.3969" style="stop-color:#9F9F9F"/>
					<stop  offset="0.4959" style="stop-color:#B0B0B0"/>
					<stop  offset="0.6086" style="stop-color:#CCCCCC"/>
					<stop  offset="0.661" style="stop-color:#DBDBDB"/>
					<stop  offset="0.7215" style="stop-color:#E4E4E4"/>
					<stop  offset="0.8873" style="stop-color:#F8F8F8"/>
					<stop  offset="1" style="stop-color:#FFFFFF"/>
				</linearGradient>
				<path style="fill:url(#SVGID_00000177477234708473172370000017945578792532276365_);" d="M476.14,217.56
					c0-0.47,0.09-0.92,0.27-1.34c0.18-0.42,0.43-0.79,0.74-1.1c0.31-0.31,0.68-0.56,1.1-0.74c0.42-0.18,0.87-0.28,1.34-0.28h11.04
					c0.47,0,0.92,0.09,1.34,0.28c0.42,0.19,0.79,0.43,1.1,0.74c0.31,0.31,0.56,0.67,0.74,1.1c0.18,0.42,0.27,0.87,0.27,1.34v3.12
					h-3.45v-3.12H479.6v6.91h11.04c0.47,0,0.92,0.09,1.34,0.27c0.42,0.18,0.79,0.43,1.1,0.74c0.31,0.31,0.56,0.68,0.74,1.11
					c0.18,0.42,0.27,0.87,0.27,1.34v6.89c0,0.47-0.09,0.92-0.27,1.34c-0.18,0.42-0.43,0.79-0.74,1.1c-0.31,0.31-0.68,0.56-1.1,0.74
					c-0.42,0.18-0.87,0.27-1.34,0.27H479.6c-0.47,0-0.92-0.09-1.34-0.27c-0.42-0.18-0.79-0.43-1.1-0.74
					c-0.31-0.31-0.56-0.68-0.74-1.1c-0.18-0.42-0.27-0.87-0.27-1.34V217.56z M479.6,227.92v6.89h11.04v-6.89H479.6z"/>
			</g>
		</g>
	</g>
	<g>
		<path class="st4" d="M307.85,80.45V62.26h3.38v15.33h9.51v2.86H307.85z"/>
		<path class="st4" d="M331.94,80.71c-1.4,0-2.71-0.23-3.91-0.7c-1.2-0.47-2.25-1.13-3.13-1.97c-0.88-0.85-1.57-1.84-2.05-2.98
			c-0.49-1.13-0.73-2.37-0.73-3.7c0-1.35,0.24-2.59,0.73-3.73c0.48-1.13,1.17-2.12,2.05-2.96c0.88-0.84,1.92-1.49,3.12-1.96
			c1.19-0.47,2.5-0.7,3.92-0.7c1.4,0,2.7,0.23,3.9,0.69c1.19,0.46,2.23,1.11,3.1,1.95c0.87,0.84,1.55,1.83,2.04,2.97
			c0.48,1.14,0.73,2.39,0.73,3.74c0,1.35-0.24,2.59-0.73,3.73c-0.49,1.13-1.16,2.13-2.04,2.98c-0.87,0.85-1.91,1.5-3.1,1.96
			S333.34,80.71,331.94,80.71z M331.94,77.74c0.92,0,1.76-0.16,2.53-0.47c0.77-0.31,1.44-0.75,2.01-1.33s1.02-1.25,1.34-2.03
			c0.32-0.78,0.48-1.64,0.48-2.57s-0.16-1.79-0.47-2.57c-0.31-0.78-0.76-1.46-1.34-2.03c-0.58-0.57-1.26-1.01-2.03-1.33
			c-0.77-0.31-1.62-0.47-2.53-0.47c-0.92,0-1.77,0.16-2.56,0.47c-0.79,0.31-1.47,0.76-2.04,1.34s-1.02,1.26-1.35,2.03
			c-0.33,0.77-0.49,1.62-0.49,2.56c0,0.92,0.16,1.77,0.49,2.55c0.33,0.78,0.78,1.46,1.35,2.04c0.57,0.58,1.25,1.03,2.04,1.34
			C330.17,77.59,331.02,77.74,331.94,77.74z"/>
		<path class="st4" d="M353.71,80.71c-1.4,0-2.69-0.23-3.87-0.69s-2.2-1.11-3.08-1.96c-0.87-0.85-1.55-1.84-2.04-2.96
			c-0.49-1.13-0.73-2.37-0.73-3.74c0-1.37,0.24-2.62,0.73-3.74c0.48-1.13,1.17-2.11,2.05-2.96c0.88-0.85,1.91-1.5,3.09-1.96
			c1.18-0.46,2.47-0.69,3.87-0.69c1.49,0,2.85,0.26,4.08,0.77c1.23,0.51,2.27,1.27,3.12,2.27l-2.18,2.05
			c-0.68-0.71-1.42-1.24-2.23-1.6c-0.81-0.36-1.69-0.53-2.62-0.53c-0.95,0-1.82,0.16-2.61,0.47c-0.79,0.31-1.47,0.75-2.05,1.33
			c-0.58,0.57-1.04,1.25-1.36,2.03c-0.33,0.78-0.49,1.64-0.49,2.57s0.16,1.79,0.49,2.57c0.33,0.78,0.78,1.46,1.36,2.03
			c0.58,0.57,1.26,1.01,2.05,1.33s1.66,0.47,2.61,0.47c0.94,0,1.81-0.18,2.62-0.53c0.81-0.36,1.56-0.9,2.23-1.62l2.18,2.05
			c-0.85,1.01-1.89,1.77-3.12,2.29C356.59,80.45,355.22,80.71,353.71,80.71z"/>
		<path class="st4" d="M361.61,80.45l8.18-18.19h3.33l8.21,18.19h-3.56l-7.01-16.39h1.35l-7.04,16.39H361.61z M365.38,76.24
			l0.94-2.65h9.8l0.91,2.65H365.38z"/>
		<path class="st4" d="M383.61,80.45V62.26h3.38v15.33h9.51v2.86H383.61z"/>
		<path class="st4" d="M406.32,80.45V62.26h8.55c2.17,0,3.82,0.43,4.96,1.29c1.14,0.86,1.72,2.01,1.72,3.44
			c0,0.97-0.23,1.8-0.68,2.48c-0.45,0.68-1.05,1.21-1.81,1.58c-0.75,0.37-1.57,0.56-2.46,0.56l0.47-0.93c1.02,0,1.94,0.19,2.75,0.56
			c0.81,0.37,1.46,0.91,1.92,1.62c0.47,0.71,0.7,1.59,0.7,2.65c0,1.56-0.59,2.77-1.78,3.64c-1.19,0.87-2.95,1.3-5.29,1.3H406.32z
			 M409.7,77.8h5.48c1.25,0,2.21-0.21,2.88-0.62c0.68-0.42,1.01-1.08,1.01-2c0-0.9-0.34-1.56-1.01-1.99
			c-0.68-0.42-1.64-0.64-2.88-0.64h-5.74v-2.62h5.04c1.16,0,2.06-0.21,2.7-0.62c0.64-0.42,0.96-1.04,0.96-1.87
			c0-0.85-0.32-1.48-0.96-1.9c-0.64-0.42-1.54-0.62-2.7-0.62h-4.78V77.8z"/>
		<path class="st4" d="M423.52,80.45l8.18-18.19h3.33l8.21,18.19h-3.56l-7.02-16.39h1.35l-7.04,16.39H423.52z M427.29,76.24
			l0.94-2.65h9.8l0.91,2.65H427.29z"/>
		<path class="st4" d="M445.53,80.45V62.26h2.78l11.41,14.03h-1.38V62.26h3.33v18.19h-2.78L447.5,66.42h1.38v14.03H445.53z"/>
		<path class="st4" d="M466.57,80.45V62.26h3.38v18.19H466.57z M469.56,76.16l-0.16-4l9.51-9.9h3.82l-7.92,8.42l-1.87,2.05
			L469.56,76.16z M479.25,80.45l-6.99-8.29l2.26-2.47l8.7,10.76H479.25z"/>
	</g>
</g>
</svg>
