<?xml version="1.0" encoding="utf-8"?>
<!-- Generator: Adobe Illustrator 26.0.1, SVG Export Plug-In . SVG Version: 6.00 Build 0)  -->
<svg version="1.1" id="Layer_1" xmlns="http://www.w3.org/2000/svg" xmlns:xlink="http://www.w3.org/1999/xlink" x="0px" y="0px"
	 viewBox="0 0 216 216" style="enable-background:new 0 0 216 216;" xml:space="preserve">
<style type="text/css">
	.st0{fill:#FFFFFF;}
	.st1{fill:#41AE49;}
	.st2{fill:#309646;}
</style>
<g>
	<g>
		<g>
			<path class="st0" d="M37.49,146.72c-0.72,1.02-1.87,1.93-3.44,2.72c-1.58,0.8-3.61,1.2-6.1,1.2c-3.09,0-5.64-1-7.63-2.99
				c-2-2-2.99-4.58-2.99-7.74v-5.47c0-3.16,0.97-5.75,2.9-7.74c1.93-2,4.41-2.99,7.44-2.99c3.05,0,5.42,0.77,7.12,2.3
				c1.7,1.53,2.53,3.54,2.48,6.01l-0.05,0.11h-4.15c0-1.47-0.46-2.66-1.38-3.56c-0.92-0.9-2.23-1.35-3.95-1.35
				c-1.81,0-3.27,0.68-4.38,2.03c-1.11,1.35-1.66,3.07-1.66,5.16v5.5c0,2.11,0.58,3.85,1.74,5.21c1.16,1.36,2.66,2.04,4.52,2.04
				c1.4,0,2.51-0.16,3.33-0.48c0.82-0.32,1.43-0.7,1.85-1.16v-5.41h-5.48v-3.27h9.85V146.72z"/>
			<path class="st0" d="M56.46,144.15h-9.28l-2.01,6.11h-4.51l9.13-26.18h4.15l9.03,26.18h-4.51L56.46,144.15z M48.39,140.5h6.89
				l-3.36-10.32h-0.11L48.39,140.5z"/>
			<path class="st0" d="M79.46,144.22h0.11l7.57-20.14h5.57v26.18h-4.37v-18.81l-0.11-0.02l-7.21,18.83h-3l-7.34-19.19l-0.11,0.04
				v19.15h-4.37v-26.18h5.74L79.46,144.22z"/>
			<path class="st0" d="M102.96,150.26H98.6v-26.18h4.37V150.26z"/>
			<path class="st0" d="M129.27,150.26h-4.37l-11.6-18.86l-0.11,0.04v18.83h-4.37v-26.18h4.37l11.6,18.86l0.11-0.04v-18.83h4.37
				V150.26z"/>
			<path class="st0" d="M154.18,146.72c-0.72,1.02-1.87,1.93-3.44,2.72c-1.58,0.8-3.61,1.2-6.11,1.2c-3.09,0-5.64-1-7.63-2.99
				c-2-2-2.99-4.58-2.99-7.74v-5.47c0-3.16,0.96-5.75,2.89-7.74c1.93-2,4.41-2.99,7.45-2.99c3.05,0,5.42,0.77,7.12,2.3
				s2.53,3.54,2.48,6.01l-0.05,0.11h-4.15c0-1.47-0.46-2.66-1.38-3.56c-0.92-0.9-2.23-1.35-3.95-1.35c-1.81,0-3.27,0.68-4.38,2.03
				c-1.11,1.35-1.66,3.07-1.66,5.16v5.5c0,2.11,0.58,3.85,1.74,5.21c1.16,1.36,2.66,2.04,4.52,2.04c1.4,0,2.51-0.16,3.33-0.48
				c0.82-0.32,1.43-0.7,1.85-1.16v-5.41h-5.48v-3.27h9.85V146.72z"/>
			<path class="st0" d="M164.93,141.29v8.97h-6.08v-26.18h10c3.1,0,5.57,0.79,7.39,2.37c1.82,1.58,2.73,3.66,2.73,6.24
				c0,2.58-0.91,4.65-2.73,6.23c-1.82,1.58-4.29,2.36-7.39,2.36H164.93z M164.93,136.61h3.92c1.32,0,2.33-0.36,3.02-1.09
				c0.69-0.73,1.04-1.66,1.04-2.8c0-1.16-0.34-2.12-1.03-2.86c-0.69-0.74-1.7-1.11-3.03-1.11h-3.92V136.61z"/>
			<path class="st0" d="M197.64,139.06h-9.22v6.53h11.06v4.68h-17.14v-26.18h17.16v4.68h-11.08v5.63h9.22V139.06z"/>
		</g>
	</g>
	<g>
		<path class="st0" d="M44.74,154.93h0.69l2.09,4.12l2.09-4.12h0.65v5.37h-0.81v-3.47l-1.78,3.47h-0.34l-1.78-3.47v3.47h-0.82
			V154.93z"/>
		<path class="st0" d="M55.5,156.93v3.36h-0.72l-0.02-0.53c-0.25,0.39-0.64,0.64-1.19,0.64c-0.96,0-1.7-0.79-1.7-1.8
			c0-1.01,0.74-1.79,1.7-1.79c0.54,0,0.94,0.24,1.19,0.63l0.02-0.52H55.5z M54.74,158.61c0-0.59-0.47-1.07-1.06-1.07
			c-0.6,0-1.06,0.48-1.06,1.07c0,0.6,0.46,1.07,1.06,1.07C54.27,159.67,54.74,159.21,54.74,158.61z"/>
		<path class="st0" d="M59.15,160.29l-1.16-1.51v1.51h-0.76v-5.6h0.76v3.6l1.09-1.37h0.9l-1.34,1.57l1.41,1.79H59.15z"/>
		<path class="st0" d="M64.48,158.74h-2.77c0.06,0.56,0.49,0.96,1.05,0.96c0.43,0,0.78-0.24,0.94-0.54l0.66,0.29
			c-0.3,0.56-0.88,0.95-1.6,0.95c-1.02,0-1.81-0.79-1.81-1.8c0-1.01,0.78-1.79,1.79-1.79c1.02,0,1.76,0.77,1.76,1.72
			C64.5,158.65,64.48,158.74,64.48,158.74z M61.76,158.18h1.94c-0.14-0.45-0.48-0.71-0.96-0.71
			C62.28,157.47,61.91,157.73,61.76,158.18z"/>
		<path class="st0" d="M74.33,157.69c0,1.53-1.13,2.72-2.68,2.72c-1.59,0-2.82-1.23-2.82-2.8s1.24-2.8,2.86-2.8
			c0.82,0,1.53,0.31,2.03,0.8l-0.54,0.58c-0.36-0.36-0.88-0.6-1.49-0.6c-1.16,0-2.03,0.88-2.03,2.01c0,1.13,0.87,2.01,1.99,2.01
			c0.95,0,1.63-0.59,1.83-1.41h-2.81v-0.75h3.64C74.31,157.46,74.33,157.57,74.33,157.69z"/>
		<path class="st0" d="M79.26,156.93v3.36h-0.72l-0.02-0.53c-0.25,0.39-0.64,0.64-1.19,0.64c-0.96,0-1.7-0.79-1.7-1.8
			c0-1.01,0.74-1.79,1.7-1.79c0.54,0,0.94,0.24,1.19,0.63l0.02-0.52H79.26z M78.51,158.61c0-0.59-0.47-1.07-1.06-1.07
			c-0.6,0-1.06,0.48-1.06,1.07c0,0.6,0.46,1.07,1.06,1.07C78.04,159.67,78.51,159.21,78.51,158.61z"/>
		<path class="st0" d="M85.91,157.92v2.37h-0.76v-2.13c0-0.42-0.22-0.61-0.55-0.61c-0.29,0-0.56,0.19-0.77,0.54v2.2h-0.76v-2.13
			c0-0.42-0.22-0.61-0.55-0.61c-0.29,0-0.56,0.19-0.77,0.54v2.2H81v-3.36h0.72l0.02,0.44c0.28-0.34,0.59-0.55,1.04-0.55
			c0.48,0,0.83,0.23,0.98,0.63c0.29-0.39,0.62-0.63,1.1-0.63C85.49,156.82,85.91,157.22,85.91,157.92z"/>
		<path class="st0" d="M87.52,155.61c0-0.27,0.22-0.49,0.51-0.49c0.3,0,0.51,0.22,0.51,0.49c0,0.27-0.21,0.49-0.51,0.49
			C87.74,156.1,87.52,155.88,87.52,155.61z M87.66,156.93h0.76v3.36h-0.76V156.93z"/>
		<path class="st0" d="M93.04,157.92v2.37h-0.76v-2.13c0-0.42-0.22-0.61-0.55-0.61c-0.29,0-0.56,0.19-0.77,0.54v2.2h-0.76v-3.36
			h0.72l0.02,0.44c0.28-0.34,0.59-0.55,1.04-0.55C92.62,156.82,93.04,157.22,93.04,157.92z"/>
		<path class="st0" d="M98.11,156.93v3.42c0,1.05-0.79,1.72-1.8,1.72c-0.96,0-1.7-0.58-1.7-1.41h0.76c0,0.42,0.4,0.74,0.95,0.74
			c0.58,0,1.04-0.39,1.04-1.04v-0.63c-0.24,0.38-0.63,0.61-1.17,0.61c-0.96,0-1.7-0.79-1.7-1.76c0-0.97,0.74-1.75,1.7-1.75
			c0.54,0,0.94,0.24,1.19,0.63l0.02-0.51H98.11z M97.36,158.59c0-0.6-0.47-1.07-1.06-1.07c-0.6,0-1.06,0.47-1.06,1.07
			c0,0.59,0.46,1.07,1.06,1.07C96.89,159.66,97.36,159.18,97.36,158.59z"/>
		<path class="st0" d="M106.2,155.71h-1.44v4.58h-0.83v-4.58h-1.44v-0.79h3.7V155.71z"/>
		<path class="st0" d="M109.47,157.56l-0.69,0.28c-0.11-0.23-0.25-0.34-0.45-0.34c-0.23,0-0.42,0.15-0.63,0.6v2.19h-0.76v-3.36h0.72
			l0.02,0.41c0.26-0.36,0.5-0.52,0.84-0.52C109.01,156.82,109.3,157.1,109.47,157.56z"/>
		<path class="st0" d="M113.99,156.93v3.36h-0.72l-0.02-0.53c-0.25,0.39-0.64,0.64-1.19,0.64c-0.96,0-1.7-0.79-1.7-1.8
			c0-1.01,0.74-1.79,1.7-1.79c0.54,0,0.94,0.24,1.19,0.63l0.02-0.52H113.99z M113.24,158.61c0-0.59-0.47-1.07-1.06-1.07
			c-0.6,0-1.06,0.48-1.06,1.07c0,0.6,0.46,1.07,1.06,1.07C112.77,159.67,113.24,159.21,113.24,158.61z"/>
		<path class="st0" d="M118.57,157.92v2.37h-0.76v-2.13c0-0.42-0.22-0.61-0.55-0.61c-0.29,0-0.56,0.19-0.77,0.54v2.2h-0.76v-3.36
			h0.72l0.02,0.44c0.28-0.34,0.59-0.55,1.04-0.55C118.14,156.82,118.57,157.22,118.57,157.92z"/>
		<path class="st0" d="M120,159.79l0.42-0.43c0,0,0.36,0.44,0.82,0.44c0.3,0,0.43-0.17,0.43-0.38c0-0.24-0.19-0.39-0.59-0.56
			c-0.54-0.23-0.95-0.55-0.95-1.07c0-0.57,0.48-0.97,1.14-0.97c0.67,0,1.06,0.39,1.06,0.39l-0.38,0.5c0,0-0.29-0.28-0.67-0.28
			c-0.29,0-0.43,0.15-0.43,0.33c0,0.22,0.17,0.36,0.54,0.51c0.57,0.24,0.99,0.55,0.99,1.11c0,0.6-0.48,1.04-1.15,1.04
			C120.42,160.41,120,159.79,120,159.79z"/>
		<path class="st0" d="M127.28,156.93v3.36h-0.72l-0.02-0.53c-0.25,0.39-0.64,0.64-1.19,0.64c-0.96,0-1.7-0.79-1.7-1.8
			c0-1.01,0.74-1.79,1.7-1.79c0.54,0,0.94,0.24,1.19,0.63l0.02-0.52H127.28z M126.53,158.61c0-0.59-0.47-1.07-1.06-1.07
			c-0.6,0-1.06,0.48-1.06,1.07c0,0.6,0.46,1.07,1.06,1.07C126.06,159.67,126.53,159.21,126.53,158.61z"/>
		<path class="st0" d="M128.78,158.61c0-1.01,0.79-1.79,1.81-1.79c0.62,0,1.13,0.3,1.46,0.75l-0.6,0.42
			c-0.2-0.26-0.49-0.44-0.85-0.44c-0.6,0-1.06,0.48-1.06,1.07c0,0.6,0.46,1.07,1.06,1.07c0.39,0,0.7-0.19,0.88-0.48l0.63,0.37
			c-0.32,0.5-0.85,0.85-1.51,0.85C129.57,160.41,128.78,159.61,128.78,158.61z"/>
		<path class="st0" d="M135.45,157.63h-0.83v2.66h-0.76v-2.66h-0.68v-0.71h0.68v-1.66h0.76v1.66h0.83V157.63z"/>
		<path class="st0" d="M136.81,155.61c0-0.27,0.22-0.49,0.51-0.49c0.29,0,0.51,0.22,0.51,0.49c0,0.27-0.21,0.49-0.51,0.49
			C137.03,156.1,136.81,155.88,136.81,155.61z M136.94,156.93h0.76v3.36h-0.76V156.93z"/>
		<path class="st0" d="M139.25,158.61c0-1.01,0.79-1.79,1.81-1.79c1.01,0,1.81,0.79,1.81,1.79c0,1.01-0.8,1.8-1.81,1.8
			C140.04,160.41,139.25,159.61,139.25,158.61z M142.12,158.61c0-0.59-0.47-1.07-1.06-1.07c-0.6,0-1.06,0.48-1.06,1.07
			c0,0.6,0.46,1.07,1.06,1.07C141.65,159.67,142.12,159.21,142.12,158.61z"/>
		<path class="st0" d="M147.2,157.92v2.37h-0.76v-2.13c0-0.42-0.22-0.61-0.55-0.61c-0.29,0-0.56,0.19-0.77,0.54v2.2h-0.76v-3.36
			h0.72l0.02,0.44c0.28-0.34,0.59-0.55,1.04-0.55C146.78,156.82,147.2,157.22,147.2,157.92z"/>
		<path class="st0" d="M148.64,159.79l0.42-0.43c0,0,0.36,0.44,0.82,0.44c0.3,0,0.43-0.17,0.43-0.38c0-0.24-0.19-0.39-0.59-0.56
			c-0.54-0.23-0.95-0.55-0.95-1.07c0-0.57,0.48-0.97,1.14-0.97c0.67,0,1.06,0.39,1.06,0.39l-0.38,0.5c0,0-0.29-0.28-0.67-0.28
			c-0.29,0-0.43,0.15-0.43,0.33c0,0.22,0.17,0.36,0.54,0.51c0.57,0.24,0.99,0.55,0.99,1.11c0,0.6-0.48,1.04-1.15,1.04
			C149.05,160.41,148.64,159.79,148.64,159.79z"/>
		<path class="st0" d="M158.77,159.52v0.77h-3.1v-5.37h2.87v0.76h-2.04v1.46h2.23v0.71h-2.23v1.66H158.77z"/>
		<path class="st0" d="M163.74,156.93v3.36h-0.72l-0.02-0.53c-0.25,0.39-0.64,0.64-1.19,0.64c-0.96,0-1.7-0.79-1.7-1.8
			c0-1.01,0.74-1.79,1.7-1.79c0.54,0,0.94,0.24,1.19,0.63l0.02-0.52H163.74z M162.98,158.61c0-0.59-0.47-1.07-1.06-1.07
			c-0.6,0-1.06,0.48-1.06,1.07c0,0.6,0.46,1.07,1.06,1.07C162.51,159.67,162.98,159.21,162.98,158.61z"/>
		<path class="st0" d="M165.23,159.79l0.42-0.43c0,0,0.36,0.44,0.82,0.44c0.3,0,0.43-0.17,0.43-0.38c0-0.24-0.19-0.39-0.59-0.56
			c-0.54-0.23-0.95-0.55-0.95-1.07c0-0.57,0.48-0.97,1.14-0.97c0.67,0,1.06,0.39,1.06,0.39l-0.38,0.5c0,0-0.29-0.28-0.67-0.28
			c-0.29,0-0.43,0.15-0.43,0.33c0,0.22,0.17,0.36,0.54,0.51c0.57,0.24,0.99,0.55,0.99,1.11c0,0.6-0.48,1.04-1.15,1.04
			C165.64,160.41,165.23,159.79,165.23,159.79z"/>
		<path class="st0" d="M172.07,156.93l-2.09,5.03h-0.77l0.78-1.84l-1.32-3.18h0.85l0.88,2.26l0.91-2.26H172.07z"/>
	</g>
	<g>
		<path class="st1" d="M98.74,76.38c0.03,1.63-0.06,3.28,0.25,4.89c0.78,4.29,2.73,8.4,5.73,11.59c1.17,1.27,2.52,2.35,3.9,3.38
			v-3.14c-4.37-3.55-7.09-8.81-7.36-14.22l7.29,0c0.02,0,0.04,0,0.06,0v-2.5C105.32,76.38,102.03,76.38,98.74,76.38z"/>
		<path class="st1" d="M102.96,80.43l0.11,0.56c0.74,3.69,2.69,7.22,5.54,10.11v-5.7c-0.43,0-0.85,0-1.28,0
			c-0.44-0.8-0.81-1.63-1.13-2.48c0.8,0,1.61,0,2.41,0v-2.48c-1.7,0-3.39-0.01-5.09,0L102.96,80.43z"/>
		<path class="st1" d="M100.81,92.07c-2.56-3.62-4.15-7.92-4.55-12.33c-0.08-1.95-0.04-3.9-0.07-5.84c4.14,0,8.28,0,12.42,0v-2.5
			c-0.46,0-0.91,0-1.37,0c-3.53,0-7.07,0-10.6,0c0-0.52-0.01-1.04-0.01-1.55c3.99,0,7.98,0,11.98,0V53.72H92.65
			c-1.5,9.05-11.2,7.43-11.2,7.43c0,46.48,26.95,54.16,26.95,54.16s0.07-0.02,0.21-0.06V99.19
			C105.56,97.38,102.87,94.97,100.81,92.07z"/>
		<path class="st2" d="M116.5,76.38c-2.63,0-5.26,0-7.89,0v2.5c3.31,0,6.63,0,9.94,0l0.47,0v-0.47c0-2.18,0-4.37,0-6.55l0-0.47
			l-0.47,0c-3.31,0-6.62,0-9.93,0v2.5c2.63,0,5.27,0,7.9,0C116.51,74.72,116.5,75.55,116.5,76.38z"/>
		<path class="st2" d="M124.16,53.72h-15.54v16.12c4,0,8,0,12,0l-0.01,3.38c0,2.41-0.01,4.82-0.01,7.23c-2.5,0-4.99,0-7.49-0.01
			c-1.5,0-2.99,0-4.49,0v2.48c3.95,0,7.91,0,11.86-0.01c-1.46,6.77-5.87,12.81-11.85,16.29c0,0-0.01,0-0.01-0.01v16.06
			c2.5-0.83,26.74-10.03,26.74-54.1C135.35,61.15,125.66,62.77,124.16,53.72z"/>
		<path class="st2" d="M108.62,96.25c3.83-2.67,6.9-6.45,8.5-10.85c-2.84-0.01-5.67,0-8.51,0v5.7c0.36,0.36,0.72,0.72,1.11,1.06
			c-0.36,0.33-0.72,0.65-1.1,0.95c0,0-0.01-0.01-0.01-0.01v3.14C108.62,96.25,108.62,96.25,108.62,96.25z"/>
	</g>
</g>
</svg>
