<?xml version="1.0" encoding="utf-8"?>
<!-- Generator: Adobe Illustrator 26.0.1, SVG Export Plug-In . SVG Version: 6.00 Build 0)  -->
<svg version="1.1" id="Layer_1" xmlns="http://www.w3.org/2000/svg" xmlns:xlink="http://www.w3.org/1999/xlink" x="0px" y="0px"
	 viewBox="0 0 216 58.21" style="enable-background:new 0 0 216 58.21;" xml:space="preserve">
<style type="text/css">
	.st0{fill:#FFFFFF;}
	.st1{fill:#41AE49;}
	.st2{fill:#309646;}
</style>
<g>
	<g>
		<g>
			<g>
				<path class="st0" d="M73,33.99c-0.61,0.87-1.59,1.64-2.92,2.31c-1.34,0.68-3.07,1.02-5.18,1.02c-2.63,0-4.79-0.85-6.48-2.54
					c-1.69-1.69-2.54-3.89-2.54-6.57v-4.64c0-2.69,0.82-4.88,2.46-6.57c1.64-1.69,3.75-2.54,6.32-2.54c2.58,0,4.6,0.65,6.05,1.95
					c1.45,1.3,2.15,3,2.11,5.1l-0.05,0.09h-3.53c0-1.25-0.39-2.26-1.17-3.02c-0.78-0.76-1.9-1.15-3.35-1.15
					c-1.54,0-2.78,0.58-3.72,1.73c-0.94,1.15-1.41,2.61-1.41,4.38v4.67c0,1.79,0.49,3.27,1.47,4.42c0.98,1.16,2.26,1.73,3.84,1.73
					c1.19,0,2.13-0.13,2.82-0.4c0.69-0.27,1.22-0.6,1.57-0.99v-4.6h-4.66v-2.78H73V33.99z"/>
				<path class="st0" d="M89.11,31.8h-7.88L79.52,37h-3.83l7.76-22.23h3.53L94.63,37H90.8L89.11,31.8z M82.25,28.71h5.85l-2.85-8.76
					h-0.09L82.25,28.71z"/>
				<path class="st0" d="M108.63,31.87h0.09l6.43-17.1h4.73V37h-3.71V21.03l-0.09-0.02L109.96,37h-2.55l-6.23-16.29l-0.09,0.03V37
					h-3.71V14.77h4.87L108.63,31.87z"/>
				<path class="st0" d="M128.59,37h-3.71V14.77h3.71V37z"/>
				<path class="st0" d="M150.93,37h-3.71l-9.85-16.02l-0.09,0.03V37h-3.71V14.77h3.71l9.85,16.02l0.09-0.03V14.77h3.71V37z"/>
				<path class="st0" d="M172.07,33.99c-0.61,0.87-1.59,1.64-2.92,2.31c-1.34,0.68-3.07,1.02-5.18,1.02c-2.63,0-4.79-0.85-6.48-2.54
					c-1.69-1.69-2.54-3.89-2.54-6.57v-4.64c0-2.69,0.82-4.88,2.46-6.57c1.64-1.69,3.75-2.54,6.32-2.54c2.59,0,4.6,0.65,6.05,1.95
					c1.45,1.3,2.15,3,2.11,5.1l-0.05,0.09h-3.53c0-1.25-0.39-2.26-1.17-3.02c-0.78-0.76-1.9-1.15-3.35-1.15
					c-1.54,0-2.78,0.58-3.72,1.73c-0.94,1.15-1.41,2.61-1.41,4.38v4.67c0,1.79,0.49,3.27,1.47,4.42c0.98,1.16,2.26,1.73,3.84,1.73
					c1.19,0,2.13-0.13,2.82-0.4s1.22-0.6,1.57-0.99v-4.6h-4.66v-2.78h8.37V33.99z"/>
				<path class="st0" d="M181.2,29.38V37h-5.16V14.77h8.49c2.64,0,4.73,0.67,6.27,2.02c1.55,1.34,2.32,3.11,2.32,5.3
					c0,2.19-0.77,3.95-2.32,5.29c-1.55,1.34-3.64,2.01-6.27,2.01H181.2z M181.2,25.41h3.33c1.12,0,1.97-0.31,2.57-0.92
					c0.59-0.62,0.89-1.41,0.89-2.37c0-0.99-0.29-1.8-0.88-2.43c-0.59-0.63-1.44-0.95-2.57-0.95h-3.33V25.41z"/>
				<path class="st0" d="M208.98,27.48h-7.83v5.54h9.39V37h-14.55V14.77h14.57v3.97h-9.41v4.78h7.83V27.48z"/>
			</g>
		</g>
		<g>
			<path class="st0" d="M56.62,40.48h0.84l2.56,5.03l2.55-5.03h0.79v6.55h-0.99V42.8l-2.17,4.23h-0.41l-2.17-4.23v4.23h-1V40.48z"/>
			<path class="st0" d="M69.74,42.93v4.11h-0.88l-0.03-0.65c-0.3,0.48-0.78,0.78-1.45,0.78c-1.17,0-2.08-0.97-2.08-2.2
				c0-1.23,0.9-2.19,2.08-2.19c0.66,0,1.14,0.3,1.45,0.77l0.03-0.64H69.74z M68.82,44.97c0-0.72-0.57-1.3-1.29-1.3
				c-0.73,0-1.29,0.58-1.29,1.3c0,0.73,0.56,1.3,1.29,1.3C68.25,46.28,68.82,45.7,68.82,44.97z"/>
			<path class="st0" d="M74.2,47.03l-1.41-1.85v1.85h-0.92V40.2h0.92v4.39l1.33-1.67h1.1l-1.63,1.92l1.73,2.19H74.2z"/>
			<path class="st0" d="M80.71,45.13h-3.39c0.07,0.68,0.6,1.17,1.28,1.17c0.53,0,0.95-0.3,1.14-0.66l0.8,0.36
				c-0.36,0.68-1.07,1.16-1.95,1.16c-1.25,0-2.21-0.97-2.21-2.2c0-1.23,0.95-2.19,2.19-2.19c1.25,0,2.15,0.94,2.15,2.09
				C80.73,45.02,80.71,45.13,80.71,45.13z M77.39,44.45h2.36c-0.17-0.54-0.58-0.87-1.17-0.87C78.02,43.58,77.56,43.9,77.39,44.45z"
				/>
			<path class="st0" d="M92.72,43.85c0,1.87-1.37,3.32-3.28,3.32c-1.94,0-3.44-1.49-3.44-3.41c0-1.92,1.51-3.41,3.49-3.41
				c1.01,0,1.87,0.38,2.48,0.98l-0.66,0.71c-0.44-0.44-1.08-0.73-1.82-0.73c-1.41,0-2.47,1.07-2.47,2.45c0,1.37,1.06,2.45,2.43,2.45
				c1.15,0,1.98-0.72,2.23-1.73h-3.42v-0.91h4.45C92.7,43.57,92.72,43.71,92.72,43.85z"/>
			<path class="st0" d="M98.74,42.93v4.11h-0.88l-0.03-0.65c-0.3,0.48-0.78,0.78-1.45,0.78c-1.17,0-2.08-0.97-2.08-2.2
				c0-1.23,0.9-2.19,2.08-2.19c0.66,0,1.14,0.3,1.45,0.77l0.03-0.64H98.74z M97.82,44.97c0-0.72-0.57-1.3-1.29-1.3
				c-0.73,0-1.29,0.58-1.29,1.3c0,0.73,0.56,1.3,1.29,1.3C97.25,46.28,97.82,45.7,97.82,44.97z"/>
			<path class="st0" d="M106.86,44.13v2.9h-0.92v-2.6c0-0.52-0.27-0.75-0.67-0.75c-0.35,0-0.68,0.23-0.94,0.66v2.68h-0.92v-2.6
				c0-0.52-0.27-0.75-0.67-0.75c-0.35,0-0.68,0.23-0.94,0.66v2.68h-0.92v-4.11h0.88l0.03,0.54c0.34-0.42,0.72-0.67,1.26-0.67
				c0.58,0,1.02,0.28,1.2,0.77c0.36-0.48,0.76-0.77,1.34-0.77C106.34,42.79,106.86,43.28,106.86,44.13z"/>
			<path class="st0" d="M108.82,41.31c0-0.33,0.27-0.6,0.63-0.6s0.62,0.27,0.62,0.6c0,0.33-0.26,0.6-0.62,0.6
				S108.82,41.64,108.82,41.31z M108.99,42.93h0.92v4.11h-0.92V42.93z"/>
			<path class="st0" d="M115.56,44.13v2.9h-0.92v-2.6c0-0.52-0.27-0.75-0.67-0.75c-0.35,0-0.68,0.23-0.94,0.66v2.68h-0.92v-4.11
				h0.88l0.03,0.54c0.34-0.42,0.72-0.67,1.26-0.67C115.04,42.79,115.56,43.28,115.56,44.13z"/>
			<path class="st0" d="M121.75,42.93v4.18c0,1.28-0.96,2.09-2.2,2.09c-1.17,0-2.08-0.71-2.08-1.72h0.92c0,0.52,0.49,0.9,1.16,0.9
				c0.71,0,1.26-0.47,1.26-1.27v-0.77c-0.3,0.46-0.77,0.75-1.43,0.75c-1.17,0-2.08-0.96-2.08-2.15c0-1.18,0.9-2.14,2.08-2.14
				c0.66,0,1.14,0.3,1.45,0.77l0.03-0.63H121.75z M120.82,44.96c0-0.73-0.57-1.3-1.29-1.3c-0.73,0-1.29,0.57-1.29,1.3
				c0,0.72,0.56,1.3,1.29,1.3C120.25,46.26,120.82,45.68,120.82,44.96z"/>
			<path class="st0" d="M131.62,41.44h-1.75v5.59h-1.02v-5.59h-1.75v-0.96h4.52V41.44z"/>
			<path class="st0" d="M135.61,43.7l-0.84,0.34c-0.14-0.28-0.31-0.41-0.54-0.41c-0.28,0-0.51,0.18-0.77,0.73v2.68h-0.92v-4.11h0.88
				l0.03,0.5c0.31-0.44,0.61-0.64,1.02-0.64C135.04,42.79,135.4,43.14,135.61,43.7z"/>
			<path class="st0" d="M141.13,42.93v4.11h-0.88l-0.03-0.65c-0.3,0.48-0.78,0.78-1.45,0.78c-1.17,0-2.08-0.97-2.08-2.2
				c0-1.23,0.9-2.19,2.08-2.19c0.66,0,1.14,0.3,1.45,0.77l0.03-0.64H141.13z M140.2,44.97c0-0.72-0.57-1.3-1.29-1.3
				c-0.73,0-1.29,0.58-1.29,1.3c0,0.73,0.56,1.3,1.29,1.3C139.63,46.28,140.2,45.7,140.2,44.97z"/>
			<path class="st0" d="M146.71,44.13v2.9h-0.92v-2.6c0-0.52-0.27-0.75-0.67-0.75c-0.35,0-0.68,0.23-0.94,0.66v2.68h-0.92v-4.11
				h0.88l0.03,0.54c0.34-0.42,0.72-0.67,1.26-0.67C146.19,42.79,146.71,43.28,146.71,44.13z"/>
			<path class="st0" d="M148.46,46.41l0.52-0.53c0,0,0.44,0.53,1.01,0.53c0.36,0,0.53-0.21,0.53-0.46c0-0.3-0.23-0.47-0.72-0.68
				c-0.66-0.28-1.15-0.67-1.15-1.31c0-0.69,0.58-1.18,1.39-1.18c0.82,0,1.29,0.47,1.29,0.47l-0.46,0.61c0,0-0.36-0.34-0.81-0.34
				c-0.36,0-0.53,0.18-0.53,0.41c0,0.27,0.21,0.43,0.66,0.62c0.69,0.3,1.21,0.67,1.21,1.36c0,0.73-0.58,1.26-1.4,1.26
				C148.96,47.17,148.46,46.41,148.46,46.41z"/>
			<path class="st0" d="M157.34,42.93v4.11h-0.88l-0.03-0.65c-0.3,0.48-0.78,0.78-1.45,0.78c-1.17,0-2.08-0.97-2.08-2.2
				c0-1.23,0.9-2.19,2.08-2.19c0.66,0,1.14,0.3,1.45,0.77l0.03-0.64H157.34z M156.42,44.97c0-0.72-0.57-1.3-1.29-1.3
				c-0.73,0-1.29,0.58-1.29,1.3c0,0.73,0.56,1.3,1.29,1.3C155.85,46.28,156.42,45.7,156.42,44.97z"/>
			<path class="st0" d="M159.17,44.97c0-1.23,0.97-2.19,2.21-2.19c0.76,0,1.38,0.37,1.78,0.91l-0.74,0.51
				c-0.24-0.32-0.6-0.54-1.04-0.54c-0.73,0-1.29,0.58-1.29,1.3c0,0.73,0.56,1.3,1.29,1.3c0.47,0,0.86-0.23,1.08-0.59l0.77,0.45
				c-0.39,0.61-1.04,1.03-1.85,1.03C160.13,47.17,159.17,46.2,159.17,44.97z"/>
			<path class="st0" d="M167.3,43.78h-1.02v3.25h-0.92v-3.25h-0.83v-0.87h0.83V40.9h0.92v2.02h1.02V43.78z"/>
			<path class="st0" d="M168.96,41.31c0-0.33,0.27-0.6,0.63-0.6s0.62,0.27,0.62,0.6c0,0.33-0.26,0.6-0.62,0.6
				S168.96,41.64,168.96,41.31z M169.13,42.93h0.92v4.11h-0.92V42.93z"/>
			<path class="st0" d="M171.94,44.97c0-1.23,0.97-2.19,2.21-2.19c1.24,0,2.21,0.96,2.21,2.19c0,1.23-0.98,2.2-2.21,2.2
				C172.91,47.17,171.94,46.2,171.94,44.97z M175.45,44.97c0-0.72-0.57-1.3-1.29-1.3c-0.73,0-1.29,0.58-1.29,1.3
				c0,0.73,0.56,1.3,1.29,1.3C174.88,46.28,175.45,45.7,175.45,44.97z"/>
			<path class="st0" d="M181.65,44.13v2.9h-0.92v-2.6c0-0.52-0.27-0.75-0.67-0.75c-0.35,0-0.68,0.23-0.94,0.66v2.68h-0.92v-4.11
				h0.88l0.03,0.54c0.34-0.42,0.72-0.67,1.26-0.67C181.13,42.79,181.65,43.28,181.65,44.13z"/>
			<path class="st0" d="M183.4,46.41l0.52-0.53c0,0,0.44,0.53,1.01,0.53c0.36,0,0.53-0.21,0.53-0.46c0-0.3-0.23-0.47-0.72-0.68
				c-0.66-0.28-1.15-0.67-1.15-1.31c0-0.69,0.58-1.18,1.39-1.18c0.82,0,1.29,0.47,1.29,0.47l-0.46,0.61c0,0-0.36-0.34-0.81-0.34
				c-0.36,0-0.53,0.18-0.53,0.41c0,0.27,0.21,0.43,0.66,0.62c0.69,0.3,1.21,0.67,1.21,1.36c0,0.73-0.58,1.26-1.4,1.26
				C183.9,47.17,183.4,46.41,183.4,46.41z"/>
			<path class="st0" d="M195.76,46.09v0.94h-3.78v-6.55h3.51v0.93h-2.49v1.78h2.72v0.87h-2.72v2.03H195.76z"/>
			<path class="st0" d="M201.83,42.93v4.11h-0.88l-0.03-0.65c-0.3,0.48-0.78,0.78-1.45,0.78c-1.17,0-2.08-0.97-2.08-2.2
				c0-1.23,0.9-2.19,2.08-2.19c0.66,0,1.14,0.3,1.45,0.77l0.03-0.64H201.83z M200.9,44.97c0-0.72-0.57-1.3-1.29-1.3
				c-0.73,0-1.29,0.58-1.29,1.3c0,0.73,0.56,1.3,1.29,1.3C200.33,46.28,200.9,45.7,200.9,44.97z"/>
			<path class="st0" d="M203.64,46.41l0.52-0.53c0,0,0.44,0.53,1.01,0.53c0.36,0,0.53-0.21,0.53-0.46c0-0.3-0.23-0.47-0.72-0.68
				c-0.66-0.28-1.15-0.67-1.15-1.31c0-0.69,0.58-1.18,1.39-1.18c0.82,0,1.29,0.47,1.29,0.47l-0.46,0.61c0,0-0.36-0.34-0.81-0.34
				c-0.36,0-0.53,0.18-0.53,0.41c0,0.27,0.21,0.43,0.66,0.62c0.69,0.3,1.21,0.67,1.21,1.36c0,0.73-0.58,1.26-1.4,1.26
				C204.15,47.17,203.64,46.41,203.64,46.41z"/>
			<path class="st0" d="M211.99,42.93l-2.55,6.14h-0.94l0.95-2.25l-1.61-3.88h1.03l1.08,2.76l1.11-2.76H211.99z"/>
		</g>
	</g>
	<g>
		<path class="st1" d="M19.66,23.84c0.02,1.18-0.04,2.37,0.18,3.54c0.57,3.11,1.98,6.08,4.15,8.39c0.84,0.92,1.82,1.7,2.82,2.45
			v-2.27c-3.16-2.57-5.13-6.37-5.33-10.3l5.28,0c0.02,0,0.03,0,0.05,0v-1.81C24.43,23.84,22.04,23.84,19.66,23.84z"/>
		<path class="st1" d="M22.72,26.77l0.08,0.4c0.54,2.67,1.95,5.22,4.01,7.32v-4.13c-0.31,0-0.62,0-0.93,0
			c-0.32-0.58-0.59-1.18-0.82-1.8c0.58,0,1.16,0,1.74,0v-1.8c-1.23,0-2.45,0-3.68,0L22.72,26.77z"/>
		<path class="st1" d="M21.17,35.19c-1.85-2.62-3-5.73-3.29-8.93c-0.06-1.41-0.03-2.82-0.05-4.23c3,0,5.99,0,8.99,0v-1.81
			c-0.33,0-0.66,0-0.99,0c-2.56,0-5.11,0-7.67,0c0-0.37-0.01-0.75-0.01-1.12c2.89,0,5.78,0,8.67,0V7.43H15.26
			c-1.09,6.55-8.1,5.38-8.1,5.38c0,33.64,19.51,39.2,19.51,39.2s0.05-0.01,0.15-0.04V40.34C24.6,39.04,22.65,37.29,21.17,35.19z"/>
		<path class="st2" d="M32.52,23.83c-1.9,0-3.81,0-5.71,0v1.81c2.4,0,4.8,0,7.19,0l0.34,0v-0.34c0-1.58,0-3.16,0-4.74l0-0.34
			l-0.34,0c-2.4,0-4.79,0-7.19,0v1.81c1.91,0,3.81,0,5.72,0C32.52,22.63,32.52,23.23,32.52,23.83z"/>
		<path class="st2" d="M38.06,7.43H26.81V19.1c2.9,0,5.79,0,8.69,0l0,2.45c0,1.74-0.01,3.49-0.01,5.23c-1.81,0-3.61,0-5.42-0.01
			c-1.08,0-2.17,0-3.25,0v1.8c2.86,0,5.73,0,8.59-0.01c-1.06,4.9-4.25,9.27-8.58,11.79c0,0,0,0-0.01,0v11.63
			c1.81-0.6,19.35-7.26,19.35-39.16C46.16,12.81,39.15,13.98,38.06,7.43z"/>
		<path class="st2" d="M26.82,38.22c2.77-1.93,4.99-4.67,6.15-7.85c-2.05,0-4.11,0-6.16,0v4.13c0.26,0.26,0.52,0.52,0.8,0.77
			c-0.26,0.24-0.52,0.47-0.8,0.69c0,0,0,0-0.01-0.01L26.82,38.22C26.81,38.21,26.81,38.22,26.82,38.22z"/>
	</g>
</g>
</svg>
