<?xml version="1.0" encoding="utf-8"?>
<!-- Generator: Adobe Illustrator 26.0.1, SVG Export Plug-In . SVG Version: 6.00 Build 0)  -->
<svg version="1.1" id="Layer_1" xmlns="http://www.w3.org/2000/svg" xmlns:xlink="http://www.w3.org/1999/xlink" x="0px" y="0px"
	 viewBox="0 0 216 70.17" style="enable-background:new 0 0 216 70.17;" xml:space="preserve">
<style type="text/css">
	.st0{fill-rule:evenodd;clip-rule:evenodd;fill:#097939;}
	.st1{fill-rule:evenodd;clip-rule:evenodd;fill:#ED752E;}
	.st2{fill-rule:evenodd;clip-rule:evenodd;fill:#FFFFFF;}
	.st3{fill:#FFFFFF;}
	.st4{fill:#F37920;}
	.st5{fill:#028C44;}
	.st6{fill:#FEFEFE;}
	.st7{fill:#F6931A;}
	.st8{fill:#8891B1;}
	.st9{fill:#63688E;}
	.st10{fill:#464A75;}
	.st11{fill:#27A17C;}
	.st12{fill:#FBFEFD;}
</style>
<g>
	<path class="st3" d="M210.24,36.96c-0.17,0.58-0.16,1.2-0.29,1.79c-0.57,2.81-1.31,5.58-1.96,8.37c-0.64,2.74-1.32,5.47-1.97,8.2
		c-0.06,0.25-0.15,0.31-0.4,0.31c-2.46-0.01-4.93-0.01-7.39,0c-0.32,0-0.32-0.1-0.26-0.37c1.18-4.93,2.35-9.85,3.51-14.78
		c0.26-1.1,0.48-2.21,0.55-3.33c0.07-1.05-0.03-2.07-0.8-2.91c-0.53-0.57-1.22-0.79-1.97-0.85c-1.24-0.1-2.47,0.03-3.69,0.24
		c-0.22,0.04-0.26,0.17-0.3,0.36c-0.69,2.89-1.38,5.78-2.07,8.67c-1.01,4.22-2.02,8.43-3.02,12.65c-0.05,0.19-0.08,0.33-0.34,0.33
		c-2.54-0.01-5.08-0.01-7.63-0.01c-0.04,0-0.08-0.01-0.15-0.03c0.24-1,0.47-1.99,0.71-2.98c1.91-7.89,3.82-15.78,5.72-23.67
		c0.07-0.29,0.19-0.43,0.48-0.52c2.14-0.68,4.3-1.29,6.54-1.54c2.74-0.31,5.49-0.51,8.22,0.12c3.8,0.88,6.04,3.47,6.42,7.36
		c0.01,0.07-0.02,0.16,0.07,0.21C210.24,35.37,210.24,36.17,210.24,36.96z"/>
	<path class="st7" d="M27.12,56.38C15.15,56.34,5.63,46.8,5.76,34.81c0.12-12,9.97-21.19,21.57-21.04
		c12.13,0.16,21.15,10.05,21.1,21.37C48.37,46.89,38.83,56.41,27.12,56.38z M33.54,35.47c0.79-0.22,1.45-0.55,1.97-1.13
		c1.58-1.77,1.35-4.55-0.5-6.04c-0.85-0.68-1.82-1.14-2.84-1.5c-0.29-0.1-0.36-0.22-0.28-0.52c0.28-1.05,0.52-2.11,0.8-3.16
		c0.06-0.24,0.03-0.32-0.22-0.38c-0.58-0.13-1.16-0.28-1.74-0.44c-0.25-0.07-0.34,0.02-0.4,0.27c-0.25,1.05-0.52,2.08-0.77,3.13
		c-0.05,0.22-0.12,0.27-0.35,0.21c-0.42-0.12-0.85-0.22-1.28-0.3c-0.24-0.05-0.32-0.12-0.24-0.39c0.28-1.04,0.52-2.08,0.79-3.12
		c0.06-0.24,0.03-0.36-0.24-0.41c-0.57-0.12-1.14-0.27-1.7-0.43c-0.27-0.08-0.36,0.01-0.42,0.27c-0.25,1.07-0.54,2.14-0.79,3.21
		c-0.06,0.25-0.14,0.28-0.38,0.22c-1.36-0.35-2.73-0.67-4.1-1.02c-0.26-0.07-0.35-0.01-0.41,0.24c-0.14,0.61-0.29,1.21-0.45,1.81
		c-0.08,0.28-0.03,0.4,0.27,0.46c0.51,0.1,1.01,0.23,1.5,0.39c0.77,0.25,1.05,0.8,0.86,1.58c-0.41,1.65-0.82,3.29-1.23,4.94
		c-0.42,1.7-0.85,3.4-1.27,5.1c-0.16,0.64-0.5,0.87-1.13,0.75c-0.47-0.09-0.94-0.2-1.39-0.34c-0.26-0.08-0.34,0-0.44,0.22
		c-0.29,0.7-0.59,1.39-0.9,2.08c-0.11,0.25-0.08,0.32,0.19,0.39c1.33,0.32,2.65,0.67,3.98,0.99c0.36,0.08,0.42,0.21,0.32,0.56
		c-0.28,1-0.51,2.01-0.77,3.01c-0.08,0.32-0.09,0.49,0.32,0.56c0.54,0.08,1.06,0.23,1.59,0.39c0.28,0.08,0.36,0.01,0.43-0.26
		c0.24-1.05,0.52-2.08,0.77-3.13c0.07-0.31,0.2-0.37,0.49-0.28c0.37,0.12,0.74,0.21,1.12,0.29c0.29,0.06,0.36,0.17,0.28,0.46
		c-0.28,1.04-0.52,2.09-0.79,3.12c-0.07,0.26-0.05,0.37,0.24,0.43c0.56,0.11,1.11,0.25,1.66,0.42c0.3,0.09,0.39-0.01,0.45-0.29
		c0.25-1.06,0.53-2.11,0.78-3.17c0.06-0.24,0.11-0.35,0.41-0.29c1.07,0.21,2.16,0.31,3.25,0.27c2.32-0.1,3.84-1.19,4.64-3.37
		c0.12-0.32,0.22-0.65,0.29-0.99c0.31-1.47,0.1-2.8-1.06-3.87C34.47,36.04,34.03,35.77,33.54,35.47z"/>
	<path class="st3" d="M67.17,13.77c-1.12,4.64-2.22,9.23-3.34,13.88c0.56-0.2,1.04-0.41,1.54-0.54c3.6-0.94,6.92-0.5,9.75,2.09
		c1.64,1.5,2.53,3.45,2.89,5.6c1.18,7.16-0.93,13.19-6.57,17.83c-3.14,2.59-6.86,3.75-10.95,3.75c-2.83,0-5.6-0.33-8.32-1.08
		c-0.82-0.23-1.61-0.54-2.4-0.86c-0.29-0.12-0.32-0.27-0.26-0.54c0.89-3.7,1.77-7.4,2.65-11.11c2.17-9.11,4.35-18.21,6.51-27.32
		c0.07-0.29,0.17-0.42,0.5-0.47C61.84,14.61,64.47,14.19,67.17,13.77z M60.89,49.74c0.9,0.03,1.85-0.06,2.76-0.38
		c2.25-0.8,3.87-2.34,5.03-4.37c1.59-2.77,2.1-5.73,1.35-8.86c-0.29-1.2-0.88-2.24-2.18-2.56c-1.92-0.46-3.74-0.19-5.4,0.94
		c-0.22,0.15-0.33,0.35-0.39,0.61c-0.32,1.38-0.66,2.76-0.99,4.14c-0.8,3.32-1.6,6.65-2.41,9.97c-0.05,0.22-0.04,0.31,0.23,0.37
		C59.52,49.73,60.17,49.75,60.89,49.74z"/>
	<path class="st3" d="M167.33,38.45c-0.11,4.2-1.22,8.28-3.91,11.83c-2.34,3.09-5.36,5.18-9.24,5.85c-2.43,0.42-4.86,0.39-7.22-0.4
		c-3.43-1.15-5.47-3.61-6.37-7.03c-0.89-3.37-0.58-6.72,0.41-10.02c1.07-3.59,3.01-6.63,5.95-8.99c3.14-2.52,6.72-3.49,10.7-3.11
		c1.96,0.19,3.78,0.74,5.39,1.88c2.04,1.45,3.18,3.48,3.81,5.85C167.2,35.6,167.31,36.92,167.33,38.45z M159.34,39.13
		c-0.03-1.24-0.12-2.33-0.46-3.4c-0.44-1.34-1.29-2.18-2.74-2.38c-2-0.27-3.67,0.39-4.95,1.89c-2.88,3.39-3.63,7.32-2.73,11.59
		c0.28,1.31,1.01,2.31,2.42,2.62c0.83,0.18,1.66,0.18,2.49-0.02c1.62-0.4,2.74-1.48,3.66-2.78
		C158.65,44.36,159.25,41.75,159.34,39.13z"/>
	<path class="st3" d="M111.67,48.68c0.16,1.67,0.32,3.3,0.48,4.92c0.01,0.07,0.01,0.13,0.01,0.2c0.1,1.04,0.09,1.03-0.93,1.37
		c-3.12,1.05-6.31,1.34-9.57,0.93c-2-0.25-3.79-0.93-5.15-2.49c-0.97-1.11-1.43-2.44-1.61-3.88c-0.29-2.32,0.06-4.59,0.59-6.83
		c1.75-7.46,3.53-14.92,5.3-22.38c0.06-0.27,0.18-0.35,0.44-0.39c2.5-0.37,4.99-0.76,7.49-1.16c0.53-0.08,0.53-0.09,0.4,0.41
		c-0.6,2.46-1.21,4.92-1.82,7.38c-0.12,0.49-0.12,0.49,0.37,0.49c2.69,0,5.38,0.01,8.07-0.01c0.34,0,0.42,0.05,0.33,0.4
		c-0.5,1.95-0.98,3.91-1.44,5.87c-0.07,0.29-0.2,0.33-0.46,0.33c-2.73-0.01-5.46,0-8.19-0.01c-0.25,0-0.38,0.04-0.44,0.31
		c-0.81,3.42-1.63,6.84-2.44,10.26c-0.18,0.75-0.26,1.52-0.22,2.29c0.07,1.6,0.93,2.56,2.52,2.79c1.81,0.26,3.58-0.01,5.32-0.51
		C111.02,48.89,111.32,48.78,111.67,48.68z"/>
	<path class="st3" d="M128.64,56.37c-2.59,0.01-4.74-0.27-6.75-1.24c-3.17-1.53-5.11-4.04-5.73-7.48c-1-5.54,0.08-10.66,3.58-15.13
		c2.49-3.19,5.83-5.07,9.82-5.74c3.64-0.62,7.21-0.31,10.63,1.17c0.47,0.2,0.47,0.21,0.27,0.67c-0.81,1.83-1.62,3.66-2.42,5.5
		c-0.11,0.25-0.21,0.3-0.46,0.19c-1.49-0.6-3.01-1.02-4.64-1.03c-4.02-0.02-7.07,2.15-8.24,6c-0.67,2.21-0.86,4.47-0.25,6.72
		c0.63,2.36,2.05,3.44,4.49,3.55c2.06,0.1,4.06-0.22,5.98-0.96c0.28-0.11,0.39-0.11,0.42,0.24c0.16,1.89,0.34,3.78,0.53,5.67
		c0.03,0.27-0.04,0.39-0.31,0.49C133.21,55.87,130.79,56.45,128.64,56.37z"/>
	<path class="st3" d="M182.84,27.27c-0.3,1.27-0.6,2.54-0.91,3.8c-1.93,8.05-3.87,16.09-5.78,24.14c-0.08,0.34-0.21,0.43-0.54,0.43
		c-2.4-0.02-4.79-0.01-7.19,0c-0.3,0-0.38-0.03-0.3-0.36c2.2-9.22,4.4-18.45,6.59-27.67c0.05-0.2,0.07-0.36,0.36-0.36
		c2.53,0.01,5.06,0.01,7.59,0.01C182.7,27.25,182.75,27.26,182.84,27.27z"/>
	<path class="st3" d="M93.85,27.27c-0.33,1.38-0.65,2.74-0.98,4.11c-1.91,7.95-3.82,15.91-5.72,23.87c-0.07,0.3-0.18,0.39-0.49,0.39
		c-2.41-0.02-4.82-0.01-7.23,0c-0.3,0-0.38-0.04-0.3-0.37c2.2-9.22,4.39-18.44,6.59-27.67c0.05-0.19,0.07-0.36,0.36-0.36
		c2.53,0.01,5.06,0.01,7.59,0.01C93.71,27.25,93.76,27.26,93.85,27.27z"/>
	<path class="st3" d="M175.55,19.75c0.09-2.15,1.09-3.77,2.99-4.78c1.88-1,3.76-0.92,5.54,0.3c0.89,0.61,1.3,1.5,1.39,2.53
		c0.17,2.13-0.66,3.82-2.41,5.02c-1.7,1.16-3.52,1.34-5.4,0.44C176.17,22.56,175.52,21.35,175.55,19.75z"/>
	<path class="st3" d="M86.56,19.73c0.09-2.16,1.1-3.77,3-4.77c1.88-0.99,3.76-0.91,5.54,0.31c0.89,0.61,1.29,1.51,1.37,2.54
		c0.17,2.08-0.63,3.75-2.33,4.94c-1.69,1.19-3.52,1.41-5.43,0.53C87.2,22.59,86.52,21.38,86.56,19.73z"/>
	<path class="st6" d="M33.54,35.47c0.48,0.29,0.93,0.56,1.31,0.92c1.16,1.07,1.37,2.4,1.06,3.87c-0.07,0.34-0.18,0.67-0.29,0.99
		c-0.8,2.17-2.32,3.27-4.64,3.37c-1.1,0.05-2.18-0.06-3.25-0.27c-0.3-0.06-0.36,0.05-0.41,0.29c-0.26,1.06-0.53,2.11-0.78,3.17
		c-0.07,0.28-0.15,0.38-0.45,0.29c-0.55-0.16-1.1-0.31-1.66-0.42c-0.3-0.06-0.31-0.17-0.24-0.43c0.28-1.04,0.52-2.09,0.79-3.12
		c0.08-0.29,0.01-0.4-0.28-0.46c-0.38-0.07-0.75-0.17-1.12-0.29c-0.29-0.09-0.42-0.03-0.49,0.28c-0.24,1.05-0.52,2.08-0.77,3.13
		c-0.06,0.27-0.15,0.35-0.43,0.26c-0.52-0.16-1.05-0.31-1.59-0.39c-0.4-0.06-0.4-0.24-0.32-0.56c0.27-1,0.5-2.01,0.77-3.01
		c0.09-0.34,0.03-0.47-0.32-0.56c-1.33-0.31-2.65-0.67-3.98-0.99c-0.27-0.07-0.3-0.14-0.19-0.39c0.32-0.69,0.62-1.38,0.9-2.08
		c0.09-0.22,0.18-0.3,0.44-0.22c0.46,0.14,0.92,0.25,1.39,0.34c0.64,0.12,0.97-0.11,1.13-0.75c0.43-1.7,0.85-3.4,1.27-5.1
		c0.41-1.65,0.82-3.29,1.23-4.94c0.2-0.79-0.09-1.34-0.86-1.58c-0.49-0.16-1-0.29-1.5-0.39c-0.31-0.06-0.35-0.19-0.27-0.46
		c0.17-0.6,0.31-1.21,0.45-1.81c0.06-0.25,0.15-0.31,0.41-0.24c1.36,0.35,2.73,0.67,4.1,1.02c0.24,0.06,0.32,0.02,0.38-0.22
		c0.25-1.07,0.54-2.14,0.79-3.21c0.06-0.26,0.15-0.35,0.42-0.27c0.56,0.16,1.13,0.3,1.7,0.43c0.27,0.06,0.3,0.17,0.24,0.41
		c-0.27,1.04-0.51,2.09-0.79,3.12c-0.07,0.27,0,0.34,0.24,0.39c0.43,0.08,0.86,0.18,1.28,0.3c0.23,0.06,0.3,0.02,0.35-0.21
		c0.25-1.04,0.53-2.08,0.77-3.13c0.06-0.25,0.15-0.34,0.4-0.27c0.58,0.16,1.15,0.31,1.74,0.44c0.25,0.05,0.28,0.14,0.22,0.38
		c-0.28,1.05-0.52,2.11-0.8,3.16c-0.08,0.29-0.01,0.41,0.28,0.52c1.02,0.36,1.99,0.82,2.84,1.5c1.86,1.49,2.09,4.27,0.5,6.04
		C34.99,34.92,34.33,35.26,33.54,35.47z M28.4,41.25c0.16-0.01,0.46-0.03,0.76-0.07c1.52-0.23,2.41-1.52,1.96-2.86
		c-0.26-0.78-0.87-1.25-1.56-1.63c-1.28-0.7-2.69-0.98-4.08-1.31c-0.21-0.05-0.28,0.04-0.32,0.23c-0.38,1.55-0.76,3.09-1.16,4.63
		c-0.04,0.16-0.03,0.25,0.14,0.29C25.49,40.87,26.84,41.22,28.4,41.25z M29.32,33.6c0.09,0,0.19,0,0.28,0
		c1.5-0.08,2.39-0.92,2.35-2.25c-0.03-0.86-0.55-1.41-1.24-1.83c-1.07-0.66-2.29-0.9-3.49-1.17c-0.19-0.04-0.26,0.04-0.3,0.21
		c-0.34,1.38-0.68,2.75-1.03,4.13c-0.05,0.18-0.02,0.29,0.19,0.35C27.14,33.31,28.2,33.58,29.32,33.6z"/>
	<path class="st7" d="M28.4,41.25c-1.56-0.03-2.91-0.38-4.26-0.73c-0.17-0.04-0.19-0.13-0.14-0.29c0.39-1.54,0.78-3.09,1.16-4.63
		c0.05-0.19,0.12-0.28,0.32-0.23c1.4,0.33,2.81,0.62,4.08,1.31c0.69,0.38,1.3,0.85,1.56,1.63c0.45,1.34-0.44,2.63-1.96,2.86
		C28.86,41.23,28.56,41.24,28.4,41.25z"/>
	<path class="st7" d="M29.32,33.6c-1.11-0.01-2.18-0.29-3.25-0.56c-0.21-0.05-0.23-0.16-0.19-0.35c0.35-1.37,0.69-2.75,1.03-4.13
		c0.04-0.17,0.11-0.26,0.3-0.21c1.2,0.28,2.42,0.52,3.49,1.17c0.69,0.42,1.21,0.96,1.24,1.83c0.04,1.33-0.84,2.17-2.35,2.25
		C29.5,33.6,29.41,33.6,29.32,33.6z"/>
</g>
</svg>
