<?xml version="1.0" encoding="utf-8"?>
<!-- Generator: Adobe Illustrator 26.0.1, SVG Export Plug-In . SVG Version: 6.00 Build 0)  -->
<svg version="1.1" id="Layer_1" xmlns="http://www.w3.org/2000/svg" xmlns:xlink="http://www.w3.org/1999/xlink" x="0px" y="0px"
	 viewBox="0 0 216 70.17" style="enable-background:new 0 0 216 70.17;" xml:space="preserve">
<style type="text/css">
	.st0{fill-rule:evenodd;clip-rule:evenodd;fill:#097939;}
	.st1{fill-rule:evenodd;clip-rule:evenodd;fill:#ED752E;}
	.st2{fill-rule:evenodd;clip-rule:evenodd;fill:#FFFFFF;}
	.st3{fill:#FFFFFF;}
	.st4{fill:#F37920;}
	.st5{fill:#028C44;}
	.st6{fill:#FEFEFE;}
	.st7{fill:#F6931A;}
	.st8{fill:#8891B1;}
	.st9{fill:#63688E;}
	.st10{fill:#464A75;}
	.st11{fill:#27A17C;}
	.st12{fill:#FBFEFD;}
</style>
<g>
	<path class="st11" d="M34.26,5.99C50.27,5.97,63.33,18.98,63.36,35c0.03,16.12-13.01,29.24-29.11,29.18
		C17.69,64.12,5.2,50.74,5.14,35.17C5.08,19.36,17.89,6,34.26,5.99z M33.82,20.31c-4.23,0-8.46,0-12.69,0c-0.8,0-0.8,0.01-0.81,0.82
		c-0.01,1.54-0.01,3.09,0,4.63c0.01,1.24-0.16,1.14,1.13,1.14c2.66,0,5.31,0,7.97,0c0.76,0,0.77,0.01,0.77,0.77
		c0.01,0.99-0.01,1.98,0.01,2.96c0.01,0.42-0.12,0.61-0.57,0.62c-1.51,0.03-3.02,0.2-4.52,0.38c-2.24,0.28-4.45,0.66-6.58,1.45
		c-0.61,0.23-1.2,0.49-1.72,0.89c-0.93,0.74-0.93,1.47-0.01,2.19c0.62,0.48,1.33,0.77,2.06,1.02c2.44,0.83,4.97,1.21,7.52,1.47
		c1.07,0.11,2.15,0.17,3.23,0.24c0.42,0.03,0.62,0.19,0.58,0.63c-0.02,0.21,0,0.43,0,0.65c0,3.83,0,7.66,0,11.48
		c0,0.22,0.01,0.43,0,0.65c-0.02,0.37,0.16,0.48,0.5,0.48c2.04-0.01,4.08-0.01,6.11,0c0.46,0,0.61-0.19,0.57-0.61
		c-0.02-0.21,0-0.43,0-0.65c0-3.89,0-7.78,0-11.67c0-0.93,0-0.95,0.89-0.98c1.95-0.08,3.88-0.29,5.8-0.6
		c1.8-0.28,3.58-0.66,5.28-1.34c0.52-0.21,1.02-0.45,1.45-0.82c0.83-0.7,0.84-1.4,0.02-2.08c-0.41-0.34-0.87-0.58-1.36-0.78
		c-1.17-0.5-2.39-0.82-3.63-1.07c-2.54-0.52-5.12-0.8-7.71-0.94c-0.71-0.04-0.72-0.04-0.73-0.73c-0.01-0.96-0.01-1.91,0-2.87
		c0.01-0.74,0.02-0.75,0.79-0.75c2.66-0.01,5.31,0,7.97,0c1.32,0,1.1,0.02,1.12-1.07c0-0.28,0-0.56,0-0.83c0-1.3,0-2.59,0-3.89
		c0-0.78-0.01-0.78-0.73-0.8c-0.15,0-0.31,0-0.46,0C41.97,20.31,37.9,20.31,33.82,20.31z"/>
	<path class="st3" d="M115.37,50.07c-0.71,0.8-1.59,1.42-2.54,1.94c-3.05,1.65-6.31,2.24-9.75,1.92c-1.64-0.16-3.23-0.51-4.73-1.2
		c-3.02-1.38-5.11-3.62-6.19-6.76c-1.07-3.13-1.16-6.3-0.17-9.46c1.23-3.93,3.86-6.55,7.77-7.81c3.01-0.97,6.09-0.97,9.13-0.1
		c4.39,1.26,6.85,4.3,7.74,8.69c0.35,1.7,0.45,3.42,0.29,5.16c-0.08,0.79-0.08,0.8-0.87,0.8c-4.23,0-8.46,0-12.69,0
		c-1.64,0-3.27,0-4.91,0c-0.8,0-0.85,0.08-0.62,0.85c0.49,1.64,1.55,2.79,3.08,3.51c2.32,1.08,4.72,1.07,7.14,0.41
		c1.14-0.31,2.22-0.76,3.15-1.51c0.19-0.15,0.36-0.37,0.62-0.1C112.99,47.62,114.17,48.84,115.37,50.07z M97.77,38.1
		c0.22,0.03,0.34,0.06,0.46,0.06c4.03,0,8.07,0.01,12.1,0c0.63,0,0.7-0.09,0.55-0.7c-0.44-1.78-1.57-2.96-3.28-3.59
		c-1.48-0.55-3.03-0.61-4.56-0.34C100.45,33.98,98.63,35.41,97.77,38.1z"/>
	<path class="st3" d="M188.63,50.08c-0.6,0.7-1.35,1.24-2.15,1.71c-3.08,1.8-6.42,2.45-9.96,2.16c-1.23-0.1-2.45-0.32-3.62-0.72
		c-4.5-1.54-7.14-4.7-8.03-9.32c-0.46-2.39-0.42-4.79,0.3-7.14c1.41-4.65,4.58-7.42,9.28-8.45c2.35-0.52,4.72-0.46,7.07,0.1
		c4.5,1.08,7.2,3.94,8.29,8.38c0.47,1.91,0.49,3.85,0.38,5.8c-0.03,0.62-0.06,0.63-0.74,0.63c-1.51,0.01-3.02,0-4.54,0
		c-4.35,0-8.7,0-13.05,0c-1.01,0-1.02,0.01-0.72,0.96c0.54,1.7,1.68,2.85,3.3,3.53c2.45,1.02,4.94,0.92,7.42,0.13
		c0.94-0.3,1.84-0.72,2.61-1.35c0.19-0.16,0.36-0.35,0.62-0.08C186.26,47.63,187.44,48.85,188.63,50.08z M184.26,38.03
		c-0.36-2.16-1.54-3.57-3.58-4.21c-1.97-0.62-3.94-0.58-5.89,0.13c-0.94,0.34-1.74,0.91-2.41,1.66c-0.52,0.58-0.91,1.24-1.18,1.97
		c-0.18,0.49-0.12,0.56,0.43,0.59c0.12,0.01,0.25,0,0.37,0c3.79,0,7.58,0,11.36,0C183.64,38.16,183.93,38.22,184.26,38.03z"/>
	<path class="st3" d="M144.05,31.78c0.34-0.05,0.42-0.23,0.53-0.36c1.89-2.11,4.3-3.03,7.09-3.03c1.05,0,2.1,0.09,3.12,0.35
		c2.72,0.7,4.63,2.36,5.79,4.91c0.87,1.92,1.2,3.96,1.23,6.04c0.05,4.32,0.02,8.64,0.02,12.96c0,0.66-0.02,0.68-0.66,0.68
		c-1.57,0.01-3.15,0.01-4.72,0c-0.7,0-0.71-0.01-0.71-0.71c0-3.98-0.01-7.96,0-11.95c0-0.75-0.06-1.48-0.2-2.21
		c-0.74-3.84-3.72-4.74-6.33-4.34c-2.88,0.44-4.96,2.9-5.14,5.96c-0.06,0.98-0.03,1.97-0.03,2.96c0,3.18,0,6.36,0,9.54
		c0,0.75-0.01,0.76-0.77,0.76c-1.54,0.01-3.09,0.01-4.63,0c-0.68,0-0.69-0.02-0.69-0.64c0-11.2,0-22.41,0-33.61
		c0-0.65,0.02-0.67,0.67-0.67c1.57-0.01,3.15-0.01,4.72,0c0.69,0,0.71,0.02,0.71,0.72c0,3.86,0,7.72,0,11.58
		C144.05,31.05,144.05,31.38,144.05,31.78z"/>
	<path class="st3" d="M88.17,47.69c0.54,1.65,1.05,3.2,1.57,4.74c0.11,0.34,0.01,0.52-0.31,0.63c-0.87,0.31-1.76,0.58-2.68,0.7
		c-1.5,0.2-3.01,0.28-4.51-0.03c-3.34-0.68-5.25-2.78-5.98-6.05c-0.23-1.03-0.27-2.08-0.28-3.13c-0.01-2.72,0-5.43,0-8.15
		c0-0.31,0-0.62,0-0.93c-0.01-1.28,0.12-1.16-1.12-1.17c-0.93,0-1.85,0.01-2.78,0c-0.65-0.01-0.66-0.02-0.67-0.68
		c-0.01-1.33,0.01-2.65-0.01-3.98c-0.01-0.49,0.18-0.63,0.65-0.62c1.02,0.03,2.04,0.01,3.06,0.01c0.87,0,0.87-0.01,0.87-0.84
		c0-1.57,0-3.15,0-4.72c0-0.73,0.01-0.76,0.74-0.84c1.59-0.18,3.19-0.32,4.79-0.51c0.47-0.06,0.59,0.1,0.58,0.54
		c-0.02,1.85-0.01,3.7-0.01,5.55c0,0.8,0.01,0.81,0.81,0.81c1.7,0.01,3.4,0,5.09,0c0.87,0,0.88,0.01,0.88,0.83c0,1.2,0,2.41,0,3.61
		c0,0.81-0.01,0.82-0.8,0.83c-1.73,0.01-3.46,0-5.19,0c-0.85,0-0.86,0.01-0.86,0.87c0,3.18,0,6.36,0,9.54c0,0.37,0.02,0.74,0.09,1.1
		c0.36,1.84,1.67,2.8,3.54,2.58C86.49,48.32,87.29,48.12,88.17,47.69z"/>
	<path class="st3" d="M127.77,21.89c0.15,0.32,0.08,0.67,0.08,1c0.01,1.73,0,3.46,0.01,5.18c0,0.71,0.02,0.72,0.73,0.72
		c1.76,0.01,3.52,0,5.28,0.01c0.76,0,0.76,0.01,0.77,0.76c0.01,1.23,0.01,2.47,0,3.7c0,0.76-0.01,0.77-0.75,0.77
		c-1.76,0.01-3.52,0-5.28,0c-0.81,0-0.82,0.01-0.82,0.8c0,3.24-0.02,6.48,0,9.72c0.02,2.76,1.69,4.07,4.37,3.46
		c0.48-0.11,0.94-0.28,1.41-0.44c0.25-0.08,0.41-0.03,0.49,0.23c0.48,1.47,0.96,2.93,1.45,4.39c0.12,0.36-0.07,0.48-0.37,0.59
		c-1.25,0.48-2.55,0.74-3.87,0.84c-1.17,0.09-2.35,0.07-3.5-0.21c-3.19-0.76-5.03-2.82-5.74-5.97c-0.25-1.12-0.28-2.26-0.28-3.41
		c-0.01-3.06,0-6.11,0-9.17c0-0.84-0.01-0.84-0.87-0.85c-1.02,0-2.04-0.02-3.06,0.01c-0.45,0.01-0.67-0.08-0.66-0.6
		c0.03-1.36,0.03-2.72,0-4.07c-0.01-0.46,0.17-0.58,0.6-0.57c1.05,0.02,2.1,0.01,3.15,0c0.82-0.01,0.83-0.01,0.84-0.81
		c0.01-1.57,0-3.15,0-4.72c0-0.84,0.01-0.83,0.86-0.91c1.47-0.15,2.94-0.32,4.42-0.48C127.28,21.86,127.52,21.78,127.77,21.89z"/>
	<path class="st3" d="M199.71,31.43c0.15-0.17,0.23-0.26,0.3-0.36c1.19-1.68,2.83-2.64,4.86-2.88c2.42-0.29,4.74,0.03,6.87,1.31
		c0.32,0.19,0.6,0.43,0.9,0.65c0.24,0.17,0.27,0.38,0.14,0.64c-0.84,1.61-1.68,3.22-2.5,4.79c-0.25,0.07-0.35-0.07-0.46-0.16
		c-1.98-1.5-4.18-1.58-6.43-0.89c-2.3,0.7-3.62,2.66-3.71,5.31c-0.05,1.45-0.02,2.9-0.02,4.35c0,2.81,0,5.62,0,8.43
		c0,0.7-0.01,0.71-0.72,0.71c-1.51,0.01-3.03,0.01-4.54,0c-0.84,0-0.84-0.01-0.84-0.87c0-5.83,0-11.67,0-17.5c0-1.85,0-3.7,0-5.56
		c0-0.67,0.02-0.68,0.66-0.69c1.45-0.01,2.9,0.02,4.35,0c0.51-0.01,0.68,0.17,0.75,0.67C199.42,30.03,199.45,30.68,199.71,31.43z"/>
	<path class="st12" d="M33.82,20.31c4.08,0,8.15,0,12.23,0c0.15,0,0.31,0,0.46,0c0.72,0.02,0.73,0.02,0.73,0.8
		c0.01,1.3,0,2.59,0,3.89c0,0.28,0,0.56,0,0.83c-0.02,1.09,0.2,1.07-1.12,1.07c-2.66,0-5.31,0-7.97,0c-0.77,0-0.78,0.01-0.79,0.75
		c-0.01,0.96-0.01,1.91,0,2.87c0.01,0.69,0.02,0.69,0.73,0.73c2.59,0.14,5.17,0.42,7.71,0.94c1.24,0.26,2.46,0.57,3.63,1.07
		c0.49,0.21,0.95,0.44,1.36,0.78c0.82,0.68,0.81,1.38-0.02,2.08c-0.43,0.36-0.93,0.61-1.45,0.82c-1.7,0.68-3.48,1.06-5.28,1.34
		c-1.92,0.3-3.85,0.52-5.8,0.6c-0.88,0.04-0.89,0.05-0.89,0.98c0,3.89,0,7.78,0,11.67c0,0.22-0.02,0.43,0,0.65
		c0.04,0.42-0.11,0.61-0.57,0.61c-2.04-0.02-4.08-0.01-6.11,0c-0.34,0-0.52-0.11-0.5-0.48c0.01-0.22,0-0.43,0-0.65
		c0-3.83,0-7.66,0-11.48c0-0.22-0.02-0.43,0-0.65c0.05-0.44-0.16-0.61-0.58-0.63c-1.08-0.07-2.16-0.13-3.23-0.24
		c-2.55-0.26-5.08-0.64-7.52-1.47c-0.73-0.25-1.45-0.54-2.06-1.02c-0.93-0.73-0.92-1.45,0.01-2.19c0.51-0.41,1.11-0.67,1.72-0.89
		c2.13-0.78,4.34-1.17,6.58-1.45c1.5-0.19,3-0.36,4.52-0.38c0.45-0.01,0.58-0.2,0.57-0.62c-0.02-0.99,0-1.98-0.01-2.96
		c-0.01-0.76-0.01-0.77-0.77-0.77c-2.66-0.01-5.31,0-7.97,0c-1.3,0-1.13,0.1-1.13-1.14c-0.01-1.54-0.01-3.09,0-4.63
		c0-0.81,0.01-0.82,0.81-0.82C25.36,20.31,29.59,20.31,33.82,20.31z M33.74,37.79c0.86,0,1.73,0.01,2.59,0
		c3.15-0.05,6.28-0.33,9.37-0.98c1.15-0.24,2.29-0.52,3.31-1.15c0.94-0.58,0.93-1.25-0.01-1.83c-0.72-0.44-1.51-0.69-2.32-0.9
		c-2.88-0.74-5.82-1.03-8.79-1.17c-0.43-0.02-0.53,0.14-0.52,0.52c0.01,1.2,0.01,2.41,0,3.61c-0.01,0.66-0.02,0.69-0.67,0.72
		c-1.94,0.08-3.89,0.08-5.83-0.01c-0.65-0.03-0.67-0.05-0.67-0.7c-0.01-1.14,0-2.28-0.01-3.43c-0.01-0.71-0.02-0.71-0.72-0.69
		c-1.76,0.04-3.51,0.23-5.25,0.48c-1.65,0.24-3.29,0.52-4.85,1.15c-0.46,0.18-0.92,0.38-1.27,0.75c-0.41,0.43-0.41,0.78,0.01,1.2
		c0.36,0.36,0.81,0.55,1.27,0.74c1.09,0.44,2.24,0.69,3.39,0.9C26.4,37.66,30.07,37.8,33.74,37.79z"/>
	<path class="st11" d="M33.74,37.79c-3.67,0.01-7.34-0.13-10.97-0.8c-1.15-0.21-2.3-0.47-3.39-0.9c-0.46-0.18-0.92-0.38-1.27-0.74
		c-0.42-0.42-0.42-0.78-0.01-1.2c0.35-0.36,0.81-0.56,1.27-0.75c1.56-0.63,3.2-0.91,4.85-1.15c1.74-0.25,3.49-0.44,5.25-0.48
		c0.71-0.01,0.72-0.01,0.72,0.69c0.01,1.14-0.01,2.28,0.01,3.43c0.01,0.65,0.02,0.68,0.67,0.7c1.94,0.08,3.89,0.08,5.83,0.01
		c0.64-0.03,0.66-0.05,0.67-0.72c0.01-1.2,0.01-2.41,0-3.61c0-0.38,0.09-0.54,0.52-0.52c2.96,0.15,5.9,0.44,8.79,1.17
		c0.81,0.21,1.6,0.46,2.32,0.9c0.94,0.58,0.95,1.26,0.01,1.83c-1.01,0.62-2.16,0.91-3.31,1.15c-3.09,0.65-6.22,0.93-9.37,0.98
		C35.47,37.8,34.6,37.79,33.74,37.79z"/>
</g>
</svg>
